<svg width="1228" height="612" viewBox="0 0 1228 612" fill="none" xmlns="http://www.w3.org/2000/svg">
<rect width="1228" height="612" fill="#F5F5F5"/>
<g clip-path="url(#clip0_0_1)">
<rect width="1299" height="1919" transform="translate(0 -837)" fill="white"/>
<text fill="black" xml:space="preserve" style="white-space: pre" font-family="Inter" font-size="35" letter-spacing="0em"><tspan x="560" y="34.7273">the</tspan></text>
<text fill="black" xml:space="preserve" style="white-space: pre" font-family="Inter" font-size="35" letter-spacing="0em"><tspan x="622" y="34.7273">right</tspan></text>
<text fill="black" xml:space="preserve" style="white-space: pre" font-family="Inter" font-size="35" letter-spacing="0em"><tspan x="710" y="34.7273">problem</tspan></text>
<text fill="black" xml:space="preserve" style="white-space: pre" font-family="Inter" font-size="35" letter-spacing="0em"><tspan x="853" y="34.7273">is</tspan></text>
<text fill="black" xml:space="preserve" style="white-space: pre" font-family="Inter" font-size="35" letter-spacing="0em"><tspan x="890" y="34.7273">difficult</tspan></text>
<text fill="black" xml:space="preserve" style="white-space: pre" font-family="Inter" font-size="35" letter-spacing="0em"><tspan x="427" y="34.7273">Solving</tspan></text>
<rect x="417.5" y="0.5" width="604" height="47" stroke="black"/>
<line x1="554.5" y1="2.18557e-08" x2="554.5" y2="47" stroke="black"/>
<line x1="618.5" y1="1" x2="618.5" y2="48" stroke="black"/>
<line x1="704.5" y1="2.18557e-08" x2="704.5" y2="47" stroke="black"/>
<line x1="847.5" y1="2.18557e-08" x2="847.5" y2="47" stroke="black"/>
<line x1="884.5" y1="2.18557e-08" x2="884.5" y2="47" stroke="black"/>
<text fill="black" xml:space="preserve" style="white-space: pre" font-family="Inter" font-size="25" letter-spacing="0em"><tspan x="403" y="151.37">right </tspan></text>
<text fill="black" xml:space="preserve" style="white-space: pre" font-family="Inter" font-size="25" letter-spacing="0em"><tspan x="357" y="151.37">the </tspan></text>
<text fill="black" xml:space="preserve" style="white-space: pre" font-family="Inter" font-size="25" letter-spacing="0em"><tspan x="264" y="151.37">Solving </tspan></text>
<rect x="255.5" y="125.779" width="214" height="35" stroke="black" stroke-dasharray="2 2"/>
<line x1="353.307" y1="125" x2="353.307" y2="160.269" stroke="black" stroke-dasharray="2 2"/>
<line x1="398.333" y1="125.75" x2="398.333" y2="161.02" stroke="black" stroke-dasharray="2 2"/>
<text fill="black" xml:space="preserve" style="white-space: pre" font-family="Inter" font-size="25" letter-spacing="0em"><tspan x="515" y="151.37">the </tspan></text>
<text fill="black" xml:space="preserve" style="white-space: pre" font-family="Inter" font-size="25" letter-spacing="0em"><tspan x="562" y="151.37">right</tspan></text>
<text fill="black" xml:space="preserve" style="white-space: pre" font-family="Inter" font-size="25" letter-spacing="0em"><tspan x="624.611" y="151.091">problem</tspan></text>
<rect x="507.5" y="125.779" width="214" height="35" stroke="black" stroke-dasharray="2 2"/>
<line x1="557.307" y1="125" x2="557.307" y2="160.269" stroke="black" stroke-dasharray="2 2"/>
<line x1="619.333" y1="125.75" x2="619.333" y2="161.02" stroke="black" stroke-dasharray="2 2"/>
<text fill="black" xml:space="preserve" style="white-space: pre" font-family="Inter" font-size="25" letter-spacing="0em"><tspan x="766.405" y="151.37">right </tspan></text>
<text fill="black" xml:space="preserve" style="white-space: pre" font-family="Inter" font-size="25" letter-spacing="0em"><tspan x="828.611" y="151.091">problem</tspan></text>
<text fill="black" xml:space="preserve" style="white-space: pre" font-family="Inter" font-size="25" letter-spacing="0em"><tspan x="933.405" y="151.37">is</tspan></text>
<rect x="759.5" y="125.779" width="198" height="35" stroke="black" stroke-dasharray="2 2"/>
<line x1="824.409" y1="125" x2="824.409" y2="160.269" stroke="black" stroke-dasharray="2 2"/>
<line x1="927.769" y1="125.75" x2="927.769" y2="161.02" stroke="black" stroke-dasharray="2 2"/>
<text fill="black" xml:space="preserve" style="white-space: pre" font-family="Inter" font-size="25" letter-spacing="0em"><tspan x="1003" y="151.091">problem </tspan></text>
<text fill="black" xml:space="preserve" style="white-space: pre" font-family="Inter" font-size="25" letter-spacing="0em"><tspan x="1106" y="151.091">is</tspan></text>
<text fill="black" xml:space="preserve" style="white-space: pre" font-family="Inter" font-size="25" letter-spacing="0em"><tspan x="1134" y="151.091">difficult</tspan></text>
<rect x="995.5" y="125.779" width="230.609" height="35" stroke="black" stroke-dasharray="2 2"/>
<line x1="1102.86" y1="125" x2="1102.86" y2="160.269" stroke="black" stroke-dasharray="2 2"/>
<line x1="1130.37" y1="125.75" x2="1130.37" y2="161.02" stroke="black" stroke-dasharray="2 2"/>
<path d="M358.025 114.779C357.903 115.318 358.24 115.853 358.779 115.975L367.556 117.965C368.095 118.087 368.631 117.749 368.753 117.211C368.875 116.672 368.537 116.136 367.998 116.014L360.196 114.246L361.965 106.444C362.087 105.905 361.749 105.369 361.211 105.247C360.672 105.125 360.136 105.463 360.014 106.002L358.025 114.779ZM450.467 56.1541L358.467 114.154L359.533 115.846L451.533 57.8459L450.467 56.1541Z" fill="black"/>
<path d="M1119.33 115.944C1119.85 115.763 1120.13 115.193 1119.94 114.671L1116.98 106.172C1116.8 105.65 1116.23 105.375 1115.71 105.556C1115.19 105.738 1114.91 106.308 1115.1 106.83L1117.73 114.385L1110.17 117.016C1109.65 117.198 1109.37 117.768 1109.56 118.289C1109.74 118.811 1110.31 119.086 1110.83 118.905L1119.33 115.944ZM998.565 57.9003L1118.56 115.9L1119.44 114.1L999.435 56.0997L998.565 57.9003Z" fill="black"/>
<path d="M691.52 351.854C691.992 351.567 692.141 350.952 691.854 350.48L687.174 342.793C686.887 342.321 686.272 342.171 685.8 342.458C685.328 342.746 685.179 343.361 685.466 343.833L689.626 350.666L682.793 354.826C682.321 355.113 682.171 355.728 682.458 356.2C682.746 356.672 683.361 356.821 683.833 356.534L691.52 351.854ZM361.764 271.972L690.764 351.972L691.236 350.028L362.236 270.028L361.764 271.972Z" fill="black"/>
<path d="M715.103 349.995C715.652 349.938 716.052 349.446 715.995 348.897L715.069 339.945C715.012 339.396 714.52 338.996 713.971 339.053C713.422 339.11 713.022 339.601 713.079 340.151L713.902 348.108L705.945 348.931C705.396 348.988 704.996 349.48 705.053 350.029C705.11 350.578 705.601 350.978 706.151 350.921L715.103 349.995ZM618.369 271.776L714.369 349.776L715.631 348.224L619.631 270.224L618.369 271.776Z" fill="black"/>
<path d="M756.011 348.85C755.928 349.396 756.304 349.906 756.85 349.989L765.747 351.343C766.293 351.426 766.803 351.05 766.886 350.504C766.969 349.958 766.594 349.448 766.048 349.365L758.139 348.162L759.343 340.253C759.426 339.707 759.05 339.197 758.504 339.114C757.958 339.031 757.448 339.406 757.365 339.952L756.011 348.85ZM862.407 270.195L756.407 348.195L757.593 349.805L863.593 271.805L862.407 270.195Z" fill="black"/>
<path d="M780.149 350.475C779.859 350.945 780.005 351.561 780.475 351.851L788.133 356.578C788.603 356.868 789.219 356.722 789.51 356.252C789.8 355.782 789.654 355.166 789.184 354.876L782.376 350.674L786.578 343.867C786.868 343.397 786.722 342.78 786.252 342.49C785.782 342.2 785.166 342.346 784.876 342.816L780.149 350.475ZM1118.77 270.027L780.77 350.027L781.23 351.973L1119.23 271.973L1118.77 270.027Z" fill="black"/>
<path d="M616.293 115.707C616.683 116.098 617.317 116.098 617.707 115.707L624.071 109.343C624.462 108.953 624.462 108.319 624.071 107.929C623.681 107.538 623.047 107.538 622.657 107.929L617 113.586L611.343 107.929C610.953 107.538 610.319 107.538 609.929 107.929C609.538 108.319 609.538 108.953 609.929 109.343L616.293 115.707ZM616 57L616 115L618 115L618 57L616 57Z" fill="black"/>
<path d="M861.293 115.707C861.683 116.098 862.317 116.098 862.707 115.707L869.071 109.343C869.462 108.953 869.462 108.319 869.071 107.929C868.681 107.538 868.047 107.538 867.657 107.929L862 113.586L856.343 107.929C855.953 107.538 855.319 107.538 854.929 107.929C854.538 108.319 854.538 108.953 854.929 109.343L861.293 115.707ZM861 57L861 115L863 115L863 57L861 57Z" fill="black"/>
<rect x="295.5" y="238.5" width="127" height="20.8389" stroke="black"/>
<rect x="295.5" y="238.5" width="20.8389" height="20.8389" stroke="black"/>
<rect x="316.732" y="238.5" width="20.8389" height="20.8389" stroke="black"/>
<rect x="337.964" y="238.5" width="20.8389" height="20.8389" stroke="black"/>
<rect x="359.197" y="238.5" width="20.8389" height="20.8389" stroke="black"/>
<rect x="380.429" y="238.5" width="20.8389" height="20.8389" stroke="black"/>
<rect x="401.661" y="238.5" width="20.8389" height="20.8389" stroke="black"/>
<path d="M358.293 230.707C358.683 231.098 359.317 231.098 359.707 230.707L366.071 224.343C366.462 223.953 366.462 223.319 366.071 222.929C365.681 222.538 365.047 222.538 364.657 222.929L359 228.586L353.343 222.929C352.953 222.538 352.319 222.538 351.929 222.929C351.538 223.319 351.538 223.953 351.929 224.343L358.293 230.707ZM358 172L358 230L360 230L360 172L358 172Z" fill="black"/>
<rect x="553.5" y="238.5" width="127" height="20.8389" stroke="black"/>
<rect x="553.5" y="238.5" width="20.8389" height="20.8389" stroke="black"/>
<rect x="574.732" y="238.5" width="20.8389" height="20.8389" stroke="black"/>
<rect x="595.964" y="238.5" width="20.8389" height="20.8389" stroke="black"/>
<rect x="617.197" y="238.5" width="20.8389" height="20.8389" stroke="black"/>
<rect x="638.429" y="238.5" width="20.8389" height="20.8389" stroke="black"/>
<rect x="659.661" y="238.5" width="20.8389" height="20.8389" stroke="black"/>
<rect x="672.5" y="364.5" width="127" height="20.8389" stroke="black"/>
<rect x="672.5" y="364.5" width="20.8389" height="20.8389" stroke="black"/>
<rect x="693.732" y="364.5" width="20.8389" height="20.8389" stroke="black"/>
<rect x="714.964" y="364.5" width="20.8389" height="20.8389" stroke="black"/>
<rect x="736.197" y="364.5" width="20.8389" height="20.8389" stroke="black"/>
<rect x="757.429" y="364.5" width="20.8389" height="20.8389" stroke="black"/>
<rect x="778.661" y="364.5" width="20.8389" height="20.8389" stroke="black"/>
<path d="M616.293 230.707C616.683 231.098 617.317 231.098 617.707 230.707L624.071 224.343C624.462 223.953 624.462 223.319 624.071 222.929C623.681 222.538 623.047 222.538 622.657 222.929L617 228.586L611.343 222.929C610.953 222.538 610.319 222.538 609.929 222.929C609.538 223.319 609.538 223.953 609.929 224.343L616.293 230.707ZM616 172L616 230L618 230L618 172L616 172Z" fill="black"/>
<path d="M736.293 460.707C736.683 461.098 737.317 461.098 737.707 460.707L744.071 454.343C744.462 453.953 744.462 453.319 744.071 452.929C743.681 452.538 743.047 452.538 742.657 452.929L737 458.586L731.343 452.929C730.953 452.538 730.319 452.538 729.929 452.929C729.538 453.319 729.538 453.953 729.929 454.343L736.293 460.707ZM736 402L736 460L738 460L738 402L736 402Z" fill="black"/>
<rect x="798.5" y="238.5" width="127" height="20.8389" stroke="black"/>
<rect x="798.5" y="238.5" width="20.8389" height="20.8389" stroke="black"/>
<rect x="819.732" y="238.5" width="20.8389" height="20.8389" stroke="black"/>
<rect x="840.964" y="238.5" width="20.8389" height="20.8389" stroke="black"/>
<rect x="862.197" y="238.5" width="20.8389" height="20.8389" stroke="black"/>
<rect x="883.429" y="238.5" width="20.8389" height="20.8389" stroke="black"/>
<rect x="904.661" y="238.5" width="20.8389" height="20.8389" stroke="black"/>
<path d="M861.293 230.707C861.683 231.098 862.317 231.098 862.707 230.707L869.071 224.343C869.462 223.953 869.462 223.319 869.071 222.929C868.681 222.538 868.047 222.538 867.657 222.929L862 228.586L856.343 222.929C855.953 222.538 855.319 222.538 854.929 222.929C854.538 223.319 854.538 223.953 854.929 224.343L861.293 230.707ZM861 172L861 230L863 230L863 172L861 172Z" fill="black"/>
<rect x="1055.5" y="238.5" width="127" height="20.8389" stroke="black"/>
<rect x="1055.5" y="238.5" width="20.8389" height="20.8389" stroke="black"/>
<rect x="1076.73" y="238.5" width="20.8389" height="20.8389" stroke="black"/>
<rect x="1097.96" y="238.5" width="20.8389" height="20.8389" stroke="black"/>
<rect x="1119.2" y="238.5" width="20.8389" height="20.8389" stroke="black"/>
<rect x="1140.43" y="238.5" width="20.8389" height="20.8389" stroke="black"/>
<rect x="1161.66" y="238.5" width="20.8389" height="20.8389" stroke="black"/>
<path d="M1118.29 230.707C1118.68 231.098 1119.32 231.098 1119.71 230.707L1126.07 224.343C1126.46 223.953 1126.46 223.319 1126.07 222.929C1125.68 222.538 1125.05 222.538 1124.66 222.929L1119 228.586L1113.34 222.929C1112.95 222.538 1112.32 222.538 1111.93 222.929C1111.54 223.319 1111.54 223.953 1111.93 224.343L1118.29 230.707ZM1118 172L1118 230L1120 230L1120 172L1118 172Z" fill="black"/>
<text fill="black" xml:space="preserve" style="white-space: pre" font-family="Quicksand" font-size="20" letter-spacing="0em"><tspan x="83.3281" y="147">create tokensets</tspan></text>
<text fill="black" xml:space="preserve" style="white-space: pre" font-family="Quicksand" font-size="20" letter-spacing="0em"><tspan x="53.8672" y="259">topic-tokenset similarity</tspan></text>
<text fill="black" xml:space="preserve" style="white-space: pre" font-family="Quicksand" font-size="20" letter-spacing="0em"><tspan x="397.668" y="380">document-topic distribution</tspan></text>
<text fill="black" xml:space="preserve" style="white-space: pre" font-family="Quicksand" font-size="20" letter-spacing="0em"><tspan x="203.906" y="549">multi-topic assignment </tspan><tspan x="266.602" y="574">on a token-level</tspan></text>
<rect x="453" y="528" width="82" height="24" fill="#F1F1F1"/>
<rect x="533" y="528" width="82" height="24" fill="#0A539E"/>
<rect x="615" y="528" width="82" height="24" fill="#85BCDC"/>
<rect x="697" y="528" width="82" height="24" fill="#EAF2FB"/>
<text fill="black" xml:space="preserve" style="white-space: pre" font-family="Quicksand" font-size="18" font-weight="bold" letter-spacing="0em"><tspan x="544" y="493.25">solving</tspan></text>
<text fill="black" xml:space="preserve" style="white-space: pre" font-family="Quicksand" font-size="16" font-weight="bold" letter-spacing="0em"><tspan x="467" y="545">topic 2</tspan></text>
<text fill="black" xml:space="preserve" style="white-space: pre" font-family="Quicksand" font-size="16" font-weight="bold" letter-spacing="0em"><tspan x="467" y="521">topic 1</tspan></text>
<text fill="black" xml:space="preserve" style="white-space: pre" font-family="Quicksand" font-size="16" font-weight="bold" letter-spacing="0em"><tspan x="467" y="569">topic 3</tspan></text>
<rect x="453" y="576" width="82" height="24" fill="#F1F1F1"/>
<text fill="black" xml:space="preserve" style="white-space: pre" font-family="Quicksand" font-size="16" font-weight="bold" letter-spacing="0em"><tspan x="467" y="593">topic 4</tspan></text>
<text fill="black" xml:space="preserve" style="white-space: pre" font-family="Quicksand" font-size="18" font-weight="bold" letter-spacing="0em"><tspan x="642" y="493.25">the</tspan></text>
<text fill="black" xml:space="preserve" style="white-space: pre" font-family="Quicksand" font-size="18" font-weight="bold" letter-spacing="0em"><tspan x="718" y="493.25">right</tspan></text>
<text fill="black" xml:space="preserve" style="white-space: pre" font-family="Quicksand" font-size="18" font-weight="bold" letter-spacing="0em"><tspan x="786" y="493.25">problem</tspan></text>
<text fill="black" xml:space="preserve" style="white-space: pre" font-family="Quicksand" font-size="18" font-weight="bold" letter-spacing="0em"><tspan x="895" y="493.25">is</tspan></text>
<text fill="black" xml:space="preserve" style="white-space: pre" font-family="Quicksand" font-size="18" font-weight="bold" letter-spacing="0em"><tspan x="952" y="493.25">difficult</tspan></text>
<line x1="453" y1="503" x2="1025" y2="503" stroke="#BDBDBD" stroke-width="2"/>
<text fill="black" xml:space="preserve" style="white-space: pre" font-family="Quicksand" font-size="12" letter-spacing="0em"><tspan x="559" y="545">0.75</tspan></text>
<text fill="black" xml:space="preserve" style="white-space: pre" font-family="Quicksand" font-size="12" letter-spacing="0em"><tspan x="645" y="545">0.32</tspan></text>
<text fill="black" xml:space="preserve" style="white-space: pre" font-family="Quicksand" font-size="12" letter-spacing="0em"><tspan x="726" y="545">0.16</tspan></text>
<rect x="615" y="576" width="82" height="24" fill="#D0E1F2"/>
<rect x="697" y="576" width="82" height="24" fill="#B7D4EA"/>
<rect x="779" y="576" width="82" height="24" fill="#0A539E"/>
<rect x="861" y="576" width="82" height="24" fill="#85BCDC"/>
<rect x="943" y="576" width="82" height="24" fill="#B7D4EA"/>
<text fill="black" xml:space="preserve" style="white-space: pre" font-family="Quicksand" font-size="12" letter-spacing="0em"><tspan x="645" y="593">0.21</tspan></text>
<text fill="black" xml:space="preserve" style="white-space: pre" font-family="Quicksand" font-size="12" letter-spacing="0em"><tspan x="726" y="593">0.29</tspan></text>
<text fill="black" xml:space="preserve" style="white-space: pre" font-family="Quicksand" font-size="12" letter-spacing="0em"><tspan x="805" y="593">0.81</tspan></text>
<text fill="black" xml:space="preserve" style="white-space: pre" font-family="Quicksand" font-size="12" letter-spacing="0em"><tspan x="892" y="593">0.47</tspan></text>
<text fill="black" xml:space="preserve" style="white-space: pre" font-family="Quicksand" font-size="12" letter-spacing="0em"><tspan x="972" y="593">0.26</tspan></text>
<rect x="861" y="504" width="82" height="24" fill="#EAF2FB"/>
<rect x="943" y="504" width="82" height="24" fill="#85BCDC"/>
<text fill="black" xml:space="preserve" style="white-space: pre" font-family="Quicksand" font-size="12" letter-spacing="0em"><tspan x="892" y="521">0.12</tspan></text>
<text fill="black" xml:space="preserve" style="white-space: pre" font-family="Quicksand" font-size="12" letter-spacing="0em"><tspan x="972" y="521">0.33</tspan></text>
</g>
<defs>
<clipPath id="clip0_0_1">
<rect width="1299" height="1919" fill="white" transform="translate(0 -837)"/>
</clipPath>
</defs>
</svg>
