<svg width="458" height="245" viewBox="0 0 458 245" fill="none" xmlns="http://www.w3.org/2000/svg">
<rect y="204" width="118" height="38" fill="#64B5F6"/>
<rect x="92" y="194" width="20" height="8" fill="#64B5F6"/>
<rect x="64" y="194" width="20" height="8" fill="#64B5F6"/>
<rect x="36" y="194" width="20" height="8" fill="#64B5F6"/>
<rect x="8" y="194" width="20" height="8" fill="#64B5F6"/>
<text fill="white" xml:space="preserve" style="white-space: pre" font-family="Tahoma" font-size="20" font-weight="bold" letter-spacing="0em"><tspan x="27.9355" y="231.939">SpaCy</tspan></text>
<rect x="132" y="204" width="118" height="38" fill="#64B5F6"/>
<rect x="224" y="194" width="20" height="8" fill="#64B5F6"/>
<rect x="196" y="194" width="20" height="8" fill="#64B5F6"/>
<rect x="168" y="194" width="20" height="8" fill="#64B5F6"/>
<rect x="140" y="194" width="20" height="8" fill="#64B5F6"/>
<text fill="white" xml:space="preserve" style="white-space: pre" font-family="Tahoma" font-size="20" font-weight="bold" letter-spacing="0em"><tspan x="158.256" y="231.939">SBERT</tspan></text>
<rect x="327" y="204" width="118" height="38" fill="#64B5F6"/>
<rect x="419" y="194" width="20" height="8" fill="#64B5F6"/>
<rect x="391" y="194" width="20" height="8" fill="#64B5F6"/>
<rect x="363" y="194" width="20" height="8" fill="#64B5F6"/>
<rect x="335" y="194" width="20" height="8" fill="#64B5F6"/>
<text fill="white" xml:space="preserve" style="white-space: pre" font-family="Tahoma" font-size="12" font-weight="bold" letter-spacing="0em"><tspan x="358.623" y="226.764">Transformers</tspan></text>
<circle cx="266.5" cy="222.5" r="5.5" fill="black"/>
<circle cx="285.5" cy="222.5" r="5.5" fill="black"/>
<circle cx="307.5" cy="222.5" r="5.5" fill="black"/>
<path d="M345.944 230.706C342.02 230.706 337.788 228.245 337.788 222.845C337.788 217.445 342.02 214.984 345.944 214.984C348.124 214.984 350.134 215.702 351.625 217.009C353.242 218.444 354.1 220.469 354.1 222.845C354.1 225.222 353.242 227.233 351.625 228.667C350.134 229.975 348.109 230.706 345.944 230.706Z" fill="url(#paint0_radial_22_799)"/>
<path d="M345.944 230.706C342.02 230.706 337.788 228.245 337.788 222.845C337.788 217.445 342.02 214.984 345.944 214.984C348.124 214.984 350.134 215.702 351.625 217.009C353.242 218.444 354.1 220.469 354.1 222.845C354.1 225.222 353.242 227.233 351.625 228.667C350.134 229.975 348.109 230.706 345.944 230.706Z" fill="url(#paint1_linear_22_799)"/>
<path d="M352.678 218.172C353.428 219.382 353.819 220.822 353.819 222.423C353.819 224.8 352.961 226.811 351.344 228.245C349.853 229.553 347.828 230.284 345.663 230.284C343.123 230.284 340.454 229.251 338.887 227.058C340.4 229.542 343.245 230.706 345.944 230.706C348.109 230.706 350.134 229.975 351.625 228.667C353.242 227.233 354.1 225.222 354.1 222.845C354.1 221.054 353.612 219.462 352.678 218.172V218.172Z" fill="#EB8F00"/>
<path opacity="0.8" d="M341.176 225.306C342.442 225.306 343.469 224.28 343.469 223.014C343.469 221.748 342.442 220.722 341.176 220.722C339.911 220.722 338.884 221.748 338.884 223.014C338.884 224.28 339.911 225.306 341.176 225.306Z" fill="url(#paint2_radial_22_799)"/>
<path opacity="0.8" d="M350.627 223.534C351.893 223.534 352.919 222.508 352.919 221.242C352.919 219.976 351.893 218.95 350.627 218.95C349.361 218.95 348.334 219.976 348.334 221.242C348.334 222.508 349.361 223.534 350.627 223.534Z" fill="url(#paint3_radial_22_799)"/>
<path d="M350.627 220.947C349.544 221.945 348.109 222.733 346.45 223.113C344.791 223.492 343.159 223.422 341.753 222.986C341.5 222.902 341.317 223.239 341.542 223.408C342.963 224.463 344.861 224.913 346.759 224.463C348.658 224.027 350.177 222.803 350.992 221.228C351.133 220.989 350.823 220.764 350.627 220.947V220.947Z" fill="#422B0D"/>
<path d="M343.82 220.638L343.792 220.609C343.778 220.595 343.75 220.581 343.722 220.553C343.694 220.539 343.666 220.511 343.638 220.497C343.609 220.469 343.567 220.441 343.525 220.413C343.483 220.384 343.441 220.356 343.399 220.342C343.356 220.314 343.314 220.3 343.272 220.3C343.23 220.286 343.202 220.286 343.188 220.286H343.159H343.145H343.174L343.103 220.3C343.089 220.3 343.103 220.3 343.103 220.3H343.117C343.131 220.3 343.117 220.3 343.117 220.3H343.103C343.089 220.314 343.061 220.328 343.033 220.342C343.005 220.37 342.963 220.398 342.934 220.427C342.906 220.455 342.878 220.497 342.85 220.539C342.794 220.623 342.752 220.694 342.724 220.75C342.695 220.806 342.667 220.834 342.667 220.834L342.639 220.891C342.499 221.13 342.189 221.228 341.936 221.102C341.767 221.017 341.669 220.863 341.655 220.694V220.539C341.669 220.441 341.683 220.3 341.739 220.131C341.795 219.963 341.894 219.752 342.077 219.555C342.175 219.456 342.288 219.344 342.428 219.273C342.456 219.245 342.499 219.231 342.541 219.217C342.583 219.203 342.611 219.175 342.667 219.161L342.738 219.133C342.766 219.119 342.794 219.119 342.808 219.119L342.878 219.105L342.92 219.091H342.977L343.047 219.077H343.174C343.258 219.077 343.342 219.077 343.427 219.091C343.595 219.119 343.736 219.175 343.863 219.231C344.116 219.358 344.27 219.513 344.397 219.639C344.453 219.709 344.509 219.766 344.538 219.822C344.58 219.878 344.608 219.934 344.636 219.977C344.664 220.019 344.664 220.047 344.678 220.061C344.678 220.075 344.692 220.089 344.692 220.089C344.791 220.342 344.65 220.623 344.369 220.722C344.172 220.792 343.961 220.75 343.82 220.638V220.638Z" fill="#422B0D"/>
<path d="M348.644 219.695L348.616 219.667C348.602 219.653 348.574 219.639 348.545 219.611C348.517 219.597 348.489 219.569 348.461 219.555C348.433 219.527 348.391 219.498 348.349 219.47C348.306 219.442 348.264 219.414 348.222 219.4C348.18 219.372 348.138 219.358 348.095 219.358C348.067 219.344 348.039 219.344 348.025 219.344H347.983H348.011L347.941 219.358C347.927 219.358 347.941 219.358 347.941 219.358H347.955C347.969 219.358 347.955 219.358 347.955 219.358H347.941C347.927 219.372 347.899 219.386 347.856 219.4C347.828 219.428 347.8 219.456 347.758 219.484C347.73 219.513 347.702 219.555 347.674 219.597C347.617 219.681 347.575 219.752 347.547 219.808C347.519 219.864 347.491 219.892 347.491 219.892L347.463 219.934C347.322 220.173 347.013 220.272 346.76 220.145C346.591 220.061 346.492 219.906 346.478 219.738C346.478 219.738 346.478 219.681 346.492 219.583C346.506 219.484 346.52 219.344 346.577 219.175C346.633 219.006 346.731 218.795 346.914 218.598C347.013 218.5 347.125 218.388 347.266 218.317C347.294 218.303 347.336 218.275 347.378 218.261C347.42 218.247 347.449 218.219 347.505 218.205L347.589 218.177C347.617 218.163 347.645 218.163 347.66 218.163L347.73 218.148L347.772 218.134H347.828L347.899 218.12H348.025C348.11 218.12 348.194 218.12 348.278 218.134C348.447 218.163 348.588 218.219 348.714 218.275C348.967 218.402 349.122 218.556 349.249 218.683C349.305 218.753 349.361 218.809 349.389 218.866C349.431 218.922 349.46 218.978 349.488 219.02C349.516 219.063 349.516 219.091 349.53 219.105C349.544 219.119 349.544 219.133 349.544 219.133C349.642 219.386 349.502 219.667 349.22 219.766C348.995 219.864 348.785 219.822 348.644 219.695V219.695Z" fill="#422B0D"/>
<path d="M343.029 225.62C342.993 225.27 343.009 225.07 342.74 225.007C342.439 224.936 342.171 225.152 342.089 225.46C341.874 226.284 342.24 226.859 342.24 226.859C341.719 226.756 341.285 226.25 341.285 226.25C341.013 225.931 340.631 225.138 340.367 224.811C340.206 224.613 339.943 224.451 339.682 224.588C339.055 224.917 339.749 226.036 339.983 226.334C340.248 226.673 339.292 225.589 339.152 225.353C338.89 224.914 338.569 224.797 338.301 225.026C338.032 225.254 338.247 225.824 338.37 226.04C339.119 227.355 339.773 227.677 339.773 227.677C339.773 227.677 339.077 227.343 338.484 226.624C337.924 225.946 337.392 226.662 337.765 227.264C337.844 227.392 337.994 227.722 338.478 228.14C338.849 228.46 338.607 228.268 338.478 228.14C337.983 227.652 337.456 228.172 337.615 228.598C337.799 229.089 338.399 229.543 338.806 229.844C339.596 230.429 340.582 230.898 341.58 230.865C342.691 230.83 343.511 230.367 343.757 228.993C343.871 228.355 343.515 227.376 343.41 227.126C343.065 226.316 343.048 225.818 343.029 225.62Z" fill="url(#paint4_radial_22_799)"/>
<path d="M341.914 229.038C341.765 228.829 341.344 227.856 342.129 226.86L342.357 227.004C341.468 228.1 342.089 229.037 342.198 229.249C342.198 229.249 342.056 229.24 341.914 229.038V229.038Z" fill="#EB8F00"/>
<path d="M343.497 227.036C343.148 226.36 343.123 226.008 343.099 225.623C343.072 225.344 343.052 225 342.716 224.921C342.573 224.887 342.373 224.907 342.196 225.102C341.753 225.595 342.106 226.739 342.106 226.739C341.469 226.441 341.362 226.178 340.911 225.499C340.714 225.201 340.4 224.65 340.113 224.489C339.908 224.374 339.604 224.46 339.452 224.665C339.111 225.123 339.72 226.053 339.72 226.053C339.72 226.053 339.384 225.564 339.237 225.308C338.988 224.873 338.533 224.633 338.197 224.935C337.648 225.429 338.714 226.756 338.714 226.756C338.714 226.756 338.223 225.978 337.734 226.308C337.48 226.479 337.38 226.926 337.644 227.357C337.761 227.552 338.057 227.898 338.057 227.898C338.057 227.898 337.938 227.822 337.738 227.887C337.516 227.96 337.326 228.235 337.488 228.666C337.675 229.169 338.229 229.605 338.734 229.969C339.883 230.799 341.226 230.85 341.226 230.85C341.226 230.85 339.753 230.567 338.811 229.709C338.516 229.441 337.346 228.624 337.764 228.199C337.862 228.098 338.042 228.047 338.308 228.258C339.243 229.003 339.562 228.83 339.562 228.83C339.596 228.701 339.503 228.646 339.225 228.482C339.032 228.368 338.768 228.212 338.572 228.044C338.093 227.629 337.551 226.908 337.848 226.587C338.007 226.416 338.191 226.452 338.37 226.637C339.613 227.905 339.905 227.726 339.905 227.726C339.905 227.726 339.943 227.589 339.551 227.244C339.25 226.981 338.88 226.656 338.423 225.86C338.302 225.649 338.24 225.274 338.417 225.126C338.657 224.924 338.877 225.057 339.076 225.354C339.317 225.715 339.661 226.16 340.002 226.488C340.416 226.883 340.638 227.004 340.652 226.99C340.75 226.883 340.327 226.468 340.139 226.209C339.475 225.294 339.485 224.993 339.623 224.755C339.71 224.605 339.95 224.537 340.24 224.901C340.864 225.621 341.179 226.793 342.355 227.001C342.355 227.001 342.4 226.93 342.295 226.549C342.168 226.151 342.147 225.813 342.212 225.516C342.283 225.188 342.546 225.095 342.691 225.13C342.885 225.177 342.863 225.503 342.863 225.503C342.863 225.503 342.874 225.623 342.88 225.678C342.902 225.914 342.948 226.406 343.275 227.165C343.405 227.469 344.103 228.718 343.158 230.28C343.158 230.28 343.559 230.383 344.019 230.49C344.019 230.49 344.2 229.85 344.116 228.856C344.013 227.605 343.732 227.492 343.497 227.036V227.036Z" fill="#EB8F00"/>
<path d="M337.077 228.438C337.082 228.399 337.087 228.365 337.094 228.335C337.084 228.368 337.079 228.401 337.077 228.438Z" fill="url(#paint5_radial_22_799)"/>
<path d="M348.843 225.62C348.879 225.27 348.865 225.077 349.132 225.007C349.419 224.932 349.696 225.153 349.783 225.46C349.984 226.18 349.599 226.859 349.599 226.859C350.119 226.756 350.56 226.257 350.56 226.257C350.832 225.938 351.242 225.138 351.505 224.811C351.666 224.613 351.856 224.485 352.131 224.586C352.701 224.797 352.106 225.95 351.872 226.25C351.607 226.589 351.775 226.534 352.133 226.142C352.491 225.746 352.681 225.523 352.822 225.288C353.083 224.849 353.397 224.883 353.571 225.026C353.844 225.251 353.625 225.824 353.502 226.04C352.753 227.355 353.388 226.624 353.388 226.624C353.948 225.946 354.48 226.662 354.107 227.264C354.028 227.392 353.878 227.722 353.394 228.14C353.023 228.46 353.265 228.268 353.394 228.14C353.889 227.652 354.416 228.172 354.257 228.598C354.073 229.089 353.473 229.543 353.066 229.844C352.276 230.429 351.29 230.898 350.292 230.865C349.181 230.83 348.361 230.367 348.115 228.993C348.001 228.355 348.357 227.376 348.462 227.126C348.807 226.316 348.824 225.818 348.843 225.62V225.62Z" fill="url(#paint6_radial_22_799)"/>
<path d="M349.959 229.038C350.108 228.829 350.528 227.856 349.743 226.86L349.516 227.004C350.404 228.1 349.783 229.037 349.675 229.249C349.675 229.249 349.817 229.24 349.959 229.038V229.038Z" fill="#EB8F00"/>
<path d="M348.375 227.036C348.724 226.36 348.749 226.008 348.773 225.623C348.8 225.344 348.82 225 349.156 224.921C349.299 224.887 349.499 224.907 349.676 225.102C350.119 225.595 349.766 226.739 349.766 226.739C350.403 226.441 350.51 226.178 350.961 225.499C351.158 225.201 351.472 224.65 351.759 224.489C351.964 224.374 352.268 224.46 352.42 224.665C352.761 225.123 352.152 226.053 352.152 226.053C352.152 226.053 352.488 225.564 352.635 225.308C352.884 224.873 353.339 224.633 353.675 224.935C354.224 225.429 353.158 226.756 353.158 226.756C353.158 226.756 353.649 225.978 354.138 226.308C354.393 226.479 354.492 226.926 354.228 227.357C354.111 227.552 353.815 227.898 353.815 227.898C353.815 227.898 353.934 227.822 354.134 227.887C354.356 227.96 354.546 228.235 354.384 228.666C354.197 229.169 353.643 229.605 353.138 229.969C351.989 230.799 350.646 230.85 350.646 230.85C350.646 230.85 352.119 230.567 353.061 229.709C353.356 229.441 354.526 228.624 354.108 228.199C354.01 228.098 353.83 228.047 353.564 228.258C352.629 229.003 352.31 228.83 352.31 228.83C352.276 228.701 352.369 228.646 352.647 228.482C352.84 228.368 353.104 228.212 353.3 228.044C353.779 227.629 354.321 226.908 354.024 226.587C353.865 226.416 353.681 226.452 353.502 226.637C352.259 227.905 351.967 227.726 351.967 227.726C351.967 227.726 351.929 227.589 352.321 227.244C352.622 226.981 352.992 226.656 353.449 225.86C353.57 225.649 353.632 225.274 353.455 225.126C353.216 224.924 352.995 225.057 352.796 225.354C352.555 225.715 352.211 226.16 351.87 226.488C351.456 226.883 351.234 227.004 351.22 226.99C351.122 226.883 351.545 226.468 351.733 226.209C352.397 225.294 352.387 224.993 352.249 224.755C352.162 224.605 351.922 224.537 351.632 224.901C351.005 225.624 350.69 226.795 349.516 227.004C349.516 227.004 349.471 226.933 349.576 226.552C349.703 226.154 349.724 225.815 349.659 225.519C349.587 225.191 349.324 225.098 349.18 225.133C348.986 225.18 349.008 225.506 349.008 225.506C349.008 225.506 348.997 225.625 348.991 225.68C348.969 225.917 348.922 226.409 348.596 227.168C348.465 227.472 347.766 228.733 348.713 230.283C348.713 230.283 348.312 230.386 347.852 230.493C347.852 230.493 347.671 229.853 347.755 228.858C347.859 227.605 348.14 227.492 348.375 227.036V227.036Z" fill="#EB8F00"/>
<path d="M354.795 228.438C354.79 228.399 354.785 228.365 354.778 228.335C354.788 228.368 354.793 228.401 354.795 228.438Z" fill="url(#paint7_radial_22_799)"/>
<rect x="132" y="130" width="118" height="38" fill="#E57373"/>
<rect x="224" y="120" width="20" height="8" fill="#E57373"/>
<rect x="196" y="120" width="20" height="8" fill="#E57373"/>
<rect x="168" y="120" width="20" height="8" fill="#E57373"/>
<rect x="140" y="120" width="20" height="8" fill="#E57373"/>
<text fill="white" xml:space="preserve" style="white-space: pre" font-family="Tahoma" font-size="20" font-weight="bold" letter-spacing="0em"><tspan x="161.254" y="157.939">UMAP</tspan></text>
<rect x="132" y="90" width="118" height="38" fill="#4DB6AC"/>
<rect x="224" y="80" width="20" height="8" fill="#4DB6AC"/>
<rect x="196" y="80" width="20" height="8" fill="#4DB6AC"/>
<rect x="168" y="80" width="20" height="8" fill="#4DB6AC"/>
<rect x="140" y="80" width="20" height="8" fill="#4DB6AC"/>
<text fill="white" xml:space="preserve" style="white-space: pre" font-family="Tahoma" font-size="20" font-weight="bold" letter-spacing="0em"><tspan x="141.342" y="117.939">HDBSCAN</tspan></text>
<rect x="132" y="50" width="118" height="38" fill="#FFD54F"/>
<rect x="224" y="40" width="20" height="8" fill="#FFD54F"/>
<rect x="196" y="40" width="20" height="8" fill="#FFD54F"/>
<rect x="168" y="40" width="20" height="8" fill="#FFD54F"/>
<rect x="140" y="40" width="20" height="8" fill="#FFD54F"/>
<text fill="white" xml:space="preserve" style="white-space: pre" font-family="Tahoma" font-size="13" font-weight="bold" letter-spacing="0em"><tspan x="138.346" y="74.1606">CountVectorizer</tspan></text>
<rect x="132" y="10" width="118" height="38" fill="#90A4AE"/>
<rect x="224" width="20" height="8" fill="#90A4AE"/>
<rect x="196" width="20" height="8" fill="#90A4AE"/>
<rect x="168" width="20" height="8" fill="#90A4AE"/>
<rect x="140" width="20" height="8" fill="#90A4AE"/>
<text fill="white" xml:space="preserve" style="white-space: pre" font-family="Tahoma" font-size="20" font-weight="bold" letter-spacing="0em"><tspan x="146.938" y="37.9395">c-TF-IDF</tspan></text>
<defs>
<radialGradient id="paint0_radial_22_799" cx="0" cy="0" r="1" gradientUnits="userSpaceOnUse" gradientTransform="translate(345.944 222.845) scale(8.01)">
<stop offset="0.5" stop-color="#FDE030"/>
<stop offset="0.919" stop-color="#F7C02B"/>
<stop offset="1" stop-color="#F4A223"/>
</radialGradient>
<linearGradient id="paint1_linear_22_799" x1="345.944" y1="230.706" x2="345.944" y2="214.984" gradientUnits="userSpaceOnUse">
<stop offset="0.158" stop-color="#F4A223"/>
<stop offset="0.333" stop-color="#F7C02B"/>
<stop offset="0.807" stop-color="#FDE030" stop-opacity="0"/>
</linearGradient>
<radialGradient id="paint2_radial_22_799" cx="0" cy="0" r="1" gradientUnits="userSpaceOnUse" gradientTransform="translate(341.172 223.015) rotate(-10.6121) scale(2.49432 2.36965)">
<stop stop-color="#ED7770"/>
<stop offset="0.9" stop-color="#ED7770" stop-opacity="0"/>
</radialGradient>
<radialGradient id="paint3_radial_22_799" cx="0" cy="0" r="1" gradientUnits="userSpaceOnUse" gradientTransform="translate(350.628 221.247) rotate(-10.6121) scale(2.49404 2.36938)">
<stop stop-color="#ED7770"/>
<stop offset="0.9" stop-color="#ED7770" stop-opacity="0"/>
</radialGradient>
<radialGradient id="paint4_radial_22_799" cx="0" cy="0" r="1" gradientUnits="userSpaceOnUse" gradientTransform="translate(341.552 227.229) scale(5.41589)">
<stop offset="0.33" stop-color="#FFF176"/>
<stop offset="1" stop-color="#FFC400"/>
</radialGradient>
<radialGradient id="paint5_radial_22_799" cx="0" cy="0" r="1" gradientUnits="userSpaceOnUse" gradientTransform="translate(341.104 227.2) scale(5.47088 5.47084)">
<stop offset="0.33" stop-color="#FFF176"/>
<stop offset="1" stop-color="#FFC400"/>
</radialGradient>
<radialGradient id="paint6_radial_22_799" cx="0" cy="0" r="1" gradientUnits="userSpaceOnUse" gradientTransform="translate(350.321 227.236) rotate(180) scale(5.40773)">
<stop offset="0.33" stop-color="#FFF176"/>
<stop offset="1" stop-color="#FFC400"/>
</radialGradient>
<radialGradient id="paint7_radial_22_799" cx="0" cy="0" r="1" gradientUnits="userSpaceOnUse" gradientTransform="translate(350.768 227.2) rotate(180) scale(5.471 5.47084)">
<stop offset="0.33" stop-color="#FFF176"/>
<stop offset="1" stop-color="#FFC400"/>
</radialGradient>
</defs>
</svg>
