<svg width="293" height="164" viewBox="0 0 293 164" fill="none" xmlns="http://www.w3.org/2000/svg">
<rect x="0.5" y="0.5" width="118" height="42" stroke="black"/>
<path d="M25.75 25H23.0568V16.2727H25.8693C26.7159 16.2727 27.4403 16.4474 28.0426 16.7969C28.6449 17.1435 29.1065 17.642 29.4276 18.2926C29.7486 18.9403 29.9091 19.7159 29.9091 20.6193C29.9091 21.5284 29.7472 22.3111 29.4233 22.9673C29.0994 23.6207 28.6278 24.1236 28.0085 24.4759C27.3892 24.8253 26.6364 25 25.75 25ZM24.1136 24.0625H25.6818C26.4034 24.0625 27.0014 23.9233 27.4759 23.6449C27.9503 23.3665 28.304 22.9702 28.5369 22.456C28.7699 21.9418 28.8864 21.3295 28.8864 20.6193C28.8864 19.9148 28.7713 19.3082 28.5412 18.7997C28.3111 18.2884 27.9673 17.8963 27.5099 17.6236C27.0526 17.348 26.483 17.2102 25.8011 17.2102H24.1136V24.0625ZM34.2045 25.1364C33.6136 25.1364 33.0952 24.9957 32.6491 24.7145C32.206 24.4332 31.8594 24.0398 31.6094 23.5341C31.3622 23.0284 31.2386 22.4375 31.2386 21.7614C31.2386 21.0795 31.3622 20.4844 31.6094 19.9759C31.8594 19.4673 32.206 19.0724 32.6491 18.7912C33.0952 18.5099 33.6136 18.3693 34.2045 18.3693C34.7955 18.3693 35.3125 18.5099 35.7557 18.7912C36.2017 19.0724 36.5483 19.4673 36.7955 19.9759C37.0455 20.4844 37.1705 21.0795 37.1705 21.7614C37.1705 22.4375 37.0455 23.0284 36.7955 23.5341C36.5483 24.0398 36.2017 24.4332 35.7557 24.7145C35.3125 24.9957 34.7955 25.1364 34.2045 25.1364ZM34.2045 24.233C34.6534 24.233 35.0227 24.1179 35.3125 23.8878C35.6023 23.6577 35.8168 23.3551 35.956 22.9801C36.0952 22.6051 36.1648 22.1989 36.1648 21.7614C36.1648 21.3239 36.0952 20.9162 35.956 20.5384C35.8168 20.1605 35.6023 19.8551 35.3125 19.6222C35.0227 19.3892 34.6534 19.2727 34.2045 19.2727C33.7557 19.2727 33.3864 19.3892 33.0966 19.6222C32.8068 19.8551 32.5923 20.1605 32.4531 20.5384C32.3139 20.9162 32.2443 21.3239 32.2443 21.7614C32.2443 22.1989 32.3139 22.6051 32.4531 22.9801C32.5923 23.3551 32.8068 23.6577 33.0966 23.8878C33.3864 24.1179 33.7557 24.233 34.2045 24.233ZM41.3647 25.1364C40.7511 25.1364 40.2227 24.9915 39.7795 24.7017C39.3363 24.4119 38.9954 24.0128 38.7567 23.5043C38.5181 22.9957 38.3988 22.4148 38.3988 21.7614C38.3988 21.0966 38.521 20.5099 38.7653 20.0014C39.0124 19.4901 39.3562 19.0909 39.7965 18.804C40.2397 18.5142 40.7567 18.3693 41.3477 18.3693C41.8079 18.3693 42.2227 18.4545 42.592 18.625C42.9613 18.7955 43.2638 19.0341 43.4996 19.3409C43.7354 19.6477 43.8817 20.0057 43.9386 20.4148H42.9329C42.8562 20.1165 42.6857 19.8523 42.4215 19.6222C42.1602 19.3892 41.8079 19.2727 41.3647 19.2727C40.9727 19.2727 40.6289 19.375 40.3335 19.5795C40.0408 19.7812 39.8121 20.0668 39.6474 20.4361C39.4854 20.8026 39.4045 21.233 39.4045 21.7273C39.4045 22.233 39.484 22.6733 39.6431 23.0483C39.805 23.4233 40.0323 23.7145 40.3249 23.9219C40.6204 24.1293 40.967 24.233 41.3647 24.233C41.6261 24.233 41.8633 24.1875 42.0763 24.0966C42.2894 24.0057 42.4698 23.875 42.6175 23.7045C42.7653 23.5341 42.8704 23.3295 42.9329 23.0909H43.9386C43.8817 23.4773 43.7411 23.8253 43.5167 24.1349C43.2951 24.4418 43.0011 24.6861 42.6346 24.8679C42.271 25.0469 41.8477 25.1364 41.3647 25.1364ZM49.5337 22.3239V18.4545H50.5394V25H49.5337V23.892H49.4656C49.3121 24.2244 49.0735 24.5071 48.7496 24.7401C48.4258 24.9702 48.0167 25.0852 47.5224 25.0852C47.1133 25.0852 46.7496 24.9957 46.4315 24.8168C46.1133 24.6349 45.8633 24.3622 45.6815 23.9986C45.4996 23.6321 45.4087 23.1705 45.4087 22.6136V18.4545H46.4144V22.5455C46.4144 23.0227 46.5479 23.4034 46.815 23.6875C47.0849 23.9716 47.4286 24.1136 47.8462 24.1136C48.0962 24.1136 48.3505 24.0497 48.609 23.9219C48.8704 23.794 49.0891 23.598 49.2653 23.3338C49.4442 23.0696 49.5337 22.733 49.5337 22.3239ZM52.3814 25V18.4545H53.353V19.4773H53.4382C53.5746 19.1278 53.7947 18.8565 54.0987 18.6634C54.4027 18.4673 54.7678 18.3693 55.1939 18.3693C55.6257 18.3693 55.9851 18.4673 56.272 18.6634C56.5618 18.8565 56.7876 19.1278 56.9496 19.4773H57.0178C57.1854 19.1392 57.4368 18.8707 57.772 18.6719C58.1072 18.4702 58.5092 18.3693 58.978 18.3693C59.5632 18.3693 60.0419 18.5526 60.4141 18.919C60.7862 19.2827 60.9723 19.8494 60.9723 20.6193V25H59.9666V20.6193C59.9666 20.1364 59.8345 19.7912 59.5703 19.5838C59.3061 19.3764 58.995 19.2727 58.6371 19.2727C58.1768 19.2727 57.8203 19.4119 57.5675 19.6903C57.3146 19.9659 57.1882 20.3153 57.1882 20.7386V25H56.1655V20.517C56.1655 20.1449 56.0447 19.8452 55.8033 19.6179C55.5618 19.3878 55.2507 19.2727 54.87 19.2727C54.6087 19.2727 54.3643 19.3423 54.1371 19.4815C53.9126 19.6207 53.7308 19.8139 53.5916 20.0611C53.4553 20.3054 53.3871 20.5881 53.3871 20.9091V25H52.3814ZM65.5554 25.1364C64.9247 25.1364 64.3807 24.9972 63.9233 24.7188C63.4688 24.4375 63.1179 24.0455 62.8707 23.5426C62.6264 23.0369 62.5043 22.4489 62.5043 21.7784C62.5043 21.108 62.6264 20.517 62.8707 20.0057C63.1179 19.4915 63.4616 19.0909 63.902 18.804C64.3452 18.5142 64.8622 18.3693 65.4531 18.3693C65.794 18.3693 66.1307 18.4261 66.4631 18.5398C66.7955 18.6534 67.098 18.8381 67.3707 19.0938C67.6435 19.3466 67.8608 19.6818 68.0227 20.0994C68.1847 20.517 68.2656 21.0312 68.2656 21.642V22.0682H63.2202V21.1989H67.2429C67.2429 20.8295 67.169 20.5 67.0213 20.2102C66.8764 19.9205 66.669 19.6918 66.3991 19.5241C66.1321 19.3565 65.8168 19.2727 65.4531 19.2727C65.0526 19.2727 64.706 19.3722 64.4134 19.571C64.1236 19.767 63.9006 20.0227 63.7443 20.3381C63.5881 20.6534 63.5099 20.9915 63.5099 21.3523V21.9318C63.5099 22.4261 63.5952 22.8452 63.7656 23.1889C63.9389 23.5298 64.179 23.7898 64.4858 23.9688C64.7926 24.1449 65.1491 24.233 65.5554 24.233C65.8196 24.233 66.0582 24.196 66.2713 24.1222C66.4872 24.0455 66.6733 23.9318 66.8295 23.7812C66.9858 23.6278 67.1065 23.4375 67.1918 23.2102L68.1634 23.483C68.0611 23.8125 67.8892 24.1023 67.6477 24.3523C67.4063 24.5994 67.108 24.7926 66.7528 24.9318C66.3977 25.0682 65.9986 25.1364 65.5554 25.1364ZM70.8011 21.0625V25H69.7955V18.4545H70.767V19.4773H70.8523C71.0057 19.1449 71.2386 18.8778 71.5511 18.6761C71.8636 18.4716 72.267 18.3693 72.7614 18.3693C73.2045 18.3693 73.5923 18.4602 73.9247 18.642C74.2571 18.821 74.5156 19.0938 74.7003 19.4602C74.8849 19.8239 74.9773 20.2841 74.9773 20.8409V25H73.9716V20.9091C73.9716 20.3949 73.8381 19.9943 73.571 19.7074C73.304 19.4176 72.9375 19.2727 72.4716 19.2727C72.1506 19.2727 71.8636 19.3423 71.6108 19.4815C71.3608 19.6207 71.1634 19.8239 71.0185 20.0909C70.8736 20.358 70.8011 20.6818 70.8011 21.0625ZM79.6616 18.4545V19.3068H76.2695V18.4545H79.6616ZM77.2582 16.8864H78.2638V23.125C78.2638 23.4091 78.305 23.6222 78.3874 23.7642C78.4727 23.9034 78.5806 23.9972 78.7113 24.0455C78.8448 24.0909 78.9854 24.1136 79.1332 24.1136C79.244 24.1136 79.3349 24.108 79.4059 24.0966C79.4769 24.0824 79.5337 24.071 79.5763 24.0625L79.7809 24.9659C79.7127 24.9915 79.6175 25.017 79.4954 25.0426C79.3732 25.071 79.2184 25.0852 79.0309 25.0852C78.7468 25.0852 78.4684 25.0241 78.1957 24.902C77.9258 24.7798 77.7013 24.5938 77.5224 24.3438C77.3462 24.0938 77.2582 23.7784 77.2582 23.3977V16.8864ZM85.6935 19.9205L84.7901 20.1761C84.7333 20.0256 84.6495 19.8793 84.5387 19.7372C84.4308 19.5923 84.283 19.473 84.0955 19.3793C83.908 19.2855 83.668 19.2386 83.3754 19.2386C82.9748 19.2386 82.641 19.331 82.3739 19.5156C82.1097 19.6974 81.9776 19.929 81.9776 20.2102C81.9776 20.4602 82.0685 20.6577 82.2504 20.8026C82.4322 20.9474 82.7163 21.0682 83.1026 21.1648L84.0742 21.4034C84.6594 21.5455 85.0955 21.7628 85.3825 22.0554C85.6694 22.3452 85.8129 22.7187 85.8129 23.1761C85.8129 23.5511 85.7049 23.8864 85.489 24.1818C85.2759 24.4773 84.9776 24.7102 84.5941 24.8807C84.2106 25.0511 83.7646 25.1364 83.256 25.1364C82.5884 25.1364 82.0359 24.9915 81.5984 24.7017C81.1609 24.4119 80.8839 23.9886 80.7674 23.4318L81.7219 23.1932C81.8129 23.5455 81.9847 23.8097 82.2376 23.9858C82.4933 24.1619 82.8271 24.25 83.239 24.25C83.7077 24.25 84.0799 24.1506 84.3555 23.9517C84.6339 23.75 84.7731 23.5085 84.7731 23.2273C84.7731 23 84.6935 22.8097 84.5344 22.6562C84.3754 22.5 84.131 22.3835 83.8015 22.3068L82.7106 22.0511C82.1112 21.9091 81.6708 21.6889 81.3896 21.3906C81.1112 21.0895 80.9719 20.7131 80.9719 20.2614C80.9719 19.892 81.0756 19.5653 81.283 19.2812C81.4933 18.9972 81.7788 18.7741 82.1396 18.6122C82.5032 18.4503 82.9151 18.3693 83.3754 18.3693C84.0231 18.3693 84.5316 18.5114 84.9009 18.7955C85.2731 19.0795 85.5373 19.4545 85.6935 19.9205Z" fill="black"/>
<rect x="53.5" y="121.5" width="65" height="42" stroke="black"/>
<path d="M66.0568 146V137.273H67.1136V145.062H71.1705V146H66.0568ZM74.5966 146.153C74.1818 146.153 73.8054 146.075 73.4673 145.919C73.1293 145.76 72.8608 145.531 72.6619 145.233C72.4631 144.932 72.3636 144.568 72.3636 144.142C72.3636 143.767 72.4375 143.463 72.5852 143.23C72.733 142.994 72.9304 142.81 73.1776 142.676C73.4247 142.543 73.6974 142.443 73.9957 142.378C74.2969 142.31 74.5994 142.256 74.9034 142.216C75.3011 142.165 75.6236 142.126 75.8707 142.101C76.1207 142.072 76.3026 142.026 76.4162 141.96C76.5327 141.895 76.5909 141.781 76.5909 141.619V141.585C76.5909 141.165 76.4759 140.838 76.2457 140.605C76.0185 140.372 75.6733 140.256 75.2102 140.256C74.7301 140.256 74.3537 140.361 74.081 140.571C73.8082 140.781 73.6165 141.006 73.5057 141.244L72.5511 140.903C72.7216 140.506 72.9489 140.196 73.233 139.974C73.5199 139.75 73.8324 139.594 74.1705 139.506C74.5114 139.415 74.8466 139.369 75.1761 139.369C75.3864 139.369 75.6278 139.395 75.9006 139.446C76.1761 139.494 76.4418 139.595 76.6974 139.749C76.956 139.902 77.1705 140.134 77.3409 140.443C77.5114 140.753 77.5966 141.168 77.5966 141.688V146H76.5909V145.114H76.5398C76.4716 145.256 76.358 145.408 76.1989 145.57C76.0398 145.732 75.8281 145.869 75.5639 145.983C75.2997 146.097 74.9773 146.153 74.5966 146.153ZM74.75 145.25C75.1477 145.25 75.483 145.172 75.7557 145.016C76.0313 144.859 76.2386 144.658 76.3778 144.411C76.5199 144.163 76.5909 143.903 76.5909 143.631V142.71C76.5483 142.761 76.4545 142.808 76.3097 142.851C76.1676 142.891 76.0028 142.926 75.8153 142.957C75.6307 142.986 75.4503 143.011 75.2741 143.034C75.1009 143.054 74.9602 143.071 74.8523 143.085C74.5909 143.119 74.3466 143.175 74.1193 143.251C73.8949 143.325 73.7131 143.437 73.5739 143.588C73.4375 143.736 73.3693 143.937 73.3693 144.193C73.3693 144.543 73.4986 144.807 73.7571 144.986C74.0185 145.162 74.3494 145.25 74.75 145.25ZM79.5685 146V137.273H80.5742V140.494H80.6594C80.7333 140.381 80.8356 140.236 80.9663 140.06C81.0998 139.881 81.2901 139.722 81.5373 139.582C81.7873 139.44 82.1254 139.369 82.5515 139.369C83.1026 139.369 83.5884 139.507 84.0089 139.783C84.4293 140.058 84.7575 140.449 84.9933 140.955C85.229 141.46 85.3469 142.057 85.3469 142.744C85.3469 143.438 85.229 144.038 84.9933 144.547C84.7575 145.053 84.4308 145.445 84.0131 145.723C83.5955 145.999 83.114 146.136 82.5685 146.136C82.1481 146.136 81.8114 146.067 81.5586 145.928C81.3058 145.786 81.1112 145.625 80.9748 145.446C80.8384 145.264 80.7333 145.114 80.6594 144.994H80.5401V146H79.5685ZM80.5572 142.727C80.5572 143.222 80.6296 143.658 80.7745 144.036C80.9194 144.411 81.131 144.705 81.4094 144.918C81.6879 145.128 82.0288 145.233 82.4322 145.233C82.8526 145.233 83.2035 145.122 83.4847 144.901C83.7688 144.676 83.9819 144.375 84.1239 143.997C84.2688 143.616 84.3413 143.193 84.3413 142.727C84.3413 142.267 84.2702 141.852 84.1282 141.483C83.989 141.111 83.7773 140.817 83.4933 140.601C83.212 140.382 82.8583 140.273 82.4322 140.273C82.0231 140.273 81.6793 140.376 81.4009 140.584C81.1225 140.788 80.9123 141.075 80.7702 141.445C80.6282 141.811 80.5572 142.239 80.5572 142.727ZM89.6296 146.136C88.9989 146.136 88.4549 145.997 87.9975 145.719C87.543 145.438 87.1921 145.045 86.945 144.543C86.7006 144.037 86.5785 143.449 86.5785 142.778C86.5785 142.108 86.7006 141.517 86.945 141.006C87.1921 140.491 87.5359 140.091 87.9762 139.804C88.4194 139.514 88.9364 139.369 89.5273 139.369C89.8683 139.369 90.2049 139.426 90.5373 139.54C90.8697 139.653 91.1722 139.838 91.445 140.094C91.7177 140.347 91.935 140.682 92.0969 141.099C92.2589 141.517 92.3398 142.031 92.3398 142.642V143.068H87.2944V142.199H91.3171C91.3171 141.83 91.2433 141.5 91.0955 141.21C90.9506 140.92 90.7433 140.692 90.4734 140.524C90.2063 140.357 89.891 140.273 89.5273 140.273C89.1268 140.273 88.7802 140.372 88.4876 140.571C88.1978 140.767 87.9748 141.023 87.8185 141.338C87.6623 141.653 87.5842 141.991 87.5842 142.352V142.932C87.5842 143.426 87.6694 143.845 87.8398 144.189C88.0131 144.53 88.2532 144.79 88.56 144.969C88.8668 145.145 89.2234 145.233 89.6296 145.233C89.8938 145.233 90.1325 145.196 90.3455 145.122C90.5614 145.045 90.7475 144.932 90.9038 144.781C91.06 144.628 91.1808 144.437 91.266 144.21L92.2376 144.483C92.1353 144.812 91.9634 145.102 91.7219 145.352C91.4805 145.599 91.1822 145.793 90.8271 145.932C90.4719 146.068 90.0728 146.136 89.6296 146.136ZM94.8754 137.273V146H93.8697V137.273H94.8754ZM101.354 140.92L100.45 141.176C100.393 141.026 100.31 140.879 100.199 140.737C100.091 140.592 99.9432 140.473 99.7557 140.379C99.5682 140.286 99.3281 140.239 99.0355 140.239C98.6349 140.239 98.3011 140.331 98.0341 140.516C97.7699 140.697 97.6378 140.929 97.6378 141.21C97.6378 141.46 97.7287 141.658 97.9105 141.803C98.0923 141.947 98.3764 142.068 98.7628 142.165L99.7344 142.403C100.32 142.545 100.756 142.763 101.043 143.055C101.33 143.345 101.473 143.719 101.473 144.176C101.473 144.551 101.365 144.886 101.149 145.182C100.936 145.477 100.638 145.71 100.254 145.881C99.8707 146.051 99.4247 146.136 98.9162 146.136C98.2486 146.136 97.696 145.991 97.2585 145.702C96.821 145.412 96.544 144.989 96.4276 144.432L97.3821 144.193C97.473 144.545 97.6449 144.81 97.8977 144.986C98.1534 145.162 98.4872 145.25 98.8991 145.25C99.3679 145.25 99.7401 145.151 100.016 144.952C100.294 144.75 100.433 144.509 100.433 144.227C100.433 144 100.354 143.81 100.195 143.656C100.036 143.5 99.7912 143.384 99.4616 143.307L98.3707 143.051C97.7713 142.909 97.331 142.689 97.0497 142.391C96.7713 142.089 96.6321 141.713 96.6321 141.261C96.6321 140.892 96.7358 140.565 96.9432 140.281C97.1534 139.997 97.4389 139.774 97.7997 139.612C98.1634 139.45 98.5753 139.369 99.0355 139.369C99.6832 139.369 100.192 139.511 100.561 139.795C100.933 140.08 101.197 140.455 101.354 140.92Z" fill="black"/>
<rect x="201.5" y="60.5" width="91" height="42" stroke="black"/>
<path d="M226.58 85.1364C225.966 85.1364 225.438 84.9915 224.994 84.7017C224.551 84.4119 224.21 84.0128 223.972 83.5043C223.733 82.9957 223.614 82.4148 223.614 81.7614C223.614 81.0966 223.736 80.5099 223.98 80.0014C224.227 79.4901 224.571 79.0909 225.011 78.804C225.455 78.5142 225.972 78.3693 226.562 78.3693C227.023 78.3693 227.438 78.4545 227.807 78.625C228.176 78.7955 228.479 79.0341 228.714 79.3409C228.95 79.6477 229.097 80.0057 229.153 80.4148H228.148C228.071 80.1165 227.901 79.8523 227.636 79.6222C227.375 79.3892 227.023 79.2727 226.58 79.2727C226.188 79.2727 225.844 79.375 225.548 79.5795C225.256 79.7812 225.027 80.0668 224.862 80.4361C224.7 80.8026 224.619 81.233 224.619 81.7273C224.619 82.233 224.699 82.6733 224.858 83.0483C225.02 83.4233 225.247 83.7145 225.54 83.9219C225.835 84.1293 226.182 84.233 226.58 84.233C226.841 84.233 227.078 84.1875 227.291 84.0966C227.504 84.0057 227.685 83.875 227.832 83.7045C227.98 83.5341 228.085 83.3295 228.148 83.0909H229.153C229.097 83.4773 228.956 83.8253 228.732 84.1349C228.51 84.4418 228.216 84.6861 227.849 84.8679C227.486 85.0469 227.063 85.1364 226.58 85.1364ZM234.374 80.7898V81.7273H230.555V80.7898H234.374ZM234.912 77.2102V76.2727H241.457V77.2102H238.713V85H237.656V77.2102H234.912ZM243.088 85V76.2727H248.321V77.2102H244.145V80.1591H247.929V81.0966H244.145V85H243.088ZM253.745 80.1676V81.1051H249.926V80.1676H253.745ZM256.707 76.2727V85H255.651V76.2727H256.707ZM261.52 85H258.826V76.2727H261.639C262.485 76.2727 263.21 76.4474 263.812 76.7969C264.414 77.1435 264.876 77.642 265.197 78.2926C265.518 78.9403 265.679 79.7159 265.679 80.6193C265.679 81.5284 265.517 82.3111 265.193 82.9673C264.869 83.6207 264.397 84.1236 263.778 84.4759C263.159 84.8253 262.406 85 261.52 85ZM259.883 84.0625H261.451C262.173 84.0625 262.771 83.9233 263.245 83.6449C263.72 83.3665 264.074 82.9702 264.306 82.456C264.539 81.9418 264.656 81.3295 264.656 80.6193C264.656 79.9148 264.541 79.3082 264.311 78.7997C264.081 78.2884 263.737 77.8963 263.279 77.6236C262.822 77.348 262.252 77.2102 261.571 77.2102H259.883V84.0625ZM267.451 85V76.2727H272.684V77.2102H268.508V80.1591H272.292V81.0966H268.508V85H267.451Z" fill="black"/>
<path d="M246.293 52.7071C246.683 53.0976 247.317 53.0976 247.707 52.7071L254.071 46.3431C254.462 45.9526 254.462 45.3195 254.071 44.9289C253.681 44.5384 253.047 44.5384 252.657 44.9289L247 50.5858L241.343 44.9289C240.953 44.5384 240.319 44.5384 239.929 44.9289C239.538 45.3195 239.538 45.9526 239.929 46.3431L246.293 52.7071ZM246 21L246 52L248 52L248 21L246 21Z" fill="black"/>
<path d="M247.707 113.293C247.317 112.902 246.683 112.902 246.293 113.293L239.929 119.657C239.538 120.047 239.538 120.681 239.929 121.071C240.319 121.462 240.953 121.462 241.343 121.071L247 115.414L252.657 121.071C253.047 121.462 253.681 121.462 254.071 121.071C254.462 120.681 254.462 120.047 254.071 119.657L247.707 113.293ZM248 145L248 114L246 114L246 145L248 145Z" fill="black"/>
<line x1="248" y1="20" x2="130" y2="20" stroke="black" stroke-width="2"/>
<line x1="248" y1="145" x2="130" y2="145" stroke="black" stroke-width="2"/>
</svg>
