<svg width="449" height="122" viewBox="0 0 449 122" fill="none" xmlns="http://www.w3.org/2000/svg">
<rect x="0.5" y="0.5" width="118" height="42" stroke="black"/>
<path d="M32.123 19H29.4299V10.2727H32.2424C33.089 10.2727 33.8134 10.4474 34.4157 10.7969C35.0179 11.1435 35.4796 11.642 35.8006 12.2926C36.1216 12.9403 36.2821 13.7159 36.2821 14.6193C36.2821 15.5284 36.1202 16.3111 35.7963 16.9673C35.4725 17.6207 35.0009 18.1236 34.3816 18.4759C33.7623 18.8253 33.0094 19 32.123 19ZM30.4867 18.0625H32.0549C32.7765 18.0625 33.3745 17.9233 33.8489 17.6449C34.3233 17.3665 34.677 16.9702 34.91 16.456C35.1429 15.9418 35.2594 15.3295 35.2594 14.6193C35.2594 13.9148 35.1444 13.3082 34.9142 12.7997C34.6841 12.2884 34.3404 11.8963 33.883 11.6236C33.4256 11.348 32.856 11.2102 32.1742 11.2102H30.4867V18.0625ZM40.5776 19.1364C39.9867 19.1364 39.4682 18.9957 39.0222 18.7145C38.579 18.4332 38.2324 18.0398 37.9824 17.5341C37.7353 17.0284 37.6117 16.4375 37.6117 15.7614C37.6117 15.0795 37.7353 14.4844 37.9824 13.9759C38.2324 13.4673 38.579 13.0724 39.0222 12.7912C39.4682 12.5099 39.9867 12.3693 40.5776 12.3693C41.1685 12.3693 41.6855 12.5099 42.1287 12.7912C42.5748 13.0724 42.9213 13.4673 43.1685 13.9759C43.4185 14.4844 43.5435 15.0795 43.5435 15.7614C43.5435 16.4375 43.4185 17.0284 43.1685 17.5341C42.9213 18.0398 42.5748 18.4332 42.1287 18.7145C41.6855 18.9957 41.1685 19.1364 40.5776 19.1364ZM40.5776 18.233C41.0265 18.233 41.3958 18.1179 41.6855 17.8878C41.9753 17.6577 42.1898 17.3551 42.329 16.9801C42.4682 16.6051 42.5378 16.1989 42.5378 15.7614C42.5378 15.3239 42.4682 14.9162 42.329 14.5384C42.1898 14.1605 41.9753 13.8551 41.6855 13.6222C41.3958 13.3892 41.0265 13.2727 40.5776 13.2727C40.1287 13.2727 39.7594 13.3892 39.4696 13.6222C39.1799 13.8551 38.9654 14.1605 38.8262 14.5384C38.687 14.9162 38.6174 15.3239 38.6174 15.7614C38.6174 16.1989 38.687 16.6051 38.8262 16.9801C38.9654 17.3551 39.1799 17.6577 39.4696 17.8878C39.7594 18.1179 40.1287 18.233 40.5776 18.233ZM47.7377 19.1364C47.1241 19.1364 46.5957 18.9915 46.1525 18.7017C45.7093 18.4119 45.3684 18.0128 45.1298 17.5043C44.8912 16.9957 44.7718 16.4148 44.7718 15.7614C44.7718 15.0966 44.894 14.5099 45.1383 14.0014C45.3855 13.4901 45.7292 13.0909 46.1696 12.804C46.6127 12.5142 47.1298 12.3693 47.7207 12.3693C48.1809 12.3693 48.5957 12.4545 48.965 12.625C49.3343 12.7955 49.6369 13.0341 49.8727 13.3409C50.1085 13.6477 50.2548 14.0057 50.3116 14.4148H49.3059C49.2292 14.1165 49.0588 13.8523 48.7946 13.6222C48.5332 13.3892 48.1809 13.2727 47.7377 13.2727C47.3457 13.2727 47.002 13.375 46.7065 13.5795C46.4139 13.7812 46.1852 14.0668 46.0204 14.4361C45.8585 14.8026 45.7775 15.233 45.7775 15.7273C45.7775 16.233 45.8571 16.6733 46.0162 17.0483C46.1781 17.4233 46.4054 17.7145 46.698 17.9219C46.9934 18.1293 47.34 18.233 47.7377 18.233C47.9991 18.233 48.2363 18.1875 48.4494 18.0966C48.6625 18.0057 48.8429 17.875 48.9906 17.7045C49.1383 17.5341 49.2434 17.3295 49.3059 17.0909H50.3116C50.2548 17.4773 50.1142 17.8253 49.8897 18.1349C49.6681 18.4418 49.3741 18.6861 49.0076 18.8679C48.644 19.0469 48.2207 19.1364 47.7377 19.1364ZM55.9068 16.3239V12.4545H56.9125V19H55.9068V17.892H55.8386C55.6852 18.2244 55.4466 18.5071 55.1227 18.7401C54.7988 18.9702 54.3897 19.0852 53.8954 19.0852C53.4863 19.0852 53.1227 18.9957 52.8045 18.8168C52.4863 18.6349 52.2363 18.3622 52.0545 17.9986C51.8727 17.6321 51.7818 17.1705 51.7818 16.6136V12.4545H52.7875V16.5455C52.7875 17.0227 52.921 17.4034 53.188 17.6875C53.4579 17.9716 53.8017 18.1136 54.2193 18.1136C54.4693 18.1136 54.7235 18.0497 54.9821 17.9219C55.2434 17.794 55.4622 17.598 55.6383 17.3338C55.8173 17.0696 55.9068 16.733 55.9068 16.3239ZM58.7544 19V12.4545H59.726V13.4773H59.8113C59.9476 13.1278 60.1678 12.8565 60.4718 12.6634C60.7757 12.4673 61.1408 12.3693 61.5669 12.3693C61.9988 12.3693 62.3581 12.4673 62.6451 12.6634C62.9348 12.8565 63.1607 13.1278 63.3226 13.4773H63.3908C63.5584 13.1392 63.8098 12.8707 64.1451 12.6719C64.4803 12.4702 64.8823 12.3693 65.351 12.3693C65.9363 12.3693 66.415 12.5526 66.7871 12.919C67.1593 13.2827 67.3453 13.8494 67.3453 14.6193V19H66.3397V14.6193C66.3397 14.1364 66.2076 13.7912 65.9434 13.5838C65.6792 13.3764 65.3681 13.2727 65.0101 13.2727C64.5499 13.2727 64.1934 13.4119 63.9405 13.6903C63.6877 13.9659 63.5613 14.3153 63.5613 14.7386V19H62.5385V14.517C62.5385 14.1449 62.4178 13.8452 62.1763 13.6179C61.9348 13.3878 61.6238 13.2727 61.2431 13.2727C60.9817 13.2727 60.7374 13.3423 60.5101 13.4815C60.2857 13.6207 60.1039 13.8139 59.9647 14.0611C59.8283 14.3054 59.7601 14.5881 59.7601 14.9091V19H58.7544ZM71.9284 19.1364C71.2978 19.1364 70.7537 18.9972 70.2963 18.7188C69.8418 18.4375 69.4909 18.0455 69.2438 17.5426C68.9995 17.0369 68.8773 16.4489 68.8773 15.7784C68.8773 15.108 68.9995 14.517 69.2438 14.0057C69.4909 13.4915 69.8347 13.0909 70.275 12.804C70.7182 12.5142 71.2353 12.3693 71.8262 12.3693C72.1671 12.3693 72.5037 12.4261 72.8361 12.5398C73.1685 12.6534 73.4711 12.8381 73.7438 13.0938C74.0165 13.3466 74.2338 13.6818 74.3958 14.0994C74.5577 14.517 74.6387 15.0312 74.6387 15.642V16.0682H69.5932V15.1989H73.6159C73.6159 14.8295 73.5421 14.5 73.3944 14.2102C73.2495 13.9205 73.0421 13.6918 72.7722 13.5241C72.5051 13.3565 72.1898 13.2727 71.8262 13.2727C71.4256 13.2727 71.079 13.3722 70.7864 13.571C70.4966 13.767 70.2736 14.0227 70.1174 14.3381C69.9611 14.6534 69.883 14.9915 69.883 15.3523V15.9318C69.883 16.4261 69.9682 16.8452 70.1387 17.1889C70.312 17.5298 70.552 17.7898 70.8588 17.9688C71.1657 18.1449 71.5222 18.233 71.9284 18.233C72.1926 18.233 72.4313 18.196 72.6444 18.1222C72.8603 18.0455 73.0463 17.9318 73.2026 17.7812C73.3588 17.6278 73.4796 17.4375 73.5648 17.2102L74.5364 17.483C74.4341 17.8125 74.2623 18.1023 74.0208 18.3523C73.7793 18.5994 73.481 18.7926 73.1259 18.9318C72.7708 19.0682 72.3716 19.1364 71.9284 19.1364ZM77.1742 15.0625V19H76.1685V12.4545H77.1401V13.4773H77.2253C77.3787 13.1449 77.6117 12.8778 77.9242 12.6761C78.2367 12.4716 78.6401 12.3693 79.1344 12.3693C79.5776 12.3693 79.9654 12.4602 80.2978 12.642C80.6301 12.821 80.8887 13.0938 81.0733 13.4602C81.258 13.8239 81.3503 14.2841 81.3503 14.8409V19H80.3446V14.9091C80.3446 14.3949 80.2111 13.9943 79.9441 13.7074C79.677 13.4176 79.3105 13.2727 78.8446 13.2727C78.5236 13.2727 78.2367 13.3423 77.9838 13.4815C77.7338 13.6207 77.5364 13.8239 77.3915 14.0909C77.2466 14.358 77.1742 14.6818 77.1742 15.0625ZM86.0346 12.4545V13.3068H82.6426V12.4545H86.0346ZM83.6312 10.8864H84.6369V17.125C84.6369 17.4091 84.6781 17.6222 84.7605 17.7642C84.8457 17.9034 84.9537 17.9972 85.0843 18.0455C85.2179 18.0909 85.3585 18.1136 85.5062 18.1136C85.617 18.1136 85.7079 18.108 85.7789 18.0966C85.85 18.0824 85.9068 18.071 85.9494 18.0625L86.1539 18.9659C86.0858 18.9915 85.9906 19.017 85.8684 19.0426C85.7463 19.071 85.5914 19.0852 85.4039 19.0852C85.1199 19.0852 84.8414 19.0241 84.5687 18.902C84.2988 18.7798 84.0744 18.5938 83.8954 18.3438C83.7193 18.0938 83.6312 17.7784 83.6312 17.3977V10.8864ZM26.0613 34.1364C25.4306 34.1364 24.8865 33.9972 24.4292 33.7188C23.9746 33.4375 23.6238 33.0455 23.3766 32.5426C23.1323 32.0369 23.0101 31.4489 23.0101 30.7784C23.0101 30.108 23.1323 29.517 23.3766 29.0057C23.6238 28.4915 23.9675 28.0909 24.4078 27.804C24.851 27.5142 25.3681 27.3693 25.959 27.3693C26.2999 27.3693 26.6365 27.4261 26.9689 27.5398C27.3013 27.6534 27.6039 27.8381 27.8766 28.0938C28.1493 28.3466 28.3667 28.6818 28.5286 29.0994C28.6905 29.517 28.7715 30.0312 28.7715 30.642V31.0682H23.726V30.1989H27.7488C27.7488 29.8295 27.6749 29.5 27.5272 29.2102C27.3823 28.9205 27.1749 28.6918 26.905 28.5241C26.638 28.3565 26.3226 28.2727 25.959 28.2727C25.5584 28.2727 25.2118 28.3722 24.9192 28.571C24.6294 28.767 24.4064 29.0227 24.2502 29.3381C24.0939 29.6534 24.0158 29.9915 24.0158 30.3523V30.9318C24.0158 31.4261 24.101 31.8452 24.2715 32.1889C24.4448 32.5298 24.6848 32.7898 24.9917 32.9688C25.2985 33.1449 25.655 33.233 26.0613 33.233C26.3255 33.233 26.5641 33.196 26.7772 33.1222C26.9931 33.0455 27.1792 32.9318 27.3354 32.7812C27.4917 32.6278 27.6124 32.4375 27.6976 32.2102L28.6692 32.483C28.5669 32.8125 28.3951 33.1023 28.1536 33.3523C27.9121 33.5994 27.6138 33.7926 27.2587 33.9318C26.9036 34.0682 26.5044 34.1364 26.0613 34.1364ZM30.3013 34V27.4545H31.2729V28.4773H31.3581C31.4945 28.1278 31.7147 27.8565 32.0186 27.6634C32.3226 27.4673 32.6877 27.3693 33.1138 27.3693C33.5456 27.3693 33.905 27.4673 34.1919 27.6634C34.4817 27.8565 34.7076 28.1278 34.8695 28.4773H34.9377C35.1053 28.1392 35.3567 27.8707 35.6919 27.6719C36.0272 27.4702 36.4292 27.3693 36.8979 27.3693C37.4831 27.3693 37.9618 27.5526 38.334 27.919C38.7061 28.2827 38.8922 28.8494 38.8922 29.6193V34H37.8865V29.6193C37.8865 29.1364 37.7544 28.7912 37.4902 28.5838C37.226 28.3764 36.915 28.2727 36.557 28.2727C36.0968 28.2727 35.7402 28.4119 35.4874 28.6903C35.2346 28.9659 35.1081 29.3153 35.1081 29.7386V34H34.0854V29.517C34.0854 29.1449 33.9647 28.8452 33.7232 28.6179C33.4817 28.3878 33.1706 28.2727 32.79 28.2727C32.5286 28.2727 32.2843 28.3423 32.057 28.4815C31.8326 28.6207 31.6507 28.8139 31.5115 29.0611C31.3752 29.3054 31.307 29.5881 31.307 29.9091V34H30.3013ZM40.8674 34V25.2727H41.873V28.4943H41.9583C42.0321 28.3807 42.1344 28.2358 42.2651 28.0597C42.3986 27.8807 42.589 27.7216 42.8361 27.5824C43.0861 27.4403 43.4242 27.3693 43.8503 27.3693C44.4015 27.3693 44.8873 27.5071 45.3077 27.7827C45.7282 28.0582 46.0563 28.4489 46.2921 28.9545C46.5279 29.4602 46.6458 30.0568 46.6458 30.7443C46.6458 31.4375 46.5279 32.0384 46.2921 32.5469C46.0563 33.0526 45.7296 33.4446 45.312 33.723C44.8944 33.9986 44.4128 34.1364 43.8674 34.1364C43.4469 34.1364 43.1103 34.0668 42.8574 33.9276C42.6046 33.7855 42.41 33.625 42.2736 33.446C42.1373 33.2642 42.0321 33.1136 41.9583 32.9943H41.839V34H40.8674ZM41.856 30.7273C41.856 31.2216 41.9284 31.6577 42.0733 32.0355C42.2182 32.4105 42.4299 32.7045 42.7083 32.9176C42.9867 33.1278 43.3276 33.233 43.731 33.233C44.1515 33.233 44.5023 33.1222 44.7836 32.9006C45.0676 32.6761 45.2807 32.375 45.4228 31.9972C45.5676 31.6165 45.6401 31.1932 45.6401 30.7273C45.6401 30.267 45.5691 29.8523 45.427 29.483C45.2878 29.1108 45.0762 28.8168 44.7921 28.6009C44.5108 28.3821 44.1571 28.2727 43.731 28.2727C43.3219 28.2727 42.9782 28.3764 42.6998 28.5838C42.4213 28.7884 42.2111 29.0753 42.0691 29.4446C41.927 29.8111 41.856 30.2386 41.856 30.7273ZM50.9284 34.1364C50.2978 34.1364 49.7537 33.9972 49.2963 33.7188C48.8418 33.4375 48.4909 33.0455 48.2438 32.5426C47.9995 32.0369 47.8773 31.4489 47.8773 30.7784C47.8773 30.108 47.9995 29.517 48.2438 29.0057C48.4909 28.4915 48.8347 28.0909 49.275 27.804C49.7182 27.5142 50.2353 27.3693 50.8262 27.3693C51.1671 27.3693 51.5037 27.4261 51.8361 27.5398C52.1685 27.6534 52.4711 27.8381 52.7438 28.0938C53.0165 28.3466 53.2338 28.6818 53.3958 29.0994C53.5577 29.517 53.6387 30.0312 53.6387 30.642V31.0682H48.5932V30.1989H52.6159C52.6159 29.8295 52.5421 29.5 52.3944 29.2102C52.2495 28.9205 52.0421 28.6918 51.7722 28.5241C51.5051 28.3565 51.1898 28.2727 50.8262 28.2727C50.4256 28.2727 50.079 28.3722 49.7864 28.571C49.4966 28.767 49.2736 29.0227 49.1174 29.3381C48.9611 29.6534 48.883 29.9915 48.883 30.3523V30.9318C48.883 31.4261 48.9682 31.8452 49.1387 32.1889C49.312 32.5298 49.552 32.7898 49.8588 32.9688C50.1657 33.1449 50.5222 33.233 50.9284 33.233C51.1926 33.233 51.4313 33.196 51.6444 33.1222C51.8603 33.0455 52.0463 32.9318 52.2026 32.7812C52.3588 32.6278 52.4796 32.4375 52.5648 32.2102L53.5364 32.483C53.4341 32.8125 53.2623 33.1023 53.0208 33.3523C52.7793 33.5994 52.481 33.7926 52.1259 33.9318C51.7708 34.0682 51.3716 34.1364 50.9284 34.1364ZM57.6401 34.1364C57.0946 34.1364 56.6131 33.9986 56.1955 33.723C55.7779 33.4446 55.4512 33.0526 55.2154 32.5469C54.9796 32.0384 54.8617 31.4375 54.8617 30.7443C54.8617 30.0568 54.9796 29.4602 55.2154 28.9545C55.4512 28.4489 55.7793 28.0582 56.1998 27.7827C56.6202 27.5071 57.106 27.3693 57.6571 27.3693C58.0833 27.3693 58.4199 27.4403 58.6671 27.5824C58.9171 27.7216 59.1074 27.8807 59.2381 28.0597C59.3716 28.2358 59.4753 28.3807 59.5492 28.4943H59.6344V25.2727H60.6401V34H59.6685V32.9943H59.5492C59.4753 33.1136 59.3702 33.2642 59.2338 33.446C59.0975 33.625 58.9029 33.7855 58.65 33.9276C58.3972 34.0668 58.0605 34.1364 57.6401 34.1364ZM57.7765 33.233C58.1799 33.233 58.5208 33.1278 58.7992 32.9176C59.0776 32.7045 59.2892 32.4105 59.4341 32.0355C59.579 31.6577 59.6515 31.2216 59.6515 30.7273C59.6515 30.2386 59.5804 29.8111 59.4384 29.4446C59.2963 29.0753 59.0861 28.7884 58.8077 28.5838C58.5293 28.3764 58.1855 28.2727 57.7765 28.2727C57.3503 28.2727 56.9952 28.3821 56.7111 28.6009C56.4299 28.8168 56.2182 29.1108 56.0762 29.483C55.937 29.8523 55.8674 30.267 55.8674 30.7273C55.8674 31.1932 55.9384 31.6165 56.0804 31.9972C56.2253 32.375 56.4384 32.6761 56.7196 32.9006C57.0037 33.1222 57.356 33.233 57.7765 33.233ZM65.0932 34.1364C64.5478 34.1364 64.0662 33.9986 63.6486 33.723C63.231 33.4446 62.9043 33.0526 62.6685 32.5469C62.4327 32.0384 62.3148 31.4375 62.3148 30.7443C62.3148 30.0568 62.4327 29.4602 62.6685 28.9545C62.9043 28.4489 63.2324 28.0582 63.6529 27.7827C64.0733 27.5071 64.5591 27.3693 65.1103 27.3693C65.5364 27.3693 65.873 27.4403 66.1202 27.5824C66.3702 27.7216 66.5605 27.8807 66.6912 28.0597C66.8248 28.2358 66.9284 28.3807 67.0023 28.4943H67.0875V25.2727H68.0932V34H67.1216V32.9943H67.0023C66.9284 33.1136 66.8233 33.2642 66.687 33.446C66.5506 33.625 66.356 33.7855 66.1032 33.9276C65.8503 34.0668 65.5137 34.1364 65.0932 34.1364ZM65.2296 33.233C65.633 33.233 65.9739 33.1278 66.2523 32.9176C66.5307 32.7045 66.7424 32.4105 66.8873 32.0355C67.0321 31.6577 67.1046 31.2216 67.1046 30.7273C67.1046 30.2386 67.0336 29.8111 66.8915 29.4446C66.7495 29.0753 66.5392 28.7884 66.2608 28.5838C65.9824 28.3764 65.6387 28.2727 65.2296 28.2727C64.8034 28.2727 64.4483 28.3821 64.1642 28.6009C63.883 28.8168 63.6713 29.1108 63.5293 29.483C63.3901 29.8523 63.3205 30.267 63.3205 30.7273C63.3205 31.1932 63.3915 31.6165 63.5336 31.9972C63.6784 32.375 63.8915 32.6761 64.1728 32.9006C64.4569 33.1222 64.8091 33.233 65.2296 33.233ZM70.0748 34V27.4545H71.0804V34H70.0748ZM70.5861 26.3636C70.3901 26.3636 70.2211 26.2969 70.079 26.1634C69.9398 26.0298 69.8702 25.8693 69.8702 25.6818C69.8702 25.4943 69.9398 25.3338 70.079 25.2003C70.2211 25.0668 70.3901 25 70.5861 25C70.7821 25 70.9498 25.0668 71.089 25.2003C71.231 25.3338 71.302 25.4943 71.302 25.6818C71.302 25.8693 71.231 26.0298 71.089 26.1634C70.9498 26.2969 70.7821 26.3636 70.5861 26.3636ZM73.9281 30.0625V34H72.9224V27.4545H73.894V28.4773H73.9792C74.1326 28.1449 74.3656 27.8778 74.6781 27.6761C74.9906 27.4716 75.394 27.3693 75.8883 27.3693C76.3315 27.3693 76.7193 27.4602 77.0517 27.642C77.3841 27.821 77.6426 28.0938 77.8272 28.4602C78.0119 28.8239 78.1042 29.2841 78.1042 29.8409V34H77.0985V29.9091C77.0985 29.3949 76.965 28.9943 76.698 28.7074C76.4309 28.4176 76.0645 28.2727 75.5985 28.2727C75.2775 28.2727 74.9906 28.3423 74.7377 28.4815C74.4877 28.6207 74.2903 28.8239 74.1454 29.0909C74.0005 29.358 73.9281 29.6818 73.9281 30.0625ZM82.584 36.5909C82.0982 36.5909 81.6806 36.5284 81.3311 36.4034C80.9817 36.2812 80.6905 36.1193 80.4576 35.9176C80.2275 35.7188 80.0442 35.5057 79.9078 35.2784L80.709 34.7159C80.7999 34.8352 80.915 34.9716 81.0542 35.125C81.1934 35.2812 81.3837 35.4162 81.6252 35.5298C81.8695 35.6463 82.1891 35.7045 82.584 35.7045C83.1124 35.7045 83.5485 35.5767 83.8922 35.321C84.236 35.0653 84.4078 34.6648 84.4078 34.1193V32.7898H84.3226C84.2488 32.9091 84.1436 33.0568 84.0073 33.233C83.8738 33.4062 83.6806 33.5611 83.4277 33.6974C83.1777 33.831 82.8397 33.8977 82.4135 33.8977C81.8851 33.8977 81.4107 33.7727 80.9902 33.5227C80.5726 33.2727 80.2417 32.9091 79.9973 32.4318C79.7559 31.9545 79.6351 31.375 79.6351 30.6932C79.6351 30.0227 79.753 29.4389 79.9888 28.9418C80.2246 28.4418 80.5527 28.0554 80.9732 27.7827C81.3936 27.5071 81.8794 27.3693 82.4306 27.3693C82.8567 27.3693 83.1948 27.4403 83.4448 27.5824C83.6976 27.7216 83.8908 27.8807 84.0243 28.0597C84.1607 28.2358 84.2658 28.3807 84.3397 28.4943H84.4419V27.4545H85.4135V34.1875C85.4135 34.75 85.2857 35.2074 85.03 35.5597C84.7772 35.9148 84.4363 36.1747 84.0073 36.3395C83.5811 36.5071 83.1067 36.5909 82.584 36.5909ZM82.5499 32.9943C82.9533 32.9943 83.2942 32.902 83.5726 32.7173C83.851 32.5327 84.0627 32.267 84.2076 31.9205C84.3525 31.5739 84.4249 31.1591 84.4249 30.6761C84.4249 30.2045 84.3539 29.7884 84.2118 29.4276C84.0698 29.0668 83.8596 28.7841 83.5811 28.5795C83.3027 28.375 82.959 28.2727 82.5499 28.2727C82.1238 28.2727 81.7686 28.3807 81.4846 28.5966C81.2033 28.8125 80.9917 29.1023 80.8496 29.4659C80.7104 29.8295 80.6408 30.233 80.6408 30.6761C80.6408 31.1307 80.7118 31.5327 80.8539 31.8821C80.9988 32.2287 81.2118 32.5014 81.4931 32.7003C81.7772 32.8963 82.1294 32.9943 82.5499 32.9943ZM91.8908 28.9205L90.9874 29.1761C90.9306 29.0256 90.8468 28.8793 90.736 28.7372C90.628 28.5923 90.4803 28.473 90.2928 28.3793C90.1053 28.2855 89.8652 28.2386 89.5726 28.2386C89.1721 28.2386 88.8382 28.331 88.5712 28.5156C88.307 28.6974 88.1749 28.929 88.1749 29.2102C88.1749 29.4602 88.2658 29.6577 88.4476 29.8026C88.6294 29.9474 88.9135 30.0682 89.2999 30.1648L90.2715 30.4034C90.8567 30.5455 91.2928 30.7628 91.5797 31.0554C91.8667 31.3452 92.0101 31.7187 92.0101 32.1761C92.0101 32.5511 91.9022 32.8864 91.6863 33.1818C91.4732 33.4773 91.1749 33.7102 90.7914 33.8807C90.4078 34.0511 89.9618 34.1364 89.4533 34.1364C88.7857 34.1364 88.2331 33.9915 87.7956 33.7017C87.3581 33.4119 87.0811 32.9886 86.9647 32.4318L87.9192 32.1932C88.0101 32.5455 88.182 32.8097 88.4348 32.9858C88.6905 33.1619 89.0243 33.25 89.4363 33.25C89.905 33.25 90.2772 33.1506 90.5527 32.9517C90.8311 32.75 90.9703 32.5085 90.9703 32.2273C90.9703 32 90.8908 31.8097 90.7317 31.6562C90.5726 31.5 90.3283 31.3835 89.9988 31.3068L88.9078 31.0511C88.3084 30.9091 87.8681 30.6889 87.5868 30.3906C87.3084 30.0895 87.1692 29.7131 87.1692 29.2614C87.1692 28.892 87.2729 28.5653 87.4803 28.2812C87.6905 27.9972 87.976 27.7741 88.3368 27.6122C88.7005 27.4503 89.1124 27.3693 89.5726 27.3693C90.2203 27.3693 90.7289 27.5114 91.0982 27.7955C91.4703 28.0795 91.7346 28.4545 91.8908 28.9205Z" fill="black"/>
<rect x="53.5" y="79.5" width="65" height="42" stroke="black"/>
<path d="M66.0568 104V95.2727H67.1136V103.062H71.1705V104H66.0568ZM74.5966 104.153C74.1818 104.153 73.8054 104.075 73.4673 103.919C73.1293 103.76 72.8608 103.531 72.6619 103.233C72.4631 102.932 72.3636 102.568 72.3636 102.142C72.3636 101.767 72.4375 101.463 72.5852 101.23C72.733 100.994 72.9304 100.81 73.1776 100.676C73.4247 100.543 73.6974 100.443 73.9957 100.378C74.2969 100.31 74.5994 100.256 74.9034 100.216C75.3011 100.165 75.6236 100.126 75.8707 100.101C76.1207 100.072 76.3026 100.026 76.4162 99.9602C76.5327 99.8949 76.5909 99.7812 76.5909 99.6193V99.5852C76.5909 99.1648 76.4759 98.8381 76.2457 98.6051C76.0185 98.3722 75.6733 98.2557 75.2102 98.2557C74.7301 98.2557 74.3537 98.3608 74.081 98.571C73.8082 98.7812 73.6165 99.0057 73.5057 99.2443L72.5511 98.9034C72.7216 98.5057 72.9489 98.196 73.233 97.9744C73.5199 97.75 73.8324 97.5937 74.1705 97.5057C74.5114 97.4148 74.8466 97.3693 75.1761 97.3693C75.3864 97.3693 75.6278 97.3949 75.9006 97.446C76.1761 97.4943 76.4418 97.5952 76.6974 97.7486C76.956 97.902 77.1705 98.1335 77.3409 98.4432C77.5114 98.7528 77.5966 99.1676 77.5966 99.6875V104H76.5909V103.114H76.5398C76.4716 103.256 76.358 103.408 76.1989 103.57C76.0398 103.732 75.8281 103.869 75.5639 103.983C75.2997 104.097 74.9773 104.153 74.5966 104.153ZM74.75 103.25C75.1477 103.25 75.483 103.172 75.7557 103.016C76.0313 102.859 76.2386 102.658 76.3778 102.411C76.5199 102.163 76.5909 101.903 76.5909 101.631V100.71C76.5483 100.761 76.4545 100.808 76.3097 100.851C76.1676 100.891 76.0028 100.926 75.8153 100.957C75.6307 100.986 75.4503 101.011 75.2741 101.034C75.1009 101.054 74.9602 101.071 74.8523 101.085C74.5909 101.119 74.3466 101.175 74.1193 101.251C73.8949 101.325 73.7131 101.437 73.5739 101.588C73.4375 101.736 73.3693 101.937 73.3693 102.193C73.3693 102.543 73.4986 102.807 73.7571 102.986C74.0185 103.162 74.3494 103.25 74.75 103.25ZM79.5685 104V95.2727H80.5742V98.4943H80.6594C80.7333 98.3807 80.8356 98.2358 80.9663 98.0597C81.0998 97.8807 81.2901 97.7216 81.5373 97.5824C81.7873 97.4403 82.1254 97.3693 82.5515 97.3693C83.1026 97.3693 83.5884 97.5071 84.0089 97.7827C84.4293 98.0582 84.7575 98.4489 84.9933 98.9545C85.229 99.4602 85.3469 100.057 85.3469 100.744C85.3469 101.438 85.229 102.038 84.9933 102.547C84.7575 103.053 84.4308 103.445 84.0131 103.723C83.5955 103.999 83.114 104.136 82.5685 104.136C82.1481 104.136 81.8114 104.067 81.5586 103.928C81.3058 103.786 81.1112 103.625 80.9748 103.446C80.8384 103.264 80.7333 103.114 80.6594 102.994H80.5401V104H79.5685ZM80.5572 100.727C80.5572 101.222 80.6296 101.658 80.7745 102.036C80.9194 102.411 81.131 102.705 81.4094 102.918C81.6879 103.128 82.0288 103.233 82.4322 103.233C82.8526 103.233 83.2035 103.122 83.4847 102.901C83.7688 102.676 83.9819 102.375 84.1239 101.997C84.2688 101.616 84.3413 101.193 84.3413 100.727C84.3413 100.267 84.2702 99.8523 84.1282 99.483C83.989 99.1108 83.7773 98.8168 83.4933 98.6009C83.212 98.3821 82.8583 98.2727 82.4322 98.2727C82.0231 98.2727 81.6793 98.3764 81.4009 98.5838C81.1225 98.7884 80.9123 99.0753 80.7702 99.4446C80.6282 99.8111 80.5572 100.239 80.5572 100.727ZM89.6296 104.136C88.9989 104.136 88.4549 103.997 87.9975 103.719C87.543 103.438 87.1921 103.045 86.945 102.543C86.7006 102.037 86.5785 101.449 86.5785 100.778C86.5785 100.108 86.7006 99.517 86.945 99.0057C87.1921 98.4915 87.5359 98.0909 87.9762 97.804C88.4194 97.5142 88.9364 97.3693 89.5273 97.3693C89.8683 97.3693 90.2049 97.4261 90.5373 97.5398C90.8697 97.6534 91.1722 97.8381 91.445 98.0938C91.7177 98.3466 91.935 98.6818 92.0969 99.0994C92.2589 99.517 92.3398 100.031 92.3398 100.642V101.068H87.2944V100.199H91.3171C91.3171 99.8295 91.2433 99.5 91.0955 99.2102C90.9506 98.9205 90.7433 98.6918 90.4734 98.5241C90.2063 98.3565 89.891 98.2727 89.5273 98.2727C89.1268 98.2727 88.7802 98.3722 88.4876 98.571C88.1978 98.767 87.9748 99.0227 87.8185 99.3381C87.6623 99.6534 87.5842 99.9915 87.5842 100.352V100.932C87.5842 101.426 87.6694 101.845 87.8398 102.189C88.0131 102.53 88.2532 102.79 88.56 102.969C88.8668 103.145 89.2234 103.233 89.6296 103.233C89.8938 103.233 90.1325 103.196 90.3455 103.122C90.5614 103.045 90.7475 102.932 90.9038 102.781C91.06 102.628 91.1808 102.437 91.266 102.21L92.2376 102.483C92.1353 102.812 91.9634 103.102 91.7219 103.352C91.4805 103.599 91.1822 103.793 90.8271 103.932C90.4719 104.068 90.0728 104.136 89.6296 104.136ZM94.8754 95.2727V104H93.8697V95.2727H94.8754ZM101.354 98.9205L100.45 99.1761C100.393 99.0256 100.31 98.8793 100.199 98.7372C100.091 98.5923 99.9432 98.473 99.7557 98.3793C99.5682 98.2855 99.3281 98.2386 99.0355 98.2386C98.6349 98.2386 98.3011 98.331 98.0341 98.5156C97.7699 98.6974 97.6378 98.929 97.6378 99.2102C97.6378 99.4602 97.7287 99.6577 97.9105 99.8026C98.0923 99.9474 98.3764 100.068 98.7628 100.165L99.7344 100.403C100.32 100.545 100.756 100.763 101.043 101.055C101.33 101.345 101.473 101.719 101.473 102.176C101.473 102.551 101.365 102.886 101.149 103.182C100.936 103.477 100.638 103.71 100.254 103.881C99.8707 104.051 99.4247 104.136 98.9162 104.136C98.2486 104.136 97.696 103.991 97.2585 103.702C96.821 103.412 96.544 102.989 96.4276 102.432L97.3821 102.193C97.473 102.545 97.6449 102.81 97.8977 102.986C98.1534 103.162 98.4872 103.25 98.8991 103.25C99.3679 103.25 99.7401 103.151 100.016 102.952C100.294 102.75 100.433 102.509 100.433 102.227C100.433 102 100.354 101.81 100.195 101.656C100.036 101.5 99.7912 101.384 99.4616 101.307L98.3707 101.051C97.7713 100.909 97.331 100.689 97.0497 100.391C96.7713 100.089 96.6321 99.7131 96.6321 99.2614C96.6321 98.892 96.7358 98.5653 96.9432 98.2812C97.1534 97.9972 97.4389 97.7741 97.7997 97.6122C98.1634 97.4503 98.5753 97.3693 99.0355 97.3693C99.6832 97.3693 100.192 97.5114 100.561 97.7955C100.933 98.0795 101.197 98.4545 101.354 98.9205Z" fill="black"/>
<rect x="175.5" y="79.5" width="91" height="42" stroke="black"/>
<path d="M200.58 104.136C199.966 104.136 199.438 103.991 198.994 103.702C198.551 103.412 198.21 103.013 197.972 102.504C197.733 101.996 197.614 101.415 197.614 100.761C197.614 100.097 197.736 99.5099 197.98 99.0014C198.227 98.4901 198.571 98.0909 199.011 97.804C199.455 97.5142 199.972 97.3693 200.562 97.3693C201.023 97.3693 201.438 97.4545 201.807 97.625C202.176 97.7955 202.479 98.0341 202.714 98.3409C202.95 98.6477 203.097 99.0057 203.153 99.4148H202.148C202.071 99.1165 201.901 98.8523 201.636 98.6222C201.375 98.3892 201.023 98.2727 200.58 98.2727C200.188 98.2727 199.844 98.375 199.548 98.5795C199.256 98.7812 199.027 99.0668 198.862 99.4361C198.7 99.8026 198.619 100.233 198.619 100.727C198.619 101.233 198.699 101.673 198.858 102.048C199.02 102.423 199.247 102.714 199.54 102.922C199.835 103.129 200.182 103.233 200.58 103.233C200.841 103.233 201.078 103.188 201.291 103.097C201.504 103.006 201.685 102.875 201.832 102.705C201.98 102.534 202.085 102.33 202.148 102.091H203.153C203.097 102.477 202.956 102.825 202.732 103.135C202.51 103.442 202.216 103.686 201.849 103.868C201.486 104.047 201.063 104.136 200.58 104.136ZM208.374 99.7898V100.727H204.555V99.7898H208.374ZM208.912 96.2102V95.2727H215.457V96.2102H212.713V104H211.656V96.2102H208.912ZM217.088 104V95.2727H222.321V96.2102H218.145V99.1591H221.929V100.097H218.145V104H217.088ZM227.745 99.1676V100.105H223.926V99.1676H227.745ZM230.707 95.2727V104H229.651V95.2727H230.707ZM235.52 104H232.826V95.2727H235.639C236.485 95.2727 237.21 95.4474 237.812 95.7969C238.414 96.1435 238.876 96.642 239.197 97.2926C239.518 97.9403 239.679 98.7159 239.679 99.6193C239.679 100.528 239.517 101.311 239.193 101.967C238.869 102.621 238.397 103.124 237.778 103.476C237.159 103.825 236.406 104 235.52 104ZM233.883 103.062H235.451C236.173 103.062 236.771 102.923 237.245 102.645C237.72 102.366 238.074 101.97 238.306 101.456C238.539 100.942 238.656 100.33 238.656 99.6193C238.656 98.9148 238.541 98.3082 238.311 97.7997C238.081 97.2884 237.737 96.8963 237.279 96.6236C236.822 96.348 236.252 96.2102 235.571 96.2102H233.883V103.062ZM241.451 104V95.2727H246.684V96.2102H242.508V99.1591H246.292V100.097H242.508V104H241.451Z" fill="black"/>
<rect x="322.5" y="79.5" width="126" height="42" stroke="black"/>
<path d="M334.58 96.2102V95.2727H341.125V96.2102H338.381V104H337.324V96.2102H334.58ZM344.33 104.136C343.739 104.136 343.22 103.996 342.774 103.714C342.331 103.433 341.984 103.04 341.734 102.534C341.487 102.028 341.364 101.437 341.364 100.761C341.364 100.08 341.487 99.4844 341.734 98.9759C341.984 98.4673 342.331 98.0724 342.774 97.7912C343.22 97.5099 343.739 97.3693 344.33 97.3693C344.92 97.3693 345.438 97.5099 345.881 97.7912C346.327 98.0724 346.673 98.4673 346.92 98.9759C347.17 99.4844 347.295 100.08 347.295 100.761C347.295 101.437 347.17 102.028 346.92 102.534C346.673 103.04 346.327 103.433 345.881 103.714C345.438 103.996 344.92 104.136 344.33 104.136ZM344.33 103.233C344.778 103.233 345.148 103.118 345.438 102.888C345.727 102.658 345.942 102.355 346.081 101.98C346.22 101.605 346.29 101.199 346.29 100.761C346.29 100.324 346.22 99.9162 346.081 99.5384C345.942 99.1605 345.727 98.8551 345.438 98.6222C345.148 98.3892 344.778 98.2727 344.33 98.2727C343.881 98.2727 343.511 98.3892 343.222 98.6222C342.932 98.8551 342.717 99.1605 342.578 99.5384C342.439 99.9162 342.369 100.324 342.369 100.761C342.369 101.199 342.439 101.605 342.578 101.98C342.717 102.355 342.932 102.658 343.222 102.888C343.511 103.118 343.881 103.233 344.33 103.233ZM348.831 106.455V97.4545H349.802V98.4943H349.922C349.995 98.3807 350.098 98.2358 350.228 98.0597C350.362 97.8807 350.552 97.7216 350.799 97.5824C351.049 97.4403 351.387 97.3693 351.814 97.3693C352.365 97.3693 352.85 97.5071 353.271 97.7827C353.691 98.0582 354.02 98.4489 354.255 98.9545C354.491 99.4602 354.609 100.057 354.609 100.744C354.609 101.438 354.491 102.038 354.255 102.547C354.02 103.053 353.693 103.445 353.275 103.723C352.858 103.999 352.376 104.136 351.831 104.136C351.41 104.136 351.074 104.067 350.821 103.928C350.568 103.786 350.373 103.625 350.237 103.446C350.1 103.264 349.995 103.114 349.922 102.994H349.836V106.455H348.831ZM349.819 100.727C349.819 101.222 349.892 101.658 350.037 102.036C350.181 102.411 350.393 102.705 350.672 102.918C350.95 103.128 351.291 103.233 351.694 103.233C352.115 103.233 352.466 103.122 352.747 102.901C353.031 102.676 353.244 102.375 353.386 101.997C353.531 101.616 353.603 101.193 353.603 100.727C353.603 100.267 353.532 99.8523 353.39 99.483C353.251 99.1108 353.039 98.8168 352.755 98.6009C352.474 98.3821 352.12 98.2727 351.694 98.2727C351.285 98.2727 350.941 98.3764 350.663 98.5838C350.385 98.7884 350.174 99.0753 350.032 99.4446C349.89 99.8111 349.819 100.239 349.819 100.727ZM356.143 104V97.4545H357.149V104H356.143ZM356.654 96.3636C356.458 96.3636 356.289 96.2969 356.147 96.1634C356.008 96.0298 355.939 95.8693 355.939 95.6818C355.939 95.4943 356.008 95.3338 356.147 95.2003C356.289 95.0668 356.458 95 356.654 95C356.85 95 357.018 95.0668 357.157 95.2003C357.299 95.3338 357.37 95.4943 357.37 95.6818C357.37 95.8693 357.299 96.0298 357.157 96.1634C357.018 96.2969 356.85 96.3636 356.654 96.3636ZM361.65 104.136C361.036 104.136 360.508 103.991 360.065 103.702C359.621 103.412 359.281 103.013 359.042 102.504C358.803 101.996 358.684 101.415 358.684 100.761C358.684 100.097 358.806 99.5099 359.05 99.0014C359.298 98.4901 359.641 98.0909 360.082 97.804C360.525 97.5142 361.042 97.3693 361.633 97.3693C362.093 97.3693 362.508 97.4545 362.877 97.625C363.246 97.7955 363.549 98.0341 363.785 98.3409C364.021 98.6477 364.167 99.0057 364.224 99.4148H363.218C363.141 99.1165 362.971 98.8523 362.707 98.6222C362.445 98.3892 362.093 98.2727 361.65 98.2727C361.258 98.2727 360.914 98.375 360.619 98.5795C360.326 98.7812 360.097 99.0668 359.933 99.4361C359.771 99.8026 359.69 100.233 359.69 100.727C359.69 101.233 359.769 101.673 359.928 102.048C360.09 102.423 360.317 102.714 360.61 102.922C360.906 103.129 361.252 103.233 361.65 103.233C361.911 103.233 362.148 103.188 362.362 103.097C362.575 103.006 362.755 102.875 362.903 102.705C363.05 102.534 363.156 102.33 363.218 102.091H364.224C364.167 102.477 364.026 102.825 363.802 103.135C363.58 103.442 363.286 103.686 362.92 103.868C362.556 104.047 362.133 104.136 361.65 104.136ZM371.813 104.136C371.183 104.136 370.638 103.997 370.181 103.719C369.727 103.438 369.376 103.045 369.129 102.543C368.884 102.037 368.762 101.449 368.762 100.778C368.762 100.108 368.884 99.517 369.129 99.0057C369.376 98.4915 369.719 98.0909 370.16 97.804C370.603 97.5142 371.12 97.3693 371.711 97.3693C372.052 97.3693 372.388 97.4261 372.721 97.5398C373.053 97.6534 373.356 97.8381 373.629 98.0938C373.901 98.3466 374.119 98.6818 374.281 99.0994C374.442 99.517 374.523 100.031 374.523 100.642V101.068H369.478V100.199H373.501C373.501 99.8295 373.427 99.5 373.279 99.2102C373.134 98.9205 372.927 98.6918 372.657 98.5241C372.39 98.3565 372.075 98.2727 371.711 98.2727C371.31 98.2727 370.964 98.3722 370.671 98.571C370.381 98.767 370.158 99.0227 370.002 99.3381C369.846 99.6534 369.768 99.9915 369.768 100.352V100.932C369.768 101.426 369.853 101.845 370.023 102.189C370.197 102.53 370.437 102.79 370.744 102.969C371.05 103.145 371.407 103.233 371.813 103.233C372.077 103.233 372.316 103.196 372.529 103.122C372.745 103.045 372.931 102.932 373.087 102.781C373.244 102.628 373.364 102.437 373.45 102.21L374.421 102.483C374.319 102.812 374.147 103.102 373.906 103.352C373.664 103.599 373.366 103.793 373.011 103.932C372.656 104.068 372.256 104.136 371.813 104.136ZM376.053 104V97.4545H377.025V98.4773H377.11C377.246 98.1278 377.467 97.8565 377.771 97.6634C378.075 97.4673 378.44 97.3693 378.866 97.3693C379.298 97.3693 379.657 97.4673 379.944 97.6634C380.234 97.8565 380.46 98.1278 380.621 98.4773H380.69C380.857 98.1392 381.109 97.8707 381.444 97.6719C381.779 97.4702 382.181 97.3693 382.65 97.3693C383.235 97.3693 383.714 97.5526 384.086 97.919C384.458 98.2827 384.644 98.8494 384.644 99.6193V104H383.638V99.6193C383.638 99.1364 383.506 98.7912 383.242 98.5838C382.978 98.3764 382.667 98.2727 382.309 98.2727C381.849 98.2727 381.492 98.4119 381.239 98.6903C380.987 98.9659 380.86 99.3153 380.86 99.7386V104H379.837V99.517C379.837 99.1449 379.717 98.8452 379.475 98.6179C379.234 98.3878 378.923 98.2727 378.542 98.2727C378.281 98.2727 378.036 98.3423 377.809 98.4815C377.585 98.6207 377.403 98.8139 377.263 99.0611C377.127 99.3054 377.059 99.5881 377.059 99.9091V104H376.053ZM386.619 104V95.2727H387.625V98.4943H387.71C387.784 98.3807 387.886 98.2358 388.017 98.0597C388.151 97.8807 388.341 97.7216 388.588 97.5824C388.838 97.4403 389.176 97.3693 389.602 97.3693C390.153 97.3693 390.639 97.5071 391.06 97.7827C391.48 98.0582 391.808 98.4489 392.044 98.9545C392.28 99.4602 392.398 100.057 392.398 100.744C392.398 101.438 392.28 102.038 392.044 102.547C391.808 103.053 391.482 103.445 391.064 103.723C390.646 103.999 390.165 104.136 389.619 104.136C389.199 104.136 388.862 104.067 388.609 103.928C388.357 103.786 388.162 103.625 388.026 103.446C387.889 103.264 387.784 103.114 387.71 102.994H387.591V104H386.619ZM387.608 100.727C387.608 101.222 387.68 101.658 387.825 102.036C387.97 102.411 388.182 102.705 388.46 102.918C388.739 103.128 389.08 103.233 389.483 103.233C389.903 103.233 390.254 103.122 390.536 102.901C390.82 102.676 391.033 102.375 391.175 101.997C391.32 101.616 391.392 101.193 391.392 100.727C391.392 100.267 391.321 99.8523 391.179 99.483C391.04 99.1108 390.828 98.8168 390.544 98.6009C390.263 98.3821 389.909 98.2727 389.483 98.2727C389.074 98.2727 388.73 98.3764 388.452 98.5838C388.173 98.7884 387.963 99.0753 387.821 99.4446C387.679 99.8111 387.608 100.239 387.608 100.727ZM396.68 104.136C396.05 104.136 395.506 103.997 395.048 103.719C394.594 103.438 394.243 103.045 393.996 102.543C393.751 102.037 393.629 101.449 393.629 100.778C393.629 100.108 393.751 99.517 393.996 99.0057C394.243 98.4915 394.587 98.0909 395.027 97.804C395.47 97.5142 395.987 97.3693 396.578 97.3693C396.919 97.3693 397.256 97.4261 397.588 97.5398C397.92 97.6534 398.223 97.8381 398.496 98.0938C398.768 98.3466 398.986 98.6818 399.148 99.0994C399.31 99.517 399.391 100.031 399.391 100.642V101.068H394.345V100.199H398.368C398.368 99.8295 398.294 99.5 398.146 99.2102C398.001 98.9205 397.794 98.6918 397.524 98.5241C397.257 98.3565 396.942 98.2727 396.578 98.2727C396.178 98.2727 395.831 98.3722 395.538 98.571C395.249 98.767 395.026 99.0227 394.869 99.3381C394.713 99.6534 394.635 99.9915 394.635 100.352V100.932C394.635 101.426 394.72 101.845 394.891 102.189C395.064 102.53 395.304 102.79 395.611 102.969C395.918 103.145 396.274 103.233 396.68 103.233C396.945 103.233 397.183 103.196 397.396 103.122C397.612 103.045 397.798 102.932 397.955 102.781C398.111 102.628 398.232 102.437 398.317 102.21L399.288 102.483C399.186 102.812 399.014 103.102 398.773 103.352C398.531 103.599 398.233 103.793 397.878 103.932C397.523 104.068 397.124 104.136 396.68 104.136ZM403.392 104.136C402.847 104.136 402.365 103.999 401.947 103.723C401.53 103.445 401.203 103.053 400.967 102.547C400.732 102.038 400.614 101.438 400.614 100.744C400.614 100.057 400.732 99.4602 400.967 98.9545C401.203 98.4489 401.531 98.0582 401.952 97.7827C402.372 97.5071 402.858 97.3693 403.409 97.3693C403.835 97.3693 404.172 97.4403 404.419 97.5824C404.669 97.7216 404.859 97.8807 404.99 98.0597C405.124 98.2358 405.227 98.3807 405.301 98.4943H405.386V95.2727H406.392V104H405.42V102.994H405.301C405.227 103.114 405.122 103.264 404.986 103.446C404.849 103.625 404.655 103.786 404.402 103.928C404.149 104.067 403.813 104.136 403.392 104.136ZM403.528 103.233C403.932 103.233 404.273 103.128 404.551 102.918C404.83 102.705 405.041 102.411 405.186 102.036C405.331 101.658 405.403 101.222 405.403 100.727C405.403 100.239 405.332 99.8111 405.19 99.4446C405.048 99.0753 404.838 98.7884 404.56 98.5838C404.281 98.3764 403.938 98.2727 403.528 98.2727C403.102 98.2727 402.747 98.3821 402.463 98.6009C402.182 98.8168 401.97 99.1108 401.828 99.483C401.689 99.8523 401.619 100.267 401.619 100.727C401.619 101.193 401.69 101.616 401.832 101.997C401.977 102.375 402.19 102.676 402.472 102.901C402.756 103.122 403.108 103.233 403.528 103.233ZM410.845 104.136C410.3 104.136 409.818 103.999 409.401 103.723C408.983 103.445 408.656 103.053 408.42 102.547C408.185 102.038 408.067 101.438 408.067 100.744C408.067 100.057 408.185 99.4602 408.42 98.9545C408.656 98.4489 408.984 98.0582 409.405 97.7827C409.825 97.5071 410.311 97.3693 410.862 97.3693C411.288 97.3693 411.625 97.4403 411.872 97.5824C412.122 97.7216 412.313 97.8807 412.443 98.0597C412.577 98.2358 412.68 98.3807 412.754 98.4943H412.839V95.2727H413.845V104H412.874V102.994H412.754C412.68 103.114 412.575 103.264 412.439 103.446C412.303 103.625 412.108 103.786 411.855 103.928C411.602 104.067 411.266 104.136 410.845 104.136ZM410.982 103.233C411.385 103.233 411.726 103.128 412.004 102.918C412.283 102.705 412.494 102.411 412.639 102.036C412.784 101.658 412.857 101.222 412.857 100.727C412.857 100.239 412.786 99.8111 412.643 99.4446C412.501 99.0753 412.291 98.7884 412.013 98.5838C411.734 98.3764 411.391 98.2727 410.982 98.2727C410.555 98.2727 410.2 98.3821 409.916 98.6009C409.635 98.8168 409.423 99.1108 409.281 99.483C409.142 99.8523 409.072 100.267 409.072 100.727C409.072 101.193 409.143 101.616 409.286 101.997C409.43 102.375 409.643 102.676 409.925 102.901C410.209 103.122 410.561 103.233 410.982 103.233ZM415.827 104V97.4545H416.832V104H415.827ZM416.338 96.3636C416.142 96.3636 415.973 96.2969 415.831 96.1634C415.692 96.0298 415.622 95.8693 415.622 95.6818C415.622 95.4943 415.692 95.3338 415.831 95.2003C415.973 95.0668 416.142 95 416.338 95C416.534 95 416.702 95.0668 416.841 95.2003C416.983 95.3338 417.054 95.4943 417.054 95.6818C417.054 95.8693 416.983 96.0298 416.841 96.1634C416.702 96.2969 416.534 96.3636 416.338 96.3636ZM419.68 100.062V104H418.674V97.4545H419.646V98.4773H419.731C419.885 98.1449 420.118 97.8778 420.43 97.6761C420.743 97.4716 421.146 97.3693 421.64 97.3693C422.083 97.3693 422.471 97.4602 422.804 97.642C423.136 97.821 423.395 98.0938 423.579 98.4602C423.764 98.8239 423.856 99.2841 423.856 99.8409V104H422.85V99.9091C422.85 99.3949 422.717 98.9943 422.45 98.7074C422.183 98.4176 421.816 98.2727 421.35 98.2727C421.029 98.2727 420.743 98.3423 420.49 98.4815C420.24 98.6207 420.042 98.8239 419.897 99.0909C419.752 99.358 419.68 99.6818 419.68 100.062ZM428.336 106.591C427.85 106.591 427.433 106.528 427.083 106.403C426.734 106.281 426.442 106.119 426.21 105.918C425.979 105.719 425.796 105.506 425.66 105.278L426.461 104.716C426.552 104.835 426.667 104.972 426.806 105.125C426.945 105.281 427.136 105.416 427.377 105.53C427.621 105.646 427.941 105.705 428.336 105.705C428.864 105.705 429.3 105.577 429.644 105.321C429.988 105.065 430.16 104.665 430.16 104.119V102.79H430.075C430.001 102.909 429.896 103.057 429.759 103.233C429.626 103.406 429.433 103.561 429.18 103.697C428.93 103.831 428.592 103.898 428.165 103.898C427.637 103.898 427.163 103.773 426.742 103.523C426.325 103.273 425.994 102.909 425.749 102.432C425.508 101.955 425.387 101.375 425.387 100.693C425.387 100.023 425.505 99.4389 425.741 98.9418C425.977 98.4418 426.305 98.0554 426.725 97.7827C427.146 97.5071 427.631 97.3693 428.183 97.3693C428.609 97.3693 428.947 97.4403 429.197 97.5824C429.45 97.7216 429.643 97.8807 429.776 98.0597C429.913 98.2358 430.018 98.3807 430.092 98.4943H430.194V97.4545H431.165V104.188C431.165 104.75 431.038 105.207 430.782 105.56C430.529 105.915 430.188 106.175 429.759 106.339C429.333 106.507 428.859 106.591 428.336 106.591ZM428.302 102.994C428.705 102.994 429.046 102.902 429.325 102.717C429.603 102.533 429.815 102.267 429.96 101.92C430.104 101.574 430.177 101.159 430.177 100.676C430.177 100.205 430.106 99.7884 429.964 99.4276C429.822 99.0668 429.612 98.7841 429.333 98.5795C429.055 98.375 428.711 98.2727 428.302 98.2727C427.876 98.2727 427.521 98.3807 427.237 98.5966C426.955 98.8125 426.744 99.1023 426.602 99.4659C426.462 99.8295 426.393 100.233 426.393 100.676C426.393 101.131 426.464 101.533 426.606 101.882C426.751 102.229 426.964 102.501 427.245 102.7C427.529 102.896 427.881 102.994 428.302 102.994ZM437.643 98.9205L436.739 99.1761C436.683 99.0256 436.599 98.8793 436.488 98.7372C436.38 98.5923 436.232 98.473 436.045 98.3793C435.857 98.2855 435.617 98.2386 435.325 98.2386C434.924 98.2386 434.59 98.331 434.323 98.5156C434.059 98.6974 433.927 98.929 433.927 99.2102C433.927 99.4602 434.018 99.6577 434.2 99.8026C434.381 99.9474 434.665 100.068 435.052 100.165L436.023 100.403C436.609 100.545 437.045 100.763 437.332 101.055C437.619 101.345 437.762 101.719 437.762 102.176C437.762 102.551 437.654 102.886 437.438 103.182C437.225 103.477 436.927 103.71 436.543 103.881C436.16 104.051 435.714 104.136 435.205 104.136C434.538 104.136 433.985 103.991 433.548 103.702C433.11 103.412 432.833 102.989 432.717 102.432L433.671 102.193C433.762 102.545 433.934 102.81 434.187 102.986C434.442 103.162 434.776 103.25 435.188 103.25C435.657 103.25 436.029 103.151 436.305 102.952C436.583 102.75 436.722 102.509 436.722 102.227C436.722 102 436.643 101.81 436.484 101.656C436.325 101.5 436.08 101.384 435.751 101.307L434.66 101.051C434.06 100.909 433.62 100.689 433.339 100.391C433.06 100.089 432.921 99.7131 432.921 99.2614C432.921 98.892 433.025 98.5653 433.232 98.2812C433.442 97.9972 433.728 97.7741 434.089 97.6122C434.452 97.4503 434.864 97.3693 435.325 97.3693C435.972 97.3693 436.481 97.5114 436.85 97.7955C437.222 98.0795 437.487 98.4545 437.643 98.9205Z" fill="black"/>
<path d="M376.293 60.7071C376.683 61.0976 377.317 61.0976 377.707 60.7071L384.071 54.3431C384.462 53.9526 384.462 53.3195 384.071 52.9289C383.681 52.5384 383.047 52.5384 382.657 52.9289L377 58.5858L371.343 52.9289C370.953 52.5384 370.319 52.5384 369.929 52.9289C369.538 53.3195 369.538 53.9526 369.929 54.3431L376.293 60.7071ZM376 22L376 60L378 60L378 22L376 22Z" fill="black"/>
<line x1="378" y1="22" x2="130" y2="22" stroke="black" stroke-width="2"/>
<path d="M167.707 101.707C168.098 101.317 168.098 100.683 167.707 100.293L161.343 93.9289C160.953 93.5384 160.319 93.5384 159.929 93.9289C159.538 94.3195 159.538 94.9526 159.929 95.3431L165.586 101L159.929 106.657C159.538 107.047 159.538 107.681 159.929 108.071C160.319 108.462 160.953 108.462 161.343 108.071L167.707 101.707ZM127 102H167V100H127V102Z" fill="black"/>
<path d="M314.707 100.707C315.098 100.317 315.098 99.6834 314.707 99.2929L308.343 92.9289C307.953 92.5384 307.319 92.5384 306.929 92.9289C306.538 93.3195 306.538 93.9526 306.929 94.3431L312.586 100L306.929 105.657C306.538 106.047 306.538 106.681 306.929 107.071C307.319 107.462 307.953 107.462 308.343 107.071L314.707 100.707ZM274 101H314V99H274V101Z" fill="black"/>
</svg>
