<svg width="445" height="208" viewBox="0 0 445 208" fill="none" xmlns="http://www.w3.org/2000/svg">
<rect x="132" y="170" width="118" height="38" fill="#64B5F6"/>
<rect x="224" y="160" width="20" height="8" fill="#64B5F6"/>
<rect x="196" y="160" width="20" height="8" fill="#64B5F6"/>
<rect x="168" y="160" width="20" height="8" fill="#64B5F6"/>
<rect x="140" y="160" width="20" height="8" fill="#64B5F6"/>
<text fill="white" xml:space="preserve" style="white-space: pre" font-family="Tahoma" font-size="20" font-weight="bold" letter-spacing="0em"><tspan x="158.256" y="197.939">SBERT</tspan></text>
<rect x="132" y="130" width="118" height="38" fill="#E57373"/>
<rect x="224" y="120" width="20" height="8" fill="#E57373"/>
<rect x="196" y="120" width="20" height="8" fill="#E57373"/>
<rect x="168" y="120" width="20" height="8" fill="#E57373"/>
<rect x="140" y="120" width="20" height="8" fill="#E57373"/>
<text fill="white" xml:space="preserve" style="white-space: pre" font-family="Tahoma" font-size="20" font-weight="bold" letter-spacing="0em"><tspan x="161.254" y="157.939">UMAP</tspan></text>
<rect x="132" y="90" width="118" height="38" fill="#4DB6AC"/>
<rect x="224" y="80" width="20" height="8" fill="#4DB6AC"/>
<rect x="196" y="80" width="20" height="8" fill="#4DB6AC"/>
<rect x="168" y="80" width="20" height="8" fill="#4DB6AC"/>
<rect x="140" y="80" width="20" height="8" fill="#4DB6AC"/>
<text fill="white" xml:space="preserve" style="white-space: pre" font-family="Tahoma" font-size="20" font-weight="bold" letter-spacing="0em"><tspan x="141.342" y="117.939">HDBSCAN</tspan></text>
<rect y="50" width="118" height="38" fill="#FFD54F"/>
<rect x="92" y="40" width="20" height="8" fill="#FFD54F"/>
<rect x="64" y="40" width="20" height="8" fill="#FFD54F"/>
<rect x="36" y="40" width="20" height="8" fill="#FFD54F"/>
<rect x="8" y="40" width="20" height="8" fill="#FFD54F"/>
<text fill="white" xml:space="preserve" style="white-space: pre" font-family="Tahoma" font-size="13" font-weight="bold" letter-spacing="0em"><tspan x="6.34619" y="74.1606">CountVectorizer</tspan></text>
<rect x="132" y="50" width="118" height="38" fill="#FFD54F"/>
<rect x="224" y="40" width="20" height="8" fill="#FFD54F"/>
<rect x="196" y="40" width="20" height="8" fill="#FFD54F"/>
<rect x="168" y="40" width="20" height="8" fill="#FFD54F"/>
<rect x="140" y="40" width="20" height="8" fill="#FFD54F"/>
<text fill="white" xml:space="preserve" style="white-space: pre" font-family="Tahoma" font-size="20" font-weight="bold" letter-spacing="0em"><tspan x="164.73" y="77.9395">Jieba</tspan></text>
<rect x="132" y="10" width="118" height="38" fill="#90A4AE"/>
<rect x="224" width="20" height="8" fill="#90A4AE"/>
<rect x="196" width="20" height="8" fill="#90A4AE"/>
<rect x="168" width="20" height="8" fill="#90A4AE"/>
<rect x="140" width="20" height="8" fill="#90A4AE"/>
<text fill="white" xml:space="preserve" style="white-space: pre" font-family="Tahoma" font-size="20" font-weight="bold" letter-spacing="0em"><tspan x="146.938" y="37.9395">c-TF-IDF</tspan></text>
<rect x="327" y="50" width="118" height="38" fill="#FFD54F"/>
<rect x="419" y="40" width="20" height="8" fill="#FFD54F"/>
<rect x="391" y="40" width="20" height="8" fill="#FFD54F"/>
<rect x="363" y="40" width="20" height="8" fill="#FFD54F"/>
<rect x="335" y="40" width="20" height="8" fill="#FFD54F"/>
<text fill="white" xml:space="preserve" style="white-space: pre" font-family="Tahoma" font-size="20" font-weight="bold" letter-spacing="0em"><tspan x="365.385" y="77.9395">POS</tspan></text>
<circle cx="266.5" cy="68.5" r="5.5" fill="black"/>
<circle cx="285.5" cy="68.5" r="5.5" fill="black"/>
<circle cx="307.5" cy="68.5" r="5.5" fill="black"/>
</svg>
