<svg width="705" height="199" viewBox="0 0 705 199" fill="none" xmlns="http://www.w3.org/2000/svg">
<text fill="black" xml:space="preserve" style="white-space: pre" font-family="Tahoma" font-size="12" font-weight="bold" letter-spacing="0em"><tspan x="0" y="47.7637">&#10;</tspan></text>
<text fill="black" xml:space="preserve" style="white-space: pre" font-family="Tahoma" font-size="12" letter-spacing="0em"><tspan x="0" y="19.7637">&#10;</tspan><tspan x="18" y="33.7637">meat | organic | food | beef | emissions | eat | of | eating | is&#10;</tspan><tspan x="18" y="61.7637">the | explosion | atmosphere | eruption | kilometers | of | &#10;</tspan><tspan x="0" y="75.7637">&#10;</tspan><tspan x="18" y="89.7637">immune | system | your | cells | my | and | is | the | how | of&#10;</tspan><tspan x="0" y="103.764">&#10;</tspan><tspan x="18" y="117.764">moon | earth | lunar | tides | the | water | orbit | base | moons &#10;</tspan><tspan x="0" y="131.764">&#10;</tspan><tspan x="18" y="145.764">eu | european | democratic | vote | parliament | member | union&#10;</tspan><tspan x="0" y="159.764">&#10;</tspan><tspan x="18" y="173.764">plastic | plastics | tons | pollution | waste | microplastics | polymers</tspan></text>
<text fill="black" xml:space="preserve" style="white-space: pre" font-family="Tahoma" font-size="14" font-weight="bold" letter-spacing="0em"><tspan x="6" y="14.0576">Default Representation</tspan></text>
<text fill="black" xml:space="preserve" style="white-space: pre" font-family="Tahoma" font-size="12" letter-spacing="0em"><tspan x="452" y="19.7637">&#10;</tspan><tspan x="470" y="33.7637">Organic food&#10;</tspan><tspan x="452" y="47.7637">&#10;</tspan><tspan x="470" y="61.7637">Exploding planets&#10;</tspan><tspan x="452" y="75.7637">&#10;</tspan><tspan x="470" y="89.7637">How your immune system works&#10;</tspan><tspan x="452" y="103.764">&#10;</tspan><tspan x="470" y="117.764">How tides work&#10;</tspan><tspan x="452" y="131.764">&#10;</tspan><tspan x="470" y="145.764">How democratic is the European Union?&#10;</tspan><tspan x="452" y="159.764">&#10;</tspan><tspan x="470" y="173.764">Plastic pollution&#10;</tspan></text>
<text fill="black" xml:space="preserve" style="white-space: pre" font-family="Tahoma" font-size="14" font-weight="bold" letter-spacing="0em"><tspan x="458" y="18.0576">Cohere</tspan></text>
<path d="M448.354 170.354C448.549 170.158 448.549 169.842 448.354 169.646L445.172 166.464C444.976 166.269 444.66 166.269 444.464 166.464C444.269 166.66 444.269 166.976 444.464 167.172L447.293 170L444.464 172.828C444.269 173.024 444.269 173.34 444.464 173.536C444.66 173.731 444.976 173.731 445.172 173.536L448.354 170.354ZM418 170.5H448V169.5H418V170.5Z" fill="black"/>
<path d="M448.354 143.354C448.549 143.158 448.549 142.842 448.354 142.646L445.172 139.464C444.976 139.269 444.66 139.269 444.464 139.464C444.269 139.66 444.269 139.976 444.464 140.172L447.293 143L444.464 145.828C444.269 146.024 444.269 146.34 444.464 146.536C444.66 146.731 444.976 146.731 445.172 146.536L448.354 143.354ZM418 143.5H448V142.5H418V143.5Z" fill="black"/>
<path d="M448.354 114.354C448.549 114.158 448.549 113.842 448.354 113.646L445.172 110.464C444.976 110.269 444.66 110.269 444.464 110.464C444.269 110.66 444.269 110.976 444.464 111.172L447.293 114L444.464 116.828C444.269 117.024 444.269 117.34 444.464 117.536C444.66 117.731 444.976 117.731 445.172 117.536L448.354 114.354ZM418 114.5H448V113.5H418V114.5Z" fill="black"/>
<path d="M448.354 86.3536C448.549 86.1583 448.549 85.8417 448.354 85.6464L445.172 82.4645C444.976 82.2692 444.66 82.2692 444.464 82.4645C444.269 82.6597 444.269 82.9763 444.464 83.1716L447.293 86L444.464 88.8284C444.269 89.0237 444.269 89.3403 444.464 89.5355C444.66 89.7308 444.976 89.7308 445.172 89.5355L448.354 86.3536ZM418 86.5H448V85.5H418V86.5Z" fill="black"/>
<path d="M448.354 58.3536C448.549 58.1583 448.549 57.8417 448.354 57.6464L445.172 54.4645C444.976 54.2692 444.66 54.2692 444.464 54.4645C444.269 54.6597 444.269 54.9763 444.464 55.1716L447.293 58L444.464 60.8284C444.269 61.0237 444.269 61.3403 444.464 61.5355C444.66 61.7308 444.976 61.7308 445.172 61.5355L448.354 58.3536ZM418 58.5H448V57.5H418V58.5Z" fill="black"/>
<path d="M448.354 30.3536C448.549 30.1583 448.549 29.8417 448.354 29.6464L445.172 26.4645C444.976 26.2692 444.66 26.2692 444.464 26.4645C444.269 26.6597 444.269 26.9763 444.464 27.1716L447.293 30L444.464 32.8284C444.269 33.0237 444.269 33.3403 444.464 33.5355C444.66 33.7308 444.976 33.7308 445.172 33.5355L448.354 30.3536ZM418 30.5H448V29.5H418V30.5Z" fill="black"/>
</svg>
