<svg width="687" height="199" viewBox="0 0 687 199" fill="none" xmlns="http://www.w3.org/2000/svg">
<text fill="black" xml:space="preserve" style="white-space: pre" font-family="Inter" font-size="12" letter-spacing="0em"><tspan x="0" y="19.8636">&#10;</tspan><tspan x="18" y="34.8636">meat | organic | food | beef | emissions | eat | of | eating | is&#10;</tspan><tspan x="18" y="64.8636">the | explosion | atmosphere | eruption | kilometers | of | &#10;</tspan><tspan x="0" y="79.8636">&#10;</tspan><tspan x="18" y="94.8636">immune | system | your | cells | my | and | is | the | how | of&#10;</tspan><tspan x="0" y="109.864">&#10;</tspan><tspan x="18" y="124.864">moon | earth | lunar | tides | the | water | orbit | base | moons &#10;</tspan><tspan x="0" y="139.864">&#10;</tspan><tspan x="18" y="154.864">eu | european | democratic | vote | parliament | member | union&#10;</tspan><tspan x="0" y="169.864">&#10;</tspan><tspan x="18" y="184.864">plastic | plastics | tons | pollution | waste | microplastics | polymers</tspan></text>
<text fill="black" xml:space="preserve" style="white-space: pre" font-family="Inter" font-size="12" font-weight="bold" letter-spacing="0em"><tspan x="0" y="49.8636">&#10;</tspan></text>
<text fill="black" xml:space="preserve" style="white-space: pre" font-family="Inter" font-size="14" font-weight="bold" letter-spacing="0em"><tspan x="6" y="13.5909">Default Representation</tspan></text>
<text fill="black" xml:space="preserve" style="white-space: pre" font-family="Inter" font-size="12" letter-spacing="0em"><tspan x="452" y="19.8636">&#10;</tspan><tspan x="470" y="34.8636">beef&#10;</tspan><tspan x="452" y="49.8636">&#10;</tspan><tspan x="470" y="64.8636">volcanoes&#10;</tspan><tspan x="452" y="79.8636">&#10;</tspan><tspan x="470" y="94.8636">immune system&#10;</tspan><tspan x="452" y="109.864">&#10;</tspan><tspan x="470" y="124.864">earth&#10;</tspan><tspan x="452" y="139.864">&#10;</tspan><tspan x="470" y="154.864">european union&#10;</tspan><tspan x="452" y="169.864">&#10;</tspan><tspan x="470" y="184.864">cotton</tspan></text>
<text fill="black" xml:space="preserve" style="white-space: pre" font-family="Inter" font-size="14" font-weight="bold" letter-spacing="0em"><tspan x="458" y="17.5909">&#x1f917; Transformers</tspan></text>
<path d="M448.354 182.354C448.549 182.158 448.549 181.842 448.354 181.646L445.172 178.464C444.976 178.269 444.66 178.269 444.464 178.464C444.269 178.66 444.269 178.976 444.464 179.172L447.293 182L444.464 184.828C444.269 185.024 444.269 185.34 444.464 185.536C444.66 185.731 444.976 185.731 445.172 185.536L448.354 182.354ZM418 182.5H448V181.5H418V182.5Z" fill="black"/>
<path d="M448.354 152.354C448.549 152.158 448.549 151.842 448.354 151.646L445.172 148.464C444.976 148.269 444.66 148.269 444.464 148.464C444.269 148.66 444.269 148.976 444.464 149.172L447.293 152L444.464 154.828C444.269 155.024 444.269 155.34 444.464 155.536C444.66 155.731 444.976 155.731 445.172 155.536L448.354 152.354ZM418 152.5H448V151.5H418V152.5Z" fill="black"/>
<path d="M448.354 122.354C448.549 122.158 448.549 121.842 448.354 121.646L445.172 118.464C444.976 118.269 444.66 118.269 444.464 118.464C444.269 118.66 444.269 118.976 444.464 119.172L447.293 122L444.464 124.828C444.269 125.024 444.269 125.34 444.464 125.536C444.66 125.731 444.976 125.731 445.172 125.536L448.354 122.354ZM418 122.5H448V121.5H418V122.5Z" fill="black"/>
<path d="M448.354 92.3536C448.549 92.1583 448.549 91.8417 448.354 91.6464L445.172 88.4645C444.976 88.2692 444.66 88.2692 444.464 88.4645C444.269 88.6597 444.269 88.9763 444.464 89.1716L447.293 92L444.464 94.8284C444.269 95.0237 444.269 95.3403 444.464 95.5355C444.66 95.7308 444.976 95.7308 445.172 95.5355L448.354 92.3536ZM418 92.5H448V91.5H418V92.5Z" fill="black"/>
<path d="M448.354 62.3536C448.549 62.1583 448.549 61.8417 448.354 61.6464L445.172 58.4645C444.976 58.2692 444.66 58.2692 444.464 58.4645C444.269 58.6597 444.269 58.9763 444.464 59.1716L447.293 62L444.464 64.8284C444.269 65.0237 444.269 65.3403 444.464 65.5355C444.66 65.7308 444.976 65.7308 445.172 65.5355L448.354 62.3536ZM418 62.5H448V61.5H418V62.5Z" fill="black"/>
<path d="M448.354 32.3536C448.549 32.1583 448.549 31.8417 448.354 31.6464L445.172 28.4645C444.976 28.2692 444.66 28.2692 444.464 28.4645C444.269 28.6597 444.269 28.9763 444.464 29.1716L447.293 32L444.464 34.8284C444.269 35.0237 444.269 35.3403 444.464 35.5355C444.66 35.7308 444.976 35.7308 445.172 35.5355L448.354 32.3536ZM418 32.5H448V31.5H418V32.5Z" fill="black"/>
</svg>
