<svg width="508" height="269" viewBox="0 0 508 269" fill="none" xmlns="http://www.w3.org/2000/svg">
<rect x="199.5" y="0.5" width="69" height="39" fill="white" stroke="black"/>
<text fill="black" xml:space="preserve" style="white-space: pre" font-family="Tahoma" font-size="12" letter-spacing="0em"><tspan x="246.262" y="23.7637"> n</tspan></text>
<text fill="black" xml:space="preserve" style="white-space: pre" font-family="Tahoma" font-size="12" font-weight="bold" letter-spacing="0em"><tspan x="214" y="23.7637">Topic</tspan></text>
<rect x="253.5" y="76.5" width="142" height="39" fill="white" stroke="black"/>
<text fill="black" xml:space="preserve" style="white-space: pre" font-family="Inter" font-size="12" letter-spacing="0em"><tspan x="261.24" y="92.8636">Extract representative </tspan><tspan x="292.383" y="107.864">documents</tspan></text>
<rect x="78.5" y="153.5" width="142" height="39" fill="white" stroke="black"/>
<text fill="black" xml:space="preserve" style="white-space: pre" font-family="Inter" font-size="12" letter-spacing="0em"><tspan x="99.4297" y="169.864">Embed candidate </tspan><tspan x="121.801" y="184.864">keywords</tspan></text>
<rect x="135.5" y="229.5" width="204" height="39" fill="white" stroke="black"/>
<text fill="black" xml:space="preserve" style="white-space: pre" font-family="Inter" font-size="12" letter-spacing="0em"><tspan x="149.789" y="245.864">Compare embedded keywords </tspan><tspan x="159.1" y="260.864">with embedded documents</tspan></text>
<rect x="255.5" y="153.5" width="142" height="39" fill="white" stroke="black"/>
<text fill="black" xml:space="preserve" style="white-space: pre" font-family="Inter" font-size="12" letter-spacing="0em"><tspan x="292.262" y="169.864">Embed and &#10;</tspan><tspan x="269.955" y="184.864">average documents </tspan></text>
<path d="M189.078 64.6133C188.864 65.1226 189.104 65.7086 189.613 65.9222L197.913 69.4027C198.422 69.6163 199.008 69.3766 199.222 68.8673C199.436 68.358 199.196 67.7719 198.686 67.5583L191.309 64.4645L194.403 57.087C194.616 56.5777 194.377 55.9916 193.867 55.7781C193.358 55.5645 192.772 55.8042 192.558 56.3135L189.078 64.6133ZM233.621 46.0745L189.621 64.0745L190.379 65.9255L234.379 47.9255L233.621 46.0745Z" fill="black"/>
<path d="M278.922 64.6133C279.136 65.1226 278.896 65.7086 278.387 65.9222L270.087 69.4027C269.578 69.6163 268.992 69.3766 268.778 68.8673C268.564 68.358 268.804 67.7719 269.314 67.5583L276.691 64.4645L273.597 57.087C273.384 56.5777 273.623 55.9916 274.133 55.7781C274.642 55.5645 275.228 55.8042 275.442 56.3135L278.922 64.6133ZM234.379 46.0745L278.379 64.0745L277.621 65.9255L233.621 47.9255L234.379 46.0745Z" fill="black"/>
<path d="M281.078 219.613C280.864 220.123 281.104 220.709 281.613 220.922L289.913 224.403C290.422 224.616 291.008 224.377 291.222 223.867C291.436 223.358 291.196 222.772 290.686 222.558L283.309 219.465L286.403 212.087C286.616 211.578 286.377 210.992 285.867 210.778C285.358 210.564 284.772 210.804 284.558 211.314L281.078 219.613ZM325.621 201.074L281.621 219.074L282.379 220.926L326.379 202.926L325.621 201.074Z" fill="black"/>
<path d="M195.922 219.613C196.136 220.123 195.896 220.709 195.387 220.922L187.087 224.403C186.578 224.616 185.992 224.377 185.778 223.867C185.564 223.358 185.804 222.772 186.314 222.558L193.691 219.465L190.597 212.087C190.384 211.578 190.623 210.992 191.133 210.778C191.642 210.564 192.228 210.804 192.442 211.314L195.922 219.613ZM151.379 201.074L195.379 219.074L194.621 220.926L150.621 202.926L151.379 201.074Z" fill="black"/>
<path d="M150.293 149.707C150.683 150.098 151.317 150.098 151.707 149.707L158.071 143.343C158.462 142.953 158.462 142.319 158.071 141.929C157.681 141.538 157.047 141.538 156.657 141.929L151 147.586L145.343 141.929C144.953 141.538 144.319 141.538 143.929 141.929C143.538 142.319 143.538 142.953 143.929 143.343L150.293 149.707ZM150 123L150 149L152 149L152 123L150 123Z" fill="black"/>
<path d="M325.293 149.707C325.683 150.098 326.317 150.098 326.707 149.707L333.071 143.343C333.462 142.953 333.462 142.319 333.071 141.929C332.681 141.538 332.047 141.538 331.657 141.929L326 147.586L320.343 141.929C319.953 141.538 319.319 141.538 318.929 141.929C318.538 142.319 318.538 142.953 318.929 143.343L325.293 149.707ZM325 123L325 149L327 149L327 123L325 123Z" fill="black"/>
<rect x="78.5" y="76.5" width="142" height="39" fill="white" stroke="black"/>
<text fill="black" xml:space="preserve" style="white-space: pre" font-family="Inter" font-size="12" letter-spacing="0em"><tspan x="99.0254" y="92.8636">Extract candidate </tspan><tspan x="121.801" y="107.864">keywords</tspan></text>
<text fill="black" xml:space="preserve" style="white-space: pre" font-family="Inter" font-size="12" letter-spacing="0em"><tspan x="296" y="51.8636">Compare c-TF-IDF sampled </tspan><tspan x="296" y="66.8636">documents with the topic c-TF-IDF. </tspan></text>
<text fill="black" xml:space="preserve" style="white-space: pre" font-family="Tahoma" font-size="12" letter-spacing="0em"><tspan x="0" y="50.7637">Extract top n words per topic </tspan><tspan x="0" y="64.7637">based on their c-TF-IDF scores</tspan></text>
</svg>
