<svg width="523" height="43" viewBox="0 0 523 43" fill="none" xmlns="http://www.w3.org/2000/svg">
<rect width="523" height="43" fill="white"/>
<path d="M27.3553 12.5217C27.5174 11.9093 27.5534 11.7291 28.8323 11.7291C29.1746 11.7291 29.3367 11.7291 29.3367 11.3869C29.3367 11.2068 29.2106 11.2068 28.8683 11.2068H26.7068C26.2565 11.2068 26.2385 11.2248 26.0404 11.513L19.4658 21.9062L18.1149 11.6031C18.0609 11.2068 18.0429 11.2068 17.5745 11.2068H15.341C14.9988 11.2068 14.8366 11.2068 14.8366 11.549C14.8366 11.7291 14.9988 11.7291 15.2689 11.7291C16.3677 11.7291 16.3677 11.8732 16.3677 12.0714C16.3677 12.1074 16.3677 12.2155 16.2956 12.4857L13.9901 21.672C13.7739 22.5366 13.3596 22.9329 12.1528 22.9869C12.0987 22.9869 11.8826 23.0049 11.8826 23.3112C11.8826 23.5093 12.0447 23.5093 12.1168 23.5093C12.477 23.5093 13.3956 23.4733 13.7559 23.4733H14.6205C14.8727 23.4733 15.1789 23.5093 15.4311 23.5093C15.5571 23.5093 15.7553 23.5093 15.7553 23.1671C15.7553 23.0049 15.5752 22.9869 15.5031 22.9869C14.9087 22.9689 14.3323 22.8608 14.3323 22.2124C14.3323 22.0323 14.3323 22.0143 14.4043 21.7621L16.8901 11.8372H16.9081L18.4031 23.023C18.4571 23.4553 18.4752 23.5093 18.6373 23.5093C18.8354 23.5093 18.9255 23.3652 19.0155 23.2031L26.2565 11.7472H26.2746L23.6627 22.1764C23.5006 22.8068 23.4646 22.9869 22.2037 22.9869C21.8615 22.9869 21.6814 22.9869 21.6814 23.3112C21.6814 23.5093 21.8435 23.5093 21.9516 23.5093C22.2578 23.5093 22.618 23.4733 22.9242 23.4733H25.0497C25.3559 23.4733 25.7342 23.5093 26.0404 23.5093C26.1845 23.5093 26.3826 23.5093 26.3826 23.1671C26.3826 22.9869 26.2205 22.9869 25.9503 22.9869C24.8516 22.9869 24.8516 22.8428 24.8516 22.6627C24.8516 22.6447 24.8516 22.5186 24.8876 22.3745L27.3553 12.5217Z" fill="black"/>
<path d="M46.2995 12.5217C46.4617 11.9093 46.4977 11.7291 47.7766 11.7291C48.1188 11.7291 48.2809 11.7291 48.2809 11.3869C48.2809 11.2068 48.1548 11.2068 47.8126 11.2068H45.6511C45.2008 11.2068 45.1828 11.2248 44.9846 11.513L38.4101 21.9062L37.0592 11.6031C37.0051 11.2068 36.9871 11.2068 36.5188 11.2068H34.2852C33.943 11.2068 33.7809 11.2068 33.7809 11.549C33.7809 11.7291 33.943 11.7291 34.2132 11.7291C35.3119 11.7291 35.3119 11.8732 35.3119 12.0714C35.3119 12.1074 35.3119 12.2155 35.2399 12.4857L32.9343 21.672C32.7182 22.5366 32.3039 22.9329 31.097 22.9869C31.043 22.9869 30.8268 23.0049 30.8268 23.3112C30.8268 23.5093 30.989 23.5093 31.061 23.5093C31.4213 23.5093 32.3399 23.4733 32.7001 23.4733H33.5647C33.8169 23.4733 34.1231 23.5093 34.3753 23.5093C34.5014 23.5093 34.6995 23.5093 34.6995 23.1671C34.6995 23.0049 34.5194 22.9869 34.4473 22.9869C33.8529 22.9689 33.2765 22.8608 33.2765 22.2124C33.2765 22.0323 33.2765 22.0143 33.3486 21.7621L35.8343 11.8372H35.8523L37.3474 23.023C37.4014 23.4553 37.4194 23.5093 37.5815 23.5093C37.7797 23.5093 37.8697 23.3652 37.9598 23.2031L45.2008 11.7472H45.2188L42.607 22.1764C42.4449 22.8068 42.4089 22.9869 41.148 22.9869C40.8057 22.9869 40.6256 22.9869 40.6256 23.3112C40.6256 23.5093 40.7877 23.5093 40.8958 23.5093C41.202 23.5093 41.5623 23.4733 41.8685 23.4733H43.9939C44.3002 23.4733 44.6784 23.5093 44.9846 23.5093C45.1287 23.5093 45.3269 23.5093 45.3269 23.1671C45.3269 22.9869 45.1648 22.9869 44.8946 22.9869C43.7958 22.9869 43.7958 22.8428 43.7958 22.6627C43.7958 22.6447 43.7958 22.5186 43.8318 22.3745L46.2995 12.5217Z" fill="black"/>
<path d="M55.517 12.4316C55.6792 11.7652 55.7512 11.7291 56.4537 11.7291H57.7506C59.2997 11.7291 60.4525 12.1975 60.4525 13.6024C60.4525 14.5211 59.9841 17.1689 56.3636 17.1689H54.3282L55.517 12.4316ZM58.0208 17.3851C60.2543 16.8987 62.0015 15.4577 62.0015 13.9087C62.0015 12.5037 60.5785 11.2068 58.0748 11.2068H53.1934C52.8332 11.2068 52.6711 11.2068 52.6711 11.549C52.6711 11.7291 52.7972 11.7291 53.1394 11.7291C54.2201 11.7291 54.2201 11.8732 54.2201 12.0714C54.2201 12.1074 54.2201 12.2155 54.1481 12.4857L51.7164 22.1764C51.5543 22.8068 51.5183 22.9869 50.2754 22.9869C49.8611 22.9869 49.735 22.9869 49.735 23.3292C49.735 23.5093 49.9332 23.5093 49.9872 23.5093C50.3114 23.5093 50.6897 23.4733 51.0319 23.4733H53.1574C53.4816 23.4733 53.8599 23.5093 54.1841 23.5093C54.3282 23.5093 54.5264 23.5093 54.5264 23.1671C54.5264 22.9869 54.3642 22.9869 54.0941 22.9869C52.9953 22.9869 52.9953 22.8428 52.9953 22.6627C52.9953 22.6447 52.9953 22.5186 53.0313 22.3745L54.2382 17.5292H56.3997C58.1108 17.5292 58.4351 18.6099 58.4351 19.2043C58.4351 19.4745 58.2549 20.177 58.1288 20.6453C57.9307 21.4739 57.8767 21.672 57.8767 22.0143C57.8767 23.2931 58.9214 23.8876 60.1282 23.8876C61.5872 23.8876 62.2177 22.1043 62.2177 21.8521C62.2177 21.7261 62.1276 21.672 62.0195 21.672C61.8754 21.672 61.8394 21.7801 61.8034 21.9242C61.3711 23.2031 60.6326 23.5273 60.1823 23.5273C59.732 23.5273 59.4438 23.3292 59.4438 22.5186C59.4438 22.0863 59.6599 20.4472 59.6779 20.3571C59.768 19.6907 59.768 19.6186 59.768 19.4745C59.768 18.1596 58.7052 17.6012 58.0208 17.3851Z" fill="black"/>
<path d="M79.6231 17.6733C79.8753 17.6733 80.1995 17.6733 80.1995 17.3491C80.1995 17.0068 79.8933 17.0068 79.6231 17.0068H69.0137C68.7616 17.0068 68.4373 17.0068 68.4373 17.3311C68.4373 17.6733 68.7436 17.6733 69.0137 17.6733H79.6231ZM79.6231 21.0236C79.8753 21.0236 80.1995 21.0236 80.1995 20.6994C80.1995 20.3572 79.8933 20.3572 79.6231 20.3572H69.0137C68.7616 20.3572 68.4373 20.3572 68.4373 20.6814C68.4373 21.0236 68.7436 21.0236 69.0137 21.0236H79.6231Z" fill="black"/>
<path d="M91.6075 21.3659C91.5174 21.6721 91.5174 21.7082 91.2652 22.0504C90.869 22.5547 90.0764 23.3293 89.2298 23.3293C88.4913 23.3293 88.077 22.6628 88.077 21.6001C88.077 20.6094 88.6354 18.592 88.9777 17.8355C89.5901 16.5746 90.4367 15.9262 91.1391 15.9262C92.328 15.9262 92.5621 17.4032 92.5621 17.5473C92.5621 17.5653 92.5081 17.7995 92.4901 17.8355L91.6075 21.3659ZM92.7603 16.7547C92.5621 16.2864 92.0758 15.5659 91.1391 15.5659C89.1037 15.5659 86.9062 18.1957 86.9062 20.8616C86.9062 22.6448 87.9509 23.6895 89.1758 23.6895C90.1665 23.6895 91.0131 22.915 91.5174 22.3206C91.6975 23.3833 92.5441 23.6895 93.0845 23.6895C93.6249 23.6895 94.0572 23.3653 94.3814 22.7169C94.6696 22.1044 94.9218 21.0057 94.9218 20.9336C94.9218 20.8436 94.8497 20.7715 94.7416 20.7715C94.5795 20.7715 94.5615 20.8616 94.4895 21.1318C94.2193 22.1945 93.877 23.3293 93.1385 23.3293C92.6162 23.3293 92.5801 22.861 92.5801 22.5007C92.5801 22.0864 92.6342 21.8883 92.7963 21.1858C92.9224 20.7355 93.0124 20.3392 93.1565 19.8169C93.823 17.115 93.9851 16.4665 93.9851 16.3585C93.9851 16.1063 93.787 15.9082 93.5168 15.9082C92.9404 15.9082 92.7963 16.5386 92.7603 16.7547Z" fill="black"/>
<path d="M102.451 16.1423C101.893 16.2504 101.604 16.6467 101.604 17.0429C101.604 17.4752 101.947 17.6193 102.199 17.6193C102.703 17.6193 103.117 17.187 103.117 16.6467C103.117 16.0703 102.559 15.5659 101.658 15.5659C100.938 15.5659 100.109 15.8901 99.3528 16.9889C99.2267 16.0342 98.5062 15.5659 97.7857 15.5659C97.0832 15.5659 96.723 16.1063 96.5068 16.5026C96.2006 17.151 95.9305 18.2318 95.9305 18.3218C95.9305 18.3939 96.0025 18.4839 96.1286 18.4839C96.2727 18.4839 96.2907 18.4659 96.3988 18.0516C96.669 16.9709 97.0112 15.9262 97.7317 15.9262C98.164 15.9262 98.2901 16.2324 98.2901 16.7547C98.2901 17.151 98.11 17.8535 97.9839 18.4119L97.4795 20.3572C97.4075 20.6995 97.2093 21.51 97.1193 21.8343C96.9932 22.3026 96.795 23.1492 96.795 23.2392C96.795 23.4914 96.9932 23.6895 97.2634 23.6895C97.4615 23.6895 97.8037 23.5634 97.9118 23.2032C97.9659 23.0591 98.6323 20.3392 98.7404 19.9249C98.8305 19.5287 98.9385 19.1504 99.0286 18.7541C99.1006 18.5019 99.1727 18.2137 99.2267 17.9796C99.2808 17.8175 99.7671 16.9349 100.217 16.5386C100.434 16.3405 100.902 15.9262 101.64 15.9262C101.929 15.9262 102.217 15.9802 102.451 16.1423Z" fill="black"/>
<path d="M109.97 21.2218C109.898 21.51 109.862 21.5821 109.628 21.8523C108.89 22.8069 108.133 23.1492 107.575 23.1492C106.98 23.1492 106.422 22.6808 106.422 21.438C106.422 20.4833 106.962 18.4659 107.359 17.6554C107.881 16.6467 108.691 15.9262 109.448 15.9262C110.637 15.9262 110.871 17.4032 110.871 17.5113L110.817 17.7634L109.97 21.2218ZM111.087 16.7547C110.853 16.2324 110.349 15.5659 109.448 15.5659C107.485 15.5659 105.251 18.0336 105.251 20.7175C105.251 22.5908 106.386 23.5094 107.539 23.5094C108.493 23.5094 109.34 22.7529 109.664 22.3926L109.268 24.0138C109.016 25.0044 108.908 25.4548 108.259 26.0852C107.521 26.8237 106.836 26.8237 106.44 26.8237C105.9 26.8237 105.449 26.7877 104.999 26.6436C105.575 26.4815 105.719 25.9771 105.719 25.779C105.719 25.4908 105.503 25.2026 105.107 25.2026C104.675 25.2026 104.206 25.5628 104.206 26.1572C104.206 26.8958 104.945 27.184 106.476 27.184C108.8 27.184 110.006 25.6889 110.241 24.7162L112.24 16.6467C112.294 16.4305 112.294 16.3945 112.294 16.3585C112.294 16.1063 112.096 15.9082 111.826 15.9082C111.393 15.9082 111.141 16.2684 111.087 16.7547Z" fill="black"/>
<path d="M123.446 18.2318C123.482 18.1237 123.932 17.2231 124.599 16.6467C125.067 16.2144 125.68 15.9262 126.382 15.9262C127.103 15.9262 127.355 16.4665 127.355 17.187C127.355 17.2951 127.355 17.6554 127.139 18.5019L126.688 20.3572C126.544 20.8976 126.202 22.2305 126.166 22.4287C126.094 22.6988 125.986 23.1672 125.986 23.2392C125.986 23.4914 126.184 23.6895 126.454 23.6895C126.994 23.6895 127.085 23.2752 127.247 22.6268L128.327 18.3218C128.363 18.1777 129.3 15.9262 131.281 15.9262C132.002 15.9262 132.254 16.4665 132.254 17.187C132.254 18.1957 131.552 20.1591 131.155 21.2398C130.993 21.6721 130.903 21.9063 130.903 22.2305C130.903 23.0411 131.462 23.6895 132.326 23.6895C134.001 23.6895 134.632 21.0417 134.632 20.9336C134.632 20.8436 134.56 20.7715 134.452 20.7715C134.29 20.7715 134.272 20.8256 134.181 21.1318C133.767 22.5728 133.101 23.3293 132.38 23.3293C132.2 23.3293 131.912 23.3113 131.912 22.7349C131.912 22.2666 132.128 21.6902 132.2 21.492C132.524 20.6274 133.335 18.5019 133.335 17.4572C133.335 16.3765 132.704 15.5659 131.335 15.5659C130.129 15.5659 129.156 16.2504 128.435 17.3131C128.381 16.3405 127.787 15.5659 126.436 15.5659C124.833 15.5659 123.986 16.7007 123.662 17.151C123.608 16.1243 122.87 15.5659 122.077 15.5659C121.555 15.5659 121.14 15.8181 120.798 16.5026C120.474 17.151 120.222 18.2498 120.222 18.3218C120.222 18.3939 120.294 18.4839 120.42 18.4839C120.564 18.4839 120.582 18.4659 120.69 18.0516C120.96 16.9889 121.303 15.9262 122.023 15.9262C122.437 15.9262 122.581 16.2144 122.581 16.7547C122.581 17.151 122.401 17.8535 122.275 18.4119L121.771 20.3572C121.699 20.6995 121.501 21.51 121.411 21.8343C121.285 22.3026 121.086 23.1492 121.086 23.2392C121.086 23.4914 121.285 23.6895 121.555 23.6895C121.771 23.6895 122.023 23.5815 122.167 23.3113C122.203 23.2212 122.365 22.5908 122.455 22.2305L122.852 20.6094L123.446 18.2318Z" fill="black"/>
<path d="M140.584 21.3659C140.494 21.6721 140.494 21.7082 140.242 22.0504C139.846 22.5547 139.053 23.3293 138.207 23.3293C137.468 23.3293 137.054 22.6628 137.054 21.6001C137.054 20.6094 137.612 18.592 137.955 17.8355C138.567 16.5746 139.414 15.9262 140.116 15.9262C141.305 15.9262 141.539 17.4032 141.539 17.5473C141.539 17.5653 141.485 17.7995 141.467 17.8355L140.584 21.3659ZM141.737 16.7547C141.539 16.2864 141.053 15.5659 140.116 15.5659C138.081 15.5659 135.883 18.1957 135.883 20.8616C135.883 22.6448 136.928 23.6895 138.153 23.6895C139.143 23.6895 139.99 22.915 140.494 22.3206C140.674 23.3833 141.521 23.6895 142.061 23.6895C142.602 23.6895 143.034 23.3653 143.358 22.7169C143.646 22.1044 143.899 21.0057 143.899 20.9336C143.899 20.8436 143.827 20.7715 143.719 20.7715C143.556 20.7715 143.538 20.8616 143.466 21.1318C143.196 22.1945 142.854 23.3293 142.115 23.3293C141.593 23.3293 141.557 22.861 141.557 22.5007C141.557 22.0864 141.611 21.8883 141.773 21.1858C141.899 20.7355 141.989 20.3392 142.133 19.8169C142.8 17.115 142.962 16.4665 142.962 16.3585C142.962 16.1063 142.764 15.9082 142.494 15.9082C141.917 15.9082 141.773 16.5386 141.737 16.7547Z" fill="black"/>
<path d="M152.959 16.1603C152.383 16.2684 152.166 16.7007 152.166 17.0429C152.166 17.4752 152.509 17.6193 152.761 17.6193C153.301 17.6193 153.679 17.151 153.679 16.6647C153.679 15.9082 152.815 15.5659 152.058 15.5659C150.96 15.5659 150.347 16.6467 150.185 16.9889C149.771 15.638 148.654 15.5659 148.33 15.5659C146.492 15.5659 145.52 17.9255 145.52 18.3218C145.52 18.3939 145.592 18.4839 145.718 18.4839C145.862 18.4839 145.898 18.3759 145.934 18.3038C146.546 16.3044 147.753 15.9262 148.276 15.9262C149.086 15.9262 149.248 16.6827 149.248 17.115C149.248 17.5113 149.14 17.9255 148.924 18.7901L148.312 21.2579C148.042 22.3386 147.519 23.3293 146.564 23.3293C146.474 23.3293 146.024 23.3293 145.646 23.0951C146.294 22.969 146.438 22.4287 146.438 22.2125C146.438 21.8523 146.168 21.6361 145.826 21.6361C145.394 21.6361 144.925 22.0144 144.925 22.5908C144.925 23.3473 145.772 23.6895 146.546 23.6895C147.411 23.6895 148.023 23.0051 148.402 22.2666C148.69 23.3293 149.591 23.6895 150.257 23.6895C152.094 23.6895 153.067 21.3299 153.067 20.9336C153.067 20.8436 152.995 20.7715 152.887 20.7715C152.725 20.7715 152.707 20.8616 152.653 21.0057C152.166 22.5908 151.122 23.3293 150.311 23.3293C149.681 23.3293 149.338 22.861 149.338 22.1225C149.338 21.7262 149.41 21.438 149.699 20.2492L150.329 17.7995C150.599 16.7187 151.212 15.9262 152.04 15.9262C152.076 15.9262 152.581 15.9262 152.959 16.1603Z" fill="black"/>
<path d="M114.979 34.5689C114.871 35.0252 114.847 35.1213 113.958 35.1213C113.73 35.1213 113.586 35.1213 113.586 35.3495C113.586 35.5176 113.742 35.5176 113.946 35.5176H118.077C120.611 35.5176 123.133 33.0919 123.133 30.4141C123.133 28.5768 121.908 27.3159 120.119 27.3159H115.916C115.7 27.3159 115.544 27.3159 115.544 27.5441C115.544 27.7122 115.688 27.7122 115.892 27.7122C116.288 27.7122 116.636 27.7122 116.636 27.9043C116.636 27.9524 116.624 27.9644 116.588 28.1205L114.979 34.5689ZM117.633 28.1565C117.741 27.7482 117.753 27.7122 118.245 27.7122H119.698C121.103 27.7122 122.052 28.5167 122.052 29.9818C122.052 30.378 121.884 32.3354 120.839 33.6803C120.311 34.3528 119.278 35.1213 117.861 35.1213H116.072C115.964 35.0973 115.928 35.0973 115.928 35.0132C115.928 34.9172 115.952 34.8211 115.976 34.7491L117.633 28.1565Z" fill="black"/>
<path d="M126.575 31.7284C126.575 31.5123 126.413 31.3682 126.206 31.3682C125.963 31.3682 125.702 31.6023 125.702 31.8635C125.702 32.0887 125.864 32.2238 126.062 32.2238C126.35 32.2238 126.575 31.9536 126.575 31.7284ZM126.035 34.8716C126.071 34.7815 126.152 34.5654 126.188 34.4843C126.215 34.4033 126.251 34.3132 126.251 34.1601C126.251 33.6557 125.801 33.3766 125.35 33.3766C124.432 33.3766 123.991 34.5654 123.991 34.7635C123.991 34.8085 124.027 34.8896 124.153 34.8896C124.279 34.8896 124.306 34.8356 124.333 34.7545C124.585 33.8809 125.062 33.6738 125.314 33.6738C125.495 33.6738 125.558 33.7908 125.558 33.998C125.558 34.1781 125.504 34.3132 125.486 34.3762L125.017 35.529C124.909 35.7902 124.909 35.8082 124.792 36.1144C124.675 36.3846 124.63 36.5017 124.63 36.6548C124.63 37.1141 125.044 37.4384 125.54 37.4384C126.449 37.4384 126.9 36.2495 126.9 36.0514C126.9 36.0334 126.891 35.9253 126.728 35.9253C126.602 35.9253 126.593 35.9703 126.539 36.1415C126.395 36.6008 126.026 37.1412 125.567 37.1412C125.405 37.1412 125.323 37.0331 125.323 36.8169C125.323 36.6368 125.377 36.5017 125.495 36.2225L126.035 34.8716Z" fill="black"/>
<path d="M135.182 32.7918C135.374 32.7918 135.638 32.7918 135.638 32.5156C135.638 32.2394 135.374 32.2394 135.182 32.2394H129.826C129.982 30.5703 131.375 29.2974 133.2 29.2974H135.182C135.374 29.2974 135.638 29.2974 135.638 29.0212C135.638 28.745 135.374 28.745 135.182 28.745H133.164C131.003 28.745 129.262 30.4262 129.262 32.5156C129.262 34.6171 131.015 36.2862 133.164 36.2862H135.182C135.374 36.2862 135.638 36.2862 135.638 36.01C135.638 35.7338 135.374 35.7338 135.182 35.7338H133.2C131.375 35.7338 129.982 34.4609 129.826 32.7918H135.182Z" fill="black"/>
<path d="M141.37 28.1565C141.478 27.7482 141.49 27.7122 141.983 27.7122H142.955C143.94 27.7122 144.865 27.9644 144.865 28.937C144.865 29.4654 144.588 30.306 144.036 30.7023C143.46 31.1105 142.775 31.2426 142.079 31.2426H140.602L141.37 28.1565ZM143.412 31.4348C144.889 31.0625 146.041 30.1619 146.041 29.1412C146.041 28.0965 144.865 27.3159 143.195 27.3159H139.653C139.437 27.3159 139.281 27.3159 139.281 27.5441C139.281 27.7122 139.437 27.7122 139.629 27.7122C140.025 27.7122 140.373 27.7122 140.373 27.9043C140.373 27.9524 140.361 27.9644 140.325 28.1205L138.716 34.5689C138.608 35.0252 138.584 35.1213 137.696 35.1213C137.467 35.1213 137.323 35.1213 137.323 35.3495C137.323 35.3975 137.359 35.5176 137.515 35.5176C137.744 35.5176 138.02 35.4936 138.26 35.4816H139.004C140.121 35.4816 140.469 35.5176 140.542 35.5176C140.614 35.5176 140.782 35.5176 140.782 35.2894C140.782 35.1213 140.626 35.1213 140.421 35.1213C140.385 35.1213 140.169 35.1213 139.965 35.0973C139.713 35.0733 139.689 35.0373 139.689 34.9292C139.689 34.8691 139.713 34.7971 139.725 34.737L140.506 31.5789H142.067C143.147 31.5789 143.484 32.1553 143.484 32.6476C143.484 32.8157 143.4 33.152 143.339 33.4041C143.243 33.7524 143.123 34.2327 143.123 34.4488C143.123 35.3735 143.916 35.7698 144.804 35.7698C145.849 35.7698 146.342 34.5929 146.342 34.3648C146.342 34.3168 146.306 34.1967 146.149 34.1967C146.017 34.1967 145.981 34.3048 145.969 34.3528C145.705 35.1814 145.189 35.4335 144.84 35.4335C144.396 35.4335 144.348 35.0973 144.348 34.701C144.348 34.3047 144.42 33.7764 144.468 33.3801C144.516 33.0199 144.516 32.9478 144.516 32.8277C144.516 32.1072 144.048 31.6869 143.412 31.4348Z" fill="black"/>
<path d="M151.462 38.2196C151.546 38.4357 151.63 38.5198 151.775 38.5198C151.931 38.5198 152.051 38.3997 152.051 38.2436C152.051 38.2076 152.051 38.1835 151.979 38.0154L147.692 26.8117C147.608 26.5955 147.524 26.5115 147.379 26.5115C147.223 26.5115 147.103 26.6316 147.103 26.7877C147.103 26.8237 147.103 26.8477 147.175 27.0158L151.462 38.2196Z" fill="black"/>
<path d="M160.832 27.3881C160.844 27.34 160.868 27.268 160.868 27.2079C160.868 27.1239 160.796 27.0638 160.712 27.0638C160.628 27.0638 160.604 27.0879 160.472 27.232C160.339 27.3881 160.027 27.7723 159.895 27.9164C159.427 27.232 158.67 27.0638 158.058 27.0638C156.389 27.0638 154.96 28.4688 154.96 29.8378C154.96 30.5342 155.332 30.9425 155.392 31.0266C155.788 31.4469 156.137 31.5429 157.001 31.7471C157.421 31.8552 157.445 31.8552 157.794 31.9392C158.142 32.0233 158.911 32.2154 158.911 33.2121C158.911 34.2568 157.878 35.3736 156.617 35.3736C155.836 35.3736 154.407 35.1334 154.407 33.6444C154.407 33.6084 154.407 33.3562 154.479 33.068L154.491 32.9479C154.491 32.8038 154.359 32.7918 154.311 32.7918C154.155 32.7918 154.143 32.8398 154.083 33.116L153.591 35.0734C153.543 35.2535 153.459 35.5777 153.459 35.6138C153.459 35.7098 153.531 35.7699 153.615 35.7699C153.699 35.7699 153.711 35.7579 153.843 35.6017L154.419 34.9293C154.696 35.2895 155.38 35.7699 156.593 35.7699C158.334 35.7699 159.763 34.1968 159.763 32.7558C159.763 32.2034 159.583 31.7711 159.259 31.4349C158.899 31.0386 158.502 30.9425 157.938 30.7984C157.59 30.7144 157.121 30.6063 156.845 30.5342C156.485 30.4502 155.812 30.21 155.812 29.3694C155.812 28.4328 156.821 27.4241 158.046 27.4241C159.127 27.4241 159.871 27.9885 159.871 29.2854C159.871 29.5736 159.823 29.8258 159.823 29.8738C159.823 30.0179 159.931 30.0419 160.015 30.0419C160.159 30.0419 160.171 29.9939 160.219 29.8017L160.832 27.3881Z" fill="black"/>
<path d="M165.708 28.0125V27.346H163.961V10.6665H165.708V10H163.295V28.0125H165.708Z" fill="black"/>
<path d="M171.67 12.2876C171.22 11.0087 169.797 11.0087 169.563 11.0087C169.455 11.0087 169.257 11.0087 169.257 11.1888C169.257 11.3329 169.365 11.3509 169.455 11.3689C169.725 11.4049 169.941 11.441 170.229 11.9633C170.409 12.3056 172.265 17.6913 172.265 17.7273C172.265 17.7453 172.247 17.7633 172.103 17.9074L167.419 22.6447C167.203 22.8609 167.059 23.005 167.059 23.2391C167.059 23.4913 167.275 23.7074 167.563 23.7074C167.635 23.7074 167.834 23.6714 167.942 23.5633C168.23 23.2932 170.806 20.141 172.445 18.1956C172.913 19.6006 173.489 21.2578 174.048 22.7708C174.138 23.041 174.228 23.2932 174.48 23.5273C174.66 23.6894 174.696 23.6894 175.201 23.6894H175.543C175.615 23.6894 175.741 23.6894 175.741 23.5453C175.741 23.4733 175.723 23.4553 175.651 23.3832C175.489 23.1851 175.363 22.8609 175.291 22.6447L171.67 12.2876Z" fill="black"/>
<path d="M187.83 10.9907C187.83 10.8286 187.704 10.8286 187.668 10.8286C187.596 10.8286 187.578 10.8466 187.362 11.1168C187.254 11.2429 186.516 12.1795 186.498 12.1976C185.903 11.0267 184.714 10.8286 183.958 10.8286C181.67 10.8286 179.599 12.9181 179.599 14.9535C179.599 16.3044 180.409 17.0969 181.292 17.4032C181.49 17.4752 182.553 17.7634 183.093 17.8895C184.012 18.1417 184.246 18.2137 184.624 18.61C184.696 18.7001 185.057 19.1143 185.057 19.9609C185.057 21.6361 183.508 23.3653 181.706 23.3653C180.229 23.3653 178.59 22.7348 178.59 20.7174C178.59 20.3752 178.662 19.9429 178.716 19.7628C178.716 19.7088 178.734 19.6187 178.734 19.5827C178.734 19.5106 178.698 19.4206 178.554 19.4206C178.392 19.4206 178.374 19.4566 178.302 19.7628L177.383 23.4553C177.383 23.4734 177.311 23.7075 177.311 23.7255C177.311 23.8876 177.455 23.8876 177.491 23.8876C177.563 23.8876 177.581 23.8696 177.798 23.5994L178.626 22.5187C179.058 23.1671 179.995 23.8876 181.67 23.8876C183.994 23.8876 186.119 21.6361 186.119 19.3845C186.119 18.628 185.939 17.9615 185.255 17.2951C184.876 16.9168 184.552 16.8268 182.895 16.3945C181.688 16.0702 181.526 16.0162 181.202 15.728C180.896 15.4218 180.662 14.9895 180.662 14.3771C180.662 12.864 182.193 11.3149 183.904 11.3149C185.669 11.3149 186.498 12.3957 186.498 14.1069C186.498 14.5752 186.408 15.0615 186.408 15.1336C186.408 15.2957 186.552 15.2957 186.606 15.2957C186.768 15.2957 186.786 15.2417 186.858 14.9535L187.83 10.9907Z" fill="black"/>
<path d="M193.386 20.9336C193.386 20.8435 193.314 20.7715 193.206 20.7715C193.044 20.7715 193.026 20.8255 192.935 21.1317C192.467 22.7708 191.729 23.3292 191.134 23.3292C190.918 23.3292 190.666 23.2752 190.666 22.7348C190.666 22.2485 190.882 21.7081 191.08 21.1677L192.341 17.8174C192.395 17.6733 192.521 17.3491 192.521 17.0069C192.521 16.2503 191.981 15.5659 191.098 15.5659C189.441 15.5659 188.775 18.1777 188.775 18.3218C188.775 18.3938 188.847 18.4839 188.973 18.4839C189.135 18.4839 189.153 18.4118 189.225 18.1597C189.657 16.6466 190.342 15.9261 191.044 15.9261C191.206 15.9261 191.512 15.9441 191.512 16.5205C191.512 16.9888 191.278 17.5833 191.134 17.9795L189.873 21.3298C189.765 21.618 189.657 21.9062 189.657 22.2305C189.657 23.041 190.216 23.6895 191.08 23.6895C192.737 23.6895 193.386 21.0597 193.386 20.9336ZM193.242 12.2696C193.242 11.9994 193.026 11.6752 192.629 11.6752C192.215 11.6752 191.747 12.0714 191.747 12.5398C191.747 12.9901 192.125 13.1342 192.341 13.1342C192.827 13.1342 193.242 12.6659 193.242 12.2696Z" fill="black"/>
<path d="M198.016 18.2318C198.052 18.1237 198.502 17.2231 199.168 16.6467C199.637 16.2144 200.249 15.9262 200.952 15.9262C201.672 15.9262 201.924 16.4665 201.924 17.187C201.924 17.2951 201.924 17.6554 201.708 18.5019L201.258 20.3572C201.114 20.8976 200.771 22.2305 200.735 22.4287C200.663 22.6988 200.555 23.1672 200.555 23.2392C200.555 23.4914 200.753 23.6895 201.024 23.6895C201.564 23.6895 201.654 23.2752 201.816 22.6268L202.897 18.3218C202.933 18.1777 203.87 15.9262 205.851 15.9262C206.571 15.9262 206.824 16.4665 206.824 17.187C206.824 18.1957 206.121 20.1591 205.725 21.2398C205.563 21.6721 205.473 21.9063 205.473 22.2305C205.473 23.0411 206.031 23.6895 206.896 23.6895C208.571 23.6895 209.201 21.0417 209.201 20.9336C209.201 20.8436 209.129 20.7715 209.021 20.7715C208.859 20.7715 208.841 20.8256 208.751 21.1318C208.337 22.5728 207.67 23.3293 206.95 23.3293C206.77 23.3293 206.481 23.3113 206.481 22.7349C206.481 22.2666 206.698 21.6902 206.77 21.492C207.094 20.6274 207.904 18.5019 207.904 17.4572C207.904 16.3765 207.274 15.5659 205.905 15.5659C204.698 15.5659 203.725 16.2504 203.005 17.3131C202.951 16.3405 202.357 15.5659 201.006 15.5659C199.403 15.5659 198.556 16.7007 198.232 17.151C198.178 16.1243 197.439 15.5659 196.647 15.5659C196.124 15.5659 195.71 15.8181 195.368 16.5026C195.043 17.151 194.791 18.2498 194.791 18.3218C194.791 18.3939 194.863 18.4839 194.989 18.4839C195.134 18.4839 195.152 18.4659 195.26 18.0516C195.53 16.9889 195.872 15.9262 196.593 15.9262C197.007 15.9262 197.151 16.2144 197.151 16.7547C197.151 17.151 196.971 17.8535 196.845 18.4119L196.34 20.3572C196.268 20.6995 196.07 21.51 195.98 21.8343C195.854 22.3026 195.656 23.1492 195.656 23.2392C195.656 23.4914 195.854 23.6895 196.124 23.6895C196.34 23.6895 196.593 23.5815 196.737 23.3113C196.773 23.2212 196.935 22.5908 197.025 22.2305L197.421 20.6094L198.016 18.2318Z" fill="black"/>
<path d="M213.503 18.5619C213.503 18.2377 213.479 18.2257 213.155 18.2257C212.662 18.706 212.026 18.9942 210.885 18.9942V19.3905C211.209 19.3905 211.858 19.3905 212.554 19.0663V25.2265C212.554 25.6709 212.518 25.815 211.377 25.815H210.957V26.2112C211.449 26.1752 212.482 26.1752 213.022 26.1752C213.563 26.1752 214.608 26.1752 215.1 26.2112V25.815H214.68C213.539 25.815 213.503 25.6709 213.503 25.2265V18.5619Z" fill="black"/>
<path d="M222.716 27.8864C222.716 27.8323 222.716 27.7963 222.41 27.4901C220.609 25.6708 219.6 22.6988 219.6 19.0242C219.6 15.5298 220.447 12.5217 222.536 10.3963C222.716 10.2342 222.716 10.1981 222.716 10.1441C222.716 10.036 222.626 10 222.554 10C222.32 10 220.843 11.2969 219.96 13.0621C219.042 14.8814 218.627 16.8087 218.627 19.0242C218.627 20.6273 218.88 22.7708 219.816 24.6982C220.879 26.8597 222.356 28.0305 222.554 28.0305C222.626 28.0305 222.716 27.9944 222.716 27.8864Z" fill="black"/>
<path d="M226.549 22.1764C226.387 22.8068 226.351 22.9869 225.09 22.9869C224.748 22.9869 224.568 22.9869 224.568 23.3112C224.568 23.5093 224.676 23.5093 225.036 23.5093H230.746C234.384 23.5093 237.933 19.7447 237.933 15.7279C237.933 13.1341 236.384 11.2068 233.808 11.2068H228.026C227.684 11.2068 227.522 11.2068 227.522 11.549C227.522 11.7291 227.684 11.7291 227.954 11.7291C229.053 11.7291 229.053 11.8732 229.053 12.0714C229.053 12.1074 229.053 12.2155 228.981 12.4857L226.549 22.1764ZM230.35 12.4316C230.512 11.7652 230.584 11.7291 231.286 11.7291H233.268C234.961 11.7291 236.51 12.6478 236.51 15.1335C236.51 16.0341 236.15 19.1683 234.402 21.1497C233.898 21.7441 232.529 22.9869 230.458 22.9869H228.404C228.152 22.9869 228.116 22.9869 228.008 22.9689C227.81 22.9509 227.792 22.9149 227.792 22.7708C227.792 22.6447 227.828 22.5366 227.864 22.3745L230.35 12.4316Z" fill="black"/>
<path d="M241.943 18.718C241.943 18.4539 241.751 18.2617 241.475 18.2617C241.163 18.2617 240.814 18.5499 240.814 18.9102C240.814 19.1743 241.007 19.3665 241.283 19.3665C241.595 19.3665 241.943 19.0783 241.943 18.718ZM240.19 23.1251L239.542 24.7822C239.482 24.9624 239.421 25.1065 239.421 25.3106C239.421 25.899 239.878 26.3313 240.514 26.3313C241.679 26.3313 242.171 24.6501 242.171 24.494C242.171 24.3739 242.075 24.3379 241.991 24.3379C241.847 24.3379 241.823 24.422 241.787 24.5421C241.511 25.5027 241.019 25.9951 240.538 25.9951C240.394 25.9951 240.25 25.935 240.25 25.6108C240.25 25.3226 240.334 25.1065 240.49 24.7342C240.61 24.41 240.73 24.0857 240.862 23.7615L241.235 22.7888C241.343 22.5127 241.487 22.1404 241.487 21.9363C241.487 21.3358 241.007 20.9156 240.394 20.9156C239.229 20.9156 238.725 22.5967 238.725 22.7528C238.725 22.8609 238.809 22.9089 238.905 22.9089C239.061 22.9089 239.073 22.8369 239.109 22.7168C239.446 21.576 239.998 21.2518 240.358 21.2518C240.526 21.2518 240.646 21.3118 240.646 21.6481C240.646 21.7681 240.634 21.9363 240.514 22.2965L240.19 23.1251Z" fill="black"/>
<path d="M246.972 23.5813C246.972 22.5366 246.629 21.7621 245.891 21.7621C245.315 21.7621 245.026 22.2304 245.026 22.6267C245.026 23.023 245.296 23.5093 245.909 23.5093C246.143 23.5093 246.341 23.4372 246.503 23.2751C246.539 23.2391 246.557 23.2391 246.575 23.2391C246.611 23.2391 246.611 23.4913 246.611 23.5813C246.611 24.1758 246.503 25.3466 245.459 26.5174C245.26 26.7335 245.26 26.7695 245.26 26.8056C245.26 26.8956 245.351 26.9857 245.441 26.9857C245.585 26.9857 246.972 25.6528 246.972 23.5813Z" fill="black"/>
<path d="M259.034 23.4013C262.132 22.1584 264.437 18.8802 264.437 15.6199C264.437 12.6479 262.492 10.8286 259.97 10.8286C256.116 10.8286 252.225 14.9715 252.225 19.1324C252.225 21.9603 254.098 23.8876 256.71 23.8876C257.323 23.8876 257.917 23.7976 258.493 23.6175C258.385 24.6982 258.385 24.7883 258.385 25.1305C258.385 25.6529 258.385 27.0038 259.826 27.0038C261.97 27.0038 262.762 23.6355 262.762 23.5274C262.762 23.4193 262.69 23.3473 262.6 23.3473C262.492 23.3473 262.456 23.4373 262.402 23.6355C262.006 24.7703 261.069 25.4187 260.277 25.4187C259.358 25.4187 259.124 24.7883 259.034 23.4013ZM255.791 23.3112C254.368 22.8249 253.684 21.3299 253.684 19.6727C253.684 18.4119 254.152 16.0162 255.341 14.1969C256.674 12.1435 258.457 11.2249 259.862 11.2249C261.736 11.2249 262.996 12.7379 262.996 15.0796C262.996 16.4125 262.366 20.8796 258.98 22.8609C258.89 21.9423 258.637 20.8615 257.449 20.8615C256.476 20.8615 255.647 21.8342 255.647 22.7168C255.647 22.915 255.719 23.1852 255.791 23.3112ZM258.529 23.0951C257.881 23.3833 257.323 23.4914 256.818 23.4914C256.638 23.4914 256.008 23.4914 256.008 22.6988C256.008 22.0504 256.638 21.2218 257.449 21.2218C258.349 21.2218 258.547 21.8342 258.547 22.7348C258.547 22.8429 258.547 22.987 258.529 23.0951Z" fill="black"/>
<path d="M270.409 19.0242C270.409 17.6553 270.228 15.4217 269.22 13.3323C268.157 11.1708 266.68 10 266.482 10C266.41 10 266.32 10.036 266.32 10.1441C266.32 10.1981 266.32 10.2342 266.626 10.5404C268.427 12.3596 269.436 15.3317 269.436 19.0062C269.436 22.5006 268.589 25.5087 266.5 27.6342C266.32 27.7963 266.32 27.8323 266.32 27.8864C266.32 27.9944 266.41 28.0305 266.482 28.0305C266.716 28.0305 268.193 26.7336 269.076 24.9684C269.994 23.1311 270.409 21.1857 270.409 19.0242Z" fill="black"/>
<path d="M288.061 19.3665C288.367 19.3665 288.691 19.3665 288.691 19.0062C288.691 18.646 288.367 18.646 288.061 18.646H278.316C278.01 18.646 277.686 18.646 277.686 19.0062C277.686 19.3665 278.01 19.3665 278.316 19.3665H288.061Z" fill="black"/>
<path d="M300.057 27.8864C300.057 27.8323 300.057 27.7963 299.751 27.4901C297.95 25.6708 296.941 22.6988 296.941 19.0242C296.941 15.5298 297.788 12.5217 299.877 10.3963C300.057 10.2342 300.057 10.1981 300.057 10.1441C300.057 10.036 299.967 10 299.895 10C299.661 10 298.184 11.2969 297.301 13.0621C296.383 14.8814 295.968 16.8087 295.968 19.0242C295.968 20.6273 296.22 22.7708 297.157 24.6982C298.22 26.8597 299.697 28.0305 299.895 28.0305C299.967 28.0305 300.057 27.9944 300.057 27.8864Z" fill="black"/>
<path d="M306.25 11.9633C306.25 11.549 306.25 11.531 305.889 11.531C305.457 12.0173 304.556 12.6838 302.701 12.6838V13.2062C303.115 13.2062 304.016 13.2062 305.007 12.7378V22.1223C305.007 22.7708 304.953 22.9869 303.368 22.9869H302.809V23.5093C303.295 23.4733 305.043 23.4733 305.637 23.4733C306.232 23.4733 307.961 23.4733 308.447 23.5093V22.9869H307.889C306.304 22.9869 306.25 22.7708 306.25 22.1223V11.9633Z" fill="black"/>
<path d="M325.753 19.3665C326.06 19.3665 326.384 19.3665 326.384 19.0062C326.384 18.646 326.06 18.646 325.753 18.646H316.009C315.702 18.646 315.378 18.646 315.378 19.0062C315.378 19.3665 315.702 19.3665 316.009 19.3665H325.753Z" fill="black"/>
<path d="M337.461 12.2876C337.011 11.0087 335.588 11.0087 335.354 11.0087C335.246 11.0087 335.048 11.0087 335.048 11.1888C335.048 11.3329 335.156 11.3509 335.246 11.3689C335.516 11.4049 335.732 11.441 336.02 11.9633C336.201 12.3056 338.056 17.6913 338.056 17.7273C338.056 17.7453 338.038 17.7633 337.894 17.9074L333.21 22.6447C332.994 22.8609 332.85 23.005 332.85 23.2391C332.85 23.4913 333.066 23.7074 333.355 23.7074C333.427 23.7074 333.625 23.6714 333.733 23.5633C334.021 23.2932 336.597 20.141 338.236 18.1956C338.704 19.6006 339.281 21.2578 339.839 22.7708C339.929 23.041 340.019 23.2932 340.271 23.5273C340.451 23.6894 340.487 23.6894 340.992 23.6894H341.334C341.406 23.6894 341.532 23.6894 341.532 23.5453C341.532 23.4733 341.514 23.4553 341.442 23.3832C341.28 23.1851 341.154 22.8609 341.082 22.6447L337.461 12.2876Z" fill="black"/>
<path d="M347.263 19.0242C347.263 17.6553 347.083 15.4217 346.075 13.3323C345.012 11.1708 343.535 10 343.337 10C343.265 10 343.175 10.036 343.175 10.1441C343.175 10.1981 343.175 10.2342 343.481 10.5404C345.282 12.3596 346.291 15.3317 346.291 19.0062C346.291 22.5006 345.444 25.5087 343.355 27.6342C343.175 27.7963 343.175 27.8323 343.175 27.8864C343.175 27.9944 343.265 28.0305 343.337 28.0305C343.571 28.0305 345.048 26.7336 345.93 24.9684C346.849 23.1311 347.263 21.1857 347.263 19.0242Z" fill="black"/>
<path d="M358.757 18.2318C358.793 18.1237 359.244 17.2231 359.91 16.6467C360.378 16.2144 360.991 15.9262 361.693 15.9262C362.414 15.9262 362.666 16.4665 362.666 17.187C362.666 17.2951 362.666 17.6554 362.45 18.5019L362 20.3572C361.855 20.8976 361.513 22.2305 361.477 22.4287C361.405 22.6988 361.297 23.1672 361.297 23.2392C361.297 23.4914 361.495 23.6895 361.765 23.6895C362.306 23.6895 362.396 23.2752 362.558 22.6268L363.639 18.3218C363.675 18.1777 364.611 15.9262 366.593 15.9262C367.313 15.9262 367.565 16.4665 367.565 17.187C367.565 18.1957 366.863 20.1591 366.467 21.2398C366.304 21.6721 366.214 21.9063 366.214 22.2305C366.214 23.0411 366.773 23.6895 367.637 23.6895C369.313 23.6895 369.943 21.0417 369.943 20.9336C369.943 20.8436 369.871 20.7715 369.763 20.7715C369.601 20.7715 369.583 20.8256 369.493 21.1318C369.078 22.5728 368.412 23.3293 367.691 23.3293C367.511 23.3293 367.223 23.3113 367.223 22.7349C367.223 22.2666 367.439 21.6902 367.511 21.492C367.836 20.6274 368.646 18.5019 368.646 17.4572C368.646 16.3765 368.016 15.5659 366.647 15.5659C365.44 15.5659 364.467 16.2504 363.747 17.3131C363.693 16.3405 363.098 15.5659 361.747 15.5659C360.144 15.5659 359.298 16.7007 358.973 17.151C358.919 16.1243 358.181 15.5659 357.388 15.5659C356.866 15.5659 356.452 15.8181 356.109 16.5026C355.785 17.151 355.533 18.2498 355.533 18.3218C355.533 18.3939 355.605 18.4839 355.731 18.4839C355.875 18.4839 355.893 18.4659 356.001 18.0516C356.272 16.9889 356.614 15.9262 357.334 15.9262C357.749 15.9262 357.893 16.2144 357.893 16.7547C357.893 17.151 357.713 17.8535 357.586 18.4119L357.082 20.3572C357.01 20.6995 356.812 21.51 356.722 21.8343C356.596 22.3026 356.398 23.1492 356.398 23.2392C356.398 23.4914 356.596 23.6895 356.866 23.6895C357.082 23.6895 357.334 23.5815 357.478 23.3113C357.514 23.2212 357.677 22.5908 357.767 22.2305L358.163 20.6094L358.757 18.2318Z" fill="black"/>
<path d="M375.896 21.3659C375.806 21.6721 375.806 21.7082 375.553 22.0504C375.157 22.5547 374.365 23.3293 373.518 23.3293C372.779 23.3293 372.365 22.6628 372.365 21.6001C372.365 20.6094 372.924 18.592 373.266 17.8355C373.878 16.5746 374.725 15.9262 375.427 15.9262C376.616 15.9262 376.85 17.4032 376.85 17.5473C376.85 17.5653 376.796 17.7995 376.778 17.8355L375.896 21.3659ZM377.048 16.7547C376.85 16.2864 376.364 15.5659 375.427 15.5659C373.392 15.5659 371.194 18.1957 371.194 20.8616C371.194 22.6448 372.239 23.6895 373.464 23.6895C374.455 23.6895 375.301 22.915 375.806 22.3206C375.986 23.3833 376.832 23.6895 377.373 23.6895C377.913 23.6895 378.345 23.3653 378.67 22.7169C378.958 22.1044 379.21 21.0057 379.21 20.9336C379.21 20.8436 379.138 20.7715 379.03 20.7715C378.868 20.7715 378.85 20.8616 378.778 21.1318C378.507 22.1945 378.165 23.3293 377.427 23.3293C376.904 23.3293 376.868 22.861 376.868 22.5007C376.868 22.0864 376.922 21.8883 377.084 21.1858C377.211 20.7355 377.301 20.3392 377.445 19.8169C378.111 17.115 378.273 16.4665 378.273 16.3585C378.273 16.1063 378.075 15.9082 377.805 15.9082C377.229 15.9082 377.084 16.5386 377.048 16.7547Z" fill="black"/>
<path d="M388.27 16.1603C387.694 16.2684 387.478 16.7007 387.478 17.0429C387.478 17.4752 387.82 17.6193 388.072 17.6193C388.612 17.6193 388.991 17.151 388.991 16.6647C388.991 15.9082 388.126 15.5659 387.37 15.5659C386.271 15.5659 385.658 16.6467 385.496 16.9889C385.082 15.638 383.965 15.5659 383.641 15.5659C381.804 15.5659 380.831 17.9255 380.831 18.3218C380.831 18.3939 380.903 18.4839 381.029 18.4839C381.173 18.4839 381.209 18.3759 381.245 18.3038C381.858 16.3044 383.065 15.9262 383.587 15.9262C384.397 15.9262 384.56 16.6827 384.56 17.115C384.56 17.5113 384.451 17.9255 384.235 18.7901L383.623 21.2579C383.353 22.3386 382.83 23.3293 381.876 23.3293C381.786 23.3293 381.335 23.3293 380.957 23.0951C381.606 22.969 381.75 22.4287 381.75 22.2125C381.75 21.8523 381.479 21.6361 381.137 21.6361C380.705 21.6361 380.237 22.0144 380.237 22.5908C380.237 23.3473 381.083 23.6895 381.858 23.6895C382.722 23.6895 383.335 23.0051 383.713 22.2666C384.001 23.3293 384.902 23.6895 385.568 23.6895C387.406 23.6895 388.378 21.3299 388.378 20.9336C388.378 20.8436 388.306 20.7715 388.198 20.7715C388.036 20.7715 388.018 20.8616 387.964 21.0057C387.478 22.5908 386.433 23.3293 385.622 23.3293C384.992 23.3293 384.65 22.861 384.65 22.1225C384.65 21.7262 384.722 21.438 385.01 20.2492L385.64 17.7995C385.91 16.7187 386.523 15.9262 387.351 15.9262C387.388 15.9262 387.892 15.9262 388.27 16.1603Z" fill="black"/>
<path d="M357.764 33.7684C357.656 34.2247 357.632 34.3208 356.743 34.3208C356.515 34.3208 356.371 34.3208 356.371 34.5489C356.371 34.7171 356.527 34.7171 356.731 34.7171H360.862C363.396 34.7171 365.918 32.2914 365.918 29.6135C365.918 27.7763 364.693 26.5154 362.903 26.5154H358.701C358.484 26.5154 358.328 26.5154 358.328 26.7435C358.328 26.9117 358.472 26.9117 358.677 26.9117C359.073 26.9117 359.421 26.9117 359.421 27.1038C359.421 27.1518 359.409 27.1638 359.373 27.3199L357.764 33.7684ZM360.418 27.356C360.526 26.9477 360.538 26.9117 361.03 26.9117H362.483C363.888 26.9117 364.837 27.7162 364.837 29.1812C364.837 29.5775 364.669 31.5349 363.624 32.8798C363.096 33.5522 362.063 34.3208 360.646 34.3208H358.857C358.749 34.2968 358.713 34.2968 358.713 34.2127C358.713 34.1166 358.737 34.0206 358.761 33.9485L360.418 27.356Z" fill="black"/>
<path d="M370.405 30.9279C370.405 30.6577 370.189 30.5676 370.045 30.5676C369.756 30.5676 369.531 30.8468 369.531 31.063C369.531 31.2521 369.675 31.4232 369.9 31.4232C370.135 31.4232 370.405 31.1981 370.405 30.9279ZM368.486 36.953C368.315 37.6285 367.784 38.0878 367.262 38.0878C367.235 38.0878 366.982 38.0788 366.982 38.0428C366.982 38.0338 367.009 38.0158 367.009 38.0068C367.145 37.8987 367.208 37.7546 367.208 37.6195C367.208 37.3313 366.973 37.2683 366.847 37.2683C366.604 37.2683 366.334 37.4664 366.334 37.7996C366.334 38.277 366.901 38.385 367.271 38.385C367.874 38.385 368.955 38.0428 369.225 36.962L370.036 33.7378C370.054 33.6478 370.081 33.5667 370.081 33.4406C370.081 32.9363 369.63 32.576 369.054 32.576C368.036 32.576 367.406 33.7919 367.406 33.963C367.406 34.017 367.442 34.0891 367.568 34.0891C367.694 34.0891 367.703 34.053 367.766 33.9269C368.027 33.3415 368.531 32.8732 369.027 32.8732C369.297 32.8732 369.36 33.0984 369.36 33.3235C369.36 33.4406 369.342 33.5667 369.333 33.5937L368.486 36.953Z" fill="black"/>
<path d="M379.083 31.9911C379.275 31.9911 379.539 31.9911 379.539 31.7149C379.539 31.4388 379.275 31.4388 379.083 31.4388H373.727C373.883 29.7696 375.276 28.4967 377.101 28.4967H379.083C379.275 28.4967 379.539 28.4967 379.539 28.2205C379.539 27.9443 379.275 27.9443 379.083 27.9443H377.065C374.904 27.9443 373.163 29.6255 373.163 31.7149C373.163 33.8164 374.916 35.4855 377.065 35.4855H379.083C379.275 35.4855 379.539 35.4855 379.539 35.2094C379.539 34.9332 379.275 34.9332 379.083 34.9332H377.101C375.276 34.9332 373.883 33.6603 373.727 31.9911H379.083Z" fill="black"/>
<path d="M388.67 26.5874C388.682 26.5394 388.706 26.4673 388.706 26.4073C388.706 26.3232 388.634 26.2632 388.55 26.2632C388.465 26.2632 388.441 26.2872 388.309 26.4313C388.177 26.5874 387.865 26.9717 387.733 27.1158C387.265 26.4313 386.508 26.2632 385.896 26.2632C384.227 26.2632 382.798 27.6682 382.798 29.0371C382.798 29.7336 383.17 30.1419 383.23 30.2259C383.626 30.6462 383.974 30.7423 384.839 30.9464C385.259 31.0545 385.283 31.0545 385.632 31.1386C385.98 31.2226 386.748 31.4147 386.748 32.4114C386.748 33.4562 385.716 34.5729 384.455 34.5729C383.674 34.5729 382.245 34.3328 382.245 32.8437C382.245 32.8077 382.245 32.5555 382.317 32.2673L382.329 32.1473C382.329 32.0032 382.197 31.9911 382.149 31.9911C381.993 31.9911 381.981 32.0392 381.921 32.3154L381.429 34.2727C381.381 34.4528 381.297 34.7771 381.297 34.8131C381.297 34.9092 381.369 34.9692 381.453 34.9692C381.537 34.9692 381.549 34.9572 381.681 34.8011L382.257 34.1286C382.533 34.4889 383.218 34.9692 384.431 34.9692C386.172 34.9692 387.601 33.3961 387.601 31.9551C387.601 31.4027 387.421 30.9704 387.097 30.6342C386.736 30.2379 386.34 30.1419 385.776 29.9978C385.427 29.9137 384.959 29.8056 384.683 29.7336C384.323 29.6495 383.65 29.4094 383.65 28.5688C383.65 27.6321 384.659 26.6234 385.884 26.6234C386.964 26.6234 387.709 27.1878 387.709 28.4847C387.709 28.7729 387.661 29.0251 387.661 29.0731C387.661 29.2172 387.769 29.2412 387.853 29.2412C387.997 29.2412 388.009 29.1932 388.057 29.0011L388.67 26.5874Z" fill="black"/>
<path d="M407.197 10.9907C407.197 10.8286 407.071 10.8286 407.035 10.8286C406.963 10.8286 406.945 10.8466 406.728 11.1168C406.62 11.2429 405.882 12.1795 405.864 12.1976C405.269 11.0267 404.081 10.8286 403.324 10.8286C401.036 10.8286 398.965 12.9181 398.965 14.9535C398.965 16.3044 399.776 17.0969 400.658 17.4032C400.856 17.4752 401.919 17.7634 402.459 17.8895C403.378 18.1417 403.612 18.2137 403.99 18.61C404.063 18.7001 404.423 19.1143 404.423 19.9609C404.423 21.6361 402.874 23.3653 401.072 23.3653C399.595 23.3653 397.956 22.7348 397.956 20.7174C397.956 20.3752 398.028 19.9429 398.082 19.7628C398.082 19.7088 398.1 19.6187 398.1 19.5827C398.1 19.5106 398.064 19.4206 397.92 19.4206C397.758 19.4206 397.74 19.4566 397.668 19.7628L396.749 23.4553C396.749 23.4734 396.677 23.7075 396.677 23.7255C396.677 23.8876 396.822 23.8876 396.858 23.8876C396.93 23.8876 396.948 23.8696 397.164 23.5994L397.992 22.5187C398.425 23.1671 399.361 23.8876 401.036 23.8876C403.36 23.8876 405.486 21.6361 405.486 19.3845C405.486 18.628 405.305 17.9615 404.621 17.2951C404.243 16.9168 403.918 16.8268 402.261 16.3945C401.054 16.0702 400.892 16.0162 400.568 15.728C400.262 15.4218 400.028 14.9895 400.028 14.3771C400.028 12.864 401.559 11.3149 403.27 11.3149C405.035 11.3149 405.864 12.3957 405.864 14.1069C405.864 14.5752 405.774 15.0615 405.774 15.1336C405.774 15.2957 405.918 15.2957 405.972 15.2957C406.134 15.2957 406.152 15.2417 406.224 14.9535L407.197 10.9907Z" fill="black"/>
<path d="M412.752 20.9336C412.752 20.8435 412.68 20.7715 412.572 20.7715C412.41 20.7715 412.392 20.8255 412.302 21.1317C411.833 22.7708 411.095 23.3292 410.5 23.3292C410.284 23.3292 410.032 23.2752 410.032 22.7348C410.032 22.2485 410.248 21.7081 410.446 21.1677L411.707 17.8174C411.761 17.6733 411.887 17.3491 411.887 17.0069C411.887 16.2503 411.347 15.5659 410.464 15.5659C408.807 15.5659 408.141 18.1777 408.141 18.3218C408.141 18.3938 408.213 18.4839 408.339 18.4839C408.501 18.4839 408.519 18.4118 408.591 18.1597C409.023 16.6466 409.708 15.9261 410.41 15.9261C410.572 15.9261 410.879 15.9441 410.879 16.5205C410.879 16.9888 410.644 17.5833 410.5 17.9795L409.239 21.3298C409.131 21.618 409.023 21.9062 409.023 22.2305C409.023 23.041 409.582 23.6895 410.446 23.6895C412.103 23.6895 412.752 21.0597 412.752 20.9336ZM412.608 12.2696C412.608 11.9994 412.392 11.6752 411.995 11.6752C411.581 11.6752 411.113 12.0714 411.113 12.5398C411.113 12.9901 411.491 13.1342 411.707 13.1342C412.194 13.1342 412.608 12.6659 412.608 12.2696Z" fill="black"/>
<path d="M417.382 18.2318C417.418 18.1237 417.868 17.2231 418.535 16.6467C419.003 16.2144 419.615 15.9262 420.318 15.9262C421.038 15.9262 421.29 16.4665 421.29 17.187C421.29 17.2951 421.29 17.6554 421.074 18.5019L420.624 20.3572C420.48 20.8976 420.138 22.2305 420.102 22.4287C420.03 22.6988 419.922 23.1672 419.922 23.2392C419.922 23.4914 420.12 23.6895 420.39 23.6895C420.93 23.6895 421.02 23.2752 421.182 22.6268L422.263 18.3218C422.299 18.1777 423.236 15.9262 425.217 15.9262C425.938 15.9262 426.19 16.4665 426.19 17.187C426.19 18.1957 425.487 20.1591 425.091 21.2398C424.929 21.6721 424.839 21.9063 424.839 22.2305C424.839 23.0411 425.397 23.6895 426.262 23.6895C427.937 23.6895 428.567 21.0417 428.567 20.9336C428.567 20.8436 428.495 20.7715 428.387 20.7715C428.225 20.7715 428.207 20.8256 428.117 21.1318C427.703 22.5728 427.036 23.3293 426.316 23.3293C426.136 23.3293 425.848 23.3113 425.848 22.7349C425.848 22.2666 426.064 21.6902 426.136 21.492C426.46 20.6274 427.271 18.5019 427.271 17.4572C427.271 16.3765 426.64 15.5659 425.271 15.5659C424.064 15.5659 423.092 16.2504 422.371 17.3131C422.317 16.3405 421.723 15.5659 420.372 15.5659C418.769 15.5659 417.922 16.7007 417.598 17.151C417.544 16.1243 416.805 15.5659 416.013 15.5659C415.49 15.5659 415.076 15.8181 414.734 16.5026C414.41 17.151 414.158 18.2498 414.158 18.3218C414.158 18.3939 414.23 18.4839 414.356 18.4839C414.5 18.4839 414.518 18.4659 414.626 18.0516C414.896 16.9889 415.238 15.9262 415.959 15.9262C416.373 15.9262 416.517 16.2144 416.517 16.7547C416.517 17.151 416.337 17.8535 416.211 18.4119L415.707 20.3572C415.635 20.6995 415.436 21.51 415.346 21.8343C415.22 22.3026 415.022 23.1492 415.022 23.2392C415.022 23.4914 415.22 23.6895 415.49 23.6895C415.707 23.6895 415.959 23.5815 416.103 23.3113C416.139 23.2212 416.301 22.5908 416.391 22.2305L416.787 20.6094L417.382 18.2318Z" fill="black"/>
<path d="M432.485 23.7615C432.677 23.5814 433.181 23.1851 433.373 23.017C434.118 22.3325 434.826 21.6721 434.826 20.5793C434.826 19.1503 433.625 18.2257 432.124 18.2257C430.683 18.2257 429.735 19.3185 429.735 20.3872C429.735 20.9756 430.203 21.0597 430.371 21.0597C430.623 21.0597 430.996 20.8795 430.996 20.4232C430.996 19.7988 430.395 19.7988 430.251 19.7988C430.599 18.9222 431.404 18.622 431.992 18.622C433.109 18.622 433.686 19.5706 433.686 20.5793C433.686 21.8282 432.809 22.7408 431.392 24.1938L429.879 25.7549C429.735 25.887 429.735 25.911 429.735 26.2112H434.478L434.826 24.0617H434.454C434.418 24.3019 434.322 24.9023 434.178 25.1305C434.106 25.2265 433.193 25.2265 433.001 25.2265H430.864L432.485 23.7615Z" fill="black"/>
<path d="M442.082 27.8864C442.082 27.8323 442.082 27.7963 441.776 27.4901C439.975 25.6708 438.966 22.6988 438.966 19.0242C438.966 15.5298 439.813 12.5217 441.902 10.3963C442.082 10.2342 442.082 10.1981 442.082 10.1441C442.082 10.036 441.992 10 441.92 10C441.686 10 440.209 11.2969 439.327 13.0621C438.408 14.8814 437.994 16.8087 437.994 19.0242C437.994 20.6273 438.246 22.7708 439.182 24.6982C440.245 26.8597 441.722 28.0305 441.92 28.0305C441.992 28.0305 442.082 27.9944 442.082 27.8864Z" fill="black"/>
<path d="M445.915 22.1764C445.753 22.8068 445.717 22.9869 444.456 22.9869C444.114 22.9869 443.934 22.9869 443.934 23.3112C443.934 23.5093 444.042 23.5093 444.402 23.5093H450.112C453.751 23.5093 457.299 19.7447 457.299 15.7279C457.299 13.1341 455.75 11.2068 453.174 11.2068H447.392C447.05 11.2068 446.888 11.2068 446.888 11.549C446.888 11.7291 447.05 11.7291 447.32 11.7291C448.419 11.7291 448.419 11.8732 448.419 12.0714C448.419 12.1074 448.419 12.2155 448.347 12.4857L445.915 22.1764ZM449.716 12.4316C449.878 11.7652 449.95 11.7291 450.652 11.7291H452.634C454.327 11.7291 455.876 12.6478 455.876 15.1335C455.876 16.0341 455.516 19.1683 453.769 21.1497C453.264 21.7441 451.895 22.9869 449.824 22.9869H447.77C447.518 22.9869 447.482 22.9869 447.374 22.9689C447.176 22.9509 447.158 22.9149 447.158 22.7708C447.158 22.6447 447.194 22.5366 447.23 22.3745L449.716 12.4316Z" fill="black"/>
<path d="M461.309 18.718C461.309 18.4539 461.117 18.2617 460.841 18.2617C460.529 18.2617 460.181 18.5499 460.181 18.9102C460.181 19.1743 460.373 19.3665 460.649 19.3665C460.961 19.3665 461.309 19.0783 461.309 18.718ZM459.556 23.1251L458.908 24.7822C458.848 24.9624 458.788 25.1065 458.788 25.3106C458.788 25.899 459.244 26.3313 459.88 26.3313C461.045 26.3313 461.538 24.6501 461.538 24.494C461.538 24.3739 461.442 24.3379 461.357 24.3379C461.213 24.3379 461.189 24.422 461.153 24.5421C460.877 25.5027 460.385 25.9951 459.904 25.9951C459.76 25.9951 459.616 25.935 459.616 25.6108C459.616 25.3226 459.7 25.1065 459.856 24.7342C459.977 24.41 460.097 24.0857 460.229 23.7615L460.601 22.7888C460.709 22.5127 460.853 22.1404 460.853 21.9363C460.853 21.3358 460.373 20.9156 459.76 20.9156C458.596 20.9156 458.091 22.5967 458.091 22.7528C458.091 22.8609 458.175 22.9089 458.271 22.9089C458.427 22.9089 458.439 22.8369 458.475 22.7168C458.812 21.576 459.364 21.2518 459.724 21.2518C459.892 21.2518 460.013 21.3118 460.013 21.6481C460.013 21.7681 460.001 21.9363 459.88 22.2965L459.556 23.1251Z" fill="black"/>
<path d="M466.338 23.5813C466.338 22.5366 465.996 21.7621 465.257 21.7621C464.681 21.7621 464.392 22.2304 464.392 22.6267C464.392 23.023 464.663 23.5093 465.275 23.5093C465.509 23.5093 465.707 23.4372 465.87 23.2751C465.906 23.2391 465.924 23.2391 465.942 23.2391C465.978 23.2391 465.978 23.4913 465.978 23.5813C465.978 24.1758 465.87 25.3466 464.825 26.5174C464.627 26.7335 464.627 26.7695 464.627 26.8056C464.627 26.8956 464.717 26.9857 464.807 26.9857C464.951 26.9857 466.338 25.6528 466.338 23.5813Z" fill="black"/>
<path d="M473.555 22.1764C473.392 22.8068 473.356 22.9869 472.096 22.9869C471.753 22.9869 471.573 22.9869 471.573 23.3112C471.573 23.5093 471.681 23.5093 472.042 23.5093H477.751C481.39 23.5093 484.938 19.7447 484.938 15.7279C484.938 13.1341 483.389 11.2068 480.814 11.2068H475.032C474.689 11.2068 474.527 11.2068 474.527 11.549C474.527 11.7291 474.689 11.7291 474.96 11.7291C476.058 11.7291 476.058 11.8732 476.058 12.0714C476.058 12.1074 476.058 12.2155 475.986 12.4857L473.555 22.1764ZM477.355 12.4316C477.517 11.7652 477.589 11.7291 478.292 11.7291H480.273C481.966 11.7291 483.515 12.6478 483.515 15.1335C483.515 16.0341 483.155 19.1683 481.408 21.1497C480.904 21.7441 479.535 22.9869 477.463 22.9869H475.41C475.158 22.9869 475.122 22.9869 475.014 22.9689C474.815 22.9509 474.797 22.9149 474.797 22.7708C474.797 22.6447 474.833 22.5366 474.869 22.3745L477.355 12.4316Z" fill="black"/>
<path d="M490.33 18.718C490.33 18.4899 490.15 18.2617 489.862 18.2617C489.501 18.2617 489.189 18.598 489.189 18.9102C489.189 19.1383 489.369 19.3665 489.657 19.3665C490.018 19.3665 490.33 19.0302 490.33 18.718ZM487.82 26.8116C487.64 27.5441 487.052 28.3247 486.319 28.3247C486.127 28.3247 485.947 28.2766 485.923 28.2646C486.295 28.0845 486.343 27.7603 486.343 27.6522C486.343 27.364 486.127 27.2079 485.875 27.2079C485.527 27.2079 485.202 27.5081 485.202 27.9044C485.202 28.3607 485.647 28.6609 486.331 28.6609C487.064 28.6609 488.385 28.2046 488.745 26.7636L489.825 22.4646C489.862 22.3205 489.886 22.2245 489.886 22.0443C489.886 21.3839 489.357 20.9156 488.661 20.9156C487.388 20.9156 486.643 22.5967 486.643 22.7528C486.643 22.8609 486.727 22.9089 486.823 22.9089C486.956 22.9089 486.968 22.8729 487.052 22.6928C487.412 21.8642 488.024 21.2518 488.625 21.2518C488.877 21.2518 489.021 21.4199 489.021 21.8162C489.021 21.9843 488.985 22.1524 488.949 22.3205L487.82 26.8116Z" fill="black"/>
<path d="M497.052 19.0242C497.052 17.6553 496.872 15.4217 495.864 13.3323C494.801 11.1708 493.324 10 493.126 10C493.054 10 492.964 10.036 492.964 10.1441C492.964 10.1981 492.964 10.2342 493.27 10.5404C495.071 12.3596 496.08 15.3317 496.08 19.0062C496.08 22.5006 495.233 25.5087 493.144 27.6342C492.964 27.7963 492.964 27.8323 492.964 27.8864C492.964 27.9944 493.054 28.0305 493.126 28.0305C493.36 28.0305 494.837 26.7336 495.719 24.9684C496.638 23.1311 497.052 21.1857 497.052 19.0242Z" fill="black"/>
<path d="M501.624 10H499.21V10.6665H500.957V27.346H499.21V28.0125H501.624V10Z" fill="black"/>
</svg>
