<svg width="228" height="113" viewBox="0 0 228 113" fill="none" xmlns="http://www.w3.org/2000/svg">
<path d="M68.7889 40.7606L54.4174 26.3594C54.1819 26.1238 53.8638 26 53.5317 26H16.34C14.4403 26 12.8962 27.5352 12.8962 29.4337L12.8765 92.5594C12.8765 94.4578 14.4219 96 16.3209 96H65.6905C67.5889 96 69.1343 94.459 69.1349 92.5613L69.1533 41.6413C69.1533 41.3098 69.0225 40.9949 68.7889 40.7606ZM66.634 92.5606C66.634 93.0806 66.2105 93.501 65.6905 93.501H16.3209C15.8003 93.501 15.3768 93.0844 15.3768 92.5644L15.3965 29.4362C15.3965 28.9162 15.8194 28.5003 16.34 28.5003H53.013L66.6517 42.1632L66.634 92.5606Z" fill="black"/>
<path d="M62.2626 40.3752H57.1876C55.8613 40.3752 54.7508 39.3098 54.7508 37.9835V27.2343C54.7508 26.5435 54.1908 25.9841 53.5006 25.9841C52.8105 25.9841 52.2505 26.5441 52.2505 27.2343V37.9835C52.2505 40.6889 54.4816 42.8749 57.187 42.8749H62.2619C62.9521 42.8749 63.5127 42.3162 63.5127 41.6254C63.5127 40.9346 62.9527 40.3752 62.2626 40.3752Z" fill="black"/>
<path d="M78.7584 30.7822L64.387 16.374C64.1514 16.1384 63.8333 16 63.5019 16H26.3095C24.4105 16 22.8746 17.5581 22.8746 19.4571V27.2343C22.8746 27.9251 23.434 28.4844 24.1248 28.4844C24.8156 28.4844 25.3749 27.9244 25.3749 27.2343V19.4571C25.3749 18.9371 25.7902 18.5003 26.3102 18.5003H62.9838L76.6232 32.1689L76.6041 82.574C76.6041 83.0933 76.1813 83.4997 75.6613 83.4997H67.8841C67.1933 83.4997 66.634 84.0597 66.634 84.7498C66.634 85.44 67.1933 86 67.8841 86H75.6613C77.5603 86 79.1044 84.4717 79.1038 82.5733L79.1235 31.6667C79.1235 31.3352 78.9914 31.0165 78.7584 30.7822Z" fill="black"/>
<path d="M72.2333 30.3746H67.1584C65.8321 30.3746 64.7508 29.339 64.7508 28.0127V17.2635C64.7508 16.5733 64.1908 16.0133 63.5006 16.0133C62.8105 16.0133 62.2505 16.5733 62.2505 17.2635V28.0127C62.2505 30.7181 64.453 32.8749 67.1578 32.8749H72.2327C72.9229 32.8749 73.4835 32.3156 73.4835 31.6248C73.4835 30.934 72.9235 30.3746 72.2333 30.3746Z" fill="black"/>
<path d="M22.7838 46.6248H19.7413C19.0511 46.6248 18.4911 47.1841 18.4911 47.8749C18.4911 48.5657 19.0511 49.1251 19.7413 49.1251H22.7838C23.4733 49.1251 24.034 48.5657 24.034 47.8749C24.034 47.1841 23.4733 46.6248 22.7838 46.6248Z" fill="black"/>
<path d="M62.2429 46.6248H28.3991C27.7076 46.6248 27.1489 47.1841 27.1489 47.8749C27.1489 48.5657 27.7083 49.1251 28.3991 49.1251H62.2429C62.9337 49.1251 63.493 48.5657 63.493 47.8749C63.493 47.1841 62.9337 46.6248 62.2429 46.6248Z" fill="black"/>
<path d="M62.2429 52.8749H52.7603C52.0695 52.8749 51.5102 53.4343 51.5102 54.1251C51.5102 54.8159 52.0695 55.3752 52.7603 55.3752H62.2429C62.9337 55.3752 63.493 54.8159 63.493 54.1251C63.493 53.4343 62.9337 52.8749 62.2429 52.8749Z" fill="black"/>
<path d="M47.1457 52.8749H19.7419C19.0518 52.8749 18.4918 53.4343 18.4918 54.1251C18.4918 54.8159 19.0518 55.3752 19.7419 55.3752H47.1457C47.8353 55.3752 48.3959 54.8159 48.3959 54.1251C48.3959 53.4343 47.8353 52.8749 47.1457 52.8749Z" fill="black"/>
<path d="M62.2429 59.1245H19.7419C19.0518 59.1245 18.4918 59.6845 18.4918 60.3746C18.4918 61.0648 19.0518 61.6248 19.7419 61.6248H62.2429C62.9337 61.6248 63.493 61.0648 63.493 60.3746C63.493 59.6845 62.9337 59.1245 62.2429 59.1245Z" fill="black"/>
<path d="M62.2429 77.8749H19.7419C19.0518 77.8749 18.4918 78.4349 18.4918 79.1251C18.4918 79.8152 19.0518 80.3752 19.7419 80.3752H62.2429C62.9337 80.3752 63.493 79.8152 63.493 79.1251C63.493 78.4349 62.9337 77.8749 62.2429 77.8749Z" fill="black"/>
<path d="M22.7838 65.3746H19.7413C19.0511 65.3746 18.4911 65.9346 18.4911 66.6248C18.4911 67.3149 19.0511 67.8749 19.7413 67.8749H22.7838C23.4733 67.8749 24.034 67.3149 24.034 66.6248C24.034 65.9346 23.4733 65.3746 22.7838 65.3746Z" fill="black"/>
<path d="M62.2429 65.3746H28.3991C27.7076 65.3746 27.1489 65.9346 27.1489 66.6248C27.1489 67.3149 27.7083 67.8749 28.3991 67.8749H62.2429C62.9337 67.8749 63.493 67.3149 63.493 66.6248C63.493 65.9346 62.9337 65.3746 62.2429 65.3746Z" fill="black"/>
<path d="M62.2429 71.6248H52.7603C52.0695 71.6248 51.5102 72.1848 51.5102 72.8749C51.5102 73.5651 52.0695 74.1251 52.7603 74.1251H62.2429C62.9337 74.1251 63.493 73.5651 63.493 72.8749C63.493 72.1848 62.9337 71.6248 62.2429 71.6248Z" fill="black"/>
<path d="M47.1457 71.6248H19.7419C19.0518 71.6248 18.4918 72.1848 18.4918 72.8749C18.4918 73.5651 19.0518 74.1251 19.7419 74.1251H47.1457C47.8353 74.1251 48.3959 73.5651 48.3959 72.8749C48.3959 72.1848 47.8353 71.6248 47.1457 71.6248Z" fill="black"/>
<path d="M22.7838 84.1245H19.7413C19.0511 84.1245 18.4911 84.6845 18.4911 85.3746C18.4911 86.0648 19.0511 86.6248 19.7413 86.6248H22.7838C23.4733 86.6248 24.034 86.0648 24.034 85.3746C24.034 84.6845 23.4733 84.1245 22.7838 84.1245Z" fill="black"/>
<path d="M62.2429 84.1245H28.3991C27.7076 84.1245 27.1489 84.6845 27.1489 85.3746C27.1489 86.0648 27.7083 86.6248 28.3991 86.6248H62.2429C62.9337 86.6248 63.493 86.0648 63.493 85.3746C63.493 84.6845 62.9337 84.1245 62.2429 84.1245Z" fill="black"/>
<path d="M72.2143 36.6248H64.7952C64.1044 36.6248 63.5451 37.1841 63.5451 37.8749C63.5451 38.5657 64.1044 39.1251 64.7952 39.1251H72.2136C72.9044 39.1251 73.4644 38.5657 73.4644 37.8749C73.4644 37.1841 72.9051 36.6248 72.2143 36.6248Z" fill="black"/>
<path d="M72.2137 42.8749H67.8841C67.1933 42.8749 66.634 43.4343 66.634 44.1251C66.634 44.8159 67.1933 45.3752 67.8841 45.3752H72.2137C72.9044 45.3752 73.4638 44.8159 73.4638 44.1251C73.4638 43.4343 72.9044 42.8749 72.2137 42.8749Z" fill="black"/>
<path d="M72.2137 49.1245H67.8841C67.1933 49.1245 66.634 49.6838 66.634 50.3746C66.634 51.0654 67.1933 51.6248 67.8841 51.6248H72.2137C72.9044 51.6248 73.4638 51.0654 73.4638 50.3746C73.4638 49.6838 72.9044 49.1245 72.2137 49.1245Z" fill="black"/>
<path d="M72.2136 67.8749H68.267C67.5775 67.8749 67.0168 68.4349 67.0168 69.1251C67.0168 69.8152 67.5775 70.3752 68.267 70.3752H72.2136C72.9044 70.3752 73.4638 69.8152 73.4638 69.1251C73.4638 68.4349 72.9044 67.8749 72.2136 67.8749Z" fill="black"/>
<path d="M72.2137 55.3746H67.8841C67.1933 55.3746 66.634 55.9346 66.634 56.6248C66.634 57.3149 67.1933 57.8749 67.8841 57.8749H72.2137C72.9044 57.8749 73.4638 57.3149 73.4638 56.6248C73.4638 55.934 72.9044 55.3746 72.2137 55.3746Z" fill="black"/>
<path d="M72.2137 61.6248H67.8841C67.1933 61.6248 66.634 62.1848 66.634 62.8749C66.634 63.5651 67.1933 64.1251 67.8841 64.1251H72.2137C72.9044 64.1251 73.4638 63.5651 73.4638 62.8749C73.4638 62.1848 72.9044 61.6248 72.2137 61.6248Z" fill="black"/>
<path d="M72.2137 74.1244H67.8841C67.1933 74.1244 66.634 74.6844 66.634 75.3746C66.634 76.0648 67.1933 76.6248 67.8841 76.6248H72.2137C72.9044 76.6248 73.4638 76.0648 73.4638 75.3746C73.4638 74.6844 72.9044 74.1244 72.2137 74.1244Z" fill="black"/>
<path d="M155.061 57.0607C155.646 56.4749 155.646 55.5251 155.061 54.9393L145.515 45.3934C144.929 44.8076 143.979 44.8076 143.393 45.3934C142.808 45.9792 142.808 46.9289 143.393 47.5147L151.879 56L143.393 64.4853C142.808 65.0711 142.808 66.0208 143.393 66.6066C143.979 67.1924 144.929 67.1924 145.515 66.6066L155.061 57.0607ZM98 57.5H154V54.5H98V57.5Z" fill="black"/>
<path d="M189 13H180V103H189" stroke="black" stroke-width="2"/>
<path d="M204 13H213V103H204" stroke="black" stroke-width="2"/>
<path d="M194.746 16.6543L196 19.2148L198.062 16.666H198.918L196.322 19.8066L197.98 23H197.219L195.883 20.3281L193.721 23H192.871L195.572 19.7305L193.984 16.6543H194.746ZM194.746 30.6543L196 33.2148L198.062 30.666H198.918L196.322 33.8066L197.98 37H197.219L195.883 34.3281L193.721 37H192.871L195.572 33.7305L193.984 30.6543H194.746ZM194.898 50.5723C194.902 50.4395 194.953 50.3242 195.051 50.2266C195.148 50.1289 195.266 50.0781 195.402 50.0742C195.543 50.0742 195.658 50.1211 195.748 50.2148C195.838 50.3086 195.879 50.4258 195.871 50.5664C195.863 50.7031 195.811 50.8184 195.713 50.9121C195.615 51.0059 195.498 51.0527 195.361 51.0527C195.221 51.0566 195.105 51.0137 195.016 50.9238C194.926 50.8301 194.887 50.7129 194.898 50.5723ZM194.898 64.5723C194.902 64.4395 194.953 64.3242 195.051 64.2266C195.148 64.1289 195.266 64.0781 195.402 64.0742C195.543 64.0742 195.658 64.1211 195.748 64.2148C195.838 64.3086 195.879 64.4258 195.871 64.5664C195.863 64.7031 195.811 64.8184 195.713 64.9121C195.615 65.0059 195.498 65.0527 195.361 65.0527C195.221 65.0566 195.105 65.0137 195.016 64.9238C194.926 64.8301 194.887 64.7129 194.898 64.5723ZM194.898 78.5723C194.902 78.4395 194.953 78.3242 195.051 78.2266C195.148 78.1289 195.266 78.0781 195.402 78.0742C195.543 78.0742 195.658 78.1211 195.748 78.2148C195.838 78.3086 195.879 78.4258 195.871 78.5664C195.863 78.7031 195.811 78.8184 195.713 78.9121C195.615 79.0059 195.498 79.0527 195.361 79.0527C195.221 79.0566 195.105 79.0137 195.016 78.9238C194.926 78.8301 194.887 78.7129 194.898 78.5723ZM194.746 86.6543L196 89.2148L198.062 86.666H198.918L196.322 89.8066L197.98 93H197.219L195.883 90.3281L193.721 93H192.871L195.572 89.7305L193.984 86.6543H194.746Z" fill="black"/>
<path d="M203.047 19.2891L202.074 25H201.617L202.504 19.8945L200.906 20.457L200.984 20.0039L202.961 19.2891H203.047Z" fill="black"/>
<path d="M203.523 38.5977L203.461 39H200.004L200.059 38.6211L202.176 36.5234C202.332 36.3672 202.496 36.1992 202.668 36.0195C202.842 35.8398 202.995 35.6471 203.125 35.4414C203.258 35.2357 203.342 35.0169 203.379 34.7852C203.41 34.5638 203.392 34.3672 203.324 34.1953C203.259 34.0234 203.15 33.888 202.996 33.7891C202.842 33.6875 202.651 33.6354 202.422 33.6328C202.161 33.6302 201.93 33.6875 201.727 33.8047C201.526 33.9219 201.361 34.0807 201.23 34.2812C201.103 34.4818 201.018 34.7044 200.977 34.9492H200.523C200.568 34.6237 200.677 34.3307 200.852 34.0703C201.026 33.8099 201.249 33.6055 201.52 33.457C201.793 33.306 202.098 33.2318 202.434 33.2344C202.736 33.237 202.999 33.2995 203.223 33.4219C203.449 33.5443 203.618 33.7188 203.73 33.9453C203.842 34.1719 203.88 34.4388 203.844 34.7461C203.82 34.9518 203.762 35.1497 203.668 35.3398C203.574 35.5273 203.46 35.7083 203.324 35.8828C203.191 36.0547 203.049 36.2188 202.898 36.375C202.747 36.5286 202.602 36.6745 202.461 36.8125L200.645 38.5977H203.523Z" fill="black"/>
<path d="M201.082 94.6953L200.512 98H200.055L200.785 93.7734H201.223L201.082 94.6953ZM200.828 95.625L200.645 95.5078C200.697 95.2786 200.776 95.056 200.883 94.8398C200.99 94.6211 201.122 94.4258 201.281 94.2539C201.443 94.0794 201.628 93.9427 201.836 93.8438C202.047 93.7422 202.281 93.6927 202.539 93.6953C202.771 93.6979 202.962 93.7409 203.113 93.8242C203.267 93.9049 203.385 94.0182 203.469 94.1641C203.552 94.3073 203.604 94.4727 203.625 94.6602C203.648 94.8451 203.646 95.0417 203.617 95.25L203.152 98H202.691L203.164 95.2422C203.193 95.0391 203.191 94.8516 203.16 94.6797C203.132 94.5052 203.059 94.3659 202.941 94.2617C202.824 94.1549 202.648 94.1016 202.414 94.1016C202.206 94.099 202.014 94.1419 201.84 94.2305C201.665 94.3164 201.509 94.4336 201.371 94.582C201.236 94.7279 201.121 94.8919 201.027 95.0742C200.936 95.2539 200.87 95.4375 200.828 95.625Z" fill="black"/>
</svg>
