<svg width="228" height="113" viewBox="0 0 228 113" fill="none" xmlns="http://www.w3.org/2000/svg">
<path d="M51 13H42V103H51" stroke="black" stroke-width="2"/>
<path d="M66 13H75V103H66" stroke="black" stroke-width="2"/>
<path d="M56.7461 16.6543L58 19.2148L60.0625 16.666H60.918L58.3223 19.8066L59.9805 23H59.2188L57.8828 20.3281L55.7207 23H54.8711L57.5723 19.7305L55.9844 16.6543H56.7461ZM56.7461 30.6543L58 33.2148L60.0625 30.666H60.918L58.3223 33.8066L59.9805 37H59.2188L57.8828 34.3281L55.7207 37H54.8711L57.5723 33.7305L55.9844 30.6543H56.7461ZM56.8984 50.5723C56.9023 50.4395 56.9531 50.3242 57.0508 50.2266C57.1484 50.1289 57.2656 50.0781 57.4023 50.0742C57.543 50.0742 57.6582 50.1211 57.748 50.2148C57.8379 50.3086 57.8789 50.4258 57.8711 50.5664C57.8633 50.7031 57.8105 50.8184 57.7129 50.9121C57.6152 51.0059 57.498 51.0527 57.3613 51.0527C57.2207 51.0566 57.1055 51.0137 57.0156 50.9238C56.9258 50.8301 56.8867 50.7129 56.8984 50.5723ZM56.8984 64.5723C56.9023 64.4395 56.9531 64.3242 57.0508 64.2266C57.1484 64.1289 57.2656 64.0781 57.4023 64.0742C57.543 64.0742 57.6582 64.1211 57.748 64.2148C57.8379 64.3086 57.8789 64.4258 57.8711 64.5664C57.8633 64.7031 57.8105 64.8184 57.7129 64.9121C57.6152 65.0059 57.498 65.0527 57.3613 65.0527C57.2207 65.0566 57.1055 65.0137 57.0156 64.9238C56.9258 64.8301 56.8867 64.7129 56.8984 64.5723ZM56.8984 78.5723C56.9023 78.4395 56.9531 78.3242 57.0508 78.2266C57.1484 78.1289 57.2656 78.0781 57.4023 78.0742C57.543 78.0742 57.6582 78.1211 57.748 78.2148C57.8379 78.3086 57.8789 78.4258 57.8711 78.5664C57.8633 78.7031 57.8105 78.8184 57.7129 78.9121C57.6152 79.0059 57.498 79.0527 57.3613 79.0527C57.2207 79.0566 57.1055 79.0137 57.0156 78.9238C56.9258 78.8301 56.8867 78.7129 56.8984 78.5723ZM56.7461 86.6543L58 89.2148L60.0625 86.666H60.918L58.3223 89.8066L59.9805 93H59.2188L57.8828 90.3281L55.7207 93H54.8711L57.5723 89.7305L55.9844 86.6543H56.7461Z" fill="black"/>
<path d="M65.0469 19.2891L64.0742 25H63.6172L64.5039 19.8945L62.9062 20.457L62.9844 20.0039L64.9609 19.2891H65.0469Z" fill="black"/>
<path d="M65.5234 38.5977L65.4609 39H62.0039L62.0586 38.6211L64.1758 36.5234C64.332 36.3672 64.4961 36.1992 64.668 36.0195C64.8424 35.8398 64.9948 35.6471 65.125 35.4414C65.2578 35.2357 65.3424 35.0169 65.3789 34.7852C65.4102 34.5638 65.3919 34.3672 65.3242 34.1953C65.2591 34.0234 65.1497 33.888 64.9961 33.7891C64.8424 33.6875 64.651 33.6354 64.4219 33.6328C64.1615 33.6302 63.9297 33.6875 63.7266 33.8047C63.526 33.9219 63.3607 34.0807 63.2305 34.2812C63.1029 34.4818 63.0182 34.7044 62.9766 34.9492H62.5234C62.5677 34.6237 62.6771 34.3307 62.8516 34.0703C63.026 33.8099 63.2487 33.6055 63.5195 33.457C63.793 33.306 64.0977 33.2318 64.4336 33.2344C64.7357 33.237 64.9987 33.2995 65.2227 33.4219C65.4492 33.5443 65.6185 33.7188 65.7305 33.9453C65.8424 34.1719 65.8802 34.4388 65.8438 34.7461C65.8203 34.9518 65.7617 35.1497 65.668 35.3398C65.5742 35.5273 65.4596 35.7083 65.3242 35.8828C65.1914 36.0547 65.0495 36.2188 64.8984 36.375C64.7474 36.5286 64.6016 36.6745 64.4609 36.8125L62.6445 38.5977H65.5234Z" fill="black"/>
<path d="M63.082 94.6953L62.5117 98H62.0547L62.7852 93.7734H63.2227L63.082 94.6953ZM62.8281 95.625L62.6445 95.5078C62.6966 95.2786 62.776 95.056 62.8828 94.8398C62.9896 94.6211 63.1224 94.4258 63.2812 94.2539C63.4427 94.0794 63.6276 93.9427 63.8359 93.8438C64.0469 93.7422 64.2812 93.6927 64.5391 93.6953C64.7708 93.6979 64.9622 93.7409 65.1133 93.8242C65.2669 93.9049 65.3854 94.0182 65.4688 94.1641C65.5521 94.3073 65.6042 94.4727 65.625 94.6602C65.6484 94.8451 65.6458 95.0417 65.6172 95.25L65.1523 98H64.6914L65.1641 95.2422C65.1927 95.0391 65.1914 94.8516 65.1602 94.6797C65.1315 94.5052 65.0586 94.3659 64.9414 94.2617C64.8242 94.1549 64.6484 94.1016 64.4141 94.1016C64.2057 94.099 64.0143 94.1419 63.8398 94.2305C63.6654 94.3164 63.5091 94.4336 63.3711 94.582C63.2357 94.7279 63.1211 94.8919 63.0273 95.0742C62.9362 95.2539 62.8698 95.4375 62.8281 95.625Z" fill="black"/>
<path d="M161 13H152V103H161" stroke="black" stroke-width="2"/>
<path d="M176 13H185V103H176" stroke="black" stroke-width="2"/>
<path d="M166.746 24.6543L168 27.2148L170.062 24.666H170.918L168.322 27.8066L169.98 31H169.219L167.883 28.3281L165.721 31H164.871L167.572 27.7305L165.984 24.6543H166.746ZM166.746 38.6543L168 41.2148L170.062 38.666H170.918L168.322 41.8066L169.98 45H169.219L167.883 42.3281L165.721 45H164.871L167.572 41.7305L165.984 38.6543H166.746ZM166.746 52.6543L168 55.2148L170.062 52.666H170.918L168.322 55.8066L169.98 59H169.219L167.883 56.3281L165.721 59H164.871L167.572 55.7305L165.984 52.6543H166.746ZM166.746 66.6543L168 69.2148L170.062 66.666H170.918L168.322 69.8066L169.98 73H169.219L167.883 70.3281L165.721 73H164.871L167.572 69.7305L165.984 66.6543H166.746ZM166.746 80.6543L168 83.2148L170.062 80.666H170.918L168.322 83.8066L169.98 87H169.219L167.883 84.3281L165.721 87H164.871L167.572 83.7305L165.984 80.6543H166.746Z" fill="black"/>
<path d="M173.785 28.7168L173.056 33H172.713L173.378 29.1709L172.18 29.5928L172.238 29.2529L173.721 28.7168H173.785Z" fill="black"/>
<path d="M174.143 46.6982L174.096 47H171.503L171.544 46.7158L173.132 45.1426C173.249 45.0254 173.372 44.8994 173.501 44.7646C173.632 44.6299 173.746 44.4854 173.844 44.3311C173.943 44.1768 174.007 44.0127 174.034 43.8389C174.058 43.6729 174.044 43.5254 173.993 43.3965C173.944 43.2676 173.862 43.166 173.747 43.0918C173.632 43.0156 173.488 42.9766 173.316 42.9746C173.121 42.9727 172.947 43.0156 172.795 43.1035C172.645 43.1914 172.521 43.3105 172.423 43.4609C172.327 43.6113 172.264 43.7783 172.232 43.9619H171.893C171.926 43.7178 172.008 43.498 172.139 43.3027C172.27 43.1074 172.437 42.9541 172.64 42.8428C172.845 42.7295 173.073 42.6738 173.325 42.6758C173.552 42.6777 173.749 42.7246 173.917 42.8164C174.087 42.9082 174.214 43.0391 174.298 43.209C174.382 43.3789 174.41 43.5791 174.383 43.8096C174.365 43.9639 174.321 44.1123 174.251 44.2549C174.181 44.3955 174.095 44.5312 173.993 44.6621C173.894 44.791 173.787 44.9141 173.674 45.0312C173.561 45.1465 173.451 45.2559 173.346 45.3594L171.983 46.6982H174.143Z" fill="black"/>
<path d="M172.622 58.6738L172.953 58.6768C173.127 58.6729 173.293 58.6396 173.451 58.5771C173.611 58.5146 173.746 58.4219 173.855 58.2988C173.967 58.1758 174.035 58.0215 174.061 57.8359C174.086 57.666 174.073 57.5176 174.022 57.3906C173.972 57.2617 173.889 57.1611 173.773 57.0889C173.658 57.0146 173.514 56.9766 173.34 56.9746C173.16 56.9727 172.997 57.0088 172.851 57.083C172.704 57.1572 172.582 57.2607 172.484 57.3936C172.389 57.5244 172.324 57.6768 172.291 57.8506H171.951C171.984 57.6182 172.066 57.4131 172.197 57.2354C172.33 57.0576 172.497 56.9199 172.698 56.8223C172.899 56.7227 173.117 56.6738 173.352 56.6758C173.582 56.6758 173.781 56.7256 173.949 56.8252C174.117 56.9229 174.242 57.0596 174.324 57.2354C174.406 57.4111 174.434 57.6152 174.406 57.8477C174.387 58.0215 174.332 58.1748 174.242 58.3076C174.154 58.4385 174.043 58.5488 173.908 58.6387C173.775 58.7266 173.63 58.7939 173.472 58.8408C173.313 58.8857 173.154 58.9092 172.994 58.9111L172.587 58.9082L172.622 58.6738ZM172.575 58.9756L172.61 58.7441H172.977C173.146 58.748 173.307 58.7715 173.457 58.8145C173.609 58.8574 173.742 58.9229 173.855 59.0107C173.971 59.0967 174.057 59.208 174.113 59.3447C174.172 59.4795 174.19 59.6416 174.169 59.8311C174.147 60.0186 174.096 60.1885 174.014 60.3408C173.934 60.4912 173.829 60.6201 173.7 60.7275C173.571 60.835 173.425 60.918 173.261 60.9766C173.097 61.0332 172.922 61.0605 172.736 61.0586C172.557 61.0566 172.393 61.0264 172.244 60.9678C172.096 60.9092 171.968 60.8271 171.86 60.7217C171.755 60.6143 171.676 60.4863 171.623 60.3379C171.572 60.1875 171.555 60.0215 171.57 59.8398L171.91 59.8428C171.893 60.0225 171.916 60.1807 171.98 60.3174C172.047 60.4541 172.146 60.5615 172.276 60.6396C172.409 60.7158 172.565 60.7549 172.745 60.7568C172.937 60.7588 173.108 60.7227 173.261 60.6484C173.415 60.5742 173.541 60.4688 173.639 60.332C173.738 60.1934 173.801 60.0293 173.826 59.8398C173.854 59.6406 173.83 59.4785 173.756 59.3535C173.682 59.2266 173.572 59.1328 173.428 59.0723C173.285 59.0117 173.123 58.9805 172.941 58.9785L172.575 58.9756Z" fill="black"/>
<path d="M174.444 73.623L174.397 73.9219H171.459L171.497 73.7051L173.914 70.7373H174.222L173.686 71.4727L171.945 73.623H174.444ZM174.298 70.7344L173.562 75H173.22L173.958 70.7344H174.298Z" fill="black"/>
<path d="M172.35 86.8877L172.074 86.8057L172.599 84.7344H174.67L174.623 85.0625H172.848L172.458 86.501C172.575 86.4229 172.703 86.3643 172.842 86.3252C172.98 86.2842 173.12 86.2646 173.261 86.2666C173.454 86.2666 173.621 86.3047 173.762 86.3809C173.902 86.4551 174.016 86.5566 174.102 86.6855C174.189 86.8125 174.249 86.958 174.28 87.1221C174.313 87.2842 174.32 87.4541 174.301 87.6318C174.277 87.8271 174.229 88.0117 174.157 88.1855C174.085 88.3594 173.988 88.5127 173.867 88.6455C173.746 88.7764 173.602 88.8789 173.434 88.9531C173.268 89.0273 173.079 89.0625 172.868 89.0586C172.69 89.0586 172.532 89.0293 172.394 88.9707C172.257 88.9121 172.142 88.8301 172.048 88.7246C171.954 88.6172 171.883 88.4922 171.834 88.3496C171.785 88.2051 171.761 88.0479 171.761 87.8779H172.089C172.089 88.0479 172.117 88.1992 172.174 88.332C172.23 88.4629 172.316 88.5664 172.432 88.6426C172.549 88.7188 172.698 88.7578 172.88 88.7598C173.044 88.7598 173.188 88.7295 173.311 88.6689C173.436 88.6084 173.542 88.5254 173.63 88.4199C173.72 88.3145 173.791 88.1943 173.844 88.0596C173.896 87.9248 173.934 87.7832 173.955 87.6348C173.973 87.5 173.971 87.3711 173.949 87.248C173.928 87.123 173.886 87.0117 173.823 86.9141C173.761 86.8145 173.677 86.7363 173.571 86.6797C173.466 86.6211 173.339 86.5898 173.19 86.5859C173.028 86.584 172.879 86.6094 172.742 86.6621C172.607 86.7148 172.477 86.79 172.35 86.8877Z" fill="black"/>
<path d="M134.061 62.0607C134.646 61.4749 134.646 60.5251 134.061 59.9393L124.515 50.3934C123.929 49.8076 122.979 49.8076 122.393 50.3934C121.808 50.9792 121.808 51.9289 122.393 52.5147L130.879 61L122.393 69.4853C121.808 70.0711 121.808 71.0208 122.393 71.6066C122.979 72.1924 123.929 72.1924 124.515 71.6066L134.061 62.0607ZM91 62.5H133V59.5H91V62.5Z" fill="black"/>
</svg>
