<svg width="228" height="113" viewBox="0 0 228 113" fill="none" xmlns="http://www.w3.org/2000/svg">
<line x1="8" y1="36.5" x2="220" y2="36.5" stroke="black"/>
<line x1="8" y1="58.5" x2="220" y2="58.5" stroke="black"/>
<line x1="8" y1="81.5" x2="220" y2="81.5" stroke="black"/>
<line x1="8" y1="101.5" x2="220" y2="101.5" stroke="black"/>
<line x1="70.5" y1="14" x2="70.5" y2="102" stroke="black"/>
<line x1="121.5" y1="14" x2="121.5" y2="102" stroke="black"/>
<line x1="170.5" y1="14" x2="170.5" y2="102" stroke="black"/>
<line x1="220.5" y1="14" x2="220.5" y2="102" stroke="black"/>
<path d="M26.4111 47.6855H27.6318C27.5928 48.151 27.4626 48.5661 27.2412 48.9307C27.0199 49.292 26.709 49.5768 26.3086 49.7852C25.9082 49.9935 25.4215 50.0977 24.8486 50.0977C24.4092 50.0977 24.0137 50.0195 23.6621 49.8633C23.3105 49.7038 23.0094 49.4792 22.7588 49.1895C22.5081 48.8965 22.3161 48.5433 22.1826 48.1299C22.0524 47.7165 21.9873 47.2542 21.9873 46.7432V46.1523C21.9873 45.6413 22.054 45.179 22.1875 44.7656C22.3242 44.3522 22.5195 43.999 22.7734 43.7061C23.0273 43.4098 23.3317 43.1836 23.6865 43.0273C24.0446 42.8711 24.4466 42.793 24.8926 42.793C25.459 42.793 25.9375 42.8971 26.3281 43.1055C26.7188 43.3138 27.0215 43.6019 27.2363 43.9697C27.4544 44.3376 27.5879 44.7591 27.6367 45.2344H26.416C26.3835 44.9284 26.3118 44.6663 26.2012 44.4482C26.0938 44.2301 25.9342 44.0641 25.7227 43.9502C25.5111 43.833 25.2344 43.7744 24.8926 43.7744C24.6126 43.7744 24.3685 43.8265 24.1602 43.9307C23.9518 44.0348 23.7777 44.1878 23.6377 44.3896C23.4977 44.5915 23.3919 44.8405 23.3203 45.1367C23.252 45.4297 23.2178 45.765 23.2178 46.1426V46.7432C23.2178 47.1012 23.2487 47.4268 23.3105 47.7197C23.3757 48.0094 23.4733 48.2585 23.6035 48.4668C23.737 48.6751 23.9062 48.8363 24.1113 48.9502C24.3164 49.0641 24.5622 49.1211 24.8486 49.1211C25.1969 49.1211 25.4785 49.0658 25.6934 48.9551C25.9115 48.8444 26.0758 48.6833 26.1865 48.4717C26.3005 48.2568 26.3753 47.9948 26.4111 47.6855ZM29.8877 42.5V50H28.7061V42.5H29.8877ZM34.3555 48.7549V44.7168H35.5371V50H34.4238L34.3555 48.7549ZM34.5215 47.6562L34.917 47.6465C34.917 48.0013 34.8779 48.3285 34.7998 48.6279C34.7217 48.9242 34.6012 49.1829 34.4385 49.4043C34.2757 49.6224 34.0674 49.7933 33.8135 49.917C33.5596 50.0374 33.2552 50.0977 32.9004 50.0977C32.6432 50.0977 32.4072 50.0602 32.1924 49.9854C31.9775 49.9105 31.792 49.7949 31.6357 49.6387C31.4827 49.4824 31.3639 49.279 31.2793 49.0283C31.1947 48.7777 31.1523 48.4782 31.1523 48.1299V44.7168H32.3291V48.1396C32.3291 48.3317 32.3519 48.4928 32.3975 48.623C32.443 48.75 32.5049 48.8525 32.583 48.9307C32.6611 49.0088 32.7523 49.0641 32.8564 49.0967C32.9606 49.1292 33.0713 49.1455 33.1885 49.1455C33.5238 49.1455 33.7874 49.0804 33.9795 48.9502C34.1748 48.8167 34.3132 48.6377 34.3945 48.4131C34.4792 48.1885 34.5215 47.9362 34.5215 47.6562ZM39.707 48.5693C39.707 48.4521 39.6777 48.3464 39.6191 48.252C39.5605 48.1543 39.4482 48.0664 39.2822 47.9883C39.1195 47.9102 38.8786 47.8385 38.5596 47.7734C38.2796 47.7116 38.0225 47.6383 37.7881 47.5537C37.557 47.4658 37.3584 47.36 37.1924 47.2363C37.0264 47.1126 36.8978 46.9661 36.8066 46.7969C36.7155 46.6276 36.6699 46.4323 36.6699 46.2109C36.6699 45.9961 36.7171 45.7926 36.8115 45.6006C36.9059 45.4085 37.041 45.2393 37.2168 45.0928C37.3926 44.9463 37.6058 44.8307 37.8564 44.7461C38.1104 44.6615 38.3936 44.6191 38.7061 44.6191C39.1488 44.6191 39.528 44.694 39.8438 44.8438C40.1628 44.9902 40.4069 45.1904 40.5762 45.4443C40.7454 45.695 40.8301 45.9782 40.8301 46.2939H39.6533C39.6533 46.154 39.6175 46.0238 39.5459 45.9033C39.4775 45.7796 39.3734 45.6803 39.2334 45.6055C39.0934 45.5273 38.9176 45.4883 38.7061 45.4883C38.5042 45.4883 38.3366 45.5208 38.2031 45.5859C38.0729 45.6478 37.9753 45.7292 37.9102 45.8301C37.8483 45.931 37.8174 46.0417 37.8174 46.1621C37.8174 46.25 37.8337 46.3298 37.8662 46.4014C37.902 46.4697 37.9606 46.5332 38.042 46.5918C38.1234 46.6471 38.234 46.6992 38.374 46.748C38.5173 46.7969 38.6963 46.8441 38.9111 46.8896C39.3148 46.9743 39.6615 47.0833 39.9512 47.2168C40.2441 47.347 40.4688 47.5163 40.625 47.7246C40.7812 47.9297 40.8594 48.1901 40.8594 48.5059C40.8594 48.7402 40.8089 48.9551 40.708 49.1504C40.6104 49.3424 40.4671 49.5101 40.2783 49.6533C40.0895 49.7933 39.8633 49.9023 39.5996 49.9805C39.3392 50.0586 39.0462 50.0977 38.7207 50.0977C38.2422 50.0977 37.8369 50.013 37.5049 49.8438C37.1729 49.6712 36.9206 49.4515 36.748 49.1846C36.5788 48.9144 36.4941 48.6344 36.4941 48.3447H37.6318C37.6449 48.5628 37.7051 48.737 37.8125 48.8672C37.9232 48.9941 38.0599 49.0869 38.2227 49.1455C38.3887 49.2008 38.5596 49.2285 38.7354 49.2285C38.9469 49.2285 39.1243 49.2008 39.2676 49.1455C39.4108 49.0869 39.5199 49.0088 39.5947 48.9111C39.6696 48.8102 39.707 48.6963 39.707 48.5693ZM44.3115 44.7168V45.5762H41.333V44.7168H44.3115ZM42.1924 43.4229H43.3691V48.54C43.3691 48.7028 43.3919 48.8281 43.4375 48.916C43.4863 49.0007 43.5531 49.0576 43.6377 49.0869C43.7223 49.1162 43.8216 49.1309 43.9355 49.1309C44.0169 49.1309 44.0951 49.126 44.1699 49.1162C44.2448 49.1064 44.305 49.0967 44.3506 49.0869L44.3555 49.9854C44.2578 50.0146 44.1439 50.0407 44.0137 50.0635C43.8867 50.0863 43.7402 50.0977 43.5742 50.0977C43.304 50.0977 43.0648 50.0505 42.8564 49.9561C42.6481 49.8584 42.4854 49.7005 42.3682 49.4824C42.251 49.2643 42.1924 48.9746 42.1924 48.6133V43.4229ZM47.5488 50.0977C47.1582 50.0977 46.805 50.0342 46.4893 49.9072C46.1768 49.777 45.9098 49.5964 45.6885 49.3652C45.4704 49.1341 45.3027 48.8623 45.1855 48.5498C45.0684 48.2373 45.0098 47.9004 45.0098 47.5391V47.3438C45.0098 46.9303 45.07 46.556 45.1904 46.2207C45.3109 45.8854 45.4785 45.599 45.6934 45.3613C45.9082 45.1204 46.1621 44.9365 46.4551 44.8096C46.748 44.6826 47.0654 44.6191 47.4072 44.6191C47.7848 44.6191 48.1152 44.6826 48.3984 44.8096C48.6816 44.9365 48.916 45.1156 49.1016 45.3467C49.2904 45.5745 49.4303 45.8464 49.5215 46.1621C49.6159 46.4779 49.6631 46.8262 49.6631 47.207V47.71H45.5811V46.8652H48.501V46.7725C48.4945 46.5609 48.4521 46.3623 48.374 46.1768C48.2992 45.9912 48.1836 45.8415 48.0273 45.7275C47.8711 45.6136 47.6628 45.5566 47.4023 45.5566C47.207 45.5566 47.0329 45.599 46.8799 45.6836C46.7301 45.765 46.6048 45.8838 46.5039 46.04C46.403 46.1963 46.3249 46.3851 46.2695 46.6064C46.2174 46.8245 46.1914 47.0703 46.1914 47.3438V47.5391C46.1914 47.7702 46.2223 47.985 46.2842 48.1836C46.3493 48.3789 46.4437 48.5498 46.5674 48.6963C46.6911 48.8428 46.8408 48.9583 47.0166 49.043C47.1924 49.1243 47.3926 49.165 47.6172 49.165C47.9004 49.165 48.1527 49.1081 48.374 48.9941C48.5954 48.8802 48.7874 48.7191 48.9502 48.5107L49.5703 49.1113C49.4564 49.2773 49.3083 49.4368 49.126 49.5898C48.9437 49.7396 48.7207 49.8617 48.457 49.9561C48.1966 50.0505 47.8939 50.0977 47.5488 50.0977ZM51.7627 45.7227V50H50.5859V44.7168H51.709L51.7627 45.7227ZM53.3789 44.6826L53.3691 45.7764C53.2975 45.7633 53.2194 45.7536 53.1348 45.7471C53.0534 45.7406 52.972 45.7373 52.8906 45.7373C52.6888 45.7373 52.5114 45.7666 52.3584 45.8252C52.2054 45.8805 52.0768 45.9619 51.9727 46.0693C51.8717 46.1735 51.7936 46.3005 51.7383 46.4502C51.6829 46.5999 51.6504 46.7676 51.6406 46.9531L51.3721 46.9727C51.3721 46.6406 51.4046 46.333 51.4697 46.0498C51.5348 45.7666 51.6325 45.5176 51.7627 45.3027C51.8962 45.0879 52.0622 44.9202 52.2607 44.7998C52.4626 44.6794 52.6953 44.6191 52.959 44.6191C53.0306 44.6191 53.1071 44.6257 53.1885 44.6387C53.2731 44.6517 53.3366 44.6663 53.3789 44.6826Z" fill="black"/>
<path d="M83.083 19.8906V27H81.8672V19.8906H83.083ZM85.3145 19.8906V20.8672H79.6553V19.8906H85.3145ZM85.2266 24.417V24.3047C85.2266 23.9238 85.2819 23.5706 85.3926 23.2451C85.5033 22.9163 85.6628 22.6315 85.8711 22.3906C86.0827 22.1465 86.3398 21.9577 86.6426 21.8242C86.9486 21.6875 87.2936 21.6191 87.6777 21.6191C88.0651 21.6191 88.4102 21.6875 88.7129 21.8242C89.0189 21.9577 89.2777 22.1465 89.4893 22.3906C89.7008 22.6315 89.862 22.9163 89.9727 23.2451C90.0833 23.5706 90.1387 23.9238 90.1387 24.3047V24.417C90.1387 24.7979 90.0833 25.151 89.9727 25.4766C89.862 25.8021 89.7008 26.0869 89.4893 26.3311C89.2777 26.5719 89.0205 26.7607 88.7178 26.8975C88.415 27.0309 88.0716 27.0977 87.6875 27.0977C87.3001 27.0977 86.9535 27.0309 86.6475 26.8975C86.3447 26.7607 86.0876 26.5719 85.876 26.3311C85.6644 26.0869 85.5033 25.8021 85.3926 25.4766C85.2819 25.151 85.2266 24.7979 85.2266 24.417ZM86.4033 24.3047V24.417C86.4033 24.6546 86.4277 24.8792 86.4766 25.0908C86.5254 25.3024 86.6019 25.488 86.7061 25.6475C86.8102 25.807 86.9437 25.9323 87.1064 26.0234C87.2692 26.1146 87.4629 26.1602 87.6875 26.1602C87.9056 26.1602 88.0944 26.1146 88.2539 26.0234C88.4167 25.9323 88.5501 25.807 88.6543 25.6475C88.7585 25.488 88.835 25.3024 88.8838 25.0908C88.9359 24.8792 88.9619 24.6546 88.9619 24.417V24.3047C88.9619 24.0703 88.9359 23.849 88.8838 23.6406C88.835 23.429 88.7568 23.2419 88.6494 23.0791C88.5452 22.9163 88.4118 22.7894 88.249 22.6982C88.0895 22.6038 87.8991 22.5566 87.6777 22.5566C87.4564 22.5566 87.2643 22.6038 87.1016 22.6982C86.9421 22.7894 86.8102 22.9163 86.7061 23.0791C86.6019 23.2419 86.5254 23.429 86.4766 23.6406C86.4277 23.849 86.4033 24.0703 86.4033 24.3047ZM92.3115 19.5V27H91.1299V19.5H92.3115ZM95.5928 21.7168L93.293 24.2656L92.0332 25.5547L91.7256 24.5586L92.6777 23.3818L94.1719 21.7168H95.5928ZM94.4258 27L92.7119 24.5195L93.4541 23.6943L95.7881 27H94.4258ZM98.5713 27.0977C98.1807 27.0977 97.8275 27.0342 97.5117 26.9072C97.1992 26.777 96.9323 26.5964 96.7109 26.3652C96.4928 26.1341 96.3252 25.8623 96.208 25.5498C96.0908 25.2373 96.0322 24.9004 96.0322 24.5391V24.3438C96.0322 23.9303 96.0924 23.556 96.2129 23.2207C96.3333 22.8854 96.501 22.599 96.7158 22.3613C96.9307 22.1204 97.1846 21.9365 97.4775 21.8096C97.7705 21.6826 98.0879 21.6191 98.4297 21.6191C98.8073 21.6191 99.1377 21.6826 99.4209 21.8096C99.7041 21.9365 99.9385 22.1156 100.124 22.3467C100.313 22.5745 100.453 22.8464 100.544 23.1621C100.638 23.4779 100.686 23.8262 100.686 24.207V24.71H96.6035V23.8652H99.5234V23.7725C99.5169 23.5609 99.4746 23.3623 99.3965 23.1768C99.3216 22.9912 99.2061 22.8415 99.0498 22.7275C98.8936 22.6136 98.6852 22.5566 98.4248 22.5566C98.2295 22.5566 98.0553 22.599 97.9023 22.6836C97.7526 22.765 97.6273 22.8838 97.5264 23.04C97.4255 23.1963 97.3473 23.3851 97.292 23.6064C97.2399 23.8245 97.2139 24.0703 97.2139 24.3438V24.5391C97.2139 24.7702 97.2448 24.985 97.3066 25.1836C97.3717 25.3789 97.4661 25.5498 97.5898 25.6963C97.7135 25.8428 97.8633 25.9583 98.0391 26.043C98.2148 26.1243 98.415 26.165 98.6396 26.165C98.9229 26.165 99.1751 26.1081 99.3965 25.9941C99.6178 25.8802 99.8099 25.7191 99.9727 25.5107L100.593 26.1113C100.479 26.2773 100.331 26.4368 100.148 26.5898C99.9661 26.7396 99.7432 26.8617 99.4795 26.9561C99.2191 27.0505 98.9163 27.0977 98.5713 27.0977ZM102.771 22.8447V27H101.594V21.7168H102.702L102.771 22.8447ZM102.561 24.1631L102.18 24.1582C102.183 23.7839 102.235 23.4404 102.336 23.1279C102.44 22.8154 102.583 22.5469 102.766 22.3223C102.951 22.0977 103.173 21.9251 103.43 21.8047C103.687 21.681 103.973 21.6191 104.289 21.6191C104.543 21.6191 104.772 21.6549 104.978 21.7266C105.186 21.7949 105.363 21.9072 105.51 22.0635C105.66 22.2197 105.773 22.4232 105.852 22.6738C105.93 22.9212 105.969 23.2256 105.969 23.5869V27H104.787V23.582C104.787 23.3281 104.75 23.1279 104.675 22.9814C104.603 22.8317 104.497 22.7259 104.357 22.6641C104.221 22.599 104.05 22.5664 103.845 22.5664C103.643 22.5664 103.462 22.6087 103.303 22.6934C103.143 22.778 103.008 22.8936 102.897 23.04C102.79 23.1865 102.707 23.3558 102.648 23.5479C102.59 23.7399 102.561 23.945 102.561 24.1631Z" fill="black"/>
<path d="M91.0664 43.8662V51H89.8896V45.2627L88.1465 45.8535V44.8818L90.9248 43.8662H91.0664ZM98.3027 50.0625V51H93.5371V50.1943L95.8516 47.6699C96.1055 47.3835 96.3057 47.1361 96.4521 46.9277C96.5986 46.7194 96.7012 46.5322 96.7598 46.3662C96.8216 46.1969 96.8525 46.0326 96.8525 45.873C96.8525 45.6484 96.8102 45.4515 96.7256 45.2822C96.6442 45.1097 96.5238 44.9746 96.3643 44.877C96.2048 44.776 96.0111 44.7256 95.7832 44.7256C95.5195 44.7256 95.2982 44.7826 95.1191 44.8965C94.9401 45.0104 94.805 45.1683 94.7139 45.3701C94.6227 45.5687 94.5771 45.7965 94.5771 46.0537H93.4004C93.4004 45.6403 93.4948 45.2627 93.6836 44.9209C93.8724 44.5758 94.1458 44.3024 94.5039 44.1006C94.862 43.8955 95.2933 43.793 95.7979 43.793C96.2731 43.793 96.6768 43.8727 97.0088 44.0322C97.3408 44.1917 97.5931 44.418 97.7656 44.7109C97.9414 45.0039 98.0293 45.3506 98.0293 45.751C98.0293 45.9723 97.9935 46.1921 97.9219 46.4102C97.8503 46.6283 97.7477 46.8464 97.6143 47.0645C97.484 47.2793 97.3294 47.4958 97.1504 47.7139C96.9714 47.9287 96.7744 48.1468 96.5596 48.3682L95.0215 50.0625H98.3027Z" fill="black"/>
<path d="M193.502 48.0615C193.502 48.5042 193.399 48.877 193.194 49.1797C192.989 49.4824 192.709 49.7119 192.354 49.8682C192.003 50.0212 191.606 50.0977 191.163 50.0977C190.72 50.0977 190.322 50.0212 189.967 49.8682C189.612 49.7119 189.332 49.4824 189.127 49.1797C188.922 48.877 188.819 48.5042 188.819 48.0615C188.819 47.7686 188.876 47.5033 188.99 47.2656C189.104 47.0247 189.265 46.818 189.474 46.6455C189.685 46.4697 189.933 46.3346 190.216 46.2402C190.502 46.1458 190.815 46.0986 191.153 46.0986C191.603 46.0986 192.005 46.1816 192.359 46.3477C192.714 46.5137 192.993 46.7432 193.194 47.0361C193.399 47.3291 193.502 47.6709 193.502 48.0615ZM192.32 48.0029C192.32 47.7653 192.271 47.557 192.174 47.3779C192.076 47.1989 191.939 47.0605 191.764 46.9629C191.588 46.8652 191.384 46.8164 191.153 46.8164C190.919 46.8164 190.715 46.8652 190.543 46.9629C190.37 47.0605 190.235 47.1989 190.138 47.3779C190.043 47.557 189.996 47.7653 189.996 48.0029C189.996 48.2438 190.043 48.4521 190.138 48.6279C190.232 48.8005 190.367 48.9323 190.543 49.0234C190.719 49.1146 190.925 49.1602 191.163 49.1602C191.401 49.1602 191.606 49.1146 191.778 49.0234C191.951 48.9323 192.084 48.8005 192.179 48.6279C192.273 48.4521 192.32 48.2438 192.32 48.0029ZM193.341 44.7607C193.341 45.1156 193.246 45.4313 193.058 45.708C192.872 45.9847 192.615 46.2028 192.286 46.3623C191.957 46.5186 191.583 46.5967 191.163 46.5967C190.74 46.5967 190.362 46.5186 190.03 46.3623C189.701 46.2028 189.443 45.9847 189.254 45.708C189.068 45.4313 188.976 45.1156 188.976 44.7607C188.976 44.3376 189.068 43.9811 189.254 43.6914C189.443 43.3984 189.701 43.1755 190.03 43.0225C190.359 42.8695 190.735 42.793 191.158 42.793C191.581 42.793 191.957 42.8695 192.286 43.0225C192.615 43.1755 192.872 43.3984 193.058 43.6914C193.246 43.9811 193.341 44.3376 193.341 44.7607ZM192.164 44.7998C192.164 44.5882 192.122 44.4027 192.037 44.2432C191.956 44.0804 191.84 43.9535 191.69 43.8623C191.541 43.7712 191.363 43.7256 191.158 43.7256C190.953 43.7256 190.776 43.7695 190.626 43.8574C190.476 43.9453 190.361 44.069 190.279 44.2285C190.198 44.388 190.157 44.5785 190.157 44.7998C190.157 45.0179 190.198 45.2083 190.279 45.3711C190.361 45.5306 190.476 45.6559 190.626 45.7471C190.779 45.8382 190.958 45.8838 191.163 45.8838C191.368 45.8838 191.546 45.8382 191.695 45.7471C191.845 45.6559 191.961 45.5306 192.042 45.3711C192.123 45.2083 192.164 45.0179 192.164 44.7998ZM199.171 45.8496V47.0117C199.171 47.5684 199.116 48.0436 199.005 48.4375C198.897 48.8281 198.741 49.1455 198.536 49.3896C198.331 49.6338 198.085 49.8128 197.799 49.9268C197.516 50.0407 197.198 50.0977 196.847 50.0977C196.567 50.0977 196.306 50.0618 196.065 49.9902C195.828 49.9186 195.613 49.8063 195.421 49.6533C195.229 49.5003 195.064 49.3034 194.928 49.0625C194.794 48.8184 194.69 48.527 194.615 48.1885C194.544 47.8499 194.508 47.4577 194.508 47.0117V45.8496C194.508 45.2897 194.563 44.8177 194.674 44.4336C194.785 44.0462 194.942 43.7321 195.147 43.4912C195.353 43.2471 195.597 43.0697 195.88 42.959C196.166 42.8483 196.485 42.793 196.837 42.793C197.12 42.793 197.381 42.8288 197.618 42.9004C197.859 42.9688 198.074 43.0778 198.263 43.2275C198.455 43.3773 198.618 43.5726 198.751 43.8135C198.888 44.0511 198.992 44.3392 199.063 44.6777C199.135 45.013 199.171 45.4036 199.171 45.8496ZM197.994 47.1777V45.6738C197.994 45.3906 197.978 45.1416 197.945 44.9268C197.913 44.7087 197.864 44.5247 197.799 44.375C197.737 44.222 197.659 44.0983 197.564 44.0039C197.47 43.9062 197.363 43.8363 197.242 43.7939C197.122 43.7484 196.987 43.7256 196.837 43.7256C196.655 43.7256 196.492 43.7614 196.349 43.833C196.205 43.9014 196.085 44.012 195.987 44.165C195.89 44.318 195.815 44.5199 195.763 44.7705C195.714 45.0179 195.689 45.319 195.689 45.6738V47.1777C195.689 47.4642 195.706 47.7165 195.738 47.9346C195.771 48.1527 195.82 48.3398 195.885 48.4961C195.95 48.6491 196.028 48.776 196.119 48.877C196.214 48.9746 196.321 49.0462 196.441 49.0918C196.565 49.1374 196.7 49.1602 196.847 49.1602C197.032 49.1602 197.197 49.1243 197.34 49.0527C197.483 48.9811 197.604 48.8672 197.701 48.7109C197.799 48.5514 197.872 48.3447 197.921 48.0908C197.97 47.8369 197.994 47.5326 197.994 47.1777Z" fill="black"/>
<path d="M191.235 90.9131H191.938C192.212 90.9131 192.438 90.8659 192.617 90.7715C192.799 90.6771 192.935 90.5469 193.022 90.3809C193.11 90.2148 193.154 90.0244 193.154 89.8096C193.154 89.585 193.114 89.3929 193.032 89.2334C192.954 89.0706 192.834 88.9453 192.671 88.8574C192.511 88.7695 192.308 88.7256 192.061 88.7256C191.852 88.7256 191.663 88.7679 191.494 88.8525C191.328 88.9339 191.196 89.0511 191.099 89.2041C191.001 89.3538 190.952 89.5329 190.952 89.7412H189.771C189.771 89.3636 189.87 89.0283 190.068 88.7354C190.267 88.4424 190.537 88.2129 190.879 88.0469C191.224 87.8776 191.611 87.793 192.041 87.793C192.5 87.793 192.9 87.8695 193.242 88.0225C193.587 88.1722 193.856 88.3968 194.048 88.6963C194.24 88.9958 194.336 89.3669 194.336 89.8096C194.336 90.0114 194.289 90.2165 194.194 90.4248C194.1 90.6331 193.96 90.8236 193.774 90.9961C193.589 91.1654 193.358 91.3037 193.081 91.4111C192.804 91.5153 192.484 91.5674 192.119 91.5674H191.235V90.9131ZM191.235 91.8311V91.1865H192.119C192.536 91.1865 192.891 91.2354 193.184 91.333C193.48 91.4307 193.721 91.5658 193.906 91.7383C194.092 91.9076 194.227 92.1012 194.312 92.3193C194.399 92.5374 194.443 92.7686 194.443 93.0127C194.443 93.3447 194.383 93.641 194.263 93.9014C194.146 94.1585 193.978 94.3766 193.76 94.5557C193.542 94.7347 193.286 94.8698 192.993 94.9609C192.703 95.0521 192.388 95.0977 192.046 95.0977C191.74 95.0977 191.447 95.0553 191.167 94.9707C190.887 94.8861 190.636 94.7607 190.415 94.5947C190.194 94.4255 190.018 94.2155 189.888 93.9648C189.761 93.7109 189.697 93.418 189.697 93.0859H190.874C190.874 93.2975 190.923 93.4847 191.021 93.6475C191.121 93.807 191.261 93.9323 191.44 94.0234C191.623 94.1146 191.831 94.1602 192.065 94.1602C192.313 94.1602 192.526 94.1162 192.705 94.0283C192.884 93.9404 193.021 93.8102 193.115 93.6377C193.213 93.4652 193.262 93.2568 193.262 93.0127C193.262 92.736 193.208 92.5114 193.101 92.3389C192.993 92.1663 192.84 92.0394 192.642 91.958C192.443 91.8734 192.209 91.8311 191.938 91.8311H191.235ZM200.259 87.8906V88.5352L197.417 95H196.177L199.014 88.8281H195.332V87.8906H200.259Z" fill="black"/>
<path d="M91.0889 90.6943L90.1514 90.4648L90.5371 86.8906H94.3701V87.8867H91.5137L91.3184 89.6299C91.429 89.5648 91.582 89.5013 91.7773 89.4395C91.9727 89.3743 92.1956 89.3418 92.4463 89.3418C92.7816 89.3418 93.0811 89.3971 93.3447 89.5078C93.6117 89.6152 93.8379 89.7731 94.0234 89.9814C94.209 90.1865 94.3506 90.4372 94.4482 90.7334C94.5459 91.0264 94.5947 91.3568 94.5947 91.7246C94.5947 92.0534 94.5459 92.361 94.4482 92.6475C94.3538 92.9339 94.2106 93.1862 94.0186 93.4043C93.8265 93.6224 93.584 93.7933 93.291 93.917C93.0013 94.0374 92.6579 94.0977 92.2607 94.0977C91.9645 94.0977 91.6797 94.0553 91.4062 93.9707C91.1361 93.8828 90.8936 93.7542 90.6787 93.585C90.4639 93.4124 90.2913 93.2008 90.1611 92.9502C90.0309 92.6963 89.9561 92.4049 89.9365 92.0762H91.0889C91.1182 92.3073 91.1816 92.5042 91.2793 92.667C91.3802 92.8265 91.5137 92.9486 91.6797 93.0332C91.8457 93.1178 92.0378 93.1602 92.2559 93.1602C92.4544 93.1602 92.6253 93.126 92.7686 93.0576C92.9118 92.986 93.0306 92.8851 93.125 92.7549C93.2227 92.6214 93.2943 92.4652 93.3398 92.2861C93.3887 92.1071 93.4131 91.9085 93.4131 91.6904C93.4131 91.4821 93.3854 91.2917 93.3301 91.1191C93.278 90.9466 93.1982 90.7969 93.0908 90.6699C92.9867 90.543 92.8548 90.4453 92.6953 90.377C92.5358 90.3053 92.3519 90.2695 92.1436 90.2695C91.8636 90.2695 91.6488 90.3102 91.499 90.3916C91.3525 90.473 91.2158 90.5739 91.0889 90.6943ZM100.435 91.4658V92.4033H95.3076L95.2686 91.6953L98.335 86.8906H99.2773L98.2568 88.6387L96.4941 91.4658H100.435ZM99.5459 86.8906V94H98.3691V86.8906H99.5459Z" fill="black"/>
<path d="M183.083 19.8906V27H181.867V19.8906H183.083ZM185.314 19.8906V20.8672H179.655V19.8906H185.314ZM185.227 24.417V24.3047C185.227 23.9238 185.282 23.5706 185.393 23.2451C185.503 22.9163 185.663 22.6315 185.871 22.3906C186.083 22.1465 186.34 21.9577 186.643 21.8242C186.949 21.6875 187.294 21.6191 187.678 21.6191C188.065 21.6191 188.41 21.6875 188.713 21.8242C189.019 21.9577 189.278 22.1465 189.489 22.3906C189.701 22.6315 189.862 22.9163 189.973 23.2451C190.083 23.5706 190.139 23.9238 190.139 24.3047V24.417C190.139 24.7979 190.083 25.151 189.973 25.4766C189.862 25.8021 189.701 26.0869 189.489 26.3311C189.278 26.5719 189.021 26.7607 188.718 26.8975C188.415 27.0309 188.072 27.0977 187.688 27.0977C187.3 27.0977 186.953 27.0309 186.647 26.8975C186.345 26.7607 186.088 26.5719 185.876 26.3311C185.664 26.0869 185.503 25.8021 185.393 25.4766C185.282 25.151 185.227 24.7979 185.227 24.417ZM186.403 24.3047V24.417C186.403 24.6546 186.428 24.8792 186.477 25.0908C186.525 25.3024 186.602 25.488 186.706 25.6475C186.81 25.807 186.944 25.9323 187.106 26.0234C187.269 26.1146 187.463 26.1602 187.688 26.1602C187.906 26.1602 188.094 26.1146 188.254 26.0234C188.417 25.9323 188.55 25.807 188.654 25.6475C188.758 25.488 188.835 25.3024 188.884 25.0908C188.936 24.8792 188.962 24.6546 188.962 24.417V24.3047C188.962 24.0703 188.936 23.849 188.884 23.6406C188.835 23.429 188.757 23.2419 188.649 23.0791C188.545 22.9163 188.412 22.7894 188.249 22.6982C188.09 22.6038 187.899 22.5566 187.678 22.5566C187.456 22.5566 187.264 22.6038 187.102 22.6982C186.942 22.7894 186.81 22.9163 186.706 23.0791C186.602 23.2419 186.525 23.429 186.477 23.6406C186.428 23.849 186.403 24.0703 186.403 24.3047ZM192.312 19.5V27H191.13V19.5H192.312ZM195.593 21.7168L193.293 24.2656L192.033 25.5547L191.726 24.5586L192.678 23.3818L194.172 21.7168H195.593ZM194.426 27L192.712 24.5195L193.454 23.6943L195.788 27H194.426ZM198.571 27.0977C198.181 27.0977 197.827 27.0342 197.512 26.9072C197.199 26.777 196.932 26.5964 196.711 26.3652C196.493 26.1341 196.325 25.8623 196.208 25.5498C196.091 25.2373 196.032 24.9004 196.032 24.5391V24.3438C196.032 23.9303 196.092 23.556 196.213 23.2207C196.333 22.8854 196.501 22.599 196.716 22.3613C196.931 22.1204 197.185 21.9365 197.478 21.8096C197.771 21.6826 198.088 21.6191 198.43 21.6191C198.807 21.6191 199.138 21.6826 199.421 21.8096C199.704 21.9365 199.938 22.1156 200.124 22.3467C200.313 22.5745 200.453 22.8464 200.544 23.1621C200.638 23.4779 200.686 23.8262 200.686 24.207V24.71H196.604V23.8652H199.523V23.7725C199.517 23.5609 199.475 23.3623 199.396 23.1768C199.322 22.9912 199.206 22.8415 199.05 22.7275C198.894 22.6136 198.685 22.5566 198.425 22.5566C198.229 22.5566 198.055 22.599 197.902 22.6836C197.753 22.765 197.627 22.8838 197.526 23.04C197.425 23.1963 197.347 23.3851 197.292 23.6064C197.24 23.8245 197.214 24.0703 197.214 24.3438V24.5391C197.214 24.7702 197.245 24.985 197.307 25.1836C197.372 25.3789 197.466 25.5498 197.59 25.6963C197.714 25.8428 197.863 25.9583 198.039 26.043C198.215 26.1243 198.415 26.165 198.64 26.165C198.923 26.165 199.175 26.1081 199.396 25.9941C199.618 25.8802 199.81 25.7191 199.973 25.5107L200.593 26.1113C200.479 26.2773 200.331 26.4368 200.148 26.5898C199.966 26.7396 199.743 26.8617 199.479 26.9561C199.219 27.0505 198.916 27.0977 198.571 27.0977ZM202.771 22.8447V27H201.594V21.7168H202.702L202.771 22.8447ZM202.561 24.1631L202.18 24.1582C202.183 23.7839 202.235 23.4404 202.336 23.1279C202.44 22.8154 202.583 22.5469 202.766 22.3223C202.951 22.0977 203.173 21.9251 203.43 21.8047C203.687 21.681 203.973 21.6191 204.289 21.6191C204.543 21.6191 204.772 21.6549 204.978 21.7266C205.186 21.7949 205.363 21.9072 205.51 22.0635C205.66 22.2197 205.773 22.4232 205.852 22.6738C205.93 22.9212 205.969 23.2256 205.969 23.5869V27H204.787V23.582C204.787 23.3281 204.75 23.1279 204.675 22.9814C204.603 22.8317 204.497 22.7259 204.357 22.6641C204.221 22.599 204.05 22.5664 203.845 22.5664C203.643 22.5664 203.462 22.6087 203.303 22.6934C203.143 22.778 203.008 22.8936 202.897 23.04C202.79 23.1865 202.707 23.3558 202.648 23.5479C202.59 23.7399 202.561 23.945 202.561 24.1631Z" fill="black"/>
<path d="M55.2578 93.668L54.6797 97H54.2227L54.9492 92.7734H55.3906L55.2578 93.668ZM55.0117 94.625L54.8125 94.5078C54.8646 94.2734 54.9427 94.0482 55.0469 93.832C55.151 93.6133 55.2812 93.418 55.4375 93.2461C55.5964 93.0742 55.7799 92.9388 55.9883 92.8398C56.1992 92.7409 56.4362 92.6927 56.6992 92.6953C56.9232 92.6979 57.1107 92.7383 57.2617 92.8164C57.4154 92.8919 57.5365 92.9987 57.625 93.1367C57.7135 93.2721 57.7708 93.4297 57.7969 93.6094C57.8255 93.7891 57.8268 93.9818 57.8008 94.1875L57.3242 97H56.8672L57.3438 94.1992C57.375 93.9935 57.3711 93.8086 57.332 93.6445C57.293 93.4779 57.2109 93.3464 57.0859 93.25C56.9609 93.151 56.7839 93.1003 56.5547 93.0977C56.3385 93.0977 56.1445 93.1406 55.9727 93.2266C55.8008 93.3125 55.651 93.4284 55.5234 93.5742C55.3958 93.7201 55.2891 93.8841 55.2031 94.0664C55.1198 94.2487 55.056 94.4349 55.0117 94.625ZM57.8047 94.2578L57.4883 94.2617C57.5378 94.0456 57.6172 93.8424 57.7266 93.6523C57.8359 93.4596 57.9714 93.2917 58.1328 93.1484C58.2943 93.0052 58.4753 92.8932 58.6758 92.8125C58.8789 92.7318 59.0977 92.6927 59.332 92.6953C59.5664 92.6953 59.7617 92.737 59.918 92.8203C60.0742 92.901 60.1953 93.013 60.2812 93.1562C60.3698 93.2969 60.4271 93.4609 60.4531 93.6484C60.4792 93.8359 60.4779 94.0352 60.4492 94.2461L59.9805 97H59.5195L59.9883 94.2383C60.0195 94.0299 60.0182 93.8398 59.9844 93.668C59.9505 93.4935 59.8711 93.3555 59.7461 93.2539C59.6237 93.1497 59.444 93.099 59.207 93.1016C59.0352 93.1016 58.8724 93.1315 58.7188 93.1914C58.5677 93.2487 58.431 93.3307 58.3086 93.4375C58.1862 93.5417 58.0807 93.6641 57.9922 93.8047C57.9062 93.9427 57.8438 94.0938 57.8047 94.2578Z" fill="black"/>
<path d="M57.5469 47.2891L56.5742 53H56.1172L57.0039 47.8945L55.4062 48.457L55.4844 48.0039L57.4609 47.2891H57.5469Z" fill="black"/>
<path d="M110.547 24.2891L109.574 30H109.117L110.004 24.8945L108.406 25.457L108.484 25.0039L110.461 24.2891H110.547Z" fill="black"/>
<path d="M33.2754 72.2969C33.2754 72.0781 33.3496 71.8945 33.498 71.7461C33.6465 71.5938 33.8477 71.5176 34.1016 71.5176C34.3594 71.5176 34.5605 71.5938 34.7051 71.7461C34.8535 71.8945 34.9277 72.0781 34.9277 72.2969C34.9277 72.5156 34.8535 72.6992 34.7051 72.8477C34.5605 72.9961 34.3594 73.0703 34.1016 73.0703C33.8477 73.0703 33.6465 72.9961 33.498 72.8477C33.3496 72.6992 33.2754 72.5156 33.2754 72.2969ZM36.6152 72.2969C36.6152 72.0781 36.6895 71.8945 36.8379 71.7461C36.9863 71.5938 37.1875 71.5176 37.4414 71.5176C37.6992 71.5176 37.9004 71.5938 38.0449 71.7461C38.1934 71.8945 38.2676 72.0781 38.2676 72.2969C38.2676 72.5156 38.1934 72.6992 38.0449 72.8477C37.9004 72.9961 37.6992 73.0703 37.4414 73.0703C37.1875 73.0703 36.9863 72.9961 36.8379 72.8477C36.6895 72.6992 36.6152 72.5156 36.6152 72.2969ZM39.9551 72.2969C39.9551 72.0781 40.0293 71.8945 40.1777 71.7461C40.3262 71.5938 40.5273 71.5176 40.7812 71.5176C41.0391 71.5176 41.2402 71.5938 41.3848 71.7461C41.5332 71.8945 41.6074 72.0781 41.6074 72.2969C41.6074 72.5156 41.5332 72.6992 41.3848 72.8477C41.2402 72.9961 41.0391 73.0703 40.7812 73.0703C40.5273 73.0703 40.3262 72.9961 40.1777 72.8477C40.0293 72.6992 39.9551 72.5156 39.9551 72.2969Z" fill="black"/>
<path d="M91.2754 70.2969C91.2754 70.0781 91.3496 69.8945 91.498 69.7461C91.6465 69.5938 91.8477 69.5176 92.1016 69.5176C92.3594 69.5176 92.5605 69.5938 92.7051 69.7461C92.8535 69.8945 92.9277 70.0781 92.9277 70.2969C92.9277 70.5156 92.8535 70.6992 92.7051 70.8477C92.5605 70.9961 92.3594 71.0703 92.1016 71.0703C91.8477 71.0703 91.6465 70.9961 91.498 70.8477C91.3496 70.6992 91.2754 70.5156 91.2754 70.2969ZM94.6152 70.2969C94.6152 70.0781 94.6895 69.8945 94.8379 69.7461C94.9863 69.5938 95.1875 69.5176 95.4414 69.5176C95.6992 69.5176 95.9004 69.5938 96.0449 69.7461C96.1934 69.8945 96.2676 70.0781 96.2676 70.2969C96.2676 70.5156 96.1934 70.6992 96.0449 70.8477C95.9004 70.9961 95.6992 71.0703 95.4414 71.0703C95.1875 71.0703 94.9863 70.9961 94.8379 70.8477C94.6895 70.6992 94.6152 70.5156 94.6152 70.2969ZM97.9551 70.2969C97.9551 70.0781 98.0293 69.8945 98.1777 69.7461C98.3262 69.5938 98.5273 69.5176 98.7812 69.5176C99.0391 69.5176 99.2402 69.5938 99.3848 69.7461C99.5332 69.8945 99.6074 70.0781 99.6074 70.2969C99.6074 70.5156 99.5332 70.6992 99.3848 70.8477C99.2402 70.9961 99.0391 71.0703 98.7812 71.0703C98.5273 71.0703 98.3262 70.9961 98.1777 70.8477C98.0293 70.6992 97.9551 70.5156 97.9551 70.2969Z" fill="black"/>
<path d="M191.275 69.2969C191.275 69.0781 191.35 68.8945 191.498 68.7461C191.646 68.5938 191.848 68.5176 192.102 68.5176C192.359 68.5176 192.561 68.5938 192.705 68.7461C192.854 68.8945 192.928 69.0781 192.928 69.2969C192.928 69.5156 192.854 69.6992 192.705 69.8477C192.561 69.9961 192.359 70.0703 192.102 70.0703C191.848 70.0703 191.646 69.9961 191.498 69.8477C191.35 69.6992 191.275 69.5156 191.275 69.2969ZM194.615 69.2969C194.615 69.0781 194.689 68.8945 194.838 68.7461C194.986 68.5938 195.188 68.5176 195.441 68.5176C195.699 68.5176 195.9 68.5938 196.045 68.7461C196.193 68.8945 196.268 69.0781 196.268 69.2969C196.268 69.5156 196.193 69.6992 196.045 69.8477C195.9 69.9961 195.699 70.0703 195.441 70.0703C195.188 70.0703 194.986 69.9961 194.838 69.8477C194.689 69.6992 194.615 69.5156 194.615 69.2969ZM197.955 69.2969C197.955 69.0781 198.029 68.8945 198.178 68.7461C198.326 68.5938 198.527 68.5176 198.781 68.5176C199.039 68.5176 199.24 68.5938 199.385 68.7461C199.533 68.8945 199.607 69.0781 199.607 69.2969C199.607 69.5156 199.533 69.6992 199.385 69.8477C199.24 69.9961 199.039 70.0703 198.781 70.0703C198.527 70.0703 198.326 69.9961 198.178 69.8477C198.029 69.6992 197.955 69.5156 197.955 69.2969Z" fill="black"/>
<path d="M141.275 28.2969C141.275 28.0781 141.35 27.8945 141.498 27.7461C141.646 27.5938 141.848 27.5176 142.102 27.5176C142.359 27.5176 142.561 27.5938 142.705 27.7461C142.854 27.8945 142.928 28.0781 142.928 28.2969C142.928 28.5156 142.854 28.6992 142.705 28.8477C142.561 28.9961 142.359 29.0703 142.102 29.0703C141.848 29.0703 141.646 28.9961 141.498 28.8477C141.35 28.6992 141.275 28.5156 141.275 28.2969ZM144.615 28.2969C144.615 28.0781 144.689 27.8945 144.838 27.7461C144.986 27.5938 145.188 27.5176 145.441 27.5176C145.699 27.5176 145.9 27.5938 146.045 27.7461C146.193 27.8945 146.268 28.0781 146.268 28.2969C146.268 28.5156 146.193 28.6992 146.045 28.8477C145.9 28.9961 145.699 29.0703 145.441 29.0703C145.188 29.0703 144.986 28.9961 144.838 28.8477C144.689 28.6992 144.615 28.5156 144.615 28.2969ZM147.955 28.2969C147.955 28.0781 148.029 27.8945 148.178 27.7461C148.326 27.5938 148.527 27.5176 148.781 27.5176C149.039 27.5176 149.24 27.5938 149.385 27.7461C149.533 27.8945 149.607 28.0781 149.607 28.2969C149.607 28.5156 149.533 28.6992 149.385 28.8477C149.24 28.9961 149.039 29.0703 148.781 29.0703C148.527 29.0703 148.326 28.9961 148.178 28.8477C148.029 28.6992 147.955 28.5156 147.955 28.2969Z" fill="black"/>
<path d="M141.275 48.2969C141.275 48.0781 141.35 47.8945 141.498 47.7461C141.646 47.5938 141.848 47.5176 142.102 47.5176C142.359 47.5176 142.561 47.5938 142.705 47.7461C142.854 47.8945 142.928 48.0781 142.928 48.2969C142.928 48.5156 142.854 48.6992 142.705 48.8477C142.561 48.9961 142.359 49.0703 142.102 49.0703C141.848 49.0703 141.646 48.9961 141.498 48.8477C141.35 48.6992 141.275 48.5156 141.275 48.2969ZM144.615 48.2969C144.615 48.0781 144.689 47.8945 144.838 47.7461C144.986 47.5938 145.188 47.5176 145.441 47.5176C145.699 47.5176 145.9 47.5938 146.045 47.7461C146.193 47.8945 146.268 48.0781 146.268 48.2969C146.268 48.5156 146.193 48.6992 146.045 48.8477C145.9 48.9961 145.699 49.0703 145.441 49.0703C145.188 49.0703 144.986 48.9961 144.838 48.8477C144.689 48.6992 144.615 48.5156 144.615 48.2969ZM147.955 48.2969C147.955 48.0781 148.029 47.8945 148.178 47.7461C148.326 47.5938 148.527 47.5176 148.781 47.5176C149.039 47.5176 149.24 47.5938 149.385 47.7461C149.533 47.8945 149.607 48.0781 149.607 48.2969C149.607 48.5156 149.533 48.6992 149.385 48.8477C149.24 48.9961 149.039 49.0703 148.781 49.0703C148.527 49.0703 148.326 48.9961 148.178 48.8477C148.029 48.6992 147.955 48.5156 147.955 48.2969Z" fill="black"/>
<path d="M141.275 69.2969C141.275 69.0781 141.35 68.8945 141.498 68.7461C141.646 68.5938 141.848 68.5176 142.102 68.5176C142.359 68.5176 142.561 68.5938 142.705 68.7461C142.854 68.8945 142.928 69.0781 142.928 69.2969C142.928 69.5156 142.854 69.6992 142.705 69.8477C142.561 69.9961 142.359 70.0703 142.102 70.0703C141.848 70.0703 141.646 69.9961 141.498 69.8477C141.35 69.6992 141.275 69.5156 141.275 69.2969ZM144.615 69.2969C144.615 69.0781 144.689 68.8945 144.838 68.7461C144.986 68.5938 145.188 68.5176 145.441 68.5176C145.699 68.5176 145.9 68.5938 146.045 68.7461C146.193 68.8945 146.268 69.0781 146.268 69.2969C146.268 69.5156 146.193 69.6992 146.045 69.8477C145.9 69.9961 145.699 70.0703 145.441 70.0703C145.188 70.0703 144.986 69.9961 144.838 69.8477C144.689 69.6992 144.615 69.5156 144.615 69.2969ZM147.955 69.2969C147.955 69.0781 148.029 68.8945 148.178 68.7461C148.326 68.5938 148.527 68.5176 148.781 68.5176C149.039 68.5176 149.24 68.5938 149.385 68.7461C149.533 68.8945 149.607 69.0781 149.607 69.2969C149.607 69.5156 149.533 69.6992 149.385 69.8477C149.24 69.9961 149.039 70.0703 148.781 70.0703C148.527 70.0703 148.326 69.9961 148.178 69.8477C148.029 69.6992 147.955 69.5156 147.955 69.2969Z" fill="black"/>
<path d="M141.275 95.2969C141.275 95.0781 141.35 94.8945 141.498 94.7461C141.646 94.5938 141.848 94.5176 142.102 94.5176C142.359 94.5176 142.561 94.5938 142.705 94.7461C142.854 94.8945 142.928 95.0781 142.928 95.2969C142.928 95.5156 142.854 95.6992 142.705 95.8477C142.561 95.9961 142.359 96.0703 142.102 96.0703C141.848 96.0703 141.646 95.9961 141.498 95.8477C141.35 95.6992 141.275 95.5156 141.275 95.2969ZM144.615 95.2969C144.615 95.0781 144.689 94.8945 144.838 94.7461C144.986 94.5938 145.188 94.5176 145.441 94.5176C145.699 94.5176 145.9 94.5938 146.045 94.7461C146.193 94.8945 146.268 95.0781 146.268 95.2969C146.268 95.5156 146.193 95.6992 146.045 95.8477C145.9 95.9961 145.699 96.0703 145.441 96.0703C145.188 96.0703 144.986 95.9961 144.838 95.8477C144.689 95.6992 144.615 95.5156 144.615 95.2969ZM147.955 95.2969C147.955 95.0781 148.029 94.8945 148.178 94.7461C148.326 94.5938 148.527 94.5176 148.781 94.5176C149.039 94.5176 149.24 94.5938 149.385 94.7461C149.533 94.8945 149.607 95.0781 149.607 95.2969C149.607 95.5156 149.533 95.6992 149.385 95.8477C149.24 95.9961 149.039 96.0703 148.781 96.0703C148.527 96.0703 148.326 95.9961 148.178 95.8477C148.029 95.6992 147.955 95.5156 147.955 95.2969Z" fill="black"/>
<path d="M26.4111 92.6855H27.6318C27.5928 93.151 27.4626 93.5661 27.2412 93.9307C27.0199 94.292 26.709 94.5768 26.3086 94.7852C25.9082 94.9935 25.4215 95.0977 24.8486 95.0977C24.4092 95.0977 24.0137 95.0195 23.6621 94.8633C23.3105 94.7038 23.0094 94.4792 22.7588 94.1895C22.5081 93.8965 22.3161 93.5433 22.1826 93.1299C22.0524 92.7165 21.9873 92.2542 21.9873 91.7432V91.1523C21.9873 90.6413 22.054 90.179 22.1875 89.7656C22.3242 89.3522 22.5195 88.999 22.7734 88.7061C23.0273 88.4098 23.3317 88.1836 23.6865 88.0273C24.0446 87.8711 24.4466 87.793 24.8926 87.793C25.459 87.793 25.9375 87.8971 26.3281 88.1055C26.7188 88.3138 27.0215 88.6019 27.2363 88.9697C27.4544 89.3376 27.5879 89.7591 27.6367 90.2344H26.416C26.3835 89.9284 26.3118 89.6663 26.2012 89.4482C26.0938 89.2301 25.9342 89.0641 25.7227 88.9502C25.5111 88.833 25.2344 88.7744 24.8926 88.7744C24.6126 88.7744 24.3685 88.8265 24.1602 88.9307C23.9518 89.0348 23.7777 89.1878 23.6377 89.3896C23.4977 89.5915 23.3919 89.8405 23.3203 90.1367C23.252 90.4297 23.2178 90.765 23.2178 91.1426V91.7432C23.2178 92.1012 23.2487 92.4268 23.3105 92.7197C23.3757 93.0094 23.4733 93.2585 23.6035 93.4668C23.737 93.6751 23.9062 93.8363 24.1113 93.9502C24.3164 94.0641 24.5622 94.1211 24.8486 94.1211C25.1969 94.1211 25.4785 94.0658 25.6934 93.9551C25.9115 93.8444 26.0758 93.6833 26.1865 93.4717C26.3005 93.2568 26.3753 92.9948 26.4111 92.6855ZM29.8877 87.5V95H28.7061V87.5H29.8877ZM34.3555 93.7549V89.7168H35.5371V95H34.4238L34.3555 93.7549ZM34.5215 92.6562L34.917 92.6465C34.917 93.0013 34.8779 93.3285 34.7998 93.6279C34.7217 93.9242 34.6012 94.1829 34.4385 94.4043C34.2757 94.6224 34.0674 94.7933 33.8135 94.917C33.5596 95.0374 33.2552 95.0977 32.9004 95.0977C32.6432 95.0977 32.4072 95.0602 32.1924 94.9854C31.9775 94.9105 31.792 94.7949 31.6357 94.6387C31.4827 94.4824 31.3639 94.279 31.2793 94.0283C31.1947 93.7777 31.1523 93.4782 31.1523 93.1299V89.7168H32.3291V93.1396C32.3291 93.3317 32.3519 93.4928 32.3975 93.623C32.443 93.75 32.5049 93.8525 32.583 93.9307C32.6611 94.0088 32.7523 94.0641 32.8564 94.0967C32.9606 94.1292 33.0713 94.1455 33.1885 94.1455C33.5238 94.1455 33.7874 94.0804 33.9795 93.9502C34.1748 93.8167 34.3132 93.6377 34.3945 93.4131C34.4792 93.1885 34.5215 92.9362 34.5215 92.6562ZM39.707 93.5693C39.707 93.4521 39.6777 93.3464 39.6191 93.252C39.5605 93.1543 39.4482 93.0664 39.2822 92.9883C39.1195 92.9102 38.8786 92.8385 38.5596 92.7734C38.2796 92.7116 38.0225 92.6383 37.7881 92.5537C37.557 92.4658 37.3584 92.36 37.1924 92.2363C37.0264 92.1126 36.8978 91.9661 36.8066 91.7969C36.7155 91.6276 36.6699 91.4323 36.6699 91.2109C36.6699 90.9961 36.7171 90.7926 36.8115 90.6006C36.9059 90.4085 37.041 90.2393 37.2168 90.0928C37.3926 89.9463 37.6058 89.8307 37.8564 89.7461C38.1104 89.6615 38.3936 89.6191 38.7061 89.6191C39.1488 89.6191 39.528 89.694 39.8438 89.8438C40.1628 89.9902 40.4069 90.1904 40.5762 90.4443C40.7454 90.695 40.8301 90.9782 40.8301 91.2939H39.6533C39.6533 91.154 39.6175 91.0238 39.5459 90.9033C39.4775 90.7796 39.3734 90.6803 39.2334 90.6055C39.0934 90.5273 38.9176 90.4883 38.7061 90.4883C38.5042 90.4883 38.3366 90.5208 38.2031 90.5859C38.0729 90.6478 37.9753 90.7292 37.9102 90.8301C37.8483 90.931 37.8174 91.0417 37.8174 91.1621C37.8174 91.25 37.8337 91.3298 37.8662 91.4014C37.902 91.4697 37.9606 91.5332 38.042 91.5918C38.1234 91.6471 38.234 91.6992 38.374 91.748C38.5173 91.7969 38.6963 91.8441 38.9111 91.8896C39.3148 91.9743 39.6615 92.0833 39.9512 92.2168C40.2441 92.347 40.4688 92.5163 40.625 92.7246C40.7812 92.9297 40.8594 93.1901 40.8594 93.5059C40.8594 93.7402 40.8089 93.9551 40.708 94.1504C40.6104 94.3424 40.4671 94.5101 40.2783 94.6533C40.0895 94.7933 39.8633 94.9023 39.5996 94.9805C39.3392 95.0586 39.0462 95.0977 38.7207 95.0977C38.2422 95.0977 37.8369 95.013 37.5049 94.8438C37.1729 94.6712 36.9206 94.4515 36.748 94.1846C36.5788 93.9144 36.4941 93.6344 36.4941 93.3447H37.6318C37.6449 93.5628 37.7051 93.737 37.8125 93.8672C37.9232 93.9941 38.0599 94.0869 38.2227 94.1455C38.3887 94.2008 38.5596 94.2285 38.7354 94.2285C38.9469 94.2285 39.1243 94.2008 39.2676 94.1455C39.4108 94.0869 39.5199 94.0088 39.5947 93.9111C39.6696 93.8102 39.707 93.6963 39.707 93.5693ZM44.3115 89.7168V90.5762H41.333V89.7168H44.3115ZM42.1924 88.4229H43.3691V93.54C43.3691 93.7028 43.3919 93.8281 43.4375 93.916C43.4863 94.0007 43.5531 94.0576 43.6377 94.0869C43.7223 94.1162 43.8216 94.1309 43.9355 94.1309C44.0169 94.1309 44.0951 94.126 44.1699 94.1162C44.2448 94.1064 44.305 94.0967 44.3506 94.0869L44.3555 94.9854C44.2578 95.0146 44.1439 95.0407 44.0137 95.0635C43.8867 95.0863 43.7402 95.0977 43.5742 95.0977C43.304 95.0977 43.0648 95.0505 42.8564 94.9561C42.6481 94.8584 42.4854 94.7005 42.3682 94.4824C42.251 94.2643 42.1924 93.9746 42.1924 93.6133V88.4229ZM47.5488 95.0977C47.1582 95.0977 46.805 95.0342 46.4893 94.9072C46.1768 94.777 45.9098 94.5964 45.6885 94.3652C45.4704 94.1341 45.3027 93.8623 45.1855 93.5498C45.0684 93.2373 45.0098 92.9004 45.0098 92.5391V92.3438C45.0098 91.9303 45.07 91.556 45.1904 91.2207C45.3109 90.8854 45.4785 90.599 45.6934 90.3613C45.9082 90.1204 46.1621 89.9365 46.4551 89.8096C46.748 89.6826 47.0654 89.6191 47.4072 89.6191C47.7848 89.6191 48.1152 89.6826 48.3984 89.8096C48.6816 89.9365 48.916 90.1156 49.1016 90.3467C49.2904 90.5745 49.4303 90.8464 49.5215 91.1621C49.6159 91.4779 49.6631 91.8262 49.6631 92.207V92.71H45.5811V91.8652H48.501V91.7725C48.4945 91.5609 48.4521 91.3623 48.374 91.1768C48.2992 90.9912 48.1836 90.8415 48.0273 90.7275C47.8711 90.6136 47.6628 90.5566 47.4023 90.5566C47.207 90.5566 47.0329 90.599 46.8799 90.6836C46.7301 90.765 46.6048 90.8838 46.5039 91.04C46.403 91.1963 46.3249 91.3851 46.2695 91.6064C46.2174 91.8245 46.1914 92.0703 46.1914 92.3438V92.5391C46.1914 92.7702 46.2223 92.985 46.2842 93.1836C46.3493 93.3789 46.4437 93.5498 46.5674 93.6963C46.6911 93.8428 46.8408 93.9583 47.0166 94.043C47.1924 94.1243 47.3926 94.165 47.6172 94.165C47.9004 94.165 48.1527 94.1081 48.374 93.9941C48.5954 93.8802 48.7874 93.7191 48.9502 93.5107L49.5703 94.1113C49.4564 94.2773 49.3083 94.4368 49.126 94.5898C48.9437 94.7396 48.7207 94.8617 48.457 94.9561C48.1966 95.0505 47.8939 95.0977 47.5488 95.0977ZM51.7627 90.7227V95H50.5859V89.7168H51.709L51.7627 90.7227ZM53.3789 89.6826L53.3691 90.7764C53.2975 90.7633 53.2194 90.7536 53.1348 90.7471C53.0534 90.7406 52.972 90.7373 52.8906 90.7373C52.6888 90.7373 52.5114 90.7666 52.3584 90.8252C52.2054 90.8805 52.0768 90.9619 51.9727 91.0693C51.8717 91.1735 51.7936 91.3005 51.7383 91.4502C51.6829 91.5999 51.6504 91.7676 51.6406 91.9531L51.3721 91.9727C51.3721 91.6406 51.4046 91.333 51.4697 91.0498C51.5348 90.7666 51.6325 90.5176 51.7627 90.3027C51.8962 90.0879 52.0622 89.9202 52.2607 89.7998C52.4626 89.6794 52.6953 89.6191 52.959 89.6191C53.0306 89.6191 53.1071 89.6257 53.1885 89.6387C53.2731 89.6517 53.3366 89.6663 53.3789 89.6826Z" fill="black"/>
<path d="M209.582 26.6953L209.012 30H208.555L209.285 25.7734H209.723L209.582 26.6953ZM209.328 27.625L209.145 27.5078C209.197 27.2786 209.276 27.056 209.383 26.8398C209.49 26.6211 209.622 26.4258 209.781 26.2539C209.943 26.0794 210.128 25.9427 210.336 25.8438C210.547 25.7422 210.781 25.6927 211.039 25.6953C211.271 25.6979 211.462 25.7409 211.613 25.8242C211.767 25.9049 211.885 26.0182 211.969 26.1641C212.052 26.3073 212.104 26.4727 212.125 26.6602C212.148 26.8451 212.146 27.0417 212.117 27.25L211.652 30H211.191L211.664 27.2422C211.693 27.0391 211.691 26.8516 211.66 26.6797C211.632 26.5052 211.559 26.3659 211.441 26.2617C211.324 26.1549 211.148 26.1016 210.914 26.1016C210.706 26.099 210.514 26.1419 210.34 26.2305C210.165 26.3164 210.009 26.4336 209.871 26.582C209.736 26.7279 209.621 26.8919 209.527 27.0742C209.436 27.2539 209.37 27.4375 209.328 27.625Z" fill="black"/>
</svg>
