<svg width="228" height="113" viewBox="0 0 228 113" fill="none" xmlns="http://www.w3.org/2000/svg">
<line x1="59.8941" y1="40.3059" x2="59.8941" y2="62.85" stroke="black"/>
<line x1="57.9618" y1="40.3059" x2="57.9618" y2="62.85" stroke="black"/>
<line x1="99.1853" y1="40.6618" x2="99.1853" y2="63.2059" stroke="black"/>
<line x1="97.2529" y1="40.6618" x2="97.2529" y2="63.2059" stroke="black"/>
<path d="M51.3695 48.5401V49.794H41.5961V48.5401H51.3695ZM51.3695 53.3565V54.6104H41.5961V53.3565H51.3695Z" fill="#ABA9A9"/>
<path d="M107.229 46.0497L110.651 51.1708L114.084 46.0497H115.748L111.448 52.2606L115.924 58.7294H114.284L110.662 53.3739L107.053 58.7294H105.412L109.889 52.2606L105.588 46.0497H107.229Z" fill="#ABA9A9"/>
<path d="M187.412 51.0458V52.37H175.717V51.0458H187.412ZM182.221 45.5966V58.0184H180.815V45.5966H182.221Z" fill="#ABA9A9"/>
<path d="M126.172 42.3736V60.3736H122.785V42.3736H126.172ZM128.422 54.1627V53.9166C128.422 52.9869 128.555 52.1314 128.82 51.3502C129.086 50.5611 129.473 49.8775 129.981 49.2994C130.488 48.7213 131.113 48.272 131.856 47.9517C132.598 47.6236 133.449 47.4595 134.41 47.4595C135.371 47.4595 136.227 47.6236 136.977 47.9517C137.727 48.272 138.356 48.7213 138.863 49.2994C139.379 49.8775 139.77 50.5611 140.035 51.3502C140.301 52.1314 140.434 52.9869 140.434 53.9166V54.1627C140.434 55.0845 140.301 55.94 140.035 56.7291C139.77 57.5103 139.379 58.1939 138.863 58.7798C138.356 59.358 137.731 59.8072 136.988 60.1275C136.246 60.4478 135.395 60.608 134.434 60.608C133.473 60.608 132.617 60.4478 131.867 60.1275C131.125 59.8072 130.496 59.358 129.981 58.7798C129.473 58.1939 129.086 57.5103 128.82 56.7291C128.555 55.94 128.422 55.0845 128.422 54.1627ZM131.797 53.9166V54.1627C131.797 54.6939 131.844 55.19 131.938 55.6509C132.031 56.1119 132.18 56.5181 132.383 56.8697C132.594 57.2134 132.867 57.483 133.203 57.6783C133.539 57.8736 133.949 57.9713 134.434 57.9713C134.903 57.9713 135.305 57.8736 135.641 57.6783C135.977 57.483 136.246 57.2134 136.449 56.8697C136.653 56.5181 136.801 56.1119 136.895 55.6509C136.996 55.19 137.047 54.6939 137.047 54.1627V53.9166C137.047 53.4009 136.996 52.9166 136.895 52.4634C136.801 52.0025 136.649 51.5963 136.438 51.2447C136.235 50.8853 135.965 50.6041 135.629 50.4009C135.293 50.1978 134.887 50.0963 134.41 50.0963C133.934 50.0963 133.528 50.1978 133.192 50.4009C132.863 50.6041 132.594 50.8853 132.383 51.2447C132.18 51.5963 132.031 52.0025 131.938 52.4634C131.844 52.9166 131.797 53.4009 131.797 53.9166ZM150.535 47.6939H153.594V59.9517C153.594 61.108 153.336 62.0884 152.82 62.8931C152.313 63.7056 151.602 64.3189 150.688 64.733C149.774 65.1548 148.711 65.3658 147.5 65.3658C146.969 65.3658 146.406 65.2955 145.813 65.1548C145.227 65.0142 144.664 64.7955 144.125 64.4986C143.594 64.2017 143.149 63.8267 142.789 63.3736L144.278 61.3814C144.668 61.8345 145.121 62.1861 145.637 62.4361C146.153 62.6939 146.723 62.8228 147.348 62.8228C147.957 62.8228 148.473 62.7095 148.895 62.483C149.317 62.2642 149.641 61.94 149.867 61.5103C150.094 61.0884 150.207 60.5767 150.207 59.9752V50.6236L150.535 47.6939ZM142.004 54.1861V53.94C142.004 52.9713 142.121 52.0923 142.356 51.3033C142.598 50.5064 142.938 49.8228 143.375 49.2525C143.82 48.6822 144.36 48.2408 144.992 47.9283C145.625 47.6158 146.34 47.4595 147.137 47.4595C147.981 47.4595 148.688 47.6158 149.258 47.9283C149.828 48.2408 150.297 48.6861 150.664 49.2642C151.031 49.8345 151.317 50.5103 151.52 51.2916C151.731 52.065 151.895 52.9127 152.012 53.8345V54.3736C151.895 55.2564 151.719 56.0767 151.485 56.8345C151.25 57.5923 150.942 58.2564 150.559 58.8267C150.176 59.3892 149.699 59.8267 149.129 60.1392C148.567 60.4517 147.895 60.608 147.113 60.608C146.332 60.608 145.625 60.4478 144.992 60.1275C144.367 59.8072 143.832 59.358 143.387 58.7798C142.942 58.2017 142.598 57.522 142.356 56.7408C142.121 55.9595 142.004 55.108 142.004 54.1861ZM145.379 53.94V54.1861C145.379 54.7095 145.43 55.1978 145.531 55.6509C145.633 56.1041 145.789 56.5064 146 56.858C146.219 57.2017 146.488 57.4713 146.809 57.6666C147.137 57.8541 147.524 57.9478 147.969 57.9478C148.586 57.9478 149.09 57.8189 149.481 57.5611C149.871 57.2955 150.164 56.9322 150.36 56.4713C150.555 56.0103 150.668 55.4791 150.699 54.8775V53.3423C150.684 52.8502 150.617 52.4088 150.5 52.0181C150.383 51.6197 150.219 51.2798 150.008 50.9986C149.797 50.7173 149.524 50.4986 149.188 50.3423C148.852 50.1861 148.453 50.108 147.992 50.108C147.547 50.108 147.16 50.2095 146.832 50.4127C146.512 50.608 146.242 50.8775 146.024 51.2213C145.813 51.565 145.653 51.9713 145.543 52.44C145.434 52.9009 145.379 53.4009 145.379 53.94Z" fill="black"/>
<path d="M157.212 52.8801V52.6603C157.212 50.756 157.413 48.9738 157.813 47.3137C158.213 45.6535 158.736 44.1594 159.38 42.8312C160.035 41.5031 160.748 40.3752 161.519 39.4474C162.3 38.5099 163.067 37.8166 163.819 37.3674L164.244 38.5685C163.599 39.0275 162.96 39.6916 162.325 40.5607C161.7 41.4299 161.133 42.4748 160.626 43.6955C160.118 44.9162 159.712 46.2785 159.41 47.7824C159.107 49.2863 158.956 50.8976 158.956 52.6164V52.9094C158.956 54.6281 159.107 56.2394 159.41 57.7433C159.712 59.2473 160.118 60.6096 160.626 61.8303C161.133 63.0607 161.7 64.1154 162.325 64.9943C162.96 65.883 163.599 66.5666 164.244 67.0451L163.819 68.173C163.067 67.7238 162.3 67.0402 161.519 66.1223C160.748 65.2141 160.035 64.1008 159.38 62.7824C158.736 61.4738 158.213 59.9846 157.813 58.3146C157.413 56.6447 157.212 54.8332 157.212 52.8801Z" fill="#ABA9A9"/>
<path d="M221.935 53.2359V53.0162C221.935 51.1119 221.734 49.3297 221.334 47.6695C220.934 46.0093 220.411 44.5152 219.767 43.1871C219.112 41.8589 218.399 40.731 217.628 39.8033C216.847 38.8658 216.08 38.1724 215.328 37.7232L214.903 38.9244C215.548 39.3834 216.188 40.0474 216.822 40.9166C217.447 41.7857 218.014 42.8306 218.521 44.0513C219.029 45.272 219.435 46.6343 219.737 48.1382C220.04 49.6422 220.191 51.2535 220.191 52.9722V53.2652C220.191 54.9839 220.04 56.5953 219.737 58.0992C219.435 59.6031 219.029 60.9654 218.521 62.1861C218.014 63.4166 217.447 64.4713 216.822 65.3502C216.188 66.2388 215.548 66.9224 214.903 67.4009L215.328 68.5289C216.08 68.0797 216.847 67.3961 217.628 66.4781C218.399 65.5699 219.112 64.4566 219.767 63.1382C220.411 61.8297 220.934 60.3404 221.334 58.6705C221.734 57.0005 221.935 55.189 221.935 53.2359Z" fill="#ABA9A9"/>
<path d="M200.208 29.5273L195.345 44H191.935L198.31 26.9375H200.489L200.208 29.5273ZM204.275 44L199.388 29.5273L199.095 26.9375H201.286L207.696 44H204.275ZM204.052 37.6602V40.2031H194.9V37.6602H204.052Z" fill="black"/>
<path d="M171.364 43.9083V61.0177H168.258V47.5294L164.145 48.8888V46.381L171.012 43.9083H171.364Z" fill="black"/>
<line x1="187.929" y1="46.6207" x2="211.762" y2="46.6207" stroke="#ABA9A9"/>
<path d="M201.288 69.1207H198.17V55.2691C198.17 54.316 198.354 53.5152 198.721 52.8668C199.088 52.2105 199.612 51.7144 200.291 51.3785C200.971 51.0425 201.772 50.8746 202.694 50.8746C202.998 50.8746 203.288 50.8941 203.561 50.9332C203.842 50.9722 204.12 51.0269 204.393 51.0972L204.334 53.4527C204.186 53.4136 204.022 53.3863 203.842 53.3707C203.67 53.355 203.479 53.3472 203.268 53.3472C202.846 53.3472 202.487 53.4214 202.19 53.5699C201.893 53.7183 201.666 53.9371 201.51 54.2261C201.362 54.5074 201.288 54.855 201.288 55.2691V69.1207ZM203.854 56.441V58.6675H196.26V56.441H203.854Z" fill="black"/>
<path d="M204.029 65.9971L204.682 67.5322L205.83 65.9971H206.701L205.006 68.1182L206.037 70.2236H205.268L204.568 68.6416L203.377 70.2236H202.514L204.256 68.0479L203.26 65.9971H204.029Z" fill="#0277BD"/>
<path d="M72.0705 47.6938V50.0845H64.6877V47.6938H72.0705ZM66.5158 44.5649H69.8908V56.5532C69.8908 56.9204 69.9377 57.2017 70.0314 57.397C70.133 57.5923 70.2814 57.729 70.4767 57.8071C70.6721 57.8774 70.9182 57.9126 71.215 57.9126C71.426 57.9126 71.6135 57.9048 71.7775 57.8892C71.9494 57.8657 72.0939 57.8423 72.2111 57.8188L72.2228 60.3032C71.9338 60.397 71.6213 60.4712 71.2853 60.5259C70.9494 60.5806 70.5783 60.6079 70.1721 60.6079C69.4299 60.6079 68.7814 60.4868 68.2267 60.2446C67.6799 59.9946 67.258 59.5962 66.9611 59.0493C66.6642 58.5024 66.5158 57.7837 66.5158 56.8931V44.5649ZM78.2932 60.3735H74.8947V46.5688C74.8947 45.6079 75.0822 44.7993 75.4572 44.1431C75.84 43.479 76.3752 42.979 77.0627 42.6431C77.758 42.2993 78.5822 42.1274 79.5353 42.1274C79.8478 42.1274 80.1486 42.1509 80.4377 42.1978C80.7267 42.2368 81.008 42.2876 81.2814 42.3501L81.2463 44.8931C81.0978 44.854 80.9416 44.8267 80.7775 44.811C80.6135 44.7954 80.4221 44.7876 80.2033 44.7876C79.7971 44.7876 79.4494 44.8579 79.1603 44.9985C78.8791 45.1313 78.6642 45.3306 78.5158 45.5962C78.3674 45.8618 78.2932 46.186 78.2932 46.5688V60.3735ZM80.8244 47.6938V50.0845H73.008V47.6938H80.8244Z" fill="black"/>
<path d="M82.291 59.894L82.9434 61.4291L84.0918 59.894H84.9629L83.2676 62.0151L84.2989 64.1205H83.5293L82.8301 62.5385L81.6387 64.1205H80.7754L82.5176 61.9448L81.5215 59.894H82.291ZM90.2442 63.6088C90.416 63.6114 90.5762 63.5789 90.7246 63.5112C90.8731 63.4435 90.9994 63.3471 91.1035 63.2221C91.2077 63.0971 91.2819 62.9526 91.3262 62.7885L91.9981 62.7846C91.9564 63.0685 91.8457 63.3172 91.666 63.5307C91.489 63.7442 91.2715 63.9109 91.0137 64.0307C90.7585 64.1479 90.4916 64.2039 90.2129 64.1987C89.916 64.1935 89.6634 64.1323 89.4551 64.0151C89.2494 63.8953 89.084 63.7364 88.959 63.5385C88.834 63.3406 88.7481 63.1179 88.7012 62.8705C88.6543 62.6205 88.6439 62.364 88.67 62.101L88.6856 61.933C88.7168 61.6492 88.7858 61.3797 88.8926 61.1245C88.9994 60.8666 89.1413 60.6388 89.3184 60.4409C89.4981 60.2403 89.7103 60.0841 89.9551 59.9721C90.1999 59.8601 90.4746 59.808 90.7793 59.8159C91.0762 59.8211 91.334 59.8914 91.5528 60.0268C91.7715 60.1596 91.9408 60.3406 92.0606 60.5698C92.1804 60.7989 92.2403 61.0593 92.2403 61.351L91.5762 61.3471C91.5736 61.1804 91.541 61.0268 91.4785 60.8862C91.416 60.7455 91.3236 60.6323 91.2012 60.5463C91.0788 60.4604 90.9278 60.4135 90.7481 60.4057C90.5319 60.4005 90.3431 60.4409 90.1817 60.5268C90.0228 60.6127 89.8874 60.7312 89.7754 60.8823C89.666 61.0307 89.5788 61.1961 89.5137 61.3784C89.4512 61.5606 89.4082 61.7455 89.3848 61.933L89.3653 62.0971C89.3496 62.2638 89.347 62.4343 89.3575 62.6088C89.3705 62.7833 89.4069 62.9461 89.4668 63.0971C89.5267 63.2455 89.6192 63.3666 89.7442 63.4604C89.8692 63.5541 90.0358 63.6036 90.2442 63.6088Z" fill="#0277BD"/>
<path d="M85.7754 63.2612L85.6817 63.8393C85.6374 64.1231 85.5371 64.3875 85.3809 64.6323C85.2246 64.8771 85.0332 65.0854 84.8067 65.2573L84.416 64.9643C84.5072 64.8523 84.5905 64.7377 84.666 64.6205C84.7416 64.506 84.8054 64.3849 84.8575 64.2573C84.9121 64.1297 84.9538 63.9955 84.9825 63.8549L85.084 63.2612H85.7754Z" fill="#ABA9A9"/>
<path d="M13.8242 58.3923L17.2227 44.5993H19.0625L19.1797 47.5056L15.5469 61.6618H13.6016L13.8242 58.3923ZM11.6797 44.5993L14.4688 58.3454V61.6618H12.3477L8.48047 44.5993H11.6797ZM22.707 58.2868L25.4492 44.5993H28.6602L24.793 61.6618H22.6719L22.707 58.2868ZM19.9414 44.5993L23.3398 58.4391L23.5391 61.6618H21.5938L17.9727 47.4938L18.1133 44.5993H19.9414Z" fill="black"/>
<path d="M29.2528 60.5382L29.9052 62.0734L31.0536 60.5382H31.9247L30.2294 62.6593L31.2606 64.7648H30.4911L29.7919 63.1827L28.6005 64.7648H27.7372L29.4794 62.589L28.4833 60.5382H29.2528ZM37.2059 64.2531C37.3778 64.2557 37.538 64.2231 37.6864 64.1554C37.8348 64.0877 37.9611 63.9913 38.0653 63.8663C38.1695 63.7413 38.2437 63.5968 38.288 63.4327L38.9598 63.4288C38.9182 63.7127 38.8075 63.9614 38.6278 64.1749C38.4507 64.3885 38.2333 64.5551 37.9755 64.6749C37.7203 64.7921 37.4533 64.8481 37.1747 64.8429C36.8778 64.8377 36.6252 64.7765 36.4169 64.6593C36.2111 64.5395 36.0458 64.3807 35.9208 64.1827C35.7958 63.9848 35.7098 63.7622 35.663 63.5148C35.6161 63.2648 35.6057 63.0083 35.6317 62.7452L35.6473 62.5773C35.6786 62.2934 35.7476 62.0239 35.8544 61.7687C35.9611 61.5109 36.1031 61.283 36.2802 61.0851C36.4598 60.8846 36.6721 60.7283 36.9169 60.6163C37.1617 60.5044 37.4364 60.4523 37.7411 60.4601C38.038 60.4653 38.2958 60.5356 38.5145 60.671C38.7333 60.8038 38.9025 60.9848 39.0223 61.214C39.1421 61.4432 39.202 61.7036 39.202 61.9952L38.538 61.9913C38.5354 61.8247 38.5028 61.671 38.4403 61.5304C38.3778 61.3898 38.2854 61.2765 38.163 61.1906C38.0406 61.1046 37.8895 61.0577 37.7098 61.0499C37.4937 61.0447 37.3049 61.0851 37.1434 61.171C36.9846 61.257 36.8492 61.3754 36.7372 61.5265C36.6278 61.6749 36.5406 61.8403 36.4755 62.0226C36.413 62.2049 36.37 62.3898 36.3466 62.5773L36.327 62.7413C36.3114 62.908 36.3088 63.0786 36.3192 63.2531C36.3322 63.4275 36.3687 63.5903 36.4286 63.7413C36.4885 63.8898 36.5809 64.0109 36.7059 64.1046C36.8309 64.1984 36.9976 64.2478 37.2059 64.2531Z" fill="#0277BD"/>
<path d="M32.7372 63.9054L32.6434 64.4835C32.5992 64.7674 32.4989 65.0317 32.3427 65.2765C32.1864 65.5213 31.995 65.7296 31.7684 65.9015L31.3778 65.6085C31.469 65.4965 31.5523 65.382 31.6278 65.2648C31.7033 65.1502 31.7671 65.0291 31.8192 64.9015C31.8739 64.7739 31.9156 64.6398 31.9442 64.4991L32.0458 63.9054H32.7372Z" fill="#ABA9A9"/>
</svg>
