<svg width="229" height="93" viewBox="0 0 229 93" fill="none" xmlns="http://www.w3.org/2000/svg">
<path d="M36.5391 21H37.4766V31.3594L37.4141 33H36.5391V21ZM43.3594 28.6953V28.8594C43.3594 29.4896 43.2865 30.0677 43.1406 30.5938C42.9948 31.1198 42.7839 31.5755 42.5078 31.9609C42.2318 32.3411 41.8932 32.6354 41.4922 32.8438C41.0964 33.0521 40.6406 33.1562 40.125 33.1562C39.6198 33.1562 39.1719 33.0781 38.7812 32.9219C38.3906 32.7604 38.0573 32.5339 37.7812 32.2422C37.5052 31.9453 37.2839 31.599 37.1172 31.2031C36.9505 30.8021 36.8333 30.362 36.7656 29.8828V27.7969C36.8438 27.2865 36.9688 26.8229 37.1406 26.4062C37.3125 25.9896 37.5339 25.6302 37.8047 25.3281C38.0807 25.026 38.4089 24.7943 38.7891 24.6328C39.1745 24.4714 39.6146 24.3906 40.1094 24.3906C40.625 24.3906 41.0833 24.4922 41.4844 24.6953C41.8906 24.8932 42.2318 25.1823 42.5078 25.5625C42.7839 25.9375 42.9948 26.3906 43.1406 26.9219C43.2865 27.4479 43.3594 28.0391 43.3594 28.6953ZM42.4141 28.8594V28.6953C42.4141 28.2005 42.3672 27.7422 42.2734 27.3203C42.1797 26.8984 42.0312 26.5312 41.8281 26.2188C41.6302 25.901 41.375 25.6536 41.0625 25.4766C40.75 25.2995 40.375 25.2109 39.9375 25.2109C39.4896 25.2109 39.1068 25.2865 38.7891 25.4375C38.4766 25.5833 38.2161 25.7786 38.0078 26.0234C37.8047 26.263 37.6432 26.526 37.5234 26.8125C37.4036 27.099 37.3151 27.3802 37.2578 27.6562V30.0859C37.3464 30.4766 37.5 30.8438 37.7188 31.1875C37.9375 31.5312 38.2318 31.8099 38.6016 32.0234C38.9714 32.2318 39.4219 32.3359 39.9531 32.3359C40.3802 32.3359 40.7474 32.2474 41.0547 32.0703C41.3672 31.8932 41.6224 31.6484 41.8203 31.3359C42.0234 31.0234 42.1719 30.6562 42.2656 30.2344C42.3646 29.8125 42.4141 29.3542 42.4141 28.8594ZM46.4688 24.5469V33H45.5391V24.5469H46.4688ZM45.375 22.1016C45.375 21.9245 45.4297 21.776 45.5391 21.6562C45.6536 21.5312 45.8099 21.4688 46.0078 21.4688C46.2057 21.4688 46.362 21.5312 46.4766 21.6562C46.5964 21.776 46.6562 21.9245 46.6562 22.1016C46.6562 22.2734 46.5964 22.4219 46.4766 22.5469C46.362 22.6667 46.2057 22.7266 46.0078 22.7266C45.8099 22.7266 45.6536 22.6667 45.5391 22.5469C45.4297 22.4219 45.375 22.2734 45.375 22.1016ZM52.1406 32.3516C52.5365 32.3516 52.9062 32.2786 53.25 32.1328C53.599 31.9818 53.8854 31.7604 54.1094 31.4688C54.3385 31.1719 54.4688 30.8099 54.5 30.3828H55.3906C55.3646 30.9193 55.2005 31.3984 54.8984 31.8203C54.6016 32.237 54.2109 32.5651 53.7266 32.8047C53.2474 33.0391 52.7188 33.1562 52.1406 33.1562C51.5521 33.1562 51.0312 33.0495 50.5781 32.8359C50.1302 32.6224 49.7552 32.3255 49.4531 31.9453C49.151 31.5599 48.9219 31.112 48.7656 30.6016C48.6146 30.0859 48.5391 29.5312 48.5391 28.9375V28.6094C48.5391 28.0156 48.6146 27.4635 48.7656 26.9531C48.9219 26.4375 49.151 25.9896 49.4531 25.6094C49.7552 25.224 50.1302 24.9245 50.5781 24.7109C51.026 24.4974 51.5443 24.3906 52.1328 24.3906C52.737 24.3906 53.2786 24.513 53.7578 24.7578C54.2422 25.0026 54.6276 25.349 54.9141 25.7969C55.2057 26.2448 55.3646 26.776 55.3906 27.3906H54.5C54.474 26.9375 54.3542 26.5469 54.1406 26.2188C53.9271 25.8906 53.6458 25.638 53.2969 25.4609C52.9479 25.2839 52.5599 25.1953 52.1328 25.1953C51.6536 25.1953 51.2448 25.2891 50.9062 25.4766C50.5677 25.6589 50.2917 25.9115 50.0781 26.2344C49.8698 26.5521 49.7161 26.9167 49.6172 27.3281C49.5182 27.7344 49.4688 28.1615 49.4688 28.6094V28.9375C49.4688 29.3906 49.5156 29.8229 49.6094 30.2344C49.7083 30.6406 49.862 31.0026 50.0703 31.3203C50.2839 31.638 50.5599 31.8906 50.8984 32.0781C51.2422 32.2604 51.6562 32.3516 52.1406 32.3516ZM59.7812 32.1562L62.4141 24.5469H63.4219L59.8438 34.3594C59.7708 34.5521 59.6771 34.7656 59.5625 35C59.4531 35.2344 59.3073 35.4583 59.125 35.6719C58.9479 35.8906 58.724 36.0677 58.4531 36.2031C58.1875 36.3438 57.862 36.4141 57.4766 36.4141C57.3776 36.4141 57.25 36.401 57.0938 36.375C56.9427 36.3542 56.8333 36.3333 56.7656 36.3125L56.7578 35.5234C56.8151 35.5391 56.8984 35.5521 57.0078 35.5625C57.1172 35.5729 57.1927 35.5781 57.2344 35.5781C57.5729 35.5781 57.8568 35.5208 58.0859 35.4062C58.3203 35.2917 58.5156 35.1198 58.6719 34.8906C58.8281 34.6667 58.9661 34.3854 59.0859 34.0469L59.7812 32.1562ZM57.3203 24.5469L60.0156 31.8047L60.2656 32.7812L59.5859 33.1641L56.3047 24.5469H57.3203ZM67.8906 32.3516C68.2865 32.3516 68.6562 32.2786 69 32.1328C69.349 31.9818 69.6354 31.7604 69.8594 31.4688C70.0885 31.1719 70.2188 30.8099 70.25 30.3828H71.1406C71.1146 30.9193 70.9505 31.3984 70.6484 31.8203C70.3516 32.237 69.9609 32.5651 69.4766 32.8047C68.9974 33.0391 68.4688 33.1562 67.8906 33.1562C67.3021 33.1562 66.7812 33.0495 66.3281 32.8359C65.8802 32.6224 65.5052 32.3255 65.2031 31.9453C64.901 31.5599 64.6719 31.112 64.5156 30.6016C64.3646 30.0859 64.2891 29.5312 64.2891 28.9375V28.6094C64.2891 28.0156 64.3646 27.4635 64.5156 26.9531C64.6719 26.4375 64.901 25.9896 65.2031 25.6094C65.5052 25.224 65.8802 24.9245 66.3281 24.7109C66.776 24.4974 67.2943 24.3906 67.8828 24.3906C68.487 24.3906 69.0286 24.513 69.5078 24.7578C69.9922 25.0026 70.3776 25.349 70.6641 25.7969C70.9557 26.2448 71.1146 26.776 71.1406 27.3906H70.25C70.224 26.9375 70.1042 26.5469 69.8906 26.2188C69.6771 25.8906 69.3958 25.638 69.0469 25.4609C68.6979 25.2839 68.3099 25.1953 67.8828 25.1953C67.4036 25.1953 66.9948 25.2891 66.6562 25.4766C66.3177 25.6589 66.0417 25.9115 65.8281 26.2344C65.6198 26.5521 65.4661 26.9167 65.3672 27.3281C65.2682 27.7344 65.2188 28.1615 65.2188 28.6094V28.9375C65.2188 29.3906 65.2656 29.8229 65.3594 30.2344C65.4583 30.6406 65.612 31.0026 65.8203 31.3203C66.0339 31.638 66.3099 31.8906 66.6484 32.0781C66.9922 32.2604 67.4062 32.3516 67.8906 32.3516ZM74.0625 21V33H73.1328V21H74.0625ZM79.8828 33.1562C79.3307 33.1562 78.8229 33.0547 78.3594 32.8516C77.901 32.6484 77.5 32.362 77.1562 31.9922C76.8177 31.6224 76.5547 31.1849 76.3672 30.6797C76.1849 30.1693 76.0938 29.612 76.0938 29.0078V28.6719C76.0938 28.0208 76.1901 27.4323 76.3828 26.9062C76.5755 26.3802 76.8411 25.9297 77.1797 25.5547C77.5182 25.1797 77.9036 24.8932 78.3359 24.6953C78.7734 24.4922 79.2318 24.3906 79.7109 24.3906C80.2474 24.3906 80.724 24.487 81.1406 24.6797C81.5573 24.8672 81.9062 25.1354 82.1875 25.4844C82.474 25.8281 82.6901 26.237 82.8359 26.7109C82.9818 27.1797 83.0547 27.6979 83.0547 28.2656V28.8359H76.6562V28.0391H82.125V27.9297C82.1146 27.4557 82.0182 27.013 81.8359 26.6016C81.6589 26.1849 81.3932 25.8464 81.0391 25.5859C80.6849 25.3255 80.2422 25.1953 79.7109 25.1953C79.3151 25.1953 78.9505 25.2786 78.6172 25.4453C78.2891 25.612 78.0052 25.8516 77.7656 26.1641C77.5312 26.4714 77.349 26.8385 77.2188 27.2656C77.0938 27.6875 77.0312 28.1562 77.0312 28.6719V29.0078C77.0312 29.4766 77.099 29.9141 77.2344 30.3203C77.375 30.7214 77.5729 31.0755 77.8281 31.3828C78.0885 31.6901 78.3958 31.9297 78.75 32.1016C79.1042 32.2734 79.4948 32.3594 79.9219 32.3594C80.4219 32.3594 80.8646 32.2682 81.25 32.0859C81.6354 31.8984 81.9818 31.6042 82.2891 31.2031L82.875 31.6562C82.6927 31.9271 82.4635 32.1771 82.1875 32.4062C81.9167 32.6354 81.5911 32.8177 81.2109 32.9531C80.8307 33.0885 80.388 33.1562 79.8828 33.1562Z" fill="black"/>
<path d="M44.4473 2.46875V11H42.6953V2.46875H44.4473ZM47.0723 2.46875V3.8457H40.1113V2.46875H47.0723ZM46.6797 7.89453V7.77148C46.6797 7.30664 46.7461 6.87891 46.8789 6.48828C47.0117 6.09375 47.2051 5.75195 47.459 5.46289C47.7129 5.17383 48.0254 4.94922 48.3965 4.78906C48.7676 4.625 49.1934 4.54297 49.6738 4.54297C50.1543 4.54297 50.582 4.625 50.957 4.78906C51.332 4.94922 51.6465 5.17383 51.9004 5.46289C52.1582 5.75195 52.3535 6.09375 52.4863 6.48828C52.6191 6.87891 52.6855 7.30664 52.6855 7.77148V7.89453C52.6855 8.35547 52.6191 8.7832 52.4863 9.17773C52.3535 9.56836 52.1582 9.91016 51.9004 10.2031C51.6465 10.4922 51.334 10.7168 50.9629 10.877C50.5918 11.0371 50.166 11.1172 49.6855 11.1172C49.2051 11.1172 48.7773 11.0371 48.4023 10.877C48.0312 10.7168 47.7168 10.4922 47.459 10.2031C47.2051 9.91016 47.0117 9.56836 46.8789 9.17773C46.7461 8.7832 46.6797 8.35547 46.6797 7.89453ZM48.3672 7.77148V7.89453C48.3672 8.16016 48.3906 8.4082 48.4375 8.63867C48.4844 8.86914 48.5586 9.07227 48.6602 9.24805C48.7656 9.41992 48.9023 9.55469 49.0703 9.65234C49.2383 9.75 49.4434 9.79883 49.6855 9.79883C49.9199 9.79883 50.1211 9.75 50.2891 9.65234C50.457 9.55469 50.5918 9.41992 50.6934 9.24805C50.7949 9.07227 50.8691 8.86914 50.916 8.63867C50.9668 8.4082 50.9922 8.16016 50.9922 7.89453V7.77148C50.9922 7.51367 50.9668 7.27148 50.916 7.04492C50.8691 6.81445 50.793 6.61133 50.6875 6.43555C50.5859 6.25586 50.4512 6.11523 50.2832 6.01367C50.1152 5.91211 49.9121 5.86133 49.6738 5.86133C49.4355 5.86133 49.2324 5.91211 49.0645 6.01367C48.9004 6.11523 48.7656 6.25586 48.6602 6.43555C48.5586 6.61133 48.4844 6.81445 48.4375 7.04492C48.3906 7.27148 48.3672 7.51367 48.3672 7.77148ZM55.4102 5.87891V13.4375H53.7227V4.66016H55.2871L55.4102 5.87891ZM59.4238 7.75977V7.88281C59.4238 8.34375 59.3691 8.77148 59.2598 9.16602C59.1543 9.56055 58.998 9.9043 58.791 10.1973C58.584 10.4863 58.3262 10.7129 58.0176 10.877C57.7129 11.0371 57.3613 11.1172 56.9629 11.1172C56.5762 11.1172 56.2402 11.0391 55.9551 10.8828C55.6699 10.7266 55.4297 10.5078 55.2344 10.2266C55.043 9.94141 54.8887 9.61133 54.7715 9.23633C54.6543 8.86133 54.5645 8.45898 54.502 8.0293V7.70703C54.5645 7.24609 54.6543 6.82422 54.7715 6.44141C54.8887 6.05469 55.043 5.7207 55.2344 5.43945C55.4297 5.1543 55.668 4.93359 55.9492 4.77734C56.2344 4.62109 56.5684 4.54297 56.9512 4.54297C57.3535 4.54297 57.707 4.61914 58.0117 4.77148C58.3203 4.92383 58.5781 5.14258 58.7852 5.42773C58.9961 5.71289 59.1543 6.05273 59.2598 6.44727C59.3691 6.8418 59.4238 7.2793 59.4238 7.75977ZM57.7305 7.88281V7.75977C57.7305 7.49023 57.707 7.24219 57.6602 7.01562C57.6172 6.78516 57.5469 6.58398 57.4492 6.41211C57.3555 6.24023 57.2305 6.10742 57.0742 6.01367C56.9219 5.91602 56.7363 5.86719 56.5176 5.86719C56.2871 5.86719 56.0898 5.9043 55.9258 5.97852C55.7656 6.05273 55.6348 6.16016 55.5332 6.30078C55.4316 6.44141 55.3555 6.60938 55.3047 6.80469C55.2539 7 55.2227 7.2207 55.2109 7.4668V8.28125C55.2305 8.57031 55.2852 8.83008 55.375 9.06055C55.4648 9.28711 55.6035 9.4668 55.791 9.59961C55.9785 9.73242 56.2246 9.79883 56.5293 9.79883C56.752 9.79883 56.9395 9.75 57.0918 9.65234C57.2441 9.55078 57.3672 9.41211 57.4609 9.23633C57.5586 9.06055 57.627 8.85742 57.666 8.62695C57.709 8.39648 57.7305 8.14844 57.7305 7.88281ZM62.2539 4.66016V11H60.5605V4.66016H62.2539ZM60.4551 3.00781C60.4551 2.76172 60.541 2.55859 60.7129 2.39844C60.8848 2.23828 61.1152 2.1582 61.4043 2.1582C61.6895 2.1582 61.918 2.23828 62.0898 2.39844C62.2656 2.55859 62.3535 2.76172 62.3535 3.00781C62.3535 3.25391 62.2656 3.45703 62.0898 3.61719C61.918 3.77734 61.6895 3.85742 61.4043 3.85742C61.1152 3.85742 60.8848 3.77734 60.7129 3.61719C60.541 3.45703 60.4551 3.25391 60.4551 3.00781ZM66.2676 9.79883C66.4746 9.79883 66.6582 9.75977 66.8184 9.68164C66.9785 9.59961 67.1035 9.48633 67.1934 9.3418C67.2871 9.19336 67.3359 9.01953 67.3398 8.82031H68.9277C68.9238 9.26562 68.8047 9.66211 68.5703 10.0098C68.3359 10.3535 68.0215 10.625 67.627 10.8242C67.2324 11.0195 66.791 11.1172 66.3027 11.1172C65.8105 11.1172 65.3809 11.0352 65.0137 10.8711C64.6504 10.707 64.3477 10.4805 64.1055 10.1914C63.8633 9.89844 63.6816 9.55859 63.5605 9.17188C63.4395 8.78125 63.3789 8.36328 63.3789 7.91797V7.74805C63.3789 7.29883 63.4395 6.88086 63.5605 6.49414C63.6816 6.10352 63.8633 5.76367 64.1055 5.47461C64.3477 5.18164 64.6504 4.95312 65.0137 4.78906C65.377 4.625 65.8027 4.54297 66.291 4.54297C66.8105 4.54297 67.2656 4.64258 67.6562 4.8418C68.0508 5.04102 68.3594 5.32617 68.582 5.69727C68.8086 6.06445 68.9238 6.5 68.9277 7.00391H67.3398C67.3359 6.79297 67.291 6.60156 67.2051 6.42969C67.123 6.25781 67.002 6.12109 66.8418 6.01953C66.6855 5.91406 66.4922 5.86133 66.2617 5.86133C66.0156 5.86133 65.8145 5.91406 65.6582 6.01953C65.502 6.12109 65.3809 6.26172 65.2949 6.44141C65.209 6.61719 65.1484 6.81836 65.1133 7.04492C65.082 7.26758 65.0664 7.50195 65.0664 7.74805V7.91797C65.0664 8.16406 65.082 8.40039 65.1133 8.62695C65.1445 8.85352 65.2031 9.05469 65.2891 9.23047C65.3789 9.40625 65.502 9.54492 65.6582 9.64648C65.8145 9.74805 66.0176 9.79883 66.2676 9.79883ZM76.9375 2.45117V11H75.25V4.39648L73.2227 5.04102V3.71094L76.7559 2.45117H76.9375Z" fill="black"/>
<path d="M31.9844 47H32.9219V57.3594L32.8594 59H31.9844V47ZM38.8047 54.6953V54.8594C38.8047 55.4896 38.7318 56.0677 38.5859 56.5938C38.4401 57.1198 38.2292 57.5755 37.9531 57.9609C37.6771 58.3411 37.3385 58.6354 36.9375 58.8438C36.5417 59.0521 36.0859 59.1562 35.5703 59.1562C35.0651 59.1562 34.6172 59.0781 34.2266 58.9219C33.8359 58.7604 33.5026 58.5339 33.2266 58.2422C32.9505 57.9453 32.7292 57.599 32.5625 57.2031C32.3958 56.8021 32.2786 56.362 32.2109 55.8828V53.7969C32.2891 53.2865 32.4141 52.8229 32.5859 52.4062C32.7578 51.9896 32.9792 51.6302 33.25 51.3281C33.526 51.026 33.8542 50.7943 34.2344 50.6328C34.6198 50.4714 35.0599 50.3906 35.5547 50.3906C36.0703 50.3906 36.5286 50.4922 36.9297 50.6953C37.3359 50.8932 37.6771 51.1823 37.9531 51.5625C38.2292 51.9375 38.4401 52.3906 38.5859 52.9219C38.7318 53.4479 38.8047 54.0391 38.8047 54.6953ZM37.8594 54.8594V54.6953C37.8594 54.2005 37.8125 53.7422 37.7188 53.3203C37.625 52.8984 37.4766 52.5312 37.2734 52.2188C37.0755 51.901 36.8203 51.6536 36.5078 51.4766C36.1953 51.2995 35.8203 51.2109 35.3828 51.2109C34.9349 51.2109 34.5521 51.2865 34.2344 51.4375C33.9219 51.5833 33.6615 51.7786 33.4531 52.0234C33.25 52.263 33.0885 52.526 32.9688 52.8125C32.849 53.099 32.7604 53.3802 32.7031 53.6562V56.0859C32.7917 56.4766 32.9453 56.8438 33.1641 57.1875C33.3828 57.5312 33.6771 57.8099 34.0469 58.0234C34.4167 58.2318 34.8672 58.3359 35.3984 58.3359C35.8255 58.3359 36.1927 58.2474 36.5 58.0703C36.8125 57.8932 37.0677 57.6484 37.2656 57.3359C37.4688 57.0234 37.6172 56.6562 37.7109 56.2344C37.8099 55.8125 37.8594 55.3542 37.8594 54.8594ZM41.9141 50.5469V59H40.9844V50.5469H41.9141ZM40.8203 48.1016C40.8203 47.9245 40.875 47.776 40.9844 47.6562C41.099 47.5312 41.2552 47.4688 41.4531 47.4688C41.651 47.4688 41.8073 47.5312 41.9219 47.6562C42.0417 47.776 42.1016 47.9245 42.1016 48.1016C42.1016 48.2734 42.0417 48.4219 41.9219 48.5469C41.8073 48.6667 41.651 48.7266 41.4531 48.7266C41.2552 48.7266 41.099 48.6667 40.9844 48.5469C40.875 48.4219 40.8203 48.2734 40.8203 48.1016ZM47.5859 58.3516C47.9818 58.3516 48.3516 58.2786 48.6953 58.1328C49.0443 57.9818 49.3307 57.7604 49.5547 57.4688C49.7839 57.1719 49.9141 56.8099 49.9453 56.3828H50.8359C50.8099 56.9193 50.6458 57.3984 50.3438 57.8203C50.0469 58.237 49.6562 58.5651 49.1719 58.8047C48.6927 59.0391 48.1641 59.1562 47.5859 59.1562C46.9974 59.1562 46.4766 59.0495 46.0234 58.8359C45.5755 58.6224 45.2005 58.3255 44.8984 57.9453C44.5964 57.5599 44.3672 57.112 44.2109 56.6016C44.0599 56.0859 43.9844 55.5312 43.9844 54.9375V54.6094C43.9844 54.0156 44.0599 53.4635 44.2109 52.9531C44.3672 52.4375 44.5964 51.9896 44.8984 51.6094C45.2005 51.224 45.5755 50.9245 46.0234 50.7109C46.4714 50.4974 46.9896 50.3906 47.5781 50.3906C48.1823 50.3906 48.724 50.513 49.2031 50.7578C49.6875 51.0026 50.0729 51.349 50.3594 51.7969C50.651 52.2448 50.8099 52.776 50.8359 53.3906H49.9453C49.9193 52.9375 49.7995 52.5469 49.5859 52.2188C49.3724 51.8906 49.0911 51.638 48.7422 51.4609C48.3932 51.2839 48.0052 51.1953 47.5781 51.1953C47.099 51.1953 46.6901 51.2891 46.3516 51.4766C46.013 51.6589 45.737 51.9115 45.5234 52.2344C45.3151 52.5521 45.1615 52.9167 45.0625 53.3281C44.9635 53.7344 44.9141 54.1615 44.9141 54.6094V54.9375C44.9141 55.3906 44.9609 55.8229 45.0547 56.2344C45.1536 56.6406 45.3073 57.0026 45.5156 57.3203C45.7292 57.638 46.0052 57.8906 46.3438 58.0781C46.6875 58.2604 47.1016 58.3516 47.5859 58.3516ZM55.2266 58.1562L57.8594 50.5469H58.8672L55.2891 60.3594C55.2161 60.5521 55.1224 60.7656 55.0078 61C54.8984 61.2344 54.7526 61.4583 54.5703 61.6719C54.3932 61.8906 54.1693 62.0677 53.8984 62.2031C53.6328 62.3438 53.3073 62.4141 52.9219 62.4141C52.8229 62.4141 52.6953 62.401 52.5391 62.375C52.388 62.3542 52.2786 62.3333 52.2109 62.3125L52.2031 61.5234C52.2604 61.5391 52.3438 61.5521 52.4531 61.5625C52.5625 61.5729 52.638 61.5781 52.6797 61.5781C53.0182 61.5781 53.3021 61.5208 53.5312 61.4062C53.7656 61.2917 53.9609 61.1198 54.1172 60.8906C54.2734 60.6667 54.4115 60.3854 54.5312 60.0469L55.2266 58.1562ZM52.7656 50.5469L55.4609 57.8047L55.7109 58.7812L55.0312 59.1641L51.75 50.5469H52.7656ZM63.3359 58.3516C63.7318 58.3516 64.1016 58.2786 64.4453 58.1328C64.7943 57.9818 65.0807 57.7604 65.3047 57.4688C65.5339 57.1719 65.6641 56.8099 65.6953 56.3828H66.5859C66.5599 56.9193 66.3958 57.3984 66.0938 57.8203C65.7969 58.237 65.4062 58.5651 64.9219 58.8047C64.4427 59.0391 63.9141 59.1562 63.3359 59.1562C62.7474 59.1562 62.2266 59.0495 61.7734 58.8359C61.3255 58.6224 60.9505 58.3255 60.6484 57.9453C60.3464 57.5599 60.1172 57.112 59.9609 56.6016C59.8099 56.0859 59.7344 55.5312 59.7344 54.9375V54.6094C59.7344 54.0156 59.8099 53.4635 59.9609 52.9531C60.1172 52.4375 60.3464 51.9896 60.6484 51.6094C60.9505 51.224 61.3255 50.9245 61.7734 50.7109C62.2214 50.4974 62.7396 50.3906 63.3281 50.3906C63.9323 50.3906 64.474 50.513 64.9531 50.7578C65.4375 51.0026 65.8229 51.349 66.1094 51.7969C66.401 52.2448 66.5599 52.776 66.5859 53.3906H65.6953C65.6693 52.9375 65.5495 52.5469 65.3359 52.2188C65.1224 51.8906 64.8411 51.638 64.4922 51.4609C64.1432 51.2839 63.7552 51.1953 63.3281 51.1953C62.849 51.1953 62.4401 51.2891 62.1016 51.4766C61.763 51.6589 61.487 51.9115 61.2734 52.2344C61.0651 52.5521 60.9115 52.9167 60.8125 53.3281C60.7135 53.7344 60.6641 54.1615 60.6641 54.6094V54.9375C60.6641 55.3906 60.7109 55.8229 60.8047 56.2344C60.9036 56.6406 61.0573 57.0026 61.2656 57.3203C61.4792 57.638 61.7552 57.8906 62.0938 58.0781C62.4375 58.2604 62.8516 58.3516 63.3359 58.3516ZM69.5078 47V59H68.5781V47H69.5078ZM75.3281 59.1562C74.776 59.1562 74.2682 59.0547 73.8047 58.8516C73.3464 58.6484 72.9453 58.362 72.6016 57.9922C72.263 57.6224 72 57.1849 71.8125 56.6797C71.6302 56.1693 71.5391 55.612 71.5391 55.0078V54.6719C71.5391 54.0208 71.6354 53.4323 71.8281 52.9062C72.0208 52.3802 72.2865 51.9297 72.625 51.5547C72.9635 51.1797 73.349 50.8932 73.7812 50.6953C74.2188 50.4922 74.6771 50.3906 75.1562 50.3906C75.6927 50.3906 76.1693 50.487 76.5859 50.6797C77.0026 50.8672 77.3516 51.1354 77.6328 51.4844C77.9193 51.8281 78.1354 52.237 78.2812 52.7109C78.4271 53.1797 78.5 53.6979 78.5 54.2656V54.8359H72.1016V54.0391H77.5703V53.9297C77.5599 53.4557 77.4635 53.013 77.2812 52.6016C77.1042 52.1849 76.8385 51.8464 76.4844 51.5859C76.1302 51.3255 75.6875 51.1953 75.1562 51.1953C74.7604 51.1953 74.3958 51.2786 74.0625 51.4453C73.7344 51.612 73.4505 51.8516 73.2109 52.1641C72.9766 52.4714 72.7943 52.8385 72.6641 53.2656C72.5391 53.6875 72.4766 54.1562 72.4766 54.6719V55.0078C72.4766 55.4766 72.5443 55.9141 72.6797 56.3203C72.8203 56.7214 73.0182 57.0755 73.2734 57.3828C73.5339 57.6901 73.8411 57.9297 74.1953 58.1016C74.5495 58.2734 74.9401 58.3594 75.3672 58.3594C75.8672 58.3594 76.3099 58.2682 76.6953 58.0859C77.0807 57.8984 77.4271 57.6042 77.7344 57.2031L78.3203 57.6562C78.138 57.9271 77.9089 58.1771 77.6328 58.4062C77.362 58.6354 77.0365 58.8177 76.6562 58.9531C76.276 59.0885 75.8333 59.1562 75.3281 59.1562ZM85.4062 56.8438C85.4062 56.6146 85.349 56.388 85.2344 56.1641C85.1198 55.9401 84.8984 55.7344 84.5703 55.5469C84.2474 55.3594 83.7708 55.2005 83.1406 55.0703C82.6719 54.9661 82.2526 54.849 81.8828 54.7188C81.5182 54.5885 81.2109 54.4323 80.9609 54.25C80.7109 54.0677 80.5208 53.849 80.3906 53.5938C80.2604 53.3385 80.1953 53.0365 80.1953 52.6875C80.1953 52.375 80.263 52.0807 80.3984 51.8047C80.5391 51.5234 80.737 51.2786 80.9922 51.0703C81.2526 50.8568 81.5651 50.6901 81.9297 50.5703C82.2995 50.4505 82.7135 50.3906 83.1719 50.3906C83.8229 50.3906 84.3802 50.5026 84.8438 50.7266C85.3125 50.9453 85.6693 51.2448 85.9141 51.625C86.1641 52.0052 86.2891 52.4349 86.2891 52.9141H85.3594C85.3594 52.6224 85.2734 52.3464 85.1016 52.0859C84.9349 51.8255 84.6875 51.612 84.3594 51.4453C84.0365 51.2786 83.6406 51.1953 83.1719 51.1953C82.6875 51.1953 82.2943 51.2682 81.9922 51.4141C81.6901 51.5599 81.4688 51.7448 81.3281 51.9688C81.1927 52.1927 81.125 52.4245 81.125 52.6641C81.125 52.8516 81.1536 53.0234 81.2109 53.1797C81.2734 53.3307 81.3828 53.4714 81.5391 53.6016C81.7005 53.7318 81.9297 53.8542 82.2266 53.9688C82.5234 54.0833 82.9089 54.1953 83.3828 54.3047C84.0651 54.4557 84.6224 54.6406 85.0547 54.8594C85.4922 55.0729 85.8151 55.3385 86.0234 55.6562C86.2318 55.9688 86.3359 56.349 86.3359 56.7969C86.3359 57.1458 86.263 57.4661 86.1172 57.7578C85.9714 58.0443 85.7604 58.2917 85.4844 58.5C85.2135 58.7083 84.8854 58.8698 84.5 58.9844C84.1198 59.099 83.6927 59.1562 83.2188 59.1562C82.5052 59.1562 81.901 59.0391 81.4062 58.8047C80.9167 58.5651 80.5443 58.2526 80.2891 57.8672C80.0391 57.4766 79.9141 57.0625 79.9141 56.625H80.8438C80.875 57.0625 81.013 57.4089 81.2578 57.6641C81.5026 57.9141 81.8021 58.0911 82.1562 58.1953C82.5156 58.2995 82.8698 58.3516 83.2188 58.3516C83.6979 58.3516 84.099 58.2812 84.4219 58.1406C84.7448 58 84.9896 57.8151 85.1562 57.5859C85.3229 57.3568 85.4062 57.1094 85.4062 56.8438Z" fill="black"/>
<path d="M38.9141 81.3516C39.3099 81.3516 39.6797 81.2786 40.0234 81.1328C40.3724 80.9818 40.6589 80.7604 40.8828 80.4688C41.112 80.1719 41.2422 79.8099 41.2734 79.3828H42.1641C42.138 79.9193 41.974 80.3984 41.6719 80.8203C41.375 81.237 40.9844 81.5651 40.5 81.8047C40.0208 82.0391 39.4922 82.1562 38.9141 82.1562C38.3255 82.1562 37.8047 82.0495 37.3516 81.8359C36.9036 81.6224 36.5286 81.3255 36.2266 80.9453C35.9245 80.5599 35.6953 80.112 35.5391 79.6016C35.388 79.0859 35.3125 78.5312 35.3125 77.9375V77.6094C35.3125 77.0156 35.388 76.4635 35.5391 75.9531C35.6953 75.4375 35.9245 74.9896 36.2266 74.6094C36.5286 74.224 36.9036 73.9245 37.3516 73.7109C37.7995 73.4974 38.3177 73.3906 38.9062 73.3906C39.5104 73.3906 40.0521 73.513 40.5312 73.7578C41.0156 74.0026 41.401 74.349 41.6875 74.7969C41.9792 75.2448 42.138 75.776 42.1641 76.3906H41.2734C41.2474 75.9375 41.1276 75.5469 40.9141 75.2188C40.7005 74.8906 40.4193 74.638 40.0703 74.4609C39.7214 74.2839 39.3333 74.1953 38.9062 74.1953C38.4271 74.1953 38.0182 74.2891 37.6797 74.4766C37.3411 74.6589 37.0651 74.9115 36.8516 75.2344C36.6432 75.5521 36.4896 75.9167 36.3906 76.3281C36.2917 76.7344 36.2422 77.1615 36.2422 77.6094V77.9375C36.2422 78.3906 36.2891 78.8229 36.3828 79.2344C36.4818 79.6406 36.6354 80.0026 36.8438 80.3203C37.0573 80.638 37.3333 80.8906 37.6719 81.0781C38.0156 81.2604 38.4297 81.3516 38.9141 81.3516ZM46.5547 81.1562L49.1875 73.5469H50.1953L46.6172 83.3594C46.5443 83.5521 46.4505 83.7656 46.3359 84C46.2266 84.2344 46.0807 84.4583 45.8984 84.6719C45.7214 84.8906 45.4974 85.0677 45.2266 85.2031C44.9609 85.3438 44.6354 85.4141 44.25 85.4141C44.151 85.4141 44.0234 85.401 43.8672 85.375C43.7161 85.3542 43.6068 85.3333 43.5391 85.3125L43.5312 84.5234C43.5885 84.5391 43.6719 84.5521 43.7812 84.5625C43.8906 84.5729 43.9661 84.5781 44.0078 84.5781C44.3464 84.5781 44.6302 84.5208 44.8594 84.4062C45.0938 84.2917 45.2891 84.1198 45.4453 83.8906C45.6016 83.6667 45.7396 83.3854 45.8594 83.0469L46.5547 81.1562ZM44.0938 73.5469L46.7891 80.8047L47.0391 81.7812L46.3594 82.1641L43.0781 73.5469H44.0938ZM54.6641 81.3516C55.0599 81.3516 55.4297 81.2786 55.7734 81.1328C56.1224 80.9818 56.4089 80.7604 56.6328 80.4688C56.862 80.1719 56.9922 79.8099 57.0234 79.3828H57.9141C57.888 79.9193 57.724 80.3984 57.4219 80.8203C57.125 81.237 56.7344 81.5651 56.25 81.8047C55.7708 82.0391 55.2422 82.1562 54.6641 82.1562C54.0755 82.1562 53.5547 82.0495 53.1016 81.8359C52.6536 81.6224 52.2786 81.3255 51.9766 80.9453C51.6745 80.5599 51.4453 80.112 51.2891 79.6016C51.138 79.0859 51.0625 78.5312 51.0625 77.9375V77.6094C51.0625 77.0156 51.138 76.4635 51.2891 75.9531C51.4453 75.4375 51.6745 74.9896 51.9766 74.6094C52.2786 74.224 52.6536 73.9245 53.1016 73.7109C53.5495 73.4974 54.0677 73.3906 54.6562 73.3906C55.2604 73.3906 55.8021 73.513 56.2812 73.7578C56.7656 74.0026 57.151 74.349 57.4375 74.7969C57.7292 75.2448 57.888 75.776 57.9141 76.3906H57.0234C56.9974 75.9375 56.8776 75.5469 56.6641 75.2188C56.4505 74.8906 56.1693 74.638 55.8203 74.4609C55.4714 74.2839 55.0833 74.1953 54.6562 74.1953C54.1771 74.1953 53.7682 74.2891 53.4297 74.4766C53.0911 74.6589 52.8151 74.9115 52.6016 75.2344C52.3932 75.5521 52.2396 75.9167 52.1406 76.3281C52.0417 76.7344 51.9922 77.1615 51.9922 77.6094V77.9375C51.9922 78.3906 52.0391 78.8229 52.1328 79.2344C52.2318 79.6406 52.3854 80.0026 52.5938 80.3203C52.8073 80.638 53.0833 80.8906 53.4219 81.0781C53.7656 81.2604 54.1797 81.3516 54.6641 81.3516ZM60.8359 70V82H59.9062V70H60.8359ZM64.4297 73.5469V82H63.5V73.5469H64.4297ZM63.3359 71.1016C63.3359 70.9245 63.3906 70.776 63.5 70.6562C63.6146 70.5312 63.7708 70.4688 63.9688 70.4688C64.1667 70.4688 64.3229 70.5312 64.4375 70.6562C64.5573 70.776 64.6172 70.9245 64.6172 71.1016C64.6172 71.2734 64.5573 71.4219 64.4375 71.5469C64.3229 71.6667 64.1667 71.7266 63.9688 71.7266C63.7708 71.7266 63.6146 71.6667 63.5 71.5469C63.3906 71.4219 63.3359 71.2734 63.3359 71.1016ZM67.9141 75.3516V82H66.9844V73.5469H67.875L67.9141 75.3516ZM67.7031 77.25L67.2891 77.0156C67.3203 76.5156 67.4219 76.0469 67.5938 75.6094C67.7656 75.1719 67.9974 74.7865 68.2891 74.4531C68.5859 74.1198 68.9323 73.8594 69.3281 73.6719C69.7292 73.4844 70.1719 73.3906 70.6562 73.3906C71.0781 73.3906 71.4557 73.4479 71.7891 73.5625C72.1224 73.6771 72.4062 73.8594 72.6406 74.1094C72.875 74.3594 73.0521 74.6797 73.1719 75.0703C73.2969 75.4609 73.3594 75.9375 73.3594 76.5V82H72.4219V76.4922C72.4219 75.9089 72.3411 75.4531 72.1797 75.125C72.0182 74.7917 71.7891 74.5547 71.4922 74.4141C71.1953 74.2734 70.8438 74.2031 70.4375 74.2031C69.9896 74.2031 69.5964 74.3021 69.2578 74.5C68.9245 74.6927 68.6432 74.9453 68.4141 75.2578C68.1901 75.5651 68.0182 75.8958 67.8984 76.25C67.7786 76.599 67.7135 76.9323 67.7031 77.25ZM81.3438 73.5469H82.2109V81.8516C82.2109 82.5859 82.0703 83.2161 81.7891 83.7422C81.513 84.2682 81.1198 84.6719 80.6094 84.9531C80.1042 85.2344 79.5078 85.375 78.8203 85.375C78.4714 85.375 78.112 85.3203 77.7422 85.2109C77.3776 85.1068 77.0312 84.9453 76.7031 84.7266C76.3802 84.513 76.1042 84.2474 75.875 83.9297L76.3984 83.3594C76.7422 83.776 77.1094 84.0807 77.5 84.2734C77.8906 84.4714 78.3125 84.5703 78.7656 84.5703C79.3021 84.5703 79.7552 84.4635 80.125 84.25C80.5 84.0365 80.7839 83.7292 80.9766 83.3281C81.1745 82.9271 81.2734 82.4453 81.2734 81.8828V75.4062L81.3438 73.5469ZM75.4062 77.8594V77.6953C75.4062 77.0391 75.4792 76.4479 75.625 75.9219C75.776 75.3906 75.9922 74.9375 76.2734 74.5625C76.5547 74.1823 76.8958 73.8932 77.2969 73.6953C77.7031 73.4922 78.1615 73.3906 78.6719 73.3906C79.1615 73.3906 79.5964 73.4714 79.9766 73.6328C80.3568 73.7943 80.6849 74.026 80.9609 74.3281C81.237 74.6302 81.4583 74.9896 81.625 75.4062C81.7969 75.8229 81.9219 76.2865 82 76.7969V78.8828C81.9375 79.362 81.8229 79.8021 81.6562 80.2031C81.4896 80.599 81.2682 80.9453 80.9922 81.2422C80.7161 81.5339 80.3828 81.7604 79.9922 81.9219C79.6068 82.0781 79.1615 82.1562 78.6562 82.1562C78.151 82.1562 77.6979 82.0521 77.2969 81.8438C76.8958 81.6354 76.5547 81.3411 76.2734 80.9609C75.9922 80.5755 75.776 80.1198 75.625 79.5938C75.4792 79.0677 75.4062 78.4896 75.4062 77.8594ZM76.3438 77.6953V77.8594C76.3438 78.3542 76.3932 78.8125 76.4922 79.2344C76.5911 79.6562 76.7422 80.0234 76.9453 80.3359C77.1484 80.6484 77.4062 80.8932 77.7188 81.0703C78.0312 81.2474 78.3984 81.3359 78.8203 81.3359C79.3568 81.3359 79.8073 81.2344 80.1719 81.0312C80.5365 80.8229 80.8255 80.5495 81.0391 80.2109C81.2526 79.8672 81.4089 79.4922 81.5078 79.0859V76.6562C81.4505 76.3802 81.362 76.099 81.2422 75.8125C81.1276 75.526 80.9661 75.263 80.7578 75.0234C80.5547 74.7786 80.2943 74.5833 79.9766 74.4375C79.6641 74.2865 79.2839 74.2109 78.8359 74.2109C78.4089 74.2109 78.0365 74.2995 77.7188 74.4766C77.4062 74.6536 77.1484 74.901 76.9453 75.2188C76.7422 75.5312 76.5911 75.8984 76.4922 76.3203C76.3932 76.7422 76.3438 77.2005 76.3438 77.6953Z" fill="black"/>
<path d="M146.539 21H147.477V31.3594L147.414 33H146.539V21ZM153.359 28.6953V28.8594C153.359 29.4896 153.286 30.0677 153.141 30.5938C152.995 31.1198 152.784 31.5755 152.508 31.9609C152.232 32.3411 151.893 32.6354 151.492 32.8438C151.096 33.0521 150.641 33.1562 150.125 33.1562C149.62 33.1562 149.172 33.0781 148.781 32.9219C148.391 32.7604 148.057 32.5339 147.781 32.2422C147.505 31.9453 147.284 31.599 147.117 31.2031C146.951 30.8021 146.833 30.362 146.766 29.8828V27.7969C146.844 27.2865 146.969 26.8229 147.141 26.4062C147.312 25.9896 147.534 25.6302 147.805 25.3281C148.081 25.026 148.409 24.7943 148.789 24.6328C149.174 24.4714 149.615 24.3906 150.109 24.3906C150.625 24.3906 151.083 24.4922 151.484 24.6953C151.891 24.8932 152.232 25.1823 152.508 25.5625C152.784 25.9375 152.995 26.3906 153.141 26.9219C153.286 27.4479 153.359 28.0391 153.359 28.6953ZM152.414 28.8594V28.6953C152.414 28.2005 152.367 27.7422 152.273 27.3203C152.18 26.8984 152.031 26.5312 151.828 26.2188C151.63 25.901 151.375 25.6536 151.062 25.4766C150.75 25.2995 150.375 25.2109 149.938 25.2109C149.49 25.2109 149.107 25.2865 148.789 25.4375C148.477 25.5833 148.216 25.7786 148.008 26.0234C147.805 26.263 147.643 26.526 147.523 26.8125C147.404 27.099 147.315 27.3802 147.258 27.6562V30.0859C147.346 30.4766 147.5 30.8438 147.719 31.1875C147.938 31.5312 148.232 31.8099 148.602 32.0234C148.971 32.2318 149.422 32.3359 149.953 32.3359C150.38 32.3359 150.747 32.2474 151.055 32.0703C151.367 31.8932 151.622 31.6484 151.82 31.3359C152.023 31.0234 152.172 30.6562 152.266 30.2344C152.365 29.8125 152.414 29.3542 152.414 28.8594ZM156.469 24.5469V33H155.539V24.5469H156.469ZM155.375 22.1016C155.375 21.9245 155.43 21.776 155.539 21.6562C155.654 21.5312 155.81 21.4688 156.008 21.4688C156.206 21.4688 156.362 21.5312 156.477 21.6562C156.596 21.776 156.656 21.9245 156.656 22.1016C156.656 22.2734 156.596 22.4219 156.477 22.5469C156.362 22.6667 156.206 22.7266 156.008 22.7266C155.81 22.7266 155.654 22.6667 155.539 22.5469C155.43 22.4219 155.375 22.2734 155.375 22.1016ZM162.141 32.3516C162.536 32.3516 162.906 32.2786 163.25 32.1328C163.599 31.9818 163.885 31.7604 164.109 31.4688C164.339 31.1719 164.469 30.8099 164.5 30.3828H165.391C165.365 30.9193 165.201 31.3984 164.898 31.8203C164.602 32.237 164.211 32.5651 163.727 32.8047C163.247 33.0391 162.719 33.1562 162.141 33.1562C161.552 33.1562 161.031 33.0495 160.578 32.8359C160.13 32.6224 159.755 32.3255 159.453 31.9453C159.151 31.5599 158.922 31.112 158.766 30.6016C158.615 30.0859 158.539 29.5312 158.539 28.9375V28.6094C158.539 28.0156 158.615 27.4635 158.766 26.9531C158.922 26.4375 159.151 25.9896 159.453 25.6094C159.755 25.224 160.13 24.9245 160.578 24.7109C161.026 24.4974 161.544 24.3906 162.133 24.3906C162.737 24.3906 163.279 24.513 163.758 24.7578C164.242 25.0026 164.628 25.349 164.914 25.7969C165.206 26.2448 165.365 26.776 165.391 27.3906H164.5C164.474 26.9375 164.354 26.5469 164.141 26.2188C163.927 25.8906 163.646 25.638 163.297 25.4609C162.948 25.2839 162.56 25.1953 162.133 25.1953C161.654 25.1953 161.245 25.2891 160.906 25.4766C160.568 25.6589 160.292 25.9115 160.078 26.2344C159.87 26.5521 159.716 26.9167 159.617 27.3281C159.518 27.7344 159.469 28.1615 159.469 28.6094V28.9375C159.469 29.3906 159.516 29.8229 159.609 30.2344C159.708 30.6406 159.862 31.0026 160.07 31.3203C160.284 31.638 160.56 31.8906 160.898 32.0781C161.242 32.2604 161.656 32.3516 162.141 32.3516ZM169.781 32.1562L172.414 24.5469H173.422L169.844 34.3594C169.771 34.5521 169.677 34.7656 169.562 35C169.453 35.2344 169.307 35.4583 169.125 35.6719C168.948 35.8906 168.724 36.0677 168.453 36.2031C168.188 36.3438 167.862 36.4141 167.477 36.4141C167.378 36.4141 167.25 36.401 167.094 36.375C166.943 36.3542 166.833 36.3333 166.766 36.3125L166.758 35.5234C166.815 35.5391 166.898 35.5521 167.008 35.5625C167.117 35.5729 167.193 35.5781 167.234 35.5781C167.573 35.5781 167.857 35.5208 168.086 35.4062C168.32 35.2917 168.516 35.1198 168.672 34.8906C168.828 34.6667 168.966 34.3854 169.086 34.0469L169.781 32.1562ZM167.32 24.5469L170.016 31.8047L170.266 32.7812L169.586 33.1641L166.305 24.5469H167.32ZM177.891 32.3516C178.286 32.3516 178.656 32.2786 179 32.1328C179.349 31.9818 179.635 31.7604 179.859 31.4688C180.089 31.1719 180.219 30.8099 180.25 30.3828H181.141C181.115 30.9193 180.951 31.3984 180.648 31.8203C180.352 32.237 179.961 32.5651 179.477 32.8047C178.997 33.0391 178.469 33.1562 177.891 33.1562C177.302 33.1562 176.781 33.0495 176.328 32.8359C175.88 32.6224 175.505 32.3255 175.203 31.9453C174.901 31.5599 174.672 31.112 174.516 30.6016C174.365 30.0859 174.289 29.5312 174.289 28.9375V28.6094C174.289 28.0156 174.365 27.4635 174.516 26.9531C174.672 26.4375 174.901 25.9896 175.203 25.6094C175.505 25.224 175.88 24.9245 176.328 24.7109C176.776 24.4974 177.294 24.3906 177.883 24.3906C178.487 24.3906 179.029 24.513 179.508 24.7578C179.992 25.0026 180.378 25.349 180.664 25.7969C180.956 26.2448 181.115 26.776 181.141 27.3906H180.25C180.224 26.9375 180.104 26.5469 179.891 26.2188C179.677 25.8906 179.396 25.638 179.047 25.4609C178.698 25.2839 178.31 25.1953 177.883 25.1953C177.404 25.1953 176.995 25.2891 176.656 25.4766C176.318 25.6589 176.042 25.9115 175.828 26.2344C175.62 26.5521 175.466 26.9167 175.367 27.3281C175.268 27.7344 175.219 28.1615 175.219 28.6094V28.9375C175.219 29.3906 175.266 29.8229 175.359 30.2344C175.458 30.6406 175.612 31.0026 175.82 31.3203C176.034 31.638 176.31 31.8906 176.648 32.0781C176.992 32.2604 177.406 32.3516 177.891 32.3516ZM184.062 21V33H183.133V21H184.062ZM189.883 33.1562C189.331 33.1562 188.823 33.0547 188.359 32.8516C187.901 32.6484 187.5 32.362 187.156 31.9922C186.818 31.6224 186.555 31.1849 186.367 30.6797C186.185 30.1693 186.094 29.612 186.094 29.0078V28.6719C186.094 28.0208 186.19 27.4323 186.383 26.9062C186.576 26.3802 186.841 25.9297 187.18 25.5547C187.518 25.1797 187.904 24.8932 188.336 24.6953C188.773 24.4922 189.232 24.3906 189.711 24.3906C190.247 24.3906 190.724 24.487 191.141 24.6797C191.557 24.8672 191.906 25.1354 192.188 25.4844C192.474 25.8281 192.69 26.237 192.836 26.7109C192.982 27.1797 193.055 27.6979 193.055 28.2656V28.8359H186.656V28.0391H192.125V27.9297C192.115 27.4557 192.018 27.013 191.836 26.6016C191.659 26.1849 191.393 25.8464 191.039 25.5859C190.685 25.3255 190.242 25.1953 189.711 25.1953C189.315 25.1953 188.951 25.2786 188.617 25.4453C188.289 25.612 188.005 25.8516 187.766 26.1641C187.531 26.4714 187.349 26.8385 187.219 27.2656C187.094 27.6875 187.031 28.1562 187.031 28.6719V29.0078C187.031 29.4766 187.099 29.9141 187.234 30.3203C187.375 30.7214 187.573 31.0755 187.828 31.3828C188.089 31.6901 188.396 31.9297 188.75 32.1016C189.104 32.2734 189.495 32.3594 189.922 32.3594C190.422 32.3594 190.865 32.2682 191.25 32.0859C191.635 31.8984 191.982 31.6042 192.289 31.2031L192.875 31.6562C192.693 31.9271 192.464 32.1771 192.188 32.4062C191.917 32.6354 191.591 32.8177 191.211 32.9531C190.831 33.0885 190.388 33.1562 189.883 33.1562Z" fill="black"/>
<path d="M153.947 2.46875V11H152.195V2.46875H153.947ZM156.572 2.46875V3.8457H149.611V2.46875H156.572ZM156.18 7.89453V7.77148C156.18 7.30664 156.246 6.87891 156.379 6.48828C156.512 6.09375 156.705 5.75195 156.959 5.46289C157.213 5.17383 157.525 4.94922 157.896 4.78906C158.268 4.625 158.693 4.54297 159.174 4.54297C159.654 4.54297 160.082 4.625 160.457 4.78906C160.832 4.94922 161.146 5.17383 161.4 5.46289C161.658 5.75195 161.854 6.09375 161.986 6.48828C162.119 6.87891 162.186 7.30664 162.186 7.77148V7.89453C162.186 8.35547 162.119 8.7832 161.986 9.17773C161.854 9.56836 161.658 9.91016 161.4 10.2031C161.146 10.4922 160.834 10.7168 160.463 10.877C160.092 11.0371 159.666 11.1172 159.186 11.1172C158.705 11.1172 158.277 11.0371 157.902 10.877C157.531 10.7168 157.217 10.4922 156.959 10.2031C156.705 9.91016 156.512 9.56836 156.379 9.17773C156.246 8.7832 156.18 8.35547 156.18 7.89453ZM157.867 7.77148V7.89453C157.867 8.16016 157.891 8.4082 157.938 8.63867C157.984 8.86914 158.059 9.07227 158.16 9.24805C158.266 9.41992 158.402 9.55469 158.57 9.65234C158.738 9.75 158.943 9.79883 159.186 9.79883C159.42 9.79883 159.621 9.75 159.789 9.65234C159.957 9.55469 160.092 9.41992 160.193 9.24805C160.295 9.07227 160.369 8.86914 160.416 8.63867C160.467 8.4082 160.492 8.16016 160.492 7.89453V7.77148C160.492 7.51367 160.467 7.27148 160.416 7.04492C160.369 6.81445 160.293 6.61133 160.188 6.43555C160.086 6.25586 159.951 6.11523 159.783 6.01367C159.615 5.91211 159.412 5.86133 159.174 5.86133C158.936 5.86133 158.732 5.91211 158.564 6.01367C158.4 6.11523 158.266 6.25586 158.16 6.43555C158.059 6.61133 157.984 6.81445 157.938 7.04492C157.891 7.27148 157.867 7.51367 157.867 7.77148ZM164.91 5.87891V13.4375H163.223V4.66016H164.787L164.91 5.87891ZM168.924 7.75977V7.88281C168.924 8.34375 168.869 8.77148 168.76 9.16602C168.654 9.56055 168.498 9.9043 168.291 10.1973C168.084 10.4863 167.826 10.7129 167.518 10.877C167.213 11.0371 166.861 11.1172 166.463 11.1172C166.076 11.1172 165.74 11.0391 165.455 10.8828C165.17 10.7266 164.93 10.5078 164.734 10.2266C164.543 9.94141 164.389 9.61133 164.271 9.23633C164.154 8.86133 164.064 8.45898 164.002 8.0293V7.70703C164.064 7.24609 164.154 6.82422 164.271 6.44141C164.389 6.05469 164.543 5.7207 164.734 5.43945C164.93 5.1543 165.168 4.93359 165.449 4.77734C165.734 4.62109 166.068 4.54297 166.451 4.54297C166.854 4.54297 167.207 4.61914 167.512 4.77148C167.82 4.92383 168.078 5.14258 168.285 5.42773C168.496 5.71289 168.654 6.05273 168.76 6.44727C168.869 6.8418 168.924 7.2793 168.924 7.75977ZM167.23 7.88281V7.75977C167.23 7.49023 167.207 7.24219 167.16 7.01562C167.117 6.78516 167.047 6.58398 166.949 6.41211C166.855 6.24023 166.73 6.10742 166.574 6.01367C166.422 5.91602 166.236 5.86719 166.018 5.86719C165.787 5.86719 165.59 5.9043 165.426 5.97852C165.266 6.05273 165.135 6.16016 165.033 6.30078C164.932 6.44141 164.855 6.60938 164.805 6.80469C164.754 7 164.723 7.2207 164.711 7.4668V8.28125C164.73 8.57031 164.785 8.83008 164.875 9.06055C164.965 9.28711 165.104 9.4668 165.291 9.59961C165.479 9.73242 165.725 9.79883 166.029 9.79883C166.252 9.79883 166.439 9.75 166.592 9.65234C166.744 9.55078 166.867 9.41211 166.961 9.23633C167.059 9.06055 167.127 8.85742 167.166 8.62695C167.209 8.39648 167.23 8.14844 167.23 7.88281ZM171.754 4.66016V11H170.061V4.66016H171.754ZM169.955 3.00781C169.955 2.76172 170.041 2.55859 170.213 2.39844C170.385 2.23828 170.615 2.1582 170.904 2.1582C171.189 2.1582 171.418 2.23828 171.59 2.39844C171.766 2.55859 171.854 2.76172 171.854 3.00781C171.854 3.25391 171.766 3.45703 171.59 3.61719C171.418 3.77734 171.189 3.85742 170.904 3.85742C170.615 3.85742 170.385 3.77734 170.213 3.61719C170.041 3.45703 169.955 3.25391 169.955 3.00781ZM175.768 9.79883C175.975 9.79883 176.158 9.75977 176.318 9.68164C176.479 9.59961 176.604 9.48633 176.693 9.3418C176.787 9.19336 176.836 9.01953 176.84 8.82031H178.428C178.424 9.26562 178.305 9.66211 178.07 10.0098C177.836 10.3535 177.521 10.625 177.127 10.8242C176.732 11.0195 176.291 11.1172 175.803 11.1172C175.311 11.1172 174.881 11.0352 174.514 10.8711C174.15 10.707 173.848 10.4805 173.605 10.1914C173.363 9.89844 173.182 9.55859 173.061 9.17188C172.939 8.78125 172.879 8.36328 172.879 7.91797V7.74805C172.879 7.29883 172.939 6.88086 173.061 6.49414C173.182 6.10352 173.363 5.76367 173.605 5.47461C173.848 5.18164 174.15 4.95312 174.514 4.78906C174.877 4.625 175.303 4.54297 175.791 4.54297C176.311 4.54297 176.766 4.64258 177.156 4.8418C177.551 5.04102 177.859 5.32617 178.082 5.69727C178.309 6.06445 178.424 6.5 178.428 7.00391H176.84C176.836 6.79297 176.791 6.60156 176.705 6.42969C176.623 6.25781 176.502 6.12109 176.342 6.01953C176.186 5.91406 175.992 5.86133 175.762 5.86133C175.516 5.86133 175.314 5.91406 175.158 6.01953C175.002 6.12109 174.881 6.26172 174.795 6.44141C174.709 6.61719 174.648 6.81836 174.613 7.04492C174.582 7.26758 174.566 7.50195 174.566 7.74805V7.91797C174.566 8.16406 174.582 8.40039 174.613 8.62695C174.645 8.85352 174.703 9.05469 174.789 9.23047C174.879 9.40625 175.002 9.54492 175.158 9.64648C175.314 9.74805 175.518 9.79883 175.768 9.79883ZM186.438 2.45117V11H184.75V4.39648L182.723 5.04102V3.71094L186.256 2.45117H186.438Z" fill="black"/>
<path d="M147.984 52.1719V62.25H147.047V50.5469H147.922L147.984 52.1719ZM153.859 54.6953V54.8594C153.859 55.4896 153.786 56.0677 153.641 56.5938C153.495 57.1198 153.284 57.5755 153.008 57.9609C152.737 58.3411 152.401 58.6354 152 58.8438C151.599 59.0521 151.143 59.1562 150.633 59.1562C150.128 59.1562 149.677 59.0781 149.281 58.9219C148.885 58.7656 148.544 58.5443 148.258 58.2578C147.977 57.9661 147.75 57.6276 147.578 57.2422C147.411 56.8516 147.294 56.4245 147.227 55.9609V53.7969C147.305 53.2865 147.432 52.8229 147.609 52.4062C147.786 51.9896 148.013 51.6302 148.289 51.3281C148.57 51.026 148.904 50.7943 149.289 50.6328C149.674 50.4714 150.115 50.3906 150.609 50.3906C151.125 50.3906 151.583 50.4922 151.984 50.6953C152.391 50.8932 152.732 51.1823 153.008 51.5625C153.289 51.9375 153.5 52.3906 153.641 52.9219C153.786 53.4479 153.859 54.0391 153.859 54.6953ZM152.922 54.8594V54.6953C152.922 54.2005 152.87 53.7422 152.766 53.3203C152.667 52.8984 152.513 52.5312 152.305 52.2188C152.102 51.901 151.841 51.6536 151.523 51.4766C151.211 51.2995 150.839 51.2109 150.406 51.2109C149.958 51.2109 149.576 51.2865 149.258 51.4375C148.945 51.5833 148.685 51.7786 148.477 52.0234C148.268 52.263 148.104 52.526 147.984 52.8125C147.865 53.099 147.776 53.3802 147.719 53.6562V56.1484C147.818 56.5443 147.977 56.9115 148.195 57.25C148.414 57.5833 148.706 57.8516 149.07 58.0547C149.44 58.2526 149.891 58.3516 150.422 58.3516C150.849 58.3516 151.219 58.263 151.531 58.0859C151.844 57.9089 152.102 57.6615 152.305 57.3438C152.513 57.026 152.667 56.6562 152.766 56.2344C152.87 55.8125 152.922 55.3542 152.922 54.8594ZM159.203 59.1562C158.651 59.1562 158.143 59.0547 157.68 58.8516C157.221 58.6484 156.82 58.362 156.477 57.9922C156.138 57.6224 155.875 57.1849 155.688 56.6797C155.505 56.1693 155.414 55.612 155.414 55.0078V54.6719C155.414 54.0208 155.51 53.4323 155.703 52.9062C155.896 52.3802 156.161 51.9297 156.5 51.5547C156.839 51.1797 157.224 50.8932 157.656 50.6953C158.094 50.4922 158.552 50.3906 159.031 50.3906C159.568 50.3906 160.044 50.487 160.461 50.6797C160.878 50.8672 161.227 51.1354 161.508 51.4844C161.794 51.8281 162.01 52.237 162.156 52.7109C162.302 53.1797 162.375 53.6979 162.375 54.2656V54.8359H155.977V54.0391H161.445V53.9297C161.435 53.4557 161.339 53.013 161.156 52.6016C160.979 52.1849 160.714 51.8464 160.359 51.5859C160.005 51.3255 159.562 51.1953 159.031 51.1953C158.635 51.1953 158.271 51.2786 157.938 51.4453C157.609 51.612 157.326 51.8516 157.086 52.1641C156.852 52.4714 156.669 52.8385 156.539 53.2656C156.414 53.6875 156.352 54.1562 156.352 54.6719V55.0078C156.352 55.4766 156.419 55.9141 156.555 56.3203C156.695 56.7214 156.893 57.0755 157.148 57.3828C157.409 57.6901 157.716 57.9297 158.07 58.1016C158.424 58.2734 158.815 58.3594 159.242 58.3594C159.742 58.3594 160.185 58.2682 160.57 58.0859C160.956 57.8984 161.302 57.6042 161.609 57.2031L162.195 57.6562C162.013 57.9271 161.784 58.1771 161.508 58.4062C161.237 58.6354 160.911 58.8177 160.531 58.9531C160.151 59.0885 159.708 59.1562 159.203 59.1562ZM169.711 57.3594V47H170.648V59H169.773L169.711 57.3594ZM163.844 54.8594V54.6953C163.844 54.0391 163.919 53.4479 164.07 52.9219C164.221 52.3906 164.438 51.9375 164.719 51.5625C165.005 51.1823 165.349 50.8932 165.75 50.6953C166.151 50.4922 166.604 50.3906 167.109 50.3906C167.604 50.3906 168.042 50.4714 168.422 50.6328C168.802 50.7943 169.128 51.026 169.398 51.3281C169.674 51.6302 169.896 51.9896 170.062 52.4062C170.234 52.8229 170.359 53.2865 170.438 53.7969V55.8828C170.375 56.362 170.26 56.8021 170.094 57.2031C169.927 57.599 169.706 57.9453 169.43 58.2422C169.154 58.5339 168.82 58.7604 168.43 58.9219C168.044 59.0781 167.599 59.1562 167.094 59.1562C166.594 59.1562 166.143 59.0521 165.742 58.8438C165.341 58.6354 165 58.3411 164.719 57.9609C164.438 57.5755 164.221 57.1198 164.07 56.5938C163.919 56.0677 163.844 55.4896 163.844 54.8594ZM164.781 54.6953V54.8594C164.781 55.3542 164.831 55.8125 164.93 56.2344C165.029 56.6562 165.18 57.0234 165.383 57.3359C165.586 57.6484 165.844 57.8932 166.156 58.0703C166.469 58.2474 166.839 58.3359 167.266 58.3359C167.802 58.3359 168.253 58.2344 168.617 58.0312C168.982 57.8229 169.273 57.5495 169.492 57.2109C169.711 56.8672 169.87 56.4922 169.969 56.0859V53.6562C169.906 53.3802 169.815 53.099 169.695 52.8125C169.576 52.526 169.411 52.263 169.203 52.0234C169 51.7786 168.74 51.5833 168.422 51.4375C168.109 51.2865 167.729 51.2109 167.281 51.2109C166.849 51.2109 166.477 51.2995 166.164 51.4766C165.852 51.6536 165.591 51.901 165.383 52.2188C165.18 52.5312 165.029 52.8984 164.93 53.3203C164.831 53.7422 164.781 54.2005 164.781 54.6953ZM178.25 57.4844V53.125C178.25 52.724 178.167 52.3776 178 52.0859C177.833 51.7943 177.589 51.5703 177.266 51.4141C176.943 51.2578 176.544 51.1797 176.07 51.1797C175.633 51.1797 175.242 51.2578 174.898 51.4141C174.56 51.5651 174.292 51.7708 174.094 52.0312C173.901 52.2865 173.805 52.5703 173.805 52.8828L172.867 52.875C172.867 52.5573 172.945 52.25 173.102 51.9531C173.258 51.6562 173.479 51.3906 173.766 51.1562C174.052 50.9219 174.393 50.737 174.789 50.6016C175.19 50.4609 175.63 50.3906 176.109 50.3906C176.714 50.3906 177.245 50.4922 177.703 50.6953C178.167 50.8984 178.529 51.2031 178.789 51.6094C179.049 52.0156 179.18 52.526 179.18 53.1406V57.2266C179.18 57.5182 179.201 57.8203 179.242 58.1328C179.289 58.4453 179.354 58.7031 179.438 58.9062V59H178.445C178.383 58.8125 178.333 58.5781 178.297 58.2969C178.266 58.0104 178.25 57.7396 178.25 57.4844ZM178.469 54.0781L178.484 54.7969H176.648C176.169 54.7969 175.74 54.8411 175.359 54.9297C174.984 55.013 174.667 55.138 174.406 55.3047C174.146 55.4661 173.945 55.6615 173.805 55.8906C173.669 56.1198 173.602 56.3802 173.602 56.6719C173.602 56.974 173.677 57.25 173.828 57.5C173.984 57.75 174.203 57.9505 174.484 58.1016C174.771 58.2474 175.109 58.3203 175.5 58.3203C176.021 58.3203 176.479 58.224 176.875 58.0312C177.276 57.8385 177.607 57.5859 177.867 57.2734C178.128 56.9609 178.302 56.6198 178.391 56.25L178.797 56.7891C178.729 57.0495 178.604 57.3177 178.422 57.5938C178.245 57.8646 178.013 58.1198 177.727 58.3594C177.44 58.5938 177.102 58.7865 176.711 58.9375C176.326 59.0833 175.888 59.1562 175.398 59.1562C174.846 59.1562 174.365 59.0521 173.953 58.8438C173.547 58.6354 173.229 58.3516 173 57.9922C172.776 57.6276 172.664 57.2161 172.664 56.7578C172.664 56.3411 172.753 55.9688 172.93 55.6406C173.107 55.3073 173.362 55.026 173.695 54.7969C174.034 54.5625 174.44 54.3854 174.914 54.2656C175.393 54.1406 175.93 54.0781 176.523 54.0781H178.469ZM182.727 47V59H181.797V47H182.727ZM190.344 56.8438C190.344 56.6146 190.286 56.388 190.172 56.1641C190.057 55.9401 189.836 55.7344 189.508 55.5469C189.185 55.3594 188.708 55.2005 188.078 55.0703C187.609 54.9661 187.19 54.849 186.82 54.7188C186.456 54.5885 186.148 54.4323 185.898 54.25C185.648 54.0677 185.458 53.849 185.328 53.5938C185.198 53.3385 185.133 53.0365 185.133 52.6875C185.133 52.375 185.201 52.0807 185.336 51.8047C185.477 51.5234 185.674 51.2786 185.93 51.0703C186.19 50.8568 186.503 50.6901 186.867 50.5703C187.237 50.4505 187.651 50.3906 188.109 50.3906C188.76 50.3906 189.318 50.5026 189.781 50.7266C190.25 50.9453 190.607 51.2448 190.852 51.625C191.102 52.0052 191.227 52.4349 191.227 52.9141H190.297C190.297 52.6224 190.211 52.3464 190.039 52.0859C189.872 51.8255 189.625 51.612 189.297 51.4453C188.974 51.2786 188.578 51.1953 188.109 51.1953C187.625 51.1953 187.232 51.2682 186.93 51.4141C186.628 51.5599 186.406 51.7448 186.266 51.9688C186.13 52.1927 186.062 52.4245 186.062 52.6641C186.062 52.8516 186.091 53.0234 186.148 53.1797C186.211 53.3307 186.32 53.4714 186.477 53.6016C186.638 53.7318 186.867 53.8542 187.164 53.9688C187.461 54.0833 187.846 54.1953 188.32 54.3047C189.003 54.4557 189.56 54.6406 189.992 54.8594C190.43 55.0729 190.753 55.3385 190.961 55.6562C191.169 55.9688 191.273 56.349 191.273 56.7969C191.273 57.1458 191.201 57.4661 191.055 57.7578C190.909 58.0443 190.698 58.2917 190.422 58.5C190.151 58.7083 189.823 58.8698 189.438 58.9844C189.057 59.099 188.63 59.1562 188.156 59.1562C187.443 59.1562 186.839 59.0391 186.344 58.8047C185.854 58.5651 185.482 58.2526 185.227 57.8672C184.977 57.4766 184.852 57.0625 184.852 56.625H185.781C185.812 57.0625 185.951 57.4089 186.195 57.6641C186.44 57.9141 186.74 58.0911 187.094 58.1953C187.453 58.2995 187.807 58.3516 188.156 58.3516C188.635 58.3516 189.036 58.2812 189.359 58.1406C189.682 58 189.927 57.8151 190.094 57.5859C190.26 57.3568 190.344 57.1094 190.344 56.8438Z" fill="black"/>
<path d="M150.289 81.3516C150.685 81.3516 151.055 81.2786 151.398 81.1328C151.747 80.9818 152.034 80.7604 152.258 80.4688C152.487 80.1719 152.617 79.8099 152.648 79.3828H153.539C153.513 79.9193 153.349 80.3984 153.047 80.8203C152.75 81.237 152.359 81.5651 151.875 81.8047C151.396 82.0391 150.867 82.1562 150.289 82.1562C149.701 82.1562 149.18 82.0495 148.727 81.8359C148.279 81.6224 147.904 81.3255 147.602 80.9453C147.299 80.5599 147.07 80.112 146.914 79.6016C146.763 79.0859 146.688 78.5312 146.688 77.9375V77.6094C146.688 77.0156 146.763 76.4635 146.914 75.9531C147.07 75.4375 147.299 74.9896 147.602 74.6094C147.904 74.224 148.279 73.9245 148.727 73.7109C149.174 73.4974 149.693 73.3906 150.281 73.3906C150.885 73.3906 151.427 73.513 151.906 73.7578C152.391 74.0026 152.776 74.349 153.062 74.7969C153.354 75.2448 153.513 75.776 153.539 76.3906H152.648C152.622 75.9375 152.503 75.5469 152.289 75.2188C152.076 74.8906 151.794 74.638 151.445 74.4609C151.096 74.2839 150.708 74.1953 150.281 74.1953C149.802 74.1953 149.393 74.2891 149.055 74.4766C148.716 74.6589 148.44 74.9115 148.227 75.2344C148.018 75.5521 147.865 75.9167 147.766 76.3281C147.667 76.7344 147.617 77.1615 147.617 77.6094V77.9375C147.617 78.3906 147.664 78.8229 147.758 79.2344C147.857 79.6406 148.01 80.0026 148.219 80.3203C148.432 80.638 148.708 80.8906 149.047 81.0781C149.391 81.2604 149.805 81.3516 150.289 81.3516ZM156.352 70V82H155.422V70H156.352ZM156.141 77.25L155.727 77.0156C155.758 76.5156 155.859 76.0469 156.031 75.6094C156.203 75.1719 156.435 74.7865 156.727 74.4531C157.023 74.1198 157.37 73.8594 157.766 73.6719C158.167 73.4844 158.609 73.3906 159.094 73.3906C159.516 73.3906 159.893 73.4479 160.227 73.5625C160.56 73.6771 160.844 73.8594 161.078 74.1094C161.312 74.3594 161.49 74.6797 161.609 75.0703C161.734 75.4609 161.797 75.9375 161.797 76.5V82H160.859V76.4922C160.859 75.9089 160.779 75.4531 160.617 75.125C160.456 74.7917 160.227 74.5547 159.93 74.4141C159.633 74.2734 159.281 74.2031 158.875 74.2031C158.427 74.2031 158.034 74.3021 157.695 74.5C157.362 74.6927 157.081 74.9453 156.852 75.2578C156.628 75.5651 156.456 75.8958 156.336 76.25C156.216 76.599 156.151 76.9323 156.141 77.25ZM169.344 80.4844V76.125C169.344 75.724 169.26 75.3776 169.094 75.0859C168.927 74.7943 168.682 74.5703 168.359 74.4141C168.036 74.2578 167.638 74.1797 167.164 74.1797C166.727 74.1797 166.336 74.2578 165.992 74.4141C165.654 74.5651 165.385 74.7708 165.188 75.0312C164.995 75.2865 164.898 75.5703 164.898 75.8828L163.961 75.875C163.961 75.5573 164.039 75.25 164.195 74.9531C164.352 74.6562 164.573 74.3906 164.859 74.1562C165.146 73.9219 165.487 73.737 165.883 73.6016C166.284 73.4609 166.724 73.3906 167.203 73.3906C167.807 73.3906 168.339 73.4922 168.797 73.6953C169.26 73.8984 169.622 74.2031 169.883 74.6094C170.143 75.0156 170.273 75.526 170.273 76.1406V80.2266C170.273 80.5182 170.294 80.8203 170.336 81.1328C170.383 81.4453 170.448 81.7031 170.531 81.9062V82H169.539C169.477 81.8125 169.427 81.5781 169.391 81.2969C169.359 81.0104 169.344 80.7396 169.344 80.4844ZM169.562 77.0781L169.578 77.7969H167.742C167.263 77.7969 166.833 77.8411 166.453 77.9297C166.078 78.013 165.76 78.138 165.5 78.3047C165.24 78.4661 165.039 78.6615 164.898 78.8906C164.763 79.1198 164.695 79.3802 164.695 79.6719C164.695 79.974 164.771 80.25 164.922 80.5C165.078 80.75 165.297 80.9505 165.578 81.1016C165.865 81.2474 166.203 81.3203 166.594 81.3203C167.115 81.3203 167.573 81.224 167.969 81.0312C168.37 80.8385 168.701 80.5859 168.961 80.2734C169.221 79.9609 169.396 79.6198 169.484 79.25L169.891 79.7891C169.823 80.0495 169.698 80.3177 169.516 80.5938C169.339 80.8646 169.107 81.1198 168.82 81.3594C168.534 81.5938 168.195 81.7865 167.805 81.9375C167.419 82.0833 166.982 82.1562 166.492 82.1562C165.94 82.1562 165.458 82.0521 165.047 81.8438C164.641 81.6354 164.323 81.3516 164.094 80.9922C163.87 80.6276 163.758 80.2161 163.758 79.7578C163.758 79.3411 163.846 78.9688 164.023 78.6406C164.201 78.3073 164.456 78.026 164.789 77.7969C165.128 77.5625 165.534 77.3854 166.008 77.2656C166.487 77.1406 167.023 77.0781 167.617 77.0781H169.562ZM173.82 73.5469V82H172.891V73.5469H173.82ZM172.727 71.1016C172.727 70.9245 172.781 70.776 172.891 70.6562C173.005 70.5312 173.161 70.4688 173.359 70.4688C173.557 70.4688 173.714 70.5312 173.828 70.6562C173.948 70.776 174.008 70.9245 174.008 71.1016C174.008 71.2734 173.948 71.4219 173.828 71.5469C173.714 71.6667 173.557 71.7266 173.359 71.7266C173.161 71.7266 173.005 71.6667 172.891 71.5469C172.781 71.4219 172.727 71.2734 172.727 71.1016ZM177.305 75.3516V82H176.375V73.5469H177.266L177.305 75.3516ZM177.094 77.25L176.68 77.0156C176.711 76.5156 176.812 76.0469 176.984 75.6094C177.156 75.1719 177.388 74.7865 177.68 74.4531C177.977 74.1198 178.323 73.8594 178.719 73.6719C179.12 73.4844 179.562 73.3906 180.047 73.3906C180.469 73.3906 180.846 73.4479 181.18 73.5625C181.513 73.6771 181.797 73.8594 182.031 74.1094C182.266 74.3594 182.443 74.6797 182.562 75.0703C182.688 75.4609 182.75 75.9375 182.75 76.5V82H181.812V76.4922C181.812 75.9089 181.732 75.4531 181.57 75.125C181.409 74.7917 181.18 74.5547 180.883 74.4141C180.586 74.2734 180.234 74.2031 179.828 74.2031C179.38 74.2031 178.987 74.3021 178.648 74.5C178.315 74.6927 178.034 74.9453 177.805 75.2578C177.581 75.5651 177.409 75.8958 177.289 76.25C177.169 76.599 177.104 76.9323 177.094 77.25ZM190.234 79.8438C190.234 79.6146 190.177 79.388 190.062 79.1641C189.948 78.9401 189.727 78.7344 189.398 78.5469C189.076 78.3594 188.599 78.2005 187.969 78.0703C187.5 77.9661 187.081 77.849 186.711 77.7188C186.346 77.5885 186.039 77.4323 185.789 77.25C185.539 77.0677 185.349 76.849 185.219 76.5938C185.089 76.3385 185.023 76.0365 185.023 75.6875C185.023 75.375 185.091 75.0807 185.227 74.8047C185.367 74.5234 185.565 74.2786 185.82 74.0703C186.081 73.8568 186.393 73.6901 186.758 73.5703C187.128 73.4505 187.542 73.3906 188 73.3906C188.651 73.3906 189.208 73.5026 189.672 73.7266C190.141 73.9453 190.497 74.2448 190.742 74.625C190.992 75.0052 191.117 75.4349 191.117 75.9141H190.188C190.188 75.6224 190.102 75.3464 189.93 75.0859C189.763 74.8255 189.516 74.612 189.188 74.4453C188.865 74.2786 188.469 74.1953 188 74.1953C187.516 74.1953 187.122 74.2682 186.82 74.4141C186.518 74.5599 186.297 74.7448 186.156 74.9688C186.021 75.1927 185.953 75.4245 185.953 75.6641C185.953 75.8516 185.982 76.0234 186.039 76.1797C186.102 76.3307 186.211 76.4714 186.367 76.6016C186.529 76.7318 186.758 76.8542 187.055 76.9688C187.352 77.0833 187.737 77.1953 188.211 77.3047C188.893 77.4557 189.451 77.6406 189.883 77.8594C190.32 78.0729 190.643 78.3385 190.852 78.6562C191.06 78.9688 191.164 79.349 191.164 79.7969C191.164 80.1458 191.091 80.4661 190.945 80.7578C190.799 81.0443 190.589 81.2917 190.312 81.5C190.042 81.7083 189.714 81.8698 189.328 81.9844C188.948 82.099 188.521 82.1562 188.047 82.1562C187.333 82.1562 186.729 82.0391 186.234 81.8047C185.745 81.5651 185.372 81.2526 185.117 80.8672C184.867 80.4766 184.742 80.0625 184.742 79.625H185.672C185.703 80.0625 185.841 80.4089 186.086 80.6641C186.331 80.9141 186.63 81.0911 186.984 81.1953C187.344 81.2995 187.698 81.3516 188.047 81.3516C188.526 81.3516 188.927 81.2812 189.25 81.1406C189.573 81 189.818 80.8151 189.984 80.5859C190.151 80.3568 190.234 80.1094 190.234 79.8438Z" fill="black"/>
<path d="M131.061 48.0607C131.646 47.4749 131.646 46.5251 131.061 45.9393L121.515 36.3934C120.929 35.8076 119.979 35.8076 119.393 36.3934C118.808 36.9792 118.808 37.9289 119.393 38.5147L127.879 47L119.393 55.4853C118.808 56.0711 118.808 57.0208 119.393 57.6066C119.979 58.1924 120.929 58.1924 121.515 57.6066L131.061 48.0607ZM102 48.5H130V45.5H102V48.5Z" fill="black"/>
</svg>
