<svg width="458" height="285" viewBox="0 0 458 285" fill="none" xmlns="http://www.w3.org/2000/svg">
<rect y="244" width="118" height="38" fill="#64B5F6"/>
<rect x="92" y="234" width="20" height="8" fill="#64B5F6"/>
<rect x="64" y="234" width="20" height="8" fill="#64B5F6"/>
<rect x="36" y="234" width="20" height="8" fill="#64B5F6"/>
<rect x="8" y="234" width="20" height="8" fill="#64B5F6"/>
<text fill="white" xml:space="preserve" style="white-space: pre" font-family="Tahoma" font-size="20" font-weight="bold" letter-spacing="0em"><tspan x="27.9355" y="271.939">SpaCy</tspan></text>
<rect x="132" y="244" width="118" height="38" fill="#64B5F6"/>
<rect x="224" y="234" width="20" height="8" fill="#64B5F6"/>
<rect x="196" y="234" width="20" height="8" fill="#64B5F6"/>
<rect x="168" y="234" width="20" height="8" fill="#64B5F6"/>
<rect x="140" y="234" width="20" height="8" fill="#64B5F6"/>
<text fill="white" xml:space="preserve" style="white-space: pre" font-family="Tahoma" font-size="20" font-weight="bold" letter-spacing="0em"><tspan x="158.256" y="271.939">SBERT</tspan></text>
<rect x="327" y="244" width="118" height="38" fill="#64B5F6"/>
<rect x="419" y="234" width="20" height="8" fill="#64B5F6"/>
<rect x="391" y="234" width="20" height="8" fill="#64B5F6"/>
<rect x="363" y="234" width="20" height="8" fill="#64B5F6"/>
<rect x="335" y="234" width="20" height="8" fill="#64B5F6"/>
<text fill="white" xml:space="preserve" style="white-space: pre" font-family="Tahoma" font-size="12" font-weight="bold" letter-spacing="0em"><tspan x="358.623" y="266.764">Transformers</tspan></text>
<circle cx="266.5" cy="262.5" r="5.5" fill="black"/>
<circle cx="285.5" cy="262.5" r="5.5" fill="black"/>
<circle cx="307.5" cy="262.5" r="5.5" fill="black"/>
<path d="M345.944 270.706C342.02 270.706 337.787 268.245 337.787 262.845C337.787 257.445 342.02 254.984 345.944 254.984C348.123 254.984 350.134 255.702 351.625 257.009C353.242 258.444 354.1 260.469 354.1 262.845C354.1 265.222 353.242 267.233 351.625 268.667C350.134 269.975 348.109 270.706 345.944 270.706Z" fill="url(#paint0_radial_22_799)"/>
<path d="M345.944 270.706C342.02 270.706 337.787 268.245 337.787 262.845C337.787 257.445 342.02 254.984 345.944 254.984C348.123 254.984 350.134 255.702 351.625 257.009C353.242 258.444 354.1 260.469 354.1 262.845C354.1 265.222 353.242 267.233 351.625 268.667C350.134 269.975 348.109 270.706 345.944 270.706Z" fill="url(#paint1_linear_22_799)"/>
<path d="M352.678 258.172C353.428 259.382 353.819 260.822 353.819 262.423C353.819 264.8 352.961 266.811 351.344 268.245C349.853 269.553 347.828 270.284 345.663 270.284C343.123 270.284 340.454 269.251 338.887 267.058C340.4 269.542 343.245 270.706 345.944 270.706C348.109 270.706 350.134 269.975 351.625 268.667C353.242 267.233 354.1 265.222 354.1 262.845C354.1 261.054 353.612 259.462 352.678 258.172Z" fill="#EB8F00"/>
<path opacity="0.8" d="M341.177 265.306C342.443 265.306 343.469 264.28 343.469 263.014C343.469 261.748 342.443 260.722 341.177 260.722C339.911 260.722 338.884 261.748 338.884 263.014C338.884 264.28 339.911 265.306 341.177 265.306Z" fill="url(#paint2_radial_22_799)"/>
<path opacity="0.8" d="M350.627 263.534C351.892 263.534 352.919 262.508 352.919 261.242C352.919 259.976 351.892 258.95 350.627 258.95C349.361 258.95 348.334 259.976 348.334 261.242C348.334 262.508 349.361 263.534 350.627 263.534Z" fill="url(#paint3_radial_22_799)"/>
<path d="M350.627 260.947C349.544 261.945 348.109 262.733 346.45 263.113C344.791 263.492 343.159 263.422 341.753 262.986C341.5 262.902 341.317 263.239 341.542 263.408C342.963 264.463 344.861 264.913 346.759 264.463C348.658 264.027 350.177 262.803 350.992 261.228C351.133 260.989 350.823 260.764 350.627 260.947Z" fill="#422B0D"/>
<path d="M343.82 260.638L343.792 260.609C343.778 260.595 343.75 260.581 343.722 260.553C343.694 260.539 343.666 260.511 343.637 260.497C343.609 260.469 343.567 260.441 343.525 260.413C343.483 260.384 343.441 260.356 343.398 260.342C343.356 260.314 343.314 260.3 343.272 260.3C343.23 260.286 343.202 260.286 343.187 260.286H343.159H343.145H343.173L343.103 260.3C343.089 260.3 343.103 260.3 343.103 260.3H343.117C343.131 260.3 343.117 260.3 343.117 260.3H343.103C343.089 260.314 343.061 260.328 343.033 260.342C343.005 260.37 342.962 260.398 342.934 260.427C342.906 260.455 342.878 260.497 342.85 260.539C342.794 260.623 342.752 260.694 342.723 260.75C342.695 260.806 342.667 260.834 342.667 260.834L342.639 260.891C342.498 261.13 342.189 261.228 341.936 261.102C341.767 261.017 341.669 260.863 341.655 260.694V260.539C341.669 260.441 341.683 260.3 341.739 260.131C341.795 259.963 341.894 259.752 342.077 259.555C342.175 259.456 342.287 259.344 342.428 259.273C342.456 259.245 342.498 259.231 342.541 259.217C342.583 259.203 342.611 259.175 342.667 259.161L342.737 259.133C342.766 259.119 342.794 259.119 342.808 259.119L342.878 259.105L342.92 259.091H342.977L343.047 259.077H343.173C343.258 259.077 343.342 259.077 343.427 259.091C343.595 259.119 343.736 259.175 343.862 259.231C344.116 259.358 344.27 259.513 344.397 259.639C344.453 259.709 344.509 259.766 344.537 259.822C344.58 259.878 344.608 259.934 344.636 259.977C344.664 260.019 344.664 260.047 344.678 260.061C344.678 260.075 344.692 260.089 344.692 260.089C344.791 260.342 344.65 260.623 344.369 260.722C344.172 260.792 343.961 260.75 343.82 260.638Z" fill="#422B0D"/>
<path d="M348.644 259.695L348.616 259.667C348.602 259.653 348.573 259.639 348.545 259.611C348.517 259.597 348.489 259.569 348.461 259.555C348.433 259.527 348.391 259.498 348.348 259.47C348.306 259.442 348.264 259.414 348.222 259.4C348.18 259.372 348.138 259.358 348.095 259.358C348.067 259.344 348.039 259.344 348.025 259.344H347.983H348.011L347.941 259.358C347.927 259.358 347.941 259.358 347.941 259.358H347.955C347.969 259.358 347.955 259.358 347.955 259.358H347.941C347.927 259.372 347.898 259.386 347.856 259.4C347.828 259.428 347.8 259.456 347.758 259.484C347.73 259.513 347.702 259.555 347.673 259.597C347.617 259.681 347.575 259.752 347.547 259.808C347.519 259.864 347.491 259.892 347.491 259.892L347.463 259.934C347.322 260.173 347.013 260.272 346.759 260.145C346.591 260.061 346.492 259.906 346.478 259.738C346.478 259.738 346.478 259.681 346.492 259.583C346.506 259.484 346.52 259.344 346.577 259.175C346.633 259.006 346.731 258.795 346.914 258.598C347.013 258.5 347.125 258.388 347.266 258.317C347.294 258.303 347.336 258.275 347.378 258.261C347.42 258.247 347.448 258.219 347.505 258.205L347.589 258.177C347.617 258.163 347.645 258.163 347.659 258.163L347.73 258.148L347.772 258.134H347.828L347.898 258.12H348.025C348.109 258.12 348.194 258.12 348.278 258.134C348.447 258.163 348.588 258.219 348.714 258.275C348.967 258.402 349.122 258.556 349.248 258.683C349.305 258.753 349.361 258.809 349.389 258.866C349.431 258.922 349.459 258.978 349.488 259.02C349.516 259.063 349.516 259.091 349.53 259.105C349.544 259.119 349.544 259.133 349.544 259.133C349.642 259.386 349.502 259.667 349.22 259.766C348.995 259.864 348.784 259.822 348.644 259.695Z" fill="#422B0D"/>
<path d="M343.029 265.62C342.993 265.27 343.009 265.07 342.74 265.007C342.439 264.936 342.171 265.152 342.089 265.46C341.874 266.284 342.24 266.859 342.24 266.859C341.719 266.756 341.285 266.25 341.285 266.25C341.013 265.931 340.631 265.138 340.367 264.811C340.206 264.613 339.943 264.451 339.682 264.588C339.055 264.917 339.749 266.036 339.983 266.334C340.248 266.673 339.292 265.589 339.152 265.353C338.89 264.914 338.569 264.797 338.301 265.026C338.032 265.254 338.247 265.824 338.37 266.04C339.119 267.355 339.773 267.677 339.773 267.677C339.773 267.677 339.077 267.343 338.484 266.624C337.924 265.946 337.392 266.662 337.765 267.264C337.844 267.392 337.994 267.722 338.478 268.14C338.849 268.46 338.607 268.268 338.478 268.14C337.983 267.652 337.456 268.172 337.615 268.598C337.799 269.089 338.399 269.543 338.806 269.844C339.596 270.429 340.582 270.898 341.58 270.865C342.691 270.83 343.511 270.367 343.757 268.993C343.871 268.355 343.515 267.376 343.41 267.126C343.065 266.316 343.048 265.818 343.029 265.62Z" fill="url(#paint4_radial_22_799)"/>
<path d="M341.913 269.038C341.764 268.829 341.344 267.856 342.129 266.86L342.356 267.004C341.468 268.1 342.089 269.037 342.198 269.249C342.198 269.249 342.055 269.24 341.913 269.038Z" fill="#EB8F00"/>
<path d="M343.497 267.036C343.148 266.36 343.123 266.008 343.099 265.623C343.072 265.344 343.053 265 342.717 264.921C342.573 264.887 342.373 264.907 342.196 265.102C341.753 265.595 342.106 266.739 342.106 266.739C341.469 266.441 341.362 266.178 340.911 265.499C340.714 265.201 340.4 264.65 340.114 264.489C339.908 264.374 339.604 264.46 339.453 264.665C339.111 265.123 339.72 266.053 339.72 266.053C339.72 266.053 339.384 265.564 339.237 265.308C338.989 264.873 338.533 264.633 338.197 264.935C337.648 265.429 338.714 266.756 338.714 266.756C338.714 266.756 338.224 265.978 337.734 266.308C337.48 266.479 337.38 266.926 337.644 267.357C337.761 267.552 338.058 267.898 338.058 267.898C338.058 267.898 337.938 267.822 337.738 267.887C337.516 267.96 337.326 268.235 337.488 268.666C337.675 269.169 338.229 269.605 338.734 269.969C339.883 270.799 341.226 270.85 341.226 270.85C341.226 270.85 339.754 270.567 338.811 269.709C338.516 269.441 337.346 268.624 337.764 268.199C337.862 268.098 338.042 268.047 338.308 268.258C339.243 269.003 339.562 268.83 339.562 268.83C339.596 268.701 339.503 268.646 339.225 268.482C339.032 268.368 338.768 268.212 338.572 268.044C338.093 267.629 337.551 266.908 337.848 266.587C338.007 266.416 338.191 266.452 338.37 266.637C339.613 267.905 339.905 267.726 339.905 267.726C339.905 267.726 339.943 267.589 339.551 267.244C339.25 266.981 338.88 266.656 338.423 265.86C338.302 265.649 338.24 265.274 338.418 265.126C338.657 264.924 338.877 265.057 339.076 265.354C339.318 265.715 339.661 266.16 340.002 266.488C340.416 266.883 340.638 267.004 340.652 266.99C340.751 266.883 340.327 266.468 340.139 266.209C339.475 265.294 339.485 264.993 339.623 264.755C339.71 264.605 339.95 264.537 340.24 264.901C340.864 265.621 341.179 266.793 342.355 267.001C342.355 267.001 342.4 266.93 342.295 266.549C342.168 266.151 342.147 265.813 342.212 265.516C342.283 265.188 342.546 265.095 342.691 265.13C342.885 265.177 342.863 265.503 342.863 265.503C342.863 265.503 342.874 265.623 342.88 265.678C342.902 265.914 342.949 266.406 343.275 267.165C343.406 267.469 344.103 268.718 343.158 270.28C343.158 270.28 343.559 270.383 344.019 270.49C344.019 270.49 344.2 269.85 344.116 268.856C344.013 267.605 343.732 267.492 343.497 267.036Z" fill="#EB8F00"/>
<path d="M337.077 268.438C337.082 268.399 337.087 268.365 337.094 268.335C337.084 268.368 337.079 268.401 337.077 268.438Z" fill="url(#paint5_radial_22_799)"/>
<path d="M348.843 265.62C348.879 265.27 348.865 265.077 349.132 265.007C349.419 264.932 349.696 265.153 349.783 265.46C349.984 266.18 349.599 266.859 349.599 266.859C350.119 266.756 350.56 266.257 350.56 266.257C350.832 265.938 351.242 265.138 351.505 264.811C351.666 264.613 351.856 264.485 352.131 264.586C352.701 264.797 352.106 265.95 351.872 266.25C351.607 266.589 351.775 266.534 352.133 266.142C352.491 265.746 352.681 265.523 352.822 265.288C353.083 264.849 353.397 264.883 353.571 265.026C353.844 265.251 353.625 265.824 353.502 266.04C352.753 267.355 353.388 266.624 353.388 266.624C353.948 265.946 354.48 266.662 354.107 267.264C354.028 267.392 353.878 267.722 353.394 268.14C353.023 268.46 353.265 268.268 353.394 268.14C353.889 267.652 354.416 268.172 354.257 268.598C354.073 269.089 353.473 269.543 353.066 269.844C352.276 270.429 351.29 270.898 350.292 270.865C349.181 270.83 348.361 270.367 348.115 268.993C348.001 268.355 348.357 267.376 348.462 267.126C348.807 266.316 348.824 265.818 348.843 265.62Z" fill="url(#paint6_radial_22_799)"/>
<path d="M349.959 269.038C350.108 268.829 350.528 267.856 349.743 266.86L349.516 267.004C350.404 268.1 349.783 269.037 349.675 269.249C349.675 269.249 349.817 269.24 349.959 269.038Z" fill="#EB8F00"/>
<path d="M348.375 267.036C348.724 266.36 348.749 266.008 348.773 265.623C348.8 265.344 348.82 265 349.156 264.921C349.299 264.887 349.499 264.907 349.676 265.102C350.119 265.595 349.766 266.739 349.766 266.739C350.403 266.441 350.51 266.178 350.961 265.499C351.158 265.201 351.472 264.65 351.759 264.489C351.964 264.374 352.268 264.46 352.42 264.665C352.761 265.123 352.152 266.053 352.152 266.053C352.152 266.053 352.488 265.564 352.635 265.308C352.884 264.873 353.339 264.633 353.675 264.935C354.224 265.429 353.158 266.756 353.158 266.756C353.158 266.756 353.649 265.978 354.138 266.308C354.393 266.479 354.492 266.926 354.228 267.357C354.111 267.552 353.815 267.898 353.815 267.898C353.815 267.898 353.934 267.822 354.134 267.887C354.356 267.96 354.546 268.235 354.384 268.666C354.197 269.169 353.643 269.605 353.138 269.969C351.989 270.799 350.646 270.85 350.646 270.85C350.646 270.85 352.119 270.567 353.061 269.709C353.356 269.441 354.526 268.624 354.108 268.199C354.01 268.098 353.83 268.047 353.564 268.258C352.629 269.003 352.31 268.83 352.31 268.83C352.276 268.701 352.369 268.646 352.647 268.482C352.84 268.368 353.104 268.212 353.3 268.044C353.779 267.629 354.321 266.908 354.024 266.587C353.865 266.416 353.681 266.452 353.502 266.637C352.259 267.905 351.967 267.726 351.967 267.726C351.967 267.726 351.929 267.589 352.321 267.244C352.622 266.981 352.992 266.656 353.449 265.86C353.57 265.649 353.632 265.274 353.455 265.126C353.216 264.924 352.995 265.057 352.796 265.354C352.555 265.715 352.211 266.16 351.87 266.488C351.456 266.883 351.234 267.004 351.22 266.99C351.122 266.883 351.545 266.468 351.733 266.209C352.397 265.294 352.387 264.993 352.249 264.755C352.162 264.605 351.922 264.537 351.632 264.901C351.005 265.624 350.69 266.795 349.516 267.004C349.516 267.004 349.471 266.933 349.576 266.552C349.703 266.154 349.724 265.815 349.659 265.519C349.587 265.191 349.324 265.098 349.18 265.133C348.986 265.18 349.008 265.506 349.008 265.506C349.008 265.506 348.997 265.625 348.991 265.68C348.969 265.917 348.922 266.409 348.596 267.168C348.465 267.472 347.766 268.733 348.713 270.283C348.713 270.283 348.312 270.386 347.852 270.493C347.852 270.493 347.671 269.853 347.755 268.858C347.859 267.605 348.14 267.492 348.375 267.036Z" fill="#EB8F00"/>
<path d="M354.795 268.438C354.79 268.399 354.785 268.365 354.778 268.335C354.788 268.368 354.793 268.401 354.795 268.438Z" fill="url(#paint7_radial_22_799)"/>
<rect x="132" y="170" width="118" height="38" fill="#E57373"/>
<rect x="224" y="160" width="20" height="8" fill="#E57373"/>
<rect x="196" y="160" width="20" height="8" fill="#E57373"/>
<rect x="168" y="160" width="20" height="8" fill="#E57373"/>
<rect x="140" y="160" width="20" height="8" fill="#E57373"/>
<text fill="white" xml:space="preserve" style="white-space: pre" font-family="Tahoma" font-size="20" font-weight="bold" letter-spacing="0em"><tspan x="161.254" y="197.939">UMAP</tspan></text>
<rect x="132" y="130" width="118" height="38" fill="#4DB6AC"/>
<rect x="224" y="120" width="20" height="8" fill="#4DB6AC"/>
<rect x="196" y="120" width="20" height="8" fill="#4DB6AC"/>
<rect x="168" y="120" width="20" height="8" fill="#4DB6AC"/>
<rect x="140" y="120" width="20" height="8" fill="#4DB6AC"/>
<text fill="white" xml:space="preserve" style="white-space: pre" font-family="Tahoma" font-size="20" font-weight="bold" letter-spacing="0em"><tspan x="141.342" y="157.939">HDBSCAN</tspan></text>
<rect x="132" y="90" width="118" height="38" fill="#FFD54F"/>
<rect x="224" y="80" width="20" height="8" fill="#FFD54F"/>
<rect x="196" y="80" width="20" height="8" fill="#FFD54F"/>
<rect x="168" y="80" width="20" height="8" fill="#FFD54F"/>
<rect x="140" y="80" width="20" height="8" fill="#FFD54F"/>
<text fill="white" xml:space="preserve" style="white-space: pre" font-family="Tahoma" font-size="13" font-weight="bold" letter-spacing="0em"><tspan x="138.346" y="114.161">CountVectorizer</tspan></text>
<rect x="132" y="50" width="118" height="38" fill="#90A4AE"/>
<rect x="224" y="40" width="20" height="8" fill="#90A4AE"/>
<rect x="196" y="40" width="20" height="8" fill="#90A4AE"/>
<rect x="168" y="40" width="20" height="8" fill="#90A4AE"/>
<rect x="140" y="40" width="20" height="8" fill="#90A4AE"/>
<text fill="white" xml:space="preserve" style="white-space: pre" font-family="Tahoma" font-size="20" font-weight="bold" letter-spacing="0em"><tspan x="146.938" y="77.9395">c-TF-IDF</tspan></text>
<rect x="132" y="10" width="118" height="38" fill="#3F51B5"/>
<rect x="224" width="20" height="8" fill="#3F51B5"/>
<rect x="196" width="20" height="8" fill="#3F51B5"/>
<rect x="168" width="20" height="8" fill="#3F51B5"/>
<rect x="140" width="20" height="8" fill="#3F51B5"/>
<text fill="white" xml:space="preserve" style="white-space: pre" font-family="Tahoma" font-size="14" font-weight="bold" letter-spacing="0em"><tspan x="161.065" y="25.0576">Optional&#10;</tspan><tspan x="150.271" y="42.0576">Fine-tuning</tspan></text>
<defs>
<radialGradient id="paint0_radial_22_799" cx="0" cy="0" r="1" gradientUnits="userSpaceOnUse" gradientTransform="translate(345.944 262.845) scale(8.01)">
<stop offset="0.5" stop-color="#FDE030"/>
<stop offset="0.919" stop-color="#F7C02B"/>
<stop offset="1" stop-color="#F4A223"/>
</radialGradient>
<linearGradient id="paint1_linear_22_799" x1="345.944" y1="270.706" x2="345.944" y2="254.984" gradientUnits="userSpaceOnUse">
<stop offset="0.158" stop-color="#F4A223"/>
<stop offset="0.333" stop-color="#F7C02B"/>
<stop offset="0.807" stop-color="#FDE030" stop-opacity="0"/>
</linearGradient>
<radialGradient id="paint2_radial_22_799" cx="0" cy="0" r="1" gradientUnits="userSpaceOnUse" gradientTransform="translate(341.172 263.015) rotate(-10.6121) scale(2.49432 2.36965)">
<stop stop-color="#ED7770"/>
<stop offset="0.9" stop-color="#ED7770" stop-opacity="0"/>
</radialGradient>
<radialGradient id="paint3_radial_22_799" cx="0" cy="0" r="1" gradientUnits="userSpaceOnUse" gradientTransform="translate(350.628 261.247) rotate(-10.6121) scale(2.49404 2.36938)">
<stop stop-color="#ED7770"/>
<stop offset="0.9" stop-color="#ED7770" stop-opacity="0"/>
</radialGradient>
<radialGradient id="paint4_radial_22_799" cx="0" cy="0" r="1" gradientUnits="userSpaceOnUse" gradientTransform="translate(341.552 267.229) scale(5.41589)">
<stop offset="0.33" stop-color="#FFF176"/>
<stop offset="1" stop-color="#FFC400"/>
</radialGradient>
<radialGradient id="paint5_radial_22_799" cx="0" cy="0" r="1" gradientUnits="userSpaceOnUse" gradientTransform="translate(341.104 267.2) scale(5.47088 5.47084)">
<stop offset="0.33" stop-color="#FFF176"/>
<stop offset="1" stop-color="#FFC400"/>
</radialGradient>
<radialGradient id="paint6_radial_22_799" cx="0" cy="0" r="1" gradientUnits="userSpaceOnUse" gradientTransform="translate(350.321 267.236) rotate(180) scale(5.40773)">
<stop offset="0.33" stop-color="#FFF176"/>
<stop offset="1" stop-color="#FFC400"/>
</radialGradient>
<radialGradient id="paint7_radial_22_799" cx="0" cy="0" r="1" gradientUnits="userSpaceOnUse" gradientTransform="translate(350.768 267.2) rotate(180) scale(5.471 5.47084)">
<stop offset="0.33" stop-color="#FFF176"/>
<stop offset="1" stop-color="#FFC400"/>
</radialGradient>
</defs>
</svg>
