<svg width="320" height="177" viewBox="0 0 320 177" fill="none" xmlns="http://www.w3.org/2000/svg">
<rect width="320" height="177" fill="white"/>
<path d="M39.1909 144.019V145.12H33.4897V144.019H39.1909ZM39.1909 146.856V147.957H33.4897V146.856H39.1909ZM48.4946 149.112V145.701C48.4946 145.45 48.4513 145.234 48.3647 145.051C48.2782 144.869 48.146 144.728 47.9683 144.628C47.7905 144.527 47.5649 144.477 47.2915 144.477C47.05 144.477 46.8381 144.518 46.6558 144.6C46.478 144.682 46.3413 144.798 46.2456 144.949C46.1499 145.095 46.1021 145.263 46.1021 145.455H44.2905C44.2905 145.149 44.3634 144.86 44.5093 144.587C44.6551 144.309 44.8625 144.062 45.1313 143.848C45.4048 143.63 45.7306 143.459 46.1089 143.336C46.4917 143.213 46.9201 143.151 47.394 143.151C47.9546 143.151 48.4536 143.247 48.8911 143.438C49.3332 143.625 49.6795 143.908 49.9302 144.286C50.1854 144.664 50.313 145.14 50.313 145.714V148.941C50.313 149.31 50.3358 149.627 50.3813 149.891C50.4315 150.151 50.5044 150.377 50.6001 150.568V150.684H48.7612C48.6746 150.497 48.6086 150.26 48.563 149.973C48.5174 149.682 48.4946 149.394 48.4946 149.112ZM48.7476 146.179L48.7612 147.253H47.6196C47.3371 147.253 47.0887 147.282 46.8745 147.341C46.6603 147.396 46.4849 147.478 46.3481 147.588C46.2114 147.692 46.1089 147.82 46.0405 147.97C45.9722 148.116 45.938 148.283 45.938 148.469C45.938 148.652 45.979 148.816 46.061 148.962C46.1476 149.107 46.2707 149.224 46.4302 149.31C46.5942 149.392 46.7856 149.433 47.0044 149.433C47.3234 149.433 47.6014 149.369 47.8384 149.242C48.0754 149.11 48.2599 148.95 48.3921 148.763C48.5243 148.576 48.5949 148.399 48.604 148.23L49.1235 149.009C49.0597 149.196 48.964 149.394 48.8364 149.604C48.7088 149.814 48.5448 150.01 48.3442 150.192C48.1437 150.374 47.9022 150.525 47.6196 150.643C47.3371 150.762 47.009 150.821 46.6353 150.821C46.1567 150.821 45.7284 150.725 45.3501 150.534C44.9718 150.342 44.6733 150.08 44.4546 149.748C44.2358 149.415 44.1265 149.037 44.1265 148.613C44.1265 148.221 44.1994 147.875 44.3452 147.574C44.491 147.273 44.7075 147.02 44.9946 146.815C45.2817 146.605 45.6372 146.448 46.061 146.343C46.4894 146.234 46.9793 146.179 47.5308 146.179H48.7476ZM54.2847 149.317L56.0073 143.288H57.894L55.3579 150.684H54.2095L54.2847 149.317ZM53.0269 143.288L54.77 149.331L54.8315 150.684H53.6763L51.1333 143.288H53.0269ZM62.0708 150.821C61.5103 150.821 61.0067 150.73 60.5601 150.547C60.1134 150.365 59.7329 150.112 59.4185 149.789C59.1086 149.461 58.8693 149.08 58.7007 148.647C58.5366 148.21 58.4546 147.74 58.4546 147.239V146.965C58.4546 146.396 58.5366 145.879 58.7007 145.414C58.8647 144.944 59.0972 144.541 59.3979 144.204C59.6987 143.866 60.0588 143.607 60.478 143.424C60.8973 143.242 61.3599 143.151 61.8657 143.151C62.3898 143.151 62.8524 143.24 63.2534 143.418C63.6545 143.591 63.9894 143.837 64.2583 144.156C64.5272 144.475 64.73 144.858 64.8667 145.304C65.0034 145.746 65.0718 146.236 65.0718 146.774V147.533H59.2749V146.289H63.2944V146.152C63.2853 145.865 63.2306 145.603 63.1304 145.366C63.0301 145.124 62.8752 144.933 62.6655 144.792C62.4559 144.646 62.1847 144.573 61.8521 144.573C61.5832 144.573 61.3485 144.632 61.1479 144.751C60.952 144.865 60.7879 145.029 60.6558 145.243C60.5282 145.452 60.4325 145.703 60.3687 145.995C60.3049 146.286 60.2729 146.61 60.2729 146.965V147.239C60.2729 147.549 60.314 147.836 60.396 148.1C60.4826 148.365 60.6079 148.595 60.772 148.791C60.9406 148.982 61.1411 149.132 61.3735 149.242C61.6105 149.347 61.8794 149.399 62.1802 149.399C62.5584 149.399 62.9002 149.326 63.2056 149.18C63.5155 149.03 63.7843 148.809 64.0122 148.517L64.9214 149.461C64.7664 149.688 64.5568 149.907 64.2925 150.117C64.0327 150.326 63.7183 150.497 63.3491 150.63C62.98 150.757 62.5539 150.821 62.0708 150.821ZM68.0864 144.798V150.684H66.2817V143.288H67.9907L68.0864 144.798ZM70.3354 143.24L70.3081 144.922C70.2078 144.903 70.0939 144.89 69.9663 144.88C69.8433 144.871 69.7271 144.867 69.6177 144.867C69.3397 144.867 69.0959 144.906 68.8862 144.983C68.6766 145.056 68.5011 145.163 68.3599 145.304C68.2231 145.446 68.1183 145.619 68.0454 145.824C67.9725 146.024 67.9315 146.252 67.9224 146.507L67.5327 146.46C67.5327 145.99 67.5806 145.555 67.6763 145.154C67.772 144.753 67.911 144.402 68.0933 144.101C68.2756 143.8 68.5034 143.568 68.7769 143.404C69.0549 143.235 69.3739 143.151 69.7339 143.151C69.8341 143.151 69.9412 143.16 70.0552 143.178C70.1737 143.192 70.2671 143.213 70.3354 143.24ZM75.1685 149.112V145.701C75.1685 145.45 75.1252 145.234 75.0386 145.051C74.952 144.869 74.8198 144.728 74.6421 144.628C74.4644 144.527 74.2388 144.477 73.9653 144.477C73.7238 144.477 73.5119 144.518 73.3296 144.6C73.1519 144.682 73.0151 144.798 72.9194 144.949C72.8237 145.095 72.7759 145.263 72.7759 145.455H70.9644C70.9644 145.149 71.0373 144.86 71.1831 144.587C71.3289 144.309 71.5363 144.062 71.8052 143.848C72.0786 143.63 72.4045 143.459 72.7827 143.336C73.1655 143.213 73.5939 143.151 74.0679 143.151C74.6284 143.151 75.1274 143.247 75.5649 143.438C76.007 143.625 76.3534 143.908 76.604 144.286C76.8592 144.664 76.9868 145.14 76.9868 145.714V148.941C76.9868 149.31 77.0096 149.627 77.0552 149.891C77.1053 150.151 77.1782 150.377 77.2739 150.568V150.684H75.4351C75.3485 150.497 75.2824 150.26 75.2368 149.973C75.1912 149.682 75.1685 149.394 75.1685 149.112ZM75.4214 146.179L75.4351 147.253H74.2935C74.0109 147.253 73.7625 147.282 73.5483 147.341C73.3341 147.396 73.1587 147.478 73.022 147.588C72.8853 147.692 72.7827 147.82 72.7144 147.97C72.646 148.116 72.6118 148.283 72.6118 148.469C72.6118 148.652 72.6528 148.816 72.7349 148.962C72.8215 149.107 72.9445 149.224 73.104 149.31C73.2681 149.392 73.4595 149.433 73.6782 149.433C73.9972 149.433 74.2752 149.369 74.5122 149.242C74.7492 149.11 74.9338 148.95 75.0659 148.763C75.1981 148.576 75.2687 148.399 75.2778 148.23L75.7974 149.009C75.7336 149.196 75.6379 149.394 75.5103 149.604C75.3826 149.814 75.2186 150.01 75.0181 150.192C74.8175 150.374 74.576 150.525 74.2935 150.643C74.0109 150.762 73.6828 150.821 73.3091 150.821C72.8306 150.821 72.4022 150.725 72.0239 150.534C71.6457 150.342 71.3472 150.08 71.1284 149.748C70.9097 149.415 70.8003 149.037 70.8003 148.613C70.8003 148.221 70.8732 147.875 71.019 147.574C71.1649 147.273 71.3813 147.02 71.6685 146.815C71.9556 146.605 72.311 146.448 72.7349 146.343C73.1632 146.234 73.6532 146.179 74.2046 146.179H75.4214ZM83.3169 143.288H84.9575V150.459C84.9575 151.129 84.8117 151.696 84.52 152.161C84.2329 152.63 83.8296 152.986 83.3101 153.227C82.7905 153.473 82.1867 153.596 81.4985 153.596C81.2023 153.596 80.881 153.555 80.5347 153.473C80.1929 153.391 79.8625 153.261 79.5435 153.084C79.229 152.91 78.967 152.685 78.7573 152.407L79.5708 151.34C79.8169 151.628 80.0949 151.844 80.4048 151.99C80.7147 152.14 81.0496 152.215 81.4097 152.215C81.7743 152.215 82.0841 152.147 82.3394 152.01C82.5991 151.878 82.7974 151.682 82.9341 151.422C83.0754 151.167 83.146 150.853 83.146 150.479V144.976L83.3169 143.288ZM78.3198 147.075V146.931C78.3198 146.366 78.3882 145.853 78.5249 145.393C78.6616 144.928 78.8576 144.53 79.1128 144.197C79.3726 143.864 79.6847 143.607 80.0493 143.424C80.4185 143.242 80.8332 143.151 81.2935 143.151C81.7811 143.151 82.1912 143.24 82.5239 143.418C82.8612 143.595 83.1392 143.848 83.3579 144.176C83.5812 144.505 83.7544 144.894 83.8774 145.345C84.005 145.792 84.103 146.284 84.1714 146.822V147.212C84.1076 147.736 84.005 148.216 83.8638 148.654C83.7271 149.091 83.5448 149.474 83.3169 149.802C83.089 150.126 82.8065 150.377 82.4692 150.554C82.132 150.732 81.7355 150.821 81.2798 150.821C80.8241 150.821 80.4139 150.727 80.0493 150.541C79.6847 150.354 79.3726 150.092 79.1128 149.755C78.8576 149.417 78.6616 149.021 78.5249 148.565C78.3882 148.109 78.3198 147.613 78.3198 147.075ZM80.1245 146.931V147.075C80.1245 147.394 80.1564 147.692 80.2202 147.97C80.284 148.248 80.382 148.494 80.5142 148.709C80.6463 148.918 80.8127 149.082 81.0132 149.201C81.2137 149.319 81.453 149.379 81.731 149.379C82.1047 149.379 82.41 149.301 82.647 149.146C82.8885 148.987 83.0708 148.77 83.1938 148.497C83.3215 148.219 83.4035 147.907 83.4399 147.56V146.487C83.4172 146.214 83.367 145.961 83.2896 145.728C83.2166 145.496 83.1141 145.295 82.9819 145.127C82.8498 144.958 82.6812 144.826 82.4761 144.73C82.271 144.634 82.0272 144.587 81.7446 144.587C81.4712 144.587 81.2319 144.648 81.0269 144.771C80.8218 144.89 80.6532 145.056 80.521 145.27C80.3888 145.484 80.2886 145.733 80.2202 146.015C80.1564 146.298 80.1245 146.603 80.1245 146.931ZM89.9067 150.821C89.3462 150.821 88.8426 150.73 88.396 150.547C87.9494 150.365 87.5688 150.112 87.2544 149.789C86.9445 149.461 86.7052 149.08 86.5366 148.647C86.3726 148.21 86.2905 147.74 86.2905 147.239V146.965C86.2905 146.396 86.3726 145.879 86.5366 145.414C86.7007 144.944 86.9331 144.541 87.2339 144.204C87.5347 143.866 87.8947 143.607 88.314 143.424C88.7332 143.242 89.1958 143.151 89.7017 143.151C90.2257 143.151 90.6883 143.24 91.0894 143.418C91.4904 143.591 91.8254 143.837 92.0942 144.156C92.3631 144.475 92.5659 144.858 92.7026 145.304C92.8394 145.746 92.9077 146.236 92.9077 146.774V147.533H87.1108V146.289H91.1304V146.152C91.1213 145.865 91.0666 145.603 90.9663 145.366C90.866 145.124 90.7111 144.933 90.5015 144.792C90.2918 144.646 90.0207 144.573 89.688 144.573C89.4191 144.573 89.1844 144.632 88.9839 144.751C88.7879 144.865 88.6239 145.029 88.4917 145.243C88.3641 145.452 88.2684 145.703 88.2046 145.995C88.1408 146.286 88.1089 146.61 88.1089 146.965V147.239C88.1089 147.549 88.1499 147.836 88.2319 148.1C88.3185 148.365 88.4438 148.595 88.6079 148.791C88.7765 148.982 88.9771 149.132 89.2095 149.242C89.4465 149.347 89.7153 149.399 90.0161 149.399C90.3944 149.399 90.7362 149.326 91.0415 149.18C91.3514 149.03 91.6203 148.809 91.8481 148.517L92.7573 149.461C92.6024 149.688 92.3927 149.907 92.1284 150.117C91.8687 150.326 91.5542 150.497 91.1851 150.63C90.8159 150.757 90.3898 150.821 89.9067 150.821ZM99.3745 144.867V150.684H97.5698V143.288H99.2651L99.3745 144.867ZM99.0874 146.719H98.5542C98.5588 146.182 98.6317 145.694 98.7729 145.256C98.9142 144.819 99.1125 144.443 99.3677 144.129C99.6274 143.814 99.9351 143.573 100.291 143.404C100.646 143.235 101.042 143.151 101.48 143.151C101.835 143.151 102.157 143.201 102.444 143.301C102.731 143.402 102.977 143.561 103.182 143.78C103.392 143.999 103.551 144.286 103.661 144.641C103.775 144.992 103.832 145.425 103.832 145.94V150.684H102.013V145.926C102.013 145.589 101.963 145.323 101.863 145.127C101.767 144.931 101.626 144.792 101.439 144.71C101.257 144.628 101.031 144.587 100.762 144.587C100.484 144.587 100.24 144.644 100.031 144.757C99.8257 144.867 99.6525 145.019 99.5112 145.215C99.3745 145.411 99.2697 145.637 99.1968 145.892C99.1239 146.147 99.0874 146.423 99.0874 146.719ZM109.827 148.927V143.288H111.645V150.684H109.936L109.827 148.927ZM110.059 147.396L110.62 147.382C110.62 147.879 110.565 148.337 110.456 148.756C110.346 149.176 110.175 149.54 109.943 149.85C109.715 150.156 109.426 150.395 109.075 150.568C108.724 150.737 108.309 150.821 107.831 150.821C107.466 150.821 107.133 150.771 106.833 150.671C106.532 150.566 106.272 150.404 106.053 150.185C105.839 149.962 105.673 149.677 105.554 149.331C105.436 148.98 105.376 148.558 105.376 148.066V143.288H107.181V148.08C107.181 148.326 107.208 148.531 107.263 148.695C107.322 148.859 107.402 148.993 107.502 149.098C107.607 149.199 107.728 149.271 107.865 149.317C108.006 149.358 108.156 149.379 108.316 149.379C108.753 149.379 109.097 149.292 109.348 149.119C109.603 148.941 109.786 148.704 109.895 148.408C110.004 148.107 110.059 147.77 110.059 147.396ZM115.042 144.805V150.684H113.238V143.288H114.94L115.042 144.805ZM114.776 146.719H114.222C114.222 146.204 114.284 145.73 114.407 145.297C114.534 144.865 114.721 144.489 114.967 144.17C115.213 143.846 115.516 143.595 115.876 143.418C116.241 143.24 116.663 143.151 117.141 143.151C117.474 143.151 117.779 143.201 118.057 143.301C118.335 143.397 118.574 143.55 118.775 143.759C118.98 143.964 119.137 144.233 119.247 144.566C119.356 144.894 119.411 145.288 119.411 145.749V150.684H117.606V145.933C117.606 145.587 117.556 145.316 117.456 145.12C117.36 144.924 117.221 144.787 117.039 144.71C116.856 144.628 116.638 144.587 116.382 144.587C116.1 144.587 115.856 144.644 115.651 144.757C115.45 144.867 115.284 145.019 115.152 145.215C115.024 145.411 114.929 145.637 114.865 145.892C114.806 146.147 114.776 146.423 114.776 146.719ZM119.274 146.384L118.529 146.521C118.533 146.056 118.597 145.621 118.72 145.215C118.843 144.805 119.023 144.448 119.26 144.142C119.502 143.832 119.8 143.591 120.156 143.418C120.516 143.24 120.931 143.151 121.4 143.151C121.764 143.151 122.093 143.203 122.384 143.308C122.681 143.408 122.933 143.57 123.143 143.794C123.353 144.012 123.512 144.297 123.622 144.648C123.736 144.999 123.792 145.427 123.792 145.933V150.684H121.974V145.926C121.974 145.566 121.924 145.291 121.824 145.099C121.728 144.908 121.589 144.776 121.407 144.703C121.224 144.625 121.01 144.587 120.764 144.587C120.514 144.587 120.295 144.634 120.108 144.73C119.926 144.821 119.771 144.949 119.643 145.113C119.52 145.277 119.427 145.468 119.363 145.687C119.304 145.901 119.274 146.134 119.274 146.384ZM125.406 140.184H127.217V149.05L127.04 150.684H125.406V140.184ZM131.975 146.911V147.054C131.975 147.606 131.914 148.112 131.791 148.572C131.672 149.032 131.492 149.431 131.25 149.768C131.009 150.101 130.708 150.361 130.348 150.547C129.993 150.73 129.576 150.821 129.097 150.821C128.641 150.821 128.245 150.732 127.908 150.554C127.575 150.377 127.295 150.126 127.067 149.802C126.839 149.474 126.657 149.089 126.52 148.647C126.383 148.2 126.281 147.713 126.212 147.184V146.795C126.281 146.261 126.383 145.774 126.52 145.332C126.657 144.89 126.839 144.505 127.067 144.176C127.295 143.848 127.575 143.595 127.908 143.418C128.24 143.24 128.632 143.151 129.083 143.151C129.567 143.151 129.988 143.244 130.348 143.431C130.713 143.614 131.014 143.873 131.25 144.211C131.492 144.543 131.672 144.94 131.791 145.4C131.914 145.856 131.975 146.359 131.975 146.911ZM130.164 147.054V146.911C130.164 146.596 130.139 146.3 130.088 146.022C130.038 145.74 129.956 145.491 129.842 145.277C129.728 145.063 129.573 144.894 129.377 144.771C129.181 144.648 128.935 144.587 128.639 144.587C128.357 144.587 128.115 144.634 127.915 144.73C127.719 144.826 127.555 144.958 127.422 145.127C127.295 145.295 127.194 145.493 127.122 145.721C127.053 145.949 127.008 146.195 126.985 146.46V147.526C127.017 147.877 127.092 148.194 127.21 148.476C127.329 148.754 127.504 148.975 127.737 149.139C127.974 149.303 128.279 149.385 128.653 149.385C128.944 149.385 129.188 149.328 129.384 149.214C129.58 149.096 129.735 148.932 129.849 148.722C129.963 148.508 130.043 148.26 130.088 147.977C130.139 147.695 130.164 147.387 130.164 147.054ZM136.61 150.821C136.049 150.821 135.546 150.73 135.099 150.547C134.653 150.365 134.272 150.112 133.958 149.789C133.648 149.461 133.408 149.08 133.24 148.647C133.076 148.21 132.994 147.74 132.994 147.239V146.965C132.994 146.396 133.076 145.879 133.24 145.414C133.404 144.944 133.636 144.541 133.937 144.204C134.238 143.866 134.598 143.607 135.017 143.424C135.436 143.242 135.899 143.151 136.405 143.151C136.929 143.151 137.391 143.24 137.792 143.418C138.194 143.591 138.528 143.837 138.797 144.156C139.066 144.475 139.269 144.858 139.406 145.304C139.542 145.746 139.611 146.236 139.611 146.774V147.533H133.814V146.289H137.833V146.152C137.824 145.865 137.77 145.603 137.669 145.366C137.569 145.124 137.414 144.933 137.205 144.792C136.995 144.646 136.724 144.573 136.391 144.573C136.122 144.573 135.888 144.632 135.687 144.751C135.491 144.865 135.327 145.029 135.195 145.243C135.067 145.452 134.972 145.703 134.908 145.995C134.844 146.286 134.812 146.61 134.812 146.965V147.239C134.812 147.549 134.853 147.836 134.935 148.1C135.022 148.365 135.147 148.595 135.311 148.791C135.48 148.982 135.68 149.132 135.913 149.242C136.15 149.347 136.418 149.399 136.719 149.399C137.097 149.399 137.439 149.326 137.745 149.18C138.055 149.03 138.323 148.809 138.551 148.517L139.46 149.461C139.306 149.688 139.096 149.907 138.832 150.117C138.572 150.326 138.257 150.497 137.888 150.63C137.519 150.757 137.093 150.821 136.61 150.821ZM142.625 144.798V150.684H140.821V143.288H142.53L142.625 144.798ZM144.875 143.24L144.847 144.922C144.747 144.903 144.633 144.89 144.505 144.88C144.382 144.871 144.266 144.867 144.157 144.867C143.879 144.867 143.635 144.906 143.425 144.983C143.216 145.056 143.04 145.163 142.899 145.304C142.762 145.446 142.657 145.619 142.584 145.824C142.512 146.024 142.471 146.252 142.461 146.507L142.072 146.46C142.072 145.99 142.12 145.555 142.215 145.154C142.311 144.753 142.45 144.402 142.632 144.101C142.815 143.8 143.042 143.568 143.316 143.404C143.594 143.235 143.913 143.151 144.273 143.151C144.373 143.151 144.48 143.16 144.594 143.178C144.713 143.192 144.806 143.213 144.875 143.24ZM149.031 147.061V146.918C149.031 146.375 149.108 145.876 149.263 145.421C149.418 144.96 149.644 144.561 149.94 144.224C150.236 143.887 150.598 143.625 151.027 143.438C151.455 143.247 151.943 143.151 152.49 143.151C153.046 143.151 153.538 143.247 153.966 143.438C154.399 143.625 154.764 143.887 155.06 144.224C155.356 144.561 155.582 144.96 155.737 145.421C155.892 145.876 155.969 146.375 155.969 146.918V147.061C155.969 147.599 155.892 148.098 155.737 148.558C155.582 149.014 155.356 149.413 155.06 149.755C154.764 150.092 154.402 150.354 153.973 150.541C153.545 150.727 153.055 150.821 152.503 150.821C151.957 150.821 151.467 150.727 151.034 150.541C150.601 150.354 150.236 150.092 149.94 149.755C149.644 149.413 149.418 149.014 149.263 148.558C149.108 148.098 149.031 147.599 149.031 147.061ZM150.835 146.918V147.061C150.835 147.385 150.867 147.688 150.931 147.97C150.995 148.253 151.093 148.501 151.225 148.715C151.357 148.93 151.528 149.098 151.738 149.221C151.952 149.34 152.207 149.399 152.503 149.399C152.795 149.399 153.046 149.34 153.255 149.221C153.465 149.098 153.636 148.93 153.768 148.715C153.905 148.501 154.005 148.253 154.069 147.97C154.133 147.688 154.165 147.385 154.165 147.061V146.918C154.165 146.599 154.133 146.3 154.069 146.022C154.005 145.74 153.905 145.491 153.768 145.277C153.636 145.058 153.463 144.887 153.249 144.764C153.039 144.637 152.786 144.573 152.49 144.573C152.198 144.573 151.947 144.637 151.738 144.764C151.528 144.887 151.357 145.058 151.225 145.277C151.093 145.491 150.995 145.74 150.931 146.022C150.867 146.3 150.835 146.599 150.835 146.918ZM159.647 150.684H157.829V142.604C157.829 142.048 157.936 141.581 158.15 141.203C158.364 140.82 158.669 140.531 159.066 140.335C159.462 140.139 159.93 140.041 160.467 140.041C160.645 140.041 160.814 140.052 160.973 140.075C161.137 140.098 161.299 140.13 161.458 140.171L161.424 141.545C161.338 141.522 161.242 141.506 161.137 141.497C161.037 141.488 160.925 141.483 160.802 141.483C160.556 141.483 160.347 141.526 160.173 141.613C160 141.7 159.868 141.827 159.777 141.996C159.69 142.16 159.647 142.363 159.647 142.604V150.684ZM161.144 143.288V144.587H156.714V143.288H161.144ZM167.802 148.907L169.422 143.288H170.571L170.229 145.229L168.595 150.684H167.604L167.802 148.907ZM166.907 143.288L168.124 148.921L168.233 150.684H167.091L165.15 143.288H166.907ZM172.075 148.839L173.264 143.288H175.014L173.086 150.684H171.945L172.075 148.839ZM170.749 143.288L172.355 148.852L172.567 150.684H171.576L169.928 145.229L169.593 143.288H170.749ZM175.759 147.061V146.918C175.759 146.375 175.837 145.876 175.992 145.421C176.147 144.96 176.372 144.561 176.668 144.224C176.965 143.887 177.327 143.625 177.755 143.438C178.184 143.247 178.671 143.151 179.218 143.151C179.774 143.151 180.266 143.247 180.695 143.438C181.128 143.625 181.492 143.887 181.789 144.224C182.085 144.561 182.31 144.96 182.465 145.421C182.62 145.876 182.698 146.375 182.698 146.918V147.061C182.698 147.599 182.62 148.098 182.465 148.558C182.31 149.014 182.085 149.413 181.789 149.755C181.492 150.092 181.13 150.354 180.702 150.541C180.273 150.727 179.783 150.821 179.232 150.821C178.685 150.821 178.195 150.727 177.762 150.541C177.329 150.354 176.965 150.092 176.668 149.755C176.372 149.413 176.147 149.014 175.992 148.558C175.837 148.098 175.759 147.599 175.759 147.061ZM177.564 146.918V147.061C177.564 147.385 177.596 147.688 177.66 147.97C177.723 148.253 177.821 148.501 177.954 148.715C178.086 148.93 178.257 149.098 178.466 149.221C178.681 149.34 178.936 149.399 179.232 149.399C179.524 149.399 179.774 149.34 179.984 149.221C180.194 149.098 180.364 148.93 180.497 148.715C180.633 148.501 180.734 148.253 180.797 147.97C180.861 147.688 180.893 147.385 180.893 147.061V146.918C180.893 146.599 180.861 146.3 180.797 146.022C180.734 145.74 180.633 145.491 180.497 145.277C180.364 145.058 180.191 144.887 179.977 144.764C179.767 144.637 179.514 144.573 179.218 144.573C178.927 144.573 178.676 144.637 178.466 144.764C178.257 144.887 178.086 145.058 177.954 145.277C177.821 145.491 177.723 145.74 177.66 146.022C177.596 146.3 177.564 146.599 177.564 146.918ZM185.815 144.798V150.684H184.01V143.288H185.719L185.815 144.798ZM188.064 143.24L188.037 144.922C187.936 144.903 187.822 144.89 187.695 144.88C187.572 144.871 187.456 144.867 187.346 144.867C187.068 144.867 186.824 144.906 186.615 144.983C186.405 145.056 186.23 145.163 186.088 145.304C185.952 145.446 185.847 145.619 185.774 145.824C185.701 146.024 185.66 146.252 185.651 146.507L185.261 146.46C185.261 145.99 185.309 145.555 185.405 145.154C185.5 144.753 185.639 144.402 185.822 144.101C186.004 143.8 186.232 143.568 186.505 143.404C186.783 143.235 187.102 143.151 187.462 143.151C187.563 143.151 187.67 143.16 187.784 143.178C187.902 143.192 187.996 143.213 188.064 143.24ZM193.355 149.112V140.184H195.173V150.684H193.533L193.355 149.112ZM188.604 147.075V146.931C188.604 146.366 188.668 145.853 188.795 145.393C188.928 144.928 189.119 144.53 189.37 144.197C189.62 143.864 189.923 143.607 190.279 143.424C190.639 143.242 191.047 143.151 191.502 143.151C191.944 143.151 192.33 143.24 192.658 143.418C192.99 143.595 193.273 143.848 193.505 144.176C193.742 144.505 193.931 144.894 194.073 145.345C194.214 145.792 194.317 146.284 194.38 146.822V147.212C194.317 147.736 194.214 148.216 194.073 148.654C193.931 149.091 193.742 149.474 193.505 149.802C193.273 150.126 192.99 150.377 192.658 150.554C192.325 150.732 191.935 150.821 191.489 150.821C191.038 150.821 190.632 150.727 190.272 150.541C189.917 150.354 189.613 150.092 189.363 149.755C189.117 149.417 188.928 149.021 188.795 148.565C188.668 148.109 188.604 147.613 188.604 147.075ZM190.416 146.931V147.075C190.416 147.394 190.443 147.692 190.498 147.97C190.552 148.248 190.641 148.494 190.764 148.709C190.887 148.918 191.044 149.082 191.236 149.201C191.432 149.319 191.669 149.379 191.947 149.379C192.302 149.379 192.594 149.301 192.822 149.146C193.054 148.987 193.234 148.77 193.362 148.497C193.489 148.219 193.571 147.907 193.608 147.56V146.487C193.59 146.214 193.542 145.961 193.464 145.728C193.391 145.496 193.287 145.295 193.15 145.127C193.018 144.958 192.854 144.826 192.658 144.73C192.462 144.634 192.229 144.587 191.96 144.587C191.682 144.587 191.445 144.648 191.25 144.771C191.054 144.89 190.894 145.056 190.771 145.27C190.648 145.484 190.557 145.733 190.498 146.015C190.443 146.298 190.416 146.603 190.416 146.931ZM200.875 148.661C200.875 148.506 200.833 148.367 200.751 148.244C200.669 148.121 200.514 148.009 200.287 147.909C200.063 147.804 199.735 147.706 199.302 147.615C198.919 147.533 198.566 147.43 198.243 147.307C197.919 147.184 197.641 147.036 197.409 146.863C197.176 146.685 196.994 146.478 196.862 146.241C196.734 145.999 196.67 145.721 196.67 145.407C196.67 145.102 196.736 144.814 196.869 144.546C197.001 144.272 197.192 144.033 197.443 143.828C197.694 143.618 197.999 143.454 198.359 143.336C198.719 143.213 199.125 143.151 199.576 143.151C200.205 143.151 200.745 143.254 201.196 143.459C201.652 143.664 202 143.946 202.242 144.306C202.483 144.662 202.604 145.063 202.604 145.509H200.799C200.799 145.313 200.754 145.136 200.663 144.976C200.576 144.817 200.442 144.689 200.259 144.593C200.077 144.493 199.847 144.443 199.569 144.443C199.318 144.443 199.106 144.484 198.933 144.566C198.764 144.648 198.637 144.755 198.55 144.887C198.464 145.019 198.42 145.165 198.42 145.325C198.42 145.443 198.443 145.55 198.489 145.646C198.539 145.737 198.619 145.822 198.728 145.899C198.837 145.977 198.986 146.047 199.172 146.111C199.364 146.175 199.598 146.236 199.876 146.296C200.428 146.405 200.909 146.551 201.319 146.733C201.734 146.911 202.057 147.148 202.29 147.444C202.522 147.74 202.638 148.118 202.638 148.579C202.638 148.907 202.568 149.208 202.426 149.481C202.285 149.75 202.08 149.985 201.811 150.185C201.542 150.386 201.221 150.543 200.847 150.657C200.473 150.766 200.052 150.821 199.583 150.821C198.903 150.821 198.329 150.7 197.86 150.459C197.39 150.213 197.035 149.903 196.793 149.529C196.552 149.151 196.431 148.759 196.431 148.353H198.161C198.174 148.64 198.252 148.87 198.393 149.044C198.534 149.217 198.712 149.342 198.926 149.42C199.145 149.492 199.375 149.529 199.617 149.529C199.89 149.529 200.12 149.492 200.307 149.42C200.494 149.342 200.635 149.24 200.731 149.112C200.827 148.98 200.875 148.829 200.875 148.661ZM209.303 144.71V153.528H207.492V143.288H209.167L209.303 144.71ZM214.054 146.911V147.054C214.054 147.592 213.99 148.091 213.863 148.551C213.74 149.007 213.557 149.406 213.316 149.748C213.074 150.085 212.774 150.349 212.414 150.541C212.058 150.727 211.648 150.821 211.183 150.821C210.727 150.821 210.331 150.734 209.994 150.561C209.656 150.383 209.372 150.133 209.139 149.809C208.907 149.486 208.72 149.11 208.579 148.681C208.442 148.248 208.339 147.777 208.271 147.266V146.808C208.339 146.266 208.442 145.774 208.579 145.332C208.72 144.885 208.907 144.5 209.139 144.176C209.372 143.848 209.654 143.595 209.987 143.418C210.324 143.24 210.718 143.151 211.169 143.151C211.639 143.151 212.051 143.24 212.407 143.418C212.767 143.595 213.07 143.851 213.316 144.183C213.562 144.516 213.747 144.912 213.87 145.373C213.993 145.833 214.054 146.346 214.054 146.911ZM212.243 147.054V146.911C212.243 146.583 212.213 146.28 212.154 146.002C212.095 145.719 212.003 145.473 211.88 145.263C211.757 145.049 211.598 144.883 211.402 144.764C211.206 144.646 210.969 144.587 210.691 144.587C210.413 144.587 210.174 144.632 209.973 144.723C209.773 144.814 209.609 144.944 209.481 145.113C209.353 145.282 209.253 145.482 209.18 145.714C209.112 145.942 209.066 146.195 209.043 146.473V147.608C209.084 147.945 209.164 148.248 209.283 148.517C209.401 148.786 209.574 149 209.802 149.16C210.035 149.319 210.335 149.399 210.705 149.399C210.983 149.399 211.22 149.338 211.416 149.214C211.611 149.091 211.771 148.923 211.894 148.709C212.017 148.49 212.106 148.239 212.161 147.957C212.215 147.674 212.243 147.373 212.243 147.054ZM218.696 150.821C218.135 150.821 217.632 150.73 217.185 150.547C216.738 150.365 216.358 150.112 216.043 149.789C215.734 149.461 215.494 149.08 215.326 148.647C215.162 148.21 215.08 147.74 215.08 147.239V146.965C215.08 146.396 215.162 145.879 215.326 145.414C215.49 144.944 215.722 144.541 216.023 144.204C216.324 143.866 216.684 143.607 217.103 143.424C217.522 143.242 217.985 143.151 218.491 143.151C219.015 143.151 219.477 143.24 219.878 143.418C220.279 143.591 220.614 143.837 220.883 144.156C221.152 144.475 221.355 144.858 221.492 145.304C221.628 145.746 221.697 146.236 221.697 146.774V147.533H215.9V146.289H219.919V146.152C219.91 145.865 219.856 145.603 219.755 145.366C219.655 145.124 219.5 144.933 219.291 144.792C219.081 144.646 218.81 144.573 218.477 144.573C218.208 144.573 217.973 144.632 217.773 144.751C217.577 144.865 217.413 145.029 217.281 145.243C217.153 145.452 217.057 145.703 216.994 145.995C216.93 146.286 216.898 146.61 216.898 146.965V147.239C216.898 147.549 216.939 147.836 217.021 148.1C217.108 148.365 217.233 148.595 217.397 148.791C217.566 148.982 217.766 149.132 217.999 149.242C218.236 149.347 218.504 149.399 218.805 149.399C219.183 149.399 219.525 149.326 219.831 149.18C220.14 149.03 220.409 148.809 220.637 148.517L221.546 149.461C221.391 149.688 221.182 149.907 220.917 150.117C220.658 150.326 220.343 150.497 219.974 150.63C219.605 150.757 219.179 150.821 218.696 150.821ZM224.711 144.798V150.684H222.907V143.288H224.616L224.711 144.798ZM226.96 143.24L226.933 144.922C226.833 144.903 226.719 144.89 226.591 144.88C226.468 144.871 226.352 144.867 226.243 144.867C225.965 144.867 225.721 144.906 225.511 144.983C225.302 145.056 225.126 145.163 224.985 145.304C224.848 145.446 224.743 145.619 224.67 145.824C224.597 146.024 224.556 146.252 224.547 146.507L224.158 146.46C224.158 145.99 224.206 145.555 224.301 145.154C224.397 144.753 224.536 144.402 224.718 144.101C224.901 143.8 225.128 143.568 225.402 143.404C225.68 143.235 225.999 143.151 226.359 143.151C226.459 143.151 226.566 143.16 226.68 143.178C226.799 143.192 226.892 143.213 226.96 143.24ZM234.473 149.399C234.728 149.399 234.956 149.349 235.157 149.249C235.357 149.148 235.517 149.007 235.635 148.825C235.758 148.643 235.824 148.431 235.833 148.189H237.536C237.527 148.69 237.385 149.139 237.112 149.536C236.838 149.932 236.474 150.247 236.018 150.479C235.567 150.707 235.061 150.821 234.5 150.821C233.931 150.821 233.434 150.725 233.01 150.534C232.586 150.342 232.233 150.076 231.951 149.734C231.673 149.392 231.463 148.996 231.322 148.545C231.185 148.093 231.117 147.61 231.117 147.095V146.877C231.117 146.362 231.185 145.879 231.322 145.427C231.463 144.976 231.673 144.58 231.951 144.238C232.233 143.896 232.586 143.63 233.01 143.438C233.434 143.247 233.929 143.151 234.494 143.151C235.091 143.151 235.615 143.267 236.066 143.5C236.522 143.732 236.877 144.06 237.132 144.484C237.392 144.908 237.527 145.407 237.536 145.981H235.833C235.824 145.717 235.765 145.48 235.656 145.27C235.546 145.061 235.391 144.892 235.191 144.764C234.99 144.637 234.747 144.573 234.459 144.573C234.154 144.573 233.899 144.637 233.694 144.764C233.493 144.892 233.336 145.067 233.222 145.291C233.113 145.509 233.035 145.755 232.99 146.029C232.949 146.298 232.928 146.58 232.928 146.877V147.095C232.928 147.396 232.949 147.683 232.99 147.957C233.035 148.23 233.113 148.476 233.222 148.695C233.336 148.909 233.493 149.08 233.694 149.208C233.899 149.335 234.159 149.399 234.473 149.399ZM240.653 140.184V150.684H238.841V140.184H240.653ZM246.45 149.112V145.701C246.45 145.45 246.406 145.234 246.32 145.051C246.233 144.869 246.101 144.728 245.923 144.628C245.746 144.527 245.52 144.477 245.247 144.477C245.005 144.477 244.793 144.518 244.611 144.6C244.433 144.682 244.296 144.798 244.201 144.949C244.105 145.095 244.057 145.263 244.057 145.455H242.246C242.246 145.149 242.319 144.86 242.464 144.587C242.61 144.309 242.818 144.062 243.086 143.848C243.36 143.63 243.686 143.459 244.064 143.336C244.447 143.213 244.875 143.151 245.349 143.151C245.91 143.151 246.409 143.247 246.846 143.438C247.288 143.625 247.635 143.908 247.885 144.286C248.14 144.664 248.268 145.14 248.268 145.714V148.941C248.268 149.31 248.291 149.627 248.336 149.891C248.387 150.151 248.459 150.377 248.555 150.568V150.684H246.716C246.63 150.497 246.564 150.26 246.518 149.973C246.472 149.682 246.45 149.394 246.45 149.112ZM246.703 146.179L246.716 147.253H245.575C245.292 147.253 245.044 147.282 244.83 147.341C244.615 147.396 244.44 147.478 244.303 147.588C244.167 147.692 244.064 147.82 243.996 147.97C243.927 148.116 243.893 148.283 243.893 148.469C243.893 148.652 243.934 148.816 244.016 148.962C244.103 149.107 244.226 149.224 244.385 149.31C244.549 149.392 244.741 149.433 244.959 149.433C245.278 149.433 245.556 149.369 245.793 149.242C246.03 149.11 246.215 148.95 246.347 148.763C246.479 148.576 246.55 148.399 246.559 148.23L247.079 149.009C247.015 149.196 246.919 149.394 246.792 149.604C246.664 149.814 246.5 150.01 246.299 150.192C246.099 150.374 245.857 150.525 245.575 150.643C245.292 150.762 244.964 150.821 244.59 150.821C244.112 150.821 243.683 150.725 243.305 150.534C242.927 150.342 242.628 150.08 242.41 149.748C242.191 149.415 242.082 149.037 242.082 148.613C242.082 148.221 242.154 147.875 242.3 147.574C242.446 147.273 242.663 147.02 242.95 146.815C243.237 146.605 243.592 146.448 244.016 146.343C244.444 146.234 244.934 146.179 245.486 146.179H246.703ZM253.962 148.661C253.962 148.506 253.921 148.367 253.839 148.244C253.757 148.121 253.602 148.009 253.375 147.909C253.151 147.804 252.823 147.706 252.39 147.615C252.007 147.533 251.654 147.43 251.331 147.307C251.007 147.184 250.729 147.036 250.497 146.863C250.264 146.685 250.082 146.478 249.95 146.241C249.822 145.999 249.758 145.721 249.758 145.407C249.758 145.102 249.824 144.814 249.957 144.546C250.089 144.272 250.28 144.033 250.531 143.828C250.781 143.618 251.087 143.454 251.447 143.336C251.807 143.213 252.212 143.151 252.664 143.151C253.292 143.151 253.833 143.254 254.284 143.459C254.739 143.664 255.088 143.946 255.33 144.306C255.571 144.662 255.692 145.063 255.692 145.509H253.887C253.887 145.313 253.842 145.136 253.75 144.976C253.664 144.817 253.529 144.689 253.347 144.593C253.165 144.493 252.935 144.443 252.657 144.443C252.406 144.443 252.194 144.484 252.021 144.566C251.852 144.648 251.725 144.755 251.638 144.887C251.552 145.019 251.508 145.165 251.508 145.325C251.508 145.443 251.531 145.55 251.577 145.646C251.627 145.737 251.707 145.822 251.816 145.899C251.925 145.977 252.073 146.047 252.26 146.111C252.452 146.175 252.686 146.236 252.964 146.296C253.516 146.405 253.997 146.551 254.407 146.733C254.821 146.911 255.145 147.148 255.377 147.444C255.61 147.74 255.726 148.118 255.726 148.579C255.726 148.907 255.655 149.208 255.514 149.481C255.373 149.75 255.168 149.985 254.899 150.185C254.63 150.386 254.309 150.543 253.935 150.657C253.561 150.766 253.14 150.821 252.67 150.821C251.991 150.821 251.417 150.7 250.948 150.459C250.478 150.213 250.123 149.903 249.881 149.529C249.64 149.151 249.519 148.759 249.519 148.353H251.249C251.262 148.64 251.34 148.87 251.481 149.044C251.622 149.217 251.8 149.342 252.014 149.42C252.233 149.492 252.463 149.529 252.705 149.529C252.978 149.529 253.208 149.492 253.395 149.42C253.582 149.342 253.723 149.24 253.819 149.112C253.915 148.98 253.962 148.829 253.962 148.661ZM261.167 148.661C261.167 148.506 261.126 148.367 261.044 148.244C260.962 148.121 260.807 148.009 260.58 147.909C260.356 147.804 260.028 147.706 259.595 147.615C259.212 147.533 258.859 147.43 258.536 147.307C258.212 147.184 257.934 147.036 257.702 146.863C257.469 146.685 257.287 146.478 257.155 146.241C257.027 145.999 256.963 145.721 256.963 145.407C256.963 145.102 257.029 144.814 257.162 144.546C257.294 144.272 257.485 144.033 257.736 143.828C257.986 143.618 258.292 143.454 258.652 143.336C259.012 143.213 259.417 143.151 259.869 143.151C260.498 143.151 261.038 143.254 261.489 143.459C261.944 143.664 262.293 143.946 262.535 144.306C262.776 144.662 262.897 145.063 262.897 145.509H261.092C261.092 145.313 261.047 145.136 260.956 144.976C260.869 144.817 260.735 144.689 260.552 144.593C260.37 144.493 260.14 144.443 259.862 144.443C259.611 144.443 259.399 144.484 259.226 144.566C259.057 144.648 258.93 144.755 258.843 144.887C258.757 145.019 258.713 145.165 258.713 145.325C258.713 145.443 258.736 145.55 258.782 145.646C258.832 145.737 258.912 145.822 259.021 145.899C259.13 145.977 259.278 146.047 259.465 146.111C259.657 146.175 259.891 146.236 260.169 146.296C260.721 146.405 261.202 146.551 261.612 146.733C262.027 146.911 262.35 147.148 262.583 147.444C262.815 147.74 262.931 148.118 262.931 148.579C262.931 148.907 262.861 149.208 262.719 149.481C262.578 149.75 262.373 149.985 262.104 150.185C261.835 150.386 261.514 150.543 261.14 150.657C260.766 150.766 260.345 150.821 259.875 150.821C259.196 150.821 258.622 150.7 258.153 150.459C257.683 150.213 257.328 149.903 257.086 149.529C256.845 149.151 256.724 148.759 256.724 148.353H258.454C258.467 148.64 258.545 148.87 258.686 149.044C258.827 149.217 259.005 149.342 259.219 149.42C259.438 149.492 259.668 149.529 259.91 149.529C260.183 149.529 260.413 149.492 260.6 149.42C260.787 149.342 260.928 149.24 261.024 149.112C261.12 148.98 261.167 148.829 261.167 148.661Z" fill="#ABA9A9"/>
<path d="M25.6094 143.036L22.3672 152.684H20.0938L24.3438 141.309H25.7969L25.6094 143.036ZM28.3203 152.684L25.0625 143.036L24.8672 141.309H26.3281L30.6016 152.684H28.3203ZM28.1719 148.458V150.153H22.0703V148.458H28.1719Z" fill="black"/>
<path d="M38.7402 117.335V118.436H33.0391V117.335H38.7402ZM38.7402 120.172V121.272H33.0391V120.172H38.7402ZM46.335 124H44.5166V115.92C44.5166 115.364 44.6237 114.897 44.8379 114.519C45.0521 114.136 45.3574 113.846 45.7539 113.65C46.1504 113.454 46.6175 113.356 47.1553 113.356C47.333 113.356 47.5016 113.368 47.6611 113.391C47.8252 113.413 47.987 113.445 48.1465 113.486L48.1123 114.86C48.0257 114.838 47.93 114.822 47.8252 114.812C47.7249 114.803 47.6133 114.799 47.4902 114.799C47.2441 114.799 47.0345 114.842 46.8613 114.929C46.6882 115.015 46.556 115.143 46.4648 115.312C46.3783 115.476 46.335 115.678 46.335 115.92V124ZM47.832 116.604V117.902H43.4023V116.604H47.832ZM50.751 118.114V124H48.9463V116.604H50.6553L50.751 118.114ZM53 116.556L52.9727 118.237C52.8724 118.219 52.7585 118.205 52.6309 118.196C52.5078 118.187 52.3916 118.183 52.2822 118.183C52.0042 118.183 51.7604 118.221 51.5508 118.299C51.3411 118.372 51.1657 118.479 51.0244 118.62C50.8877 118.761 50.7829 118.935 50.71 119.14C50.637 119.34 50.596 119.568 50.5869 119.823L50.1973 119.775C50.1973 119.306 50.2451 118.871 50.3408 118.47C50.4365 118.069 50.5755 117.718 50.7578 117.417C50.9401 117.116 51.168 116.884 51.4414 116.72C51.7194 116.551 52.0384 116.467 52.3984 116.467C52.4987 116.467 52.6058 116.476 52.7197 116.494C52.8382 116.508 52.9316 116.528 53 116.556ZM57.1768 124.137C56.6162 124.137 56.1126 124.046 55.666 123.863C55.2194 123.681 54.8389 123.428 54.5244 123.104C54.2145 122.776 53.9753 122.396 53.8066 121.963C53.6426 121.525 53.5605 121.056 53.5605 120.555V120.281C53.5605 119.712 53.6426 119.194 53.8066 118.729C53.9707 118.26 54.2031 117.857 54.5039 117.52C54.8047 117.182 55.1647 116.923 55.584 116.74C56.0033 116.558 56.4658 116.467 56.9717 116.467C57.4958 116.467 57.9583 116.556 58.3594 116.733C58.7604 116.907 59.0954 117.153 59.3643 117.472C59.6331 117.791 59.8359 118.174 59.9727 118.62C60.1094 119.062 60.1777 119.552 60.1777 120.09V120.849H54.3809V119.604H58.4004V119.468C58.3913 119.181 58.3366 118.919 58.2363 118.682C58.1361 118.44 57.9811 118.249 57.7715 118.107C57.5618 117.962 57.2907 117.889 56.958 117.889C56.6891 117.889 56.4544 117.948 56.2539 118.066C56.0579 118.18 55.8939 118.344 55.7617 118.559C55.6341 118.768 55.5384 119.019 55.4746 119.311C55.4108 119.602 55.3789 119.926 55.3789 120.281V120.555C55.3789 120.865 55.4199 121.152 55.502 121.416C55.5885 121.68 55.7139 121.91 55.8779 122.106C56.0465 122.298 56.2471 122.448 56.4795 122.558C56.7165 122.662 56.9854 122.715 57.2861 122.715C57.6644 122.715 58.0062 122.642 58.3115 122.496C58.6214 122.346 58.8903 122.125 59.1182 121.833L60.0273 122.776C59.8724 123.004 59.6628 123.223 59.3984 123.433C59.1387 123.642 58.8242 123.813 58.4551 123.945C58.0859 124.073 57.6598 124.137 57.1768 124.137ZM65.8174 126.844V118.094L66.0361 116.604H67.6357V126.844H65.8174ZM61.0732 120.377V120.233C61.0732 119.668 61.137 119.156 61.2646 118.695C61.3923 118.23 61.5791 117.834 61.8252 117.506C62.0758 117.173 62.3812 116.918 62.7412 116.74C63.1012 116.558 63.5137 116.467 63.9785 116.467C64.4342 116.467 64.8285 116.556 65.1611 116.733C65.4938 116.911 65.7764 117.164 66.0088 117.492C66.2412 117.816 66.4258 118.201 66.5625 118.647C66.7038 119.094 66.8086 119.589 66.877 120.131V120.521C66.8086 121.04 66.7038 121.521 66.5625 121.963C66.4258 122.4 66.2412 122.783 66.0088 123.111C65.7809 123.435 65.4984 123.688 65.1611 123.87C64.8239 124.048 64.4251 124.137 63.9648 124.137C63.5046 124.137 63.0944 124.043 62.7344 123.856C62.3789 123.665 62.0758 123.401 61.8252 123.063C61.5791 122.726 61.3923 122.33 61.2646 121.874C61.137 121.414 61.0732 120.915 61.0732 120.377ZM62.8848 120.233V120.377C62.8848 120.701 62.9121 121.004 62.9668 121.286C63.026 121.564 63.1172 121.81 63.2402 122.024C63.3633 122.239 63.5205 122.407 63.7119 122.53C63.9079 122.653 64.1449 122.715 64.4229 122.715C64.7965 122.715 65.0996 122.633 65.332 122.469C65.569 122.305 65.7467 122.084 65.8652 121.806C65.9883 121.523 66.068 121.209 66.1045 120.862V119.796C66.0817 119.518 66.0339 119.263 65.9609 119.03C65.888 118.798 65.7855 118.597 65.6533 118.429C65.5257 118.26 65.3617 118.128 65.1611 118.032C64.9606 117.937 64.7191 117.889 64.4365 117.889C64.1585 117.889 63.9215 117.95 63.7256 118.073C63.5296 118.192 63.3701 118.358 63.2471 118.572C63.124 118.786 63.0329 119.035 62.9736 119.317C62.9144 119.6 62.8848 119.905 62.8848 120.233ZM73.7061 122.243V116.604H75.5244V124H73.8154L73.7061 122.243ZM73.9385 120.712L74.499 120.698C74.499 121.195 74.4443 121.653 74.335 122.072C74.2256 122.492 74.0547 122.856 73.8223 123.166C73.5944 123.471 73.305 123.711 72.9541 123.884C72.6032 124.052 72.1885 124.137 71.71 124.137C71.3454 124.137 71.0127 124.087 70.7119 123.986C70.4111 123.882 70.1514 123.72 69.9326 123.501C69.7184 123.278 69.5521 122.993 69.4336 122.646C69.3151 122.296 69.2559 121.874 69.2559 121.382V116.604H71.0605V121.396C71.0605 121.642 71.0879 121.847 71.1426 122.011C71.2018 122.175 71.2816 122.309 71.3818 122.414C71.4867 122.514 71.6074 122.587 71.7441 122.633C71.8854 122.674 72.0358 122.694 72.1953 122.694C72.6328 122.694 72.9769 122.608 73.2275 122.435C73.4827 122.257 73.665 122.02 73.7744 121.724C73.8838 121.423 73.9385 121.086 73.9385 120.712ZM80.4463 124.137C79.8857 124.137 79.3822 124.046 78.9355 123.863C78.4889 123.681 78.1084 123.428 77.7939 123.104C77.484 122.776 77.2448 122.396 77.0762 121.963C76.9121 121.525 76.8301 121.056 76.8301 120.555V120.281C76.8301 119.712 76.9121 119.194 77.0762 118.729C77.2402 118.26 77.4727 117.857 77.7734 117.52C78.0742 117.182 78.4342 116.923 78.8535 116.74C79.2728 116.558 79.7354 116.467 80.2412 116.467C80.7653 116.467 81.2279 116.556 81.6289 116.733C82.0299 116.907 82.3649 117.153 82.6338 117.472C82.9027 117.791 83.1055 118.174 83.2422 118.62C83.3789 119.062 83.4473 119.552 83.4473 120.09V120.849H77.6504V119.604H81.6699V119.468C81.6608 119.181 81.6061 118.919 81.5059 118.682C81.4056 118.44 81.2507 118.249 81.041 118.107C80.8314 117.962 80.5602 117.889 80.2275 117.889C79.9587 117.889 79.724 117.948 79.5234 118.066C79.3275 118.18 79.1634 118.344 79.0312 118.559C78.9036 118.768 78.8079 119.019 78.7441 119.311C78.6803 119.602 78.6484 119.926 78.6484 120.281V120.555C78.6484 120.865 78.6895 121.152 78.7715 121.416C78.8581 121.68 78.9834 121.91 79.1475 122.106C79.3161 122.298 79.5166 122.448 79.749 122.558C79.986 122.662 80.2549 122.715 80.5557 122.715C80.9339 122.715 81.2757 122.642 81.5811 122.496C81.891 122.346 82.1598 122.125 82.3877 121.833L83.2969 122.776C83.1419 123.004 82.9323 123.223 82.668 123.433C82.4082 123.642 82.0938 123.813 81.7246 123.945C81.3555 124.073 80.9294 124.137 80.4463 124.137ZM86.4277 118.183V124H84.623V116.604H86.3184L86.4277 118.183ZM86.1406 120.035H85.6074C85.612 119.497 85.6849 119.01 85.8262 118.572C85.9674 118.135 86.1657 117.759 86.4209 117.444C86.6807 117.13 86.9883 116.888 87.3438 116.72C87.6992 116.551 88.0957 116.467 88.5332 116.467C88.8887 116.467 89.21 116.517 89.4971 116.617C89.7842 116.717 90.0303 116.877 90.2354 117.096C90.445 117.314 90.6045 117.602 90.7139 117.957C90.8278 118.308 90.8848 118.741 90.8848 119.256V124H89.0664V119.242C89.0664 118.905 89.0163 118.638 88.916 118.442C88.8203 118.246 88.679 118.107 88.4922 118.025C88.3099 117.943 88.0843 117.902 87.8154 117.902C87.5374 117.902 87.2936 117.959 87.084 118.073C86.8789 118.183 86.7057 118.335 86.5645 118.531C86.4277 118.727 86.3229 118.953 86.25 119.208C86.1771 119.463 86.1406 119.739 86.1406 120.035ZM95.5127 122.715C95.7679 122.715 95.9958 122.665 96.1963 122.564C96.3968 122.464 96.5563 122.323 96.6748 122.141C96.7979 121.958 96.8639 121.746 96.873 121.505H98.5752C98.5661 122.006 98.4248 122.455 98.1514 122.852C97.8779 123.248 97.5133 123.562 97.0576 123.795C96.6064 124.023 96.1006 124.137 95.54 124.137C94.9704 124.137 94.4736 124.041 94.0498 123.85C93.626 123.658 93.2728 123.392 92.9902 123.05C92.7122 122.708 92.5026 122.312 92.3613 121.86C92.2246 121.409 92.1562 120.926 92.1562 120.411V120.192C92.1562 119.677 92.2246 119.194 92.3613 118.743C92.5026 118.292 92.7122 117.896 92.9902 117.554C93.2728 117.212 93.626 116.945 94.0498 116.754C94.4736 116.562 94.9681 116.467 95.5332 116.467C96.1302 116.467 96.6543 116.583 97.1055 116.815C97.5612 117.048 97.9167 117.376 98.1719 117.8C98.4316 118.224 98.5661 118.723 98.5752 119.297H96.873C96.8639 119.033 96.8047 118.796 96.6953 118.586C96.5859 118.376 96.431 118.208 96.2305 118.08C96.0299 117.952 95.7861 117.889 95.499 117.889C95.1937 117.889 94.9385 117.952 94.7334 118.08C94.5329 118.208 94.3757 118.383 94.2617 118.606C94.1523 118.825 94.0749 119.071 94.0293 119.345C93.9883 119.614 93.9678 119.896 93.9678 120.192V120.411C93.9678 120.712 93.9883 120.999 94.0293 121.272C94.0749 121.546 94.1523 121.792 94.2617 122.011C94.3757 122.225 94.5329 122.396 94.7334 122.523C94.9385 122.651 95.1982 122.715 95.5127 122.715ZM101.945 123.18L103.928 116.604H105.862L102.896 125.121C102.827 125.303 102.738 125.502 102.629 125.716C102.524 125.93 102.383 126.133 102.205 126.324C102.027 126.52 101.804 126.68 101.535 126.803C101.271 126.926 100.95 126.987 100.571 126.987C100.407 126.987 100.261 126.976 100.134 126.953C100.006 126.93 99.8717 126.901 99.7305 126.864V125.511C99.776 125.515 99.8285 125.518 99.8877 125.518C99.9515 125.522 100.006 125.524 100.052 125.524C100.316 125.524 100.535 125.493 100.708 125.429C100.881 125.369 101.02 125.271 101.125 125.135C101.234 125.003 101.326 124.829 101.398 124.615L101.945 123.18ZM100.968 116.604L102.643 122.052L102.937 123.959L101.692 124.185L99.0195 116.604H100.968ZM109.902 120.377V120.233C109.902 119.691 109.98 119.192 110.135 118.736C110.29 118.276 110.515 117.877 110.812 117.54C111.108 117.203 111.47 116.941 111.898 116.754C112.327 116.562 112.814 116.467 113.361 116.467C113.917 116.467 114.41 116.562 114.838 116.754C115.271 116.941 115.635 117.203 115.932 117.54C116.228 117.877 116.453 118.276 116.608 118.736C116.763 119.192 116.841 119.691 116.841 120.233V120.377C116.841 120.915 116.763 121.414 116.608 121.874C116.453 122.33 116.228 122.729 115.932 123.07C115.635 123.408 115.273 123.67 114.845 123.856C114.416 124.043 113.926 124.137 113.375 124.137C112.828 124.137 112.338 124.043 111.905 123.856C111.472 123.67 111.108 123.408 110.812 123.07C110.515 122.729 110.29 122.33 110.135 121.874C109.98 121.414 109.902 120.915 109.902 120.377ZM111.707 120.233V120.377C111.707 120.701 111.739 121.004 111.803 121.286C111.867 121.569 111.965 121.817 112.097 122.031C112.229 122.245 112.4 122.414 112.609 122.537C112.824 122.656 113.079 122.715 113.375 122.715C113.667 122.715 113.917 122.656 114.127 122.537C114.337 122.414 114.507 122.245 114.64 122.031C114.776 121.817 114.877 121.569 114.94 121.286C115.004 121.004 115.036 120.701 115.036 120.377V120.233C115.036 119.914 115.004 119.616 114.94 119.338C114.877 119.055 114.776 118.807 114.64 118.593C114.507 118.374 114.334 118.203 114.12 118.08C113.91 117.952 113.658 117.889 113.361 117.889C113.07 117.889 112.819 117.952 112.609 118.08C112.4 118.203 112.229 118.374 112.097 118.593C111.965 118.807 111.867 119.055 111.803 119.338C111.739 119.616 111.707 119.914 111.707 120.233ZM120.519 124H118.7V115.92C118.7 115.364 118.807 114.897 119.021 114.519C119.236 114.136 119.541 113.846 119.938 113.65C120.334 113.454 120.801 113.356 121.339 113.356C121.517 113.356 121.685 113.368 121.845 113.391C122.009 113.413 122.171 113.445 122.33 113.486L122.296 114.86C122.209 114.838 122.114 114.822 122.009 114.812C121.909 114.803 121.797 114.799 121.674 114.799C121.428 114.799 121.218 114.842 121.045 114.929C120.872 115.015 120.74 115.143 120.648 115.312C120.562 115.476 120.519 115.678 120.519 115.92V124ZM122.016 116.604V117.902H117.586V116.604H122.016ZM128.674 122.223L130.294 116.604H131.442L131.101 118.545L129.467 124H128.476L128.674 122.223ZM127.778 116.604L128.995 122.236L129.104 124H127.963L126.021 116.604H127.778ZM132.946 122.154L134.136 116.604H135.886L133.958 124H132.816L132.946 122.154ZM131.62 116.604L133.227 122.168L133.438 124H132.447L130.8 118.545L130.465 116.604H131.62ZM136.631 120.377V120.233C136.631 119.691 136.708 119.192 136.863 118.736C137.018 118.276 137.244 117.877 137.54 117.54C137.836 117.203 138.199 116.941 138.627 116.754C139.055 116.562 139.543 116.467 140.09 116.467C140.646 116.467 141.138 116.562 141.566 116.754C141.999 116.941 142.364 117.203 142.66 117.54C142.956 117.877 143.182 118.276 143.337 118.736C143.492 119.192 143.569 119.691 143.569 120.233V120.377C143.569 120.915 143.492 121.414 143.337 121.874C143.182 122.33 142.956 122.729 142.66 123.07C142.364 123.408 142.002 123.67 141.573 123.856C141.145 124.043 140.655 124.137 140.104 124.137C139.557 124.137 139.067 124.043 138.634 123.856C138.201 123.67 137.836 123.408 137.54 123.07C137.244 122.729 137.018 122.33 136.863 121.874C136.708 121.414 136.631 120.915 136.631 120.377ZM138.436 120.233V120.377C138.436 120.701 138.467 121.004 138.531 121.286C138.595 121.569 138.693 121.817 138.825 122.031C138.957 122.245 139.128 122.414 139.338 122.537C139.552 122.656 139.807 122.715 140.104 122.715C140.395 122.715 140.646 122.656 140.855 122.537C141.065 122.414 141.236 122.245 141.368 122.031C141.505 121.817 141.605 121.569 141.669 121.286C141.733 121.004 141.765 120.701 141.765 120.377V120.233C141.765 119.914 141.733 119.616 141.669 119.338C141.605 119.055 141.505 118.807 141.368 118.593C141.236 118.374 141.063 118.203 140.849 118.08C140.639 117.952 140.386 117.889 140.09 117.889C139.798 117.889 139.548 117.952 139.338 118.08C139.128 118.203 138.957 118.374 138.825 118.593C138.693 118.807 138.595 119.055 138.531 119.338C138.467 119.616 138.436 119.914 138.436 120.233ZM146.687 118.114V124H144.882V116.604H146.591L146.687 118.114ZM148.936 116.556L148.908 118.237C148.808 118.219 148.694 118.205 148.566 118.196C148.443 118.187 148.327 118.183 148.218 118.183C147.94 118.183 147.696 118.221 147.486 118.299C147.277 118.372 147.101 118.479 146.96 118.62C146.823 118.761 146.718 118.935 146.646 119.14C146.573 119.34 146.532 119.568 146.522 119.823L146.133 119.775C146.133 119.306 146.181 118.871 146.276 118.47C146.372 118.069 146.511 117.718 146.693 117.417C146.876 117.116 147.104 116.884 147.377 116.72C147.655 116.551 147.974 116.467 148.334 116.467C148.434 116.467 148.541 116.476 148.655 116.494C148.774 116.508 148.867 116.528 148.936 116.556ZM154.227 122.428V113.5H156.045V124H154.404L154.227 122.428ZM149.476 120.391V120.247C149.476 119.682 149.539 119.169 149.667 118.709C149.799 118.244 149.991 117.845 150.241 117.513C150.492 117.18 150.795 116.923 151.15 116.74C151.51 116.558 151.918 116.467 152.374 116.467C152.816 116.467 153.201 116.556 153.529 116.733C153.862 116.911 154.145 117.164 154.377 117.492C154.614 117.82 154.803 118.21 154.944 118.661C155.086 119.108 155.188 119.6 155.252 120.138V120.527C155.188 121.051 155.086 121.532 154.944 121.97C154.803 122.407 154.614 122.79 154.377 123.118C154.145 123.442 153.862 123.692 153.529 123.87C153.197 124.048 152.807 124.137 152.36 124.137C151.909 124.137 151.504 124.043 151.144 123.856C150.788 123.67 150.485 123.408 150.234 123.07C149.988 122.733 149.799 122.337 149.667 121.881C149.539 121.425 149.476 120.928 149.476 120.391ZM151.287 120.247V120.391C151.287 120.71 151.314 121.008 151.369 121.286C151.424 121.564 151.513 121.81 151.636 122.024C151.759 122.234 151.916 122.398 152.107 122.517C152.303 122.635 152.54 122.694 152.818 122.694C153.174 122.694 153.465 122.617 153.693 122.462C153.926 122.302 154.106 122.086 154.233 121.812C154.361 121.535 154.443 121.222 154.479 120.876V119.803C154.461 119.529 154.413 119.276 154.336 119.044C154.263 118.812 154.158 118.611 154.021 118.442C153.889 118.274 153.725 118.142 153.529 118.046C153.333 117.95 153.101 117.902 152.832 117.902C152.554 117.902 152.317 117.964 152.121 118.087C151.925 118.205 151.766 118.372 151.643 118.586C151.52 118.8 151.428 119.049 151.369 119.331C151.314 119.614 151.287 119.919 151.287 120.247ZM175.808 122.428V119.017C175.808 118.766 175.764 118.549 175.678 118.367C175.591 118.185 175.459 118.044 175.281 117.943C175.104 117.843 174.878 117.793 174.604 117.793C174.363 117.793 174.151 117.834 173.969 117.916C173.791 117.998 173.654 118.114 173.559 118.265C173.463 118.41 173.415 118.579 173.415 118.771H171.604C171.604 118.465 171.676 118.176 171.822 117.902C171.968 117.624 172.175 117.378 172.444 117.164C172.718 116.945 173.044 116.774 173.422 116.651C173.805 116.528 174.233 116.467 174.707 116.467C175.268 116.467 175.767 116.562 176.204 116.754C176.646 116.941 176.993 117.223 177.243 117.602C177.498 117.98 177.626 118.456 177.626 119.03V122.257C177.626 122.626 177.649 122.943 177.694 123.207C177.744 123.467 177.817 123.692 177.913 123.884V124H176.074C175.988 123.813 175.922 123.576 175.876 123.289C175.83 122.997 175.808 122.71 175.808 122.428ZM176.061 119.495L176.074 120.568H174.933C174.65 120.568 174.402 120.598 174.188 120.657C173.973 120.712 173.798 120.794 173.661 120.903C173.524 121.008 173.422 121.136 173.354 121.286C173.285 121.432 173.251 121.598 173.251 121.785C173.251 121.967 173.292 122.132 173.374 122.277C173.461 122.423 173.584 122.539 173.743 122.626C173.907 122.708 174.099 122.749 174.317 122.749C174.636 122.749 174.914 122.685 175.151 122.558C175.388 122.425 175.573 122.266 175.705 122.079C175.837 121.892 175.908 121.715 175.917 121.546L176.437 122.325C176.373 122.512 176.277 122.71 176.149 122.92C176.022 123.13 175.858 123.326 175.657 123.508C175.457 123.69 175.215 123.84 174.933 123.959C174.65 124.077 174.322 124.137 173.948 124.137C173.47 124.137 173.041 124.041 172.663 123.85C172.285 123.658 171.986 123.396 171.768 123.063C171.549 122.731 171.439 122.353 171.439 121.929C171.439 121.537 171.512 121.19 171.658 120.89C171.804 120.589 172.021 120.336 172.308 120.131C172.595 119.921 172.95 119.764 173.374 119.659C173.802 119.55 174.292 119.495 174.844 119.495H176.061ZM182.288 122.715C182.543 122.715 182.771 122.665 182.972 122.564C183.172 122.464 183.332 122.323 183.45 122.141C183.573 121.958 183.639 121.746 183.648 121.505H185.351C185.341 122.006 185.2 122.455 184.927 122.852C184.653 123.248 184.289 123.562 183.833 123.795C183.382 124.023 182.876 124.137 182.315 124.137C181.746 124.137 181.249 124.041 180.825 123.85C180.401 123.658 180.048 123.392 179.766 123.05C179.488 122.708 179.278 122.312 179.137 121.86C179 121.409 178.932 120.926 178.932 120.411V120.192C178.932 119.677 179 119.194 179.137 118.743C179.278 118.292 179.488 117.896 179.766 117.554C180.048 117.212 180.401 116.945 180.825 116.754C181.249 116.562 181.743 116.467 182.309 116.467C182.906 116.467 183.43 116.583 183.881 116.815C184.337 117.048 184.692 117.376 184.947 117.8C185.207 118.224 185.341 118.723 185.351 119.297H183.648C183.639 119.033 183.58 118.796 183.471 118.586C183.361 118.376 183.206 118.208 183.006 118.08C182.805 117.952 182.562 117.889 182.274 117.889C181.969 117.889 181.714 117.952 181.509 118.08C181.308 118.208 181.151 118.383 181.037 118.606C180.928 118.825 180.85 119.071 180.805 119.345C180.764 119.614 180.743 119.896 180.743 120.192V120.411C180.743 120.712 180.764 120.999 180.805 121.272C180.85 121.546 180.928 121.792 181.037 122.011C181.151 122.225 181.308 122.396 181.509 122.523C181.714 122.651 181.974 122.715 182.288 122.715ZM188.358 118.114V124H186.554V116.604H188.263L188.358 118.114ZM190.607 116.556L190.58 118.237C190.48 118.219 190.366 118.205 190.238 118.196C190.115 118.187 189.999 118.183 189.89 118.183C189.612 118.183 189.368 118.221 189.158 118.299C188.949 118.372 188.773 118.479 188.632 118.62C188.495 118.761 188.39 118.935 188.317 119.14C188.244 119.34 188.203 119.568 188.194 119.823L187.805 119.775C187.805 119.306 187.853 118.871 187.948 118.47C188.044 118.069 188.183 117.718 188.365 117.417C188.548 117.116 188.775 116.884 189.049 116.72C189.327 116.551 189.646 116.467 190.006 116.467C190.106 116.467 190.213 116.476 190.327 116.494C190.446 116.508 190.539 116.528 190.607 116.556ZM191.086 120.377V120.233C191.086 119.691 191.163 119.192 191.318 118.736C191.473 118.276 191.699 117.877 191.995 117.54C192.291 117.203 192.654 116.941 193.082 116.754C193.51 116.562 193.998 116.467 194.545 116.467C195.101 116.467 195.593 116.562 196.021 116.754C196.454 116.941 196.819 117.203 197.115 117.54C197.411 117.877 197.637 118.276 197.792 118.736C197.947 119.192 198.024 119.691 198.024 120.233V120.377C198.024 120.915 197.947 121.414 197.792 121.874C197.637 122.33 197.411 122.729 197.115 123.07C196.819 123.408 196.457 123.67 196.028 123.856C195.6 124.043 195.11 124.137 194.559 124.137C194.012 124.137 193.522 124.043 193.089 123.856C192.656 123.67 192.291 123.408 191.995 123.07C191.699 122.729 191.473 122.33 191.318 121.874C191.163 121.414 191.086 120.915 191.086 120.377ZM192.891 120.233V120.377C192.891 120.701 192.923 121.004 192.986 121.286C193.05 121.569 193.148 121.817 193.28 122.031C193.412 122.245 193.583 122.414 193.793 122.537C194.007 122.656 194.262 122.715 194.559 122.715C194.85 122.715 195.101 122.656 195.311 122.537C195.52 122.414 195.691 122.245 195.823 122.031C195.96 121.817 196.06 121.569 196.124 121.286C196.188 121.004 196.22 120.701 196.22 120.377V120.233C196.22 119.914 196.188 119.616 196.124 119.338C196.06 119.055 195.96 118.807 195.823 118.593C195.691 118.374 195.518 118.203 195.304 118.08C195.094 117.952 194.841 117.889 194.545 117.889C194.253 117.889 194.003 117.952 193.793 118.08C193.583 118.203 193.412 118.374 193.28 118.593C193.148 118.807 193.05 119.055 192.986 119.338C192.923 119.616 192.891 119.914 192.891 120.233ZM203.404 121.977C203.404 121.822 203.363 121.683 203.281 121.56C203.199 121.437 203.044 121.325 202.816 121.225C202.593 121.12 202.265 121.022 201.832 120.931C201.449 120.849 201.096 120.746 200.772 120.623C200.449 120.5 200.171 120.352 199.938 120.179C199.706 120.001 199.524 119.794 199.392 119.557C199.264 119.315 199.2 119.037 199.2 118.723C199.2 118.417 199.266 118.13 199.398 117.861C199.531 117.588 199.722 117.349 199.973 117.144C200.223 116.934 200.529 116.77 200.889 116.651C201.249 116.528 201.654 116.467 202.105 116.467C202.734 116.467 203.274 116.569 203.726 116.774C204.181 116.979 204.53 117.262 204.771 117.622C205.013 117.978 205.134 118.379 205.134 118.825H203.329C203.329 118.629 203.284 118.451 203.192 118.292C203.106 118.132 202.971 118.005 202.789 117.909C202.607 117.809 202.377 117.759 202.099 117.759C201.848 117.759 201.636 117.8 201.463 117.882C201.294 117.964 201.167 118.071 201.08 118.203C200.993 118.335 200.95 118.481 200.95 118.641C200.95 118.759 200.973 118.866 201.019 118.962C201.069 119.053 201.148 119.137 201.258 119.215C201.367 119.292 201.515 119.363 201.702 119.427C201.894 119.491 202.128 119.552 202.406 119.611C202.958 119.721 203.438 119.867 203.849 120.049C204.263 120.227 204.587 120.464 204.819 120.76C205.052 121.056 205.168 121.434 205.168 121.895C205.168 122.223 205.097 122.523 204.956 122.797C204.815 123.066 204.61 123.3 204.341 123.501C204.072 123.701 203.751 123.859 203.377 123.973C203.003 124.082 202.582 124.137 202.112 124.137C201.433 124.137 200.859 124.016 200.39 123.774C199.92 123.528 199.565 123.218 199.323 122.845C199.082 122.466 198.961 122.075 198.961 121.669H200.69C200.704 121.956 200.782 122.186 200.923 122.359C201.064 122.533 201.242 122.658 201.456 122.735C201.675 122.808 201.905 122.845 202.146 122.845C202.42 122.845 202.65 122.808 202.837 122.735C203.024 122.658 203.165 122.555 203.261 122.428C203.356 122.296 203.404 122.145 203.404 121.977ZM210.609 121.977C210.609 121.822 210.568 121.683 210.486 121.56C210.404 121.437 210.249 121.325 210.021 121.225C209.798 121.12 209.47 121.022 209.037 120.931C208.654 120.849 208.301 120.746 207.978 120.623C207.654 120.5 207.376 120.352 207.144 120.179C206.911 120.001 206.729 119.794 206.597 119.557C206.469 119.315 206.405 119.037 206.405 118.723C206.405 118.417 206.471 118.13 206.604 117.861C206.736 117.588 206.927 117.349 207.178 117.144C207.428 116.934 207.734 116.77 208.094 116.651C208.454 116.528 208.859 116.467 209.311 116.467C209.939 116.467 210.479 116.569 210.931 116.774C211.386 116.979 211.735 117.262 211.977 117.622C212.218 117.978 212.339 118.379 212.339 118.825H210.534C210.534 118.629 210.489 118.451 210.397 118.292C210.311 118.132 210.176 118.005 209.994 117.909C209.812 117.809 209.582 117.759 209.304 117.759C209.053 117.759 208.841 117.8 208.668 117.882C208.499 117.964 208.372 118.071 208.285 118.203C208.199 118.335 208.155 118.481 208.155 118.641C208.155 118.759 208.178 118.866 208.224 118.962C208.274 119.053 208.354 119.137 208.463 119.215C208.572 119.292 208.72 119.363 208.907 119.427C209.099 119.491 209.333 119.552 209.611 119.611C210.163 119.721 210.644 119.867 211.054 120.049C211.468 120.227 211.792 120.464 212.024 120.76C212.257 121.056 212.373 121.434 212.373 121.895C212.373 122.223 212.302 122.523 212.161 122.797C212.02 123.066 211.815 123.3 211.546 123.501C211.277 123.701 210.956 123.859 210.582 123.973C210.208 124.082 209.787 124.137 209.317 124.137C208.638 124.137 208.064 124.016 207.595 123.774C207.125 123.528 206.77 123.218 206.528 122.845C206.287 122.466 206.166 122.075 206.166 121.669H207.896C207.909 121.956 207.987 122.186 208.128 122.359C208.269 122.533 208.447 122.658 208.661 122.735C208.88 122.808 209.11 122.845 209.352 122.845C209.625 122.845 209.855 122.808 210.042 122.735C210.229 122.658 210.37 122.555 210.466 122.428C210.562 122.296 210.609 122.145 210.609 121.977ZM221.308 122.428V119.017C221.308 118.766 221.264 118.549 221.178 118.367C221.091 118.185 220.959 118.044 220.781 117.943C220.604 117.843 220.378 117.793 220.104 117.793C219.863 117.793 219.651 117.834 219.469 117.916C219.291 117.998 219.154 118.114 219.059 118.265C218.963 118.41 218.915 118.579 218.915 118.771H217.104C217.104 118.465 217.176 118.176 217.322 117.902C217.468 117.624 217.675 117.378 217.944 117.164C218.218 116.945 218.544 116.774 218.922 116.651C219.305 116.528 219.733 116.467 220.207 116.467C220.768 116.467 221.267 116.562 221.704 116.754C222.146 116.941 222.493 117.223 222.743 117.602C222.998 117.98 223.126 118.456 223.126 119.03V122.257C223.126 122.626 223.149 122.943 223.194 123.207C223.244 123.467 223.317 123.692 223.413 123.884V124H221.574C221.488 123.813 221.422 123.576 221.376 123.289C221.33 122.997 221.308 122.71 221.308 122.428ZM221.561 119.495L221.574 120.568H220.433C220.15 120.568 219.902 120.598 219.688 120.657C219.473 120.712 219.298 120.794 219.161 120.903C219.024 121.008 218.922 121.136 218.854 121.286C218.785 121.432 218.751 121.598 218.751 121.785C218.751 121.967 218.792 122.132 218.874 122.277C218.961 122.423 219.084 122.539 219.243 122.626C219.407 122.708 219.599 122.749 219.817 122.749C220.136 122.749 220.414 122.685 220.651 122.558C220.888 122.425 221.073 122.266 221.205 122.079C221.337 121.892 221.408 121.715 221.417 121.546L221.937 122.325C221.873 122.512 221.777 122.71 221.649 122.92C221.522 123.13 221.358 123.326 221.157 123.508C220.957 123.69 220.715 123.84 220.433 123.959C220.15 124.077 219.822 124.137 219.448 124.137C218.97 124.137 218.541 124.041 218.163 123.85C217.785 123.658 217.486 123.396 217.268 123.063C217.049 122.731 216.939 122.353 216.939 121.929C216.939 121.537 217.012 121.19 217.158 120.89C217.304 120.589 217.521 120.336 217.808 120.131C218.095 119.921 218.45 119.764 218.874 119.659C219.302 119.55 219.792 119.495 220.344 119.495H221.561ZM226.667 113.5V124H224.855V113.5H226.667ZM230.304 113.5V124H228.492V113.5H230.304ZM238.548 122.715C238.803 122.715 239.031 122.665 239.231 122.564C239.432 122.464 239.591 122.323 239.71 122.141C239.833 121.958 239.899 121.746 239.908 121.505H241.61C241.601 122.006 241.46 122.455 241.187 122.852C240.913 123.248 240.549 123.562 240.093 123.795C239.642 124.023 239.136 124.137 238.575 124.137C238.006 124.137 237.509 124.041 237.085 123.85C236.661 123.658 236.308 123.392 236.025 123.05C235.747 122.708 235.538 122.312 235.396 121.86C235.26 121.409 235.191 120.926 235.191 120.411V120.192C235.191 119.677 235.26 119.194 235.396 118.743C235.538 118.292 235.747 117.896 236.025 117.554C236.308 117.212 236.661 116.945 237.085 116.754C237.509 116.562 238.003 116.467 238.568 116.467C239.165 116.467 239.689 116.583 240.141 116.815C240.596 117.048 240.952 117.376 241.207 117.8C241.467 118.224 241.601 118.723 241.61 119.297H239.908C239.899 119.033 239.84 118.796 239.73 118.586C239.621 118.376 239.466 118.208 239.266 118.08C239.065 117.952 238.821 117.889 238.534 117.889C238.229 117.889 237.974 117.952 237.769 118.08C237.568 118.208 237.411 118.383 237.297 118.606C237.188 118.825 237.11 119.071 237.064 119.345C237.023 119.614 237.003 119.896 237.003 120.192V120.411C237.003 120.712 237.023 120.999 237.064 121.272C237.11 121.546 237.188 121.792 237.297 122.011C237.411 122.225 237.568 122.396 237.769 122.523C237.974 122.651 238.233 122.715 238.548 122.715ZM244.728 113.5V124H242.916V113.5H244.728ZM250.524 122.428V119.017C250.524 118.766 250.481 118.549 250.395 118.367C250.308 118.185 250.176 118.044 249.998 117.943C249.82 117.843 249.595 117.793 249.321 117.793C249.08 117.793 248.868 117.834 248.686 117.916C248.508 117.998 248.371 118.114 248.275 118.265C248.18 118.41 248.132 118.579 248.132 118.771H246.32C246.32 118.465 246.393 118.176 246.539 117.902C246.685 117.624 246.892 117.378 247.161 117.164C247.435 116.945 247.76 116.774 248.139 116.651C248.521 116.528 248.95 116.467 249.424 116.467C249.984 116.467 250.483 116.562 250.921 116.754C251.363 116.941 251.709 117.223 251.96 117.602C252.215 117.98 252.343 118.456 252.343 119.03V122.257C252.343 122.626 252.366 122.943 252.411 123.207C252.461 123.467 252.534 123.692 252.63 123.884V124H250.791C250.704 123.813 250.638 123.576 250.593 123.289C250.547 122.997 250.524 122.71 250.524 122.428ZM250.777 119.495L250.791 120.568H249.649C249.367 120.568 249.118 120.598 248.904 120.657C248.69 120.712 248.515 120.794 248.378 120.903C248.241 121.008 248.139 121.136 248.07 121.286C248.002 121.432 247.968 121.598 247.968 121.785C247.968 121.967 248.009 122.132 248.091 122.277C248.177 122.423 248.3 122.539 248.46 122.626C248.624 122.708 248.815 122.749 249.034 122.749C249.353 122.749 249.631 122.685 249.868 122.558C250.105 122.425 250.29 122.266 250.422 122.079C250.554 121.892 250.625 121.715 250.634 121.546L251.153 122.325C251.09 122.512 250.994 122.71 250.866 122.92C250.739 123.13 250.575 123.326 250.374 123.508C250.174 123.69 249.932 123.84 249.649 123.959C249.367 124.077 249.039 124.137 248.665 124.137C248.187 124.137 247.758 124.041 247.38 123.85C247.002 123.658 246.703 123.396 246.484 123.063C246.266 122.731 246.156 122.353 246.156 121.929C246.156 121.537 246.229 121.19 246.375 120.89C246.521 120.589 246.737 120.336 247.024 120.131C247.312 119.921 247.667 119.764 248.091 119.659C248.519 119.55 249.009 119.495 249.561 119.495H250.777ZM258.037 121.977C258.037 121.822 257.996 121.683 257.914 121.56C257.832 121.437 257.677 121.325 257.449 121.225C257.226 121.12 256.898 121.022 256.465 120.931C256.082 120.849 255.729 120.746 255.405 120.623C255.082 120.5 254.804 120.352 254.571 120.179C254.339 120.001 254.157 119.794 254.024 119.557C253.897 119.315 253.833 119.037 253.833 118.723C253.833 118.417 253.899 118.13 254.031 117.861C254.163 117.588 254.355 117.349 254.605 117.144C254.856 116.934 255.161 116.77 255.521 116.651C255.882 116.528 256.287 116.467 256.738 116.467C257.367 116.467 257.907 116.569 258.358 116.774C258.814 116.979 259.163 117.262 259.404 117.622C259.646 117.978 259.767 118.379 259.767 118.825H257.962C257.962 118.629 257.916 118.451 257.825 118.292C257.739 118.132 257.604 118.005 257.422 117.909C257.24 117.809 257.009 117.759 256.731 117.759C256.481 117.759 256.269 117.8 256.096 117.882C255.927 117.964 255.799 118.071 255.713 118.203C255.626 118.335 255.583 118.481 255.583 118.641C255.583 118.759 255.606 118.866 255.651 118.962C255.701 119.053 255.781 119.137 255.891 119.215C256 119.292 256.148 119.363 256.335 119.427C256.526 119.491 256.761 119.552 257.039 119.611C257.59 119.721 258.071 119.867 258.481 120.049C258.896 120.227 259.22 120.464 259.452 120.76C259.685 121.056 259.801 121.434 259.801 121.895C259.801 122.223 259.73 122.523 259.589 122.797C259.448 123.066 259.243 123.3 258.974 123.501C258.705 123.701 258.383 123.859 258.01 123.973C257.636 124.082 257.215 124.137 256.745 124.137C256.066 124.137 255.492 124.016 255.022 123.774C254.553 123.528 254.198 123.218 253.956 122.845C253.715 122.466 253.594 122.075 253.594 121.669H255.323C255.337 121.956 255.414 122.186 255.556 122.359C255.697 122.533 255.875 122.658 256.089 122.735C256.308 122.808 256.538 122.845 256.779 122.845C257.053 122.845 257.283 122.808 257.47 122.735C257.657 122.658 257.798 122.555 257.894 122.428C257.989 122.296 258.037 122.145 258.037 121.977ZM265.242 121.977C265.242 121.822 265.201 121.683 265.119 121.56C265.037 121.437 264.882 121.325 264.654 121.225C264.431 121.12 264.103 121.022 263.67 120.931C263.287 120.849 262.934 120.746 262.61 120.623C262.287 120.5 262.009 120.352 261.776 120.179C261.544 120.001 261.362 119.794 261.229 119.557C261.102 119.315 261.038 119.037 261.038 118.723C261.038 118.417 261.104 118.13 261.236 117.861C261.368 117.588 261.56 117.349 261.811 117.144C262.061 116.934 262.367 116.77 262.727 116.651C263.087 116.528 263.492 116.467 263.943 116.467C264.572 116.467 265.112 116.569 265.563 116.774C266.019 116.979 266.368 117.262 266.609 117.622C266.851 117.978 266.972 118.379 266.972 118.825H265.167C265.167 118.629 265.121 118.451 265.03 118.292C264.944 118.132 264.809 118.005 264.627 117.909C264.445 117.809 264.215 117.759 263.937 117.759C263.686 117.759 263.474 117.8 263.301 117.882C263.132 117.964 263.005 118.071 262.918 118.203C262.831 118.335 262.788 118.481 262.788 118.641C262.788 118.759 262.811 118.866 262.856 118.962C262.907 119.053 262.986 119.137 263.096 119.215C263.205 119.292 263.353 119.363 263.54 119.427C263.731 119.491 263.966 119.552 264.244 119.611C264.796 119.721 265.276 119.867 265.687 120.049C266.101 120.227 266.425 120.464 266.657 120.76C266.89 121.056 267.006 121.434 267.006 121.895C267.006 122.223 266.935 122.523 266.794 122.797C266.653 123.066 266.448 123.3 266.179 123.501C265.91 123.701 265.589 123.859 265.215 123.973C264.841 124.082 264.42 124.137 263.95 124.137C263.271 124.137 262.697 124.016 262.228 123.774C261.758 123.528 261.403 123.218 261.161 122.845C260.92 122.466 260.799 122.075 260.799 121.669H262.528C262.542 121.956 262.619 122.186 262.761 122.359C262.902 122.533 263.08 122.658 263.294 122.735C263.513 122.808 263.743 122.845 263.984 122.845C264.258 122.845 264.488 122.808 264.675 122.735C264.862 122.658 265.003 122.555 265.099 122.428C265.194 122.296 265.242 122.145 265.242 121.977ZM271.702 124.137C271.142 124.137 270.638 124.046 270.191 123.863C269.745 123.681 269.364 123.428 269.05 123.104C268.74 122.776 268.501 122.396 268.332 121.963C268.168 121.525 268.086 121.056 268.086 120.555V120.281C268.086 119.712 268.168 119.194 268.332 118.729C268.496 118.26 268.729 117.857 269.029 117.52C269.33 117.182 269.69 116.923 270.109 116.74C270.529 116.558 270.991 116.467 271.497 116.467C272.021 116.467 272.484 116.556 272.885 116.733C273.286 116.907 273.621 117.153 273.89 117.472C274.159 117.791 274.361 118.174 274.498 118.62C274.635 119.062 274.703 119.552 274.703 120.09V120.849H268.906V119.604H272.926V119.468C272.917 119.181 272.862 118.919 272.762 118.682C272.661 118.44 272.507 118.249 272.297 118.107C272.087 117.962 271.816 117.889 271.483 117.889C271.215 117.889 270.98 117.948 270.779 118.066C270.583 118.18 270.419 118.344 270.287 118.559C270.16 118.768 270.064 119.019 270 119.311C269.936 119.602 269.904 119.926 269.904 120.281V120.555C269.904 120.865 269.945 121.152 270.027 121.416C270.114 121.68 270.239 121.91 270.403 122.106C270.572 122.298 270.772 122.448 271.005 122.558C271.242 122.662 271.511 122.715 271.812 122.715C272.19 122.715 272.532 122.642 272.837 122.496C273.147 122.346 273.416 122.125 273.644 121.833L274.553 122.776C274.398 123.004 274.188 123.223 273.924 123.433C273.664 123.642 273.35 123.813 272.98 123.945C272.611 124.073 272.185 124.137 271.702 124.137ZM279.98 121.977C279.98 121.822 279.939 121.683 279.857 121.56C279.775 121.437 279.62 121.325 279.393 121.225C279.169 121.12 278.841 121.022 278.408 120.931C278.025 120.849 277.672 120.746 277.349 120.623C277.025 120.5 276.747 120.352 276.515 120.179C276.282 120.001 276.1 119.794 275.968 119.557C275.84 119.315 275.776 119.037 275.776 118.723C275.776 118.417 275.842 118.13 275.975 117.861C276.107 117.588 276.298 117.349 276.549 117.144C276.799 116.934 277.105 116.77 277.465 116.651C277.825 116.528 278.23 116.467 278.682 116.467C279.311 116.467 279.851 116.569 280.302 116.774C280.757 116.979 281.106 117.262 281.348 117.622C281.589 117.978 281.71 118.379 281.71 118.825H279.905C279.905 118.629 279.86 118.451 279.769 118.292C279.682 118.132 279.548 118.005 279.365 117.909C279.183 117.809 278.953 117.759 278.675 117.759C278.424 117.759 278.212 117.8 278.039 117.882C277.87 117.964 277.743 118.071 277.656 118.203C277.57 118.335 277.526 118.481 277.526 118.641C277.526 118.759 277.549 118.866 277.595 118.962C277.645 119.053 277.725 119.137 277.834 119.215C277.943 119.292 278.091 119.363 278.278 119.427C278.47 119.491 278.704 119.552 278.982 119.611C279.534 119.721 280.015 119.867 280.425 120.049C280.84 120.227 281.163 120.464 281.396 120.76C281.628 121.056 281.744 121.434 281.744 121.895C281.744 122.223 281.674 122.523 281.532 122.797C281.391 123.066 281.186 123.3 280.917 123.501C280.648 123.701 280.327 123.859 279.953 123.973C279.579 124.082 279.158 124.137 278.688 124.137C278.009 124.137 277.435 124.016 276.966 123.774C276.496 123.528 276.141 123.218 275.899 122.845C275.658 122.466 275.537 122.075 275.537 121.669H277.267C277.28 121.956 277.358 122.186 277.499 122.359C277.64 122.533 277.818 122.658 278.032 122.735C278.251 122.808 278.481 122.845 278.723 122.845C278.996 122.845 279.226 122.808 279.413 122.735C279.6 122.658 279.741 122.555 279.837 122.428C279.933 122.296 279.98 122.145 279.98 121.977Z" fill="#ABA9A9"/>
<path d="M162.58 116.604L163.899 118.955L165.239 116.604H167.201L165.027 120.227L167.29 124H165.328L163.913 121.532L162.491 124H160.529L162.785 120.227L160.625 116.604H162.58Z" fill="#0277BD"/>
<path d="M24.6016 125H22.5234V115.766C22.5234 115.13 22.6458 114.596 22.8906 114.164C23.1354 113.727 23.4844 113.396 23.9375 113.172C24.3906 112.948 24.9245 112.836 25.5391 112.836C25.7422 112.836 25.9349 112.849 26.1172 112.875C26.3047 112.901 26.4896 112.938 26.6719 112.984L26.6328 114.555C26.5339 114.529 26.4245 114.51 26.3047 114.5C26.1901 114.49 26.0625 114.484 25.9219 114.484C25.6406 114.484 25.401 114.534 25.2031 114.633C25.0052 114.732 24.8542 114.878 24.75 115.07C24.651 115.258 24.6016 115.49 24.6016 115.766V125ZM26.3125 116.547V118.031H21.25V116.547H26.3125Z" fill="black"/>
<path d="M27.2852 122.773L27.9375 124.309L29.0859 122.773H29.957L28.2617 124.895L29.293 127H28.5234L27.8242 125.418L26.6328 127H25.7695L27.5117 124.824L26.5156 122.773H27.2852Z" fill="#0277BD"/>
<path d="M25.3125 37V64H20.2324V37H25.3125ZM28.6875 54.6836V54.3145C28.6875 52.9199 28.8867 51.6367 29.2852 50.4648C29.6836 49.2812 30.2637 48.2559 31.0254 47.3887C31.7871 46.5215 32.7246 45.8477 33.8379 45.3672C34.9512 44.875 36.2285 44.6289 37.6699 44.6289C39.1113 44.6289 40.3945 44.875 41.5195 45.3672C42.6445 45.8477 43.5879 46.5215 44.3496 47.3887C45.123 48.2559 45.709 49.2812 46.1074 50.4648C46.5059 51.6367 46.7051 52.9199 46.7051 54.3145V54.6836C46.7051 56.0664 46.5059 57.3496 46.1074 58.5332C45.709 59.7051 45.123 60.7305 44.3496 61.6094C43.5879 62.4766 42.6504 63.1504 41.5371 63.6309C40.4238 64.1113 39.1465 64.3516 37.7051 64.3516C36.2637 64.3516 34.9805 64.1113 33.8555 63.6309C32.7422 63.1504 31.7988 62.4766 31.0254 61.6094C30.2637 60.7305 29.6836 59.7051 29.2852 58.5332C28.8867 57.3496 28.6875 56.0664 28.6875 54.6836ZM33.75 54.3145V54.6836C33.75 55.4805 33.8203 56.2246 33.9609 56.916C34.1016 57.6074 34.3242 58.2168 34.6289 58.7441C34.9453 59.2598 35.3555 59.6641 35.8594 59.957C36.3633 60.25 36.9785 60.3965 37.7051 60.3965C38.4082 60.3965 39.0117 60.25 39.5156 59.957C40.0195 59.6641 40.4238 59.2598 40.7285 58.7441C41.0332 58.2168 41.2559 57.6074 41.3965 56.916C41.5488 56.2246 41.625 55.4805 41.625 54.6836V54.3145C41.625 53.541 41.5488 52.8145 41.3965 52.1348C41.2559 51.4434 41.0273 50.834 40.7109 50.3066C40.4062 49.7676 40.002 49.3457 39.498 49.041C38.9941 48.7363 38.3848 48.584 37.6699 48.584C36.9551 48.584 36.3457 48.7363 35.8418 49.041C35.3496 49.3457 34.9453 49.7676 34.6289 50.3066C34.3242 50.834 34.1016 51.4434 33.9609 52.1348C33.8203 52.8145 33.75 53.541 33.75 54.3145ZM61.8574 44.9805H66.4453V63.3672C66.4453 65.1016 66.0586 66.5723 65.2852 67.7793C64.5234 68.998 63.457 69.918 62.0859 70.5391C60.7148 71.1719 59.1211 71.4883 57.3047 71.4883C56.5078 71.4883 55.6641 71.3828 54.7734 71.1719C53.8945 70.9609 53.0508 70.6328 52.2422 70.1875C51.4453 69.7422 50.7773 69.1797 50.2383 68.5L52.4707 65.5117C53.0566 66.1914 53.7363 66.7188 54.5098 67.0938C55.2832 67.4805 56.1387 67.6738 57.0762 67.6738C57.9902 67.6738 58.7637 67.5039 59.3965 67.1641C60.0293 66.8359 60.5156 66.3496 60.8555 65.7051C61.1953 65.0723 61.3652 64.3047 61.3652 63.4023V49.375L61.8574 44.9805ZM49.0605 54.7188V54.3496C49.0605 52.8965 49.2363 51.5781 49.5879 50.3945C49.9512 49.1992 50.4609 48.1738 51.1172 47.3184C51.7852 46.4629 52.5938 45.8008 53.543 45.332C54.4922 44.8633 55.5645 44.6289 56.7598 44.6289C58.0254 44.6289 59.0859 44.8633 59.9414 45.332C60.7969 45.8008 61.5 46.4688 62.0508 47.3359C62.6016 48.1914 63.0293 49.2051 63.334 50.377C63.6504 51.5371 63.8965 52.8086 64.0723 54.1914V55C63.8965 56.3242 63.6328 57.5547 63.2812 58.6914C62.9297 59.8281 62.4668 60.8242 61.8926 61.6797C61.3184 62.5234 60.6035 63.1797 59.748 63.6484C58.9043 64.1172 57.8965 64.3516 56.7246 64.3516C55.5527 64.3516 54.4922 64.1113 53.543 63.6309C52.6055 63.1504 51.8027 62.4766 51.1348 61.6094C50.4668 60.7422 49.9512 59.7227 49.5879 58.5508C49.2363 57.3789 49.0605 56.1016 49.0605 54.7188ZM54.123 54.3496V54.7188C54.123 55.5039 54.1992 56.2363 54.3516 56.916C54.5039 57.5957 54.7383 58.1992 55.0547 58.7266C55.3828 59.2422 55.7871 59.6465 56.2676 59.9395C56.7598 60.2207 57.3398 60.3613 58.0078 60.3613C58.9336 60.3613 59.6895 60.168 60.2754 59.7812C60.8613 59.3828 61.3008 58.8379 61.5938 58.1465C61.8867 57.4551 62.0566 56.6582 62.1035 55.7559V53.4531C62.0801 52.7148 61.9805 52.0527 61.8047 51.4668C61.6289 50.8691 61.3828 50.3594 61.0664 49.9375C60.75 49.5156 60.3398 49.1875 59.8359 48.9531C59.332 48.7188 58.7344 48.6016 58.043 48.6016C57.375 48.6016 56.7949 48.7539 56.3027 49.0586C55.8223 49.3516 55.418 49.7559 55.0898 50.2715C54.7734 50.7871 54.5332 51.3965 54.3691 52.0996C54.2051 52.791 54.123 53.541 54.123 54.3496Z" fill="black"/>
<path d="M72.3047 50.5469V50.1953C72.3047 47.1484 72.625 44.2969 73.2656 41.6406C73.9062 38.9844 74.7422 36.5938 75.7734 34.4688C76.8203 32.3438 77.9609 30.5391 79.1953 29.0547C80.4453 27.5547 81.6719 26.4453 82.875 25.7266L83.5547 27.6484C82.5234 28.3828 81.5 29.4453 80.4844 30.8359C79.4844 32.2266 78.5781 33.8984 77.7656 35.8516C76.9531 37.8047 76.3047 39.9844 75.8203 42.3906C75.3359 44.7969 75.0938 47.375 75.0938 50.125V50.5938C75.0938 53.3438 75.3359 55.9219 75.8203 58.3281C76.3047 60.7344 76.9531 62.9141 77.7656 64.8672C78.5781 66.8359 79.4844 68.5234 80.4844 69.9297C81.5 71.3516 82.5234 72.4453 83.5547 73.2109L82.875 75.0156C81.6719 74.2969 80.4453 73.2031 79.1953 71.7344C77.9609 70.2812 76.8203 68.5 75.7734 66.3906C74.7422 64.2969 73.9062 61.9141 73.2656 59.2422C72.625 56.5703 72.3047 53.6719 72.3047 50.5469Z" fill="#ABA9A9"/>
<path d="M122.863 51.0342V53.9229H106.295V51.0342H122.863ZM116.123 43.9785V61.5762H113.052V43.9785H116.123Z" fill="#ABA9A9"/>
<path d="M176.732 34.4619V36.9854H168.631V34.4619H176.732Z" fill="#ABA9A9"/>
<path d="M229.863 33.0342V35.9229H213.295V33.0342H229.863ZM223.123 25.9785V43.5762H220.052V25.9785H223.123Z" fill="#ABA9A9"/>
<path d="M202.863 77.0342V79.9229H186.295V77.0342H202.863ZM196.123 69.9785V87.5762H193.052V69.9785H196.123Z" fill="#ABA9A9"/>
<path d="M284.695 49.5469V49.1953C284.695 46.1484 284.375 43.2969 283.734 40.6406C283.094 37.9844 282.258 35.5938 281.227 33.4688C280.18 31.3438 279.039 29.5391 277.805 28.0547C276.555 26.5547 275.328 25.4453 274.125 24.7266L273.445 26.6484C274.477 27.3828 275.5 28.4453 276.516 29.8359C277.516 31.2266 278.422 32.8984 279.234 34.8516C280.047 36.8047 280.695 38.9844 281.18 41.3906C281.664 43.7969 281.906 46.375 281.906 49.125V49.5938C281.906 52.3438 281.664 54.9219 281.18 57.3281C280.695 59.7344 280.047 61.9141 279.234 63.8672C278.422 65.8359 277.516 67.5234 276.516 68.9297C275.5 70.3516 274.477 71.4453 273.445 72.2109L274.125 74.0156C275.328 73.2969 276.555 72.2031 277.805 70.7344C279.039 69.2812 280.18 67.5 281.227 65.3906C282.258 63.2969 283.094 60.9141 283.734 58.2422C284.375 55.5703 284.695 52.6719 284.695 49.5469Z" fill="#ABA9A9"/>
<path d="M151.621 25.291L144.326 47H139.211L148.773 21.4062H152.043L151.621 25.291ZM157.721 47L150.391 25.291L149.951 21.4062H153.238L162.854 47H157.721ZM157.387 37.4902V41.3047H143.658V37.4902H157.387Z" fill="black"/>
<path d="M96.7988 39.3359V65H92.1406V44.7676L85.9707 46.8066V43.0449L96.2715 39.3359H96.7988Z" fill="black"/>
<line x1="131" y1="56.5" x2="268" y2="56.5" stroke="#ABA9A9"/>
<path d="M171.139 91H166.463V70.2227C166.463 68.793 166.738 67.5918 167.289 66.6191C167.84 65.6348 168.625 64.8906 169.645 64.3867C170.664 63.8828 171.865 63.6309 173.248 63.6309C173.705 63.6309 174.139 63.6602 174.549 63.7188C174.971 63.7773 175.387 63.8594 175.797 63.9648L175.709 67.498C175.486 67.4395 175.24 67.3984 174.971 67.375C174.713 67.3516 174.426 67.3398 174.109 67.3398C173.477 67.3398 172.938 67.4512 172.492 67.6738C172.047 67.8965 171.707 68.2246 171.473 68.6582C171.25 69.0801 171.139 69.6016 171.139 70.2227V91ZM174.988 71.9805V75.3203H163.598V71.9805H174.988Z" fill="black"/>
<path d="M206.285 88.7324C206.285 88.0293 206.525 87.4375 207.006 86.957C207.486 86.4766 208.137 86.2363 208.957 86.2363C209.777 86.2363 210.428 86.4766 210.908 86.957C211.389 87.4375 211.629 88.0293 211.629 88.7324C211.629 89.4238 211.389 90.0098 210.908 90.4902C210.428 90.959 209.777 91.1934 208.957 91.1934C208.137 91.1934 207.486 90.959 207.006 90.4902C206.525 90.0098 206.285 89.4238 206.285 88.7324ZM220.682 79.2227L216.973 78.3262L218.396 65.4062H232.477V69.2559H222.246L221.578 75.2324C221.941 75.0098 222.469 74.7871 223.16 74.5645C223.863 74.3301 224.654 74.2129 225.533 74.2129C226.752 74.2129 227.842 74.4121 228.803 74.8105C229.764 75.1973 230.578 75.7598 231.246 76.498C231.926 77.2363 232.436 78.1387 232.775 79.2051C233.127 80.2598 233.303 81.4551 233.303 82.791C233.303 83.9629 233.127 85.0645 232.775 86.0957C232.436 87.1152 231.914 88.0234 231.211 88.8203C230.508 89.6055 229.623 90.2266 228.557 90.6836C227.49 91.1289 226.236 91.3516 224.795 91.3516C223.705 91.3516 222.656 91.1934 221.648 90.877C220.652 90.5488 219.756 90.0742 218.959 89.4531C218.162 88.8203 217.523 88.0469 217.043 87.1328C216.574 86.2188 216.316 85.1699 216.27 83.9863H220.857C220.939 84.7715 221.15 85.4395 221.49 85.9902C221.83 86.541 222.275 86.9629 222.826 87.2559C223.389 87.5488 224.039 87.6953 224.777 87.6953C225.445 87.6953 226.02 87.5723 226.5 87.3262C226.992 87.0684 227.396 86.7109 227.713 86.2539C228.029 85.7969 228.264 85.2578 228.416 84.6367C228.568 84.0156 228.645 83.3359 228.645 82.5977C228.645 81.8828 228.557 81.2324 228.381 80.6465C228.205 80.0488 227.936 79.5332 227.572 79.0996C227.209 78.666 226.752 78.332 226.201 78.0977C225.662 77.8633 225.029 77.7461 224.303 77.7461C223.33 77.7461 222.58 77.8926 222.053 78.1855C221.537 78.4785 221.08 78.8242 220.682 79.2227Z" fill="black"/>
<path d="M233.285 44.7324C233.285 44.0293 233.525 43.4375 234.006 42.957C234.486 42.4766 235.137 42.2363 235.957 42.2363C236.777 42.2363 237.428 42.4766 237.908 42.957C238.389 43.4375 238.629 44.0293 238.629 44.7324C238.629 45.4238 238.389 46.0098 237.908 46.4902C237.428 46.959 236.777 47.1934 235.957 47.1934C235.137 47.1934 234.486 46.959 234.006 46.4902C233.525 46.0098 233.285 45.4238 233.285 44.7324ZM247.682 35.2227L243.973 34.3262L245.396 21.4062H259.477V25.2559H249.246L248.578 31.2324C248.941 31.0098 249.469 30.7871 250.16 30.5645C250.863 30.3301 251.654 30.2129 252.533 30.2129C253.752 30.2129 254.842 30.4121 255.803 30.8105C256.764 31.1973 257.578 31.7598 258.246 32.498C258.926 33.2363 259.436 34.1387 259.775 35.2051C260.127 36.2598 260.303 37.4551 260.303 38.791C260.303 39.9629 260.127 41.0645 259.775 42.0957C259.436 43.1152 258.914 44.0234 258.211 44.8203C257.508 45.6055 256.623 46.2266 255.557 46.6836C254.49 47.1289 253.236 47.3516 251.795 47.3516C250.705 47.3516 249.656 47.1934 248.648 46.877C247.652 46.5488 246.756 46.0742 245.959 45.4531C245.162 44.8203 244.523 44.0469 244.043 43.1328C243.574 42.2188 243.316 41.1699 243.27 39.9863H247.857C247.939 40.7715 248.15 41.4395 248.49 41.9902C248.83 42.541 249.275 42.9629 249.826 43.2559C250.389 43.5488 251.039 43.6953 251.777 43.6953C252.445 43.6953 253.02 43.5723 253.5 43.3262C253.992 43.0684 254.396 42.7109 254.713 42.2539C255.029 41.7969 255.264 41.2578 255.416 40.6367C255.568 40.0156 255.645 39.3359 255.645 38.5977C255.645 37.8828 255.557 37.2324 255.381 36.6465C255.205 36.0488 254.936 35.5332 254.572 35.0996C254.209 34.666 253.752 34.332 253.201 34.0977C252.662 33.8633 252.029 33.7461 251.303 33.7461C250.33 33.7461 249.58 33.8926 249.053 34.1855C248.537 34.4785 248.08 34.8242 247.682 35.2227Z" fill="black"/>
<path d="M197.174 47H192.498V26.2227C192.498 24.793 192.773 23.5918 193.324 22.6191C193.875 21.6348 194.66 20.8906 195.68 20.3867C196.699 19.8828 197.9 19.6309 199.283 19.6309C199.74 19.6309 200.174 19.6602 200.584 19.7188C201.006 19.7773 201.422 19.8594 201.832 19.9648L201.744 23.498C201.521 23.4395 201.275 23.3984 201.006 23.375C200.748 23.3516 200.461 23.3398 200.145 23.3398C199.512 23.3398 198.973 23.4512 198.527 23.6738C198.082 23.8965 197.742 24.2246 197.508 24.6582C197.285 25.0801 197.174 25.6016 197.174 26.2227V47ZM201.023 27.9805V31.3203H189.633V27.9805H201.023Z" fill="black"/>
<path d="M176.249 88.6035L177.391 91.29L179.4 88.6035H180.925L177.958 92.3154L179.763 96H178.416L177.192 93.2314L175.107 96H173.597L176.646 92.1924L174.902 88.6035H176.249Z" fill="#0277BD"/>
<path d="M201.249 44.6035L202.391 47.29L204.4 44.6035H205.925L202.958 48.3154L204.763 52H203.416L202.192 49.2314L200.107 52H198.597L201.646 48.1924L199.902 44.6035H201.249Z" fill="#0277BD"/>
</svg>
