<svg width="307" height="162" viewBox="0 0 307 162" fill="none" xmlns="http://www.w3.org/2000/svg">
<rect width="307" height="162" fill="white"/>
<path d="M39.191 133.019V134.12H33.4898V133.019H39.191ZM39.191 135.856V136.957H33.4898V135.856H39.191ZM48.4947 138.112V134.701C48.4947 134.45 48.4514 134.234 48.3648 134.051C48.2782 133.869 48.1461 133.728 47.9683 133.628C47.7906 133.527 47.565 133.477 47.2916 133.477C47.05 133.477 46.8381 133.518 46.6558 133.6C46.4781 133.682 46.3414 133.798 46.2457 133.949C46.15 134.095 46.1021 134.263 46.1021 134.455H44.2906C44.2906 134.149 44.3635 133.86 44.5093 133.587C44.6552 133.309 44.8625 133.062 45.1314 132.848C45.4048 132.63 45.7307 132.459 46.1089 132.336C46.4918 132.213 46.9201 132.151 47.3941 132.151C47.9547 132.151 48.4537 132.247 48.8912 132.438C49.3332 132.625 49.6796 132.908 49.9302 133.286C50.1854 133.664 50.313 134.14 50.313 134.714V137.941C50.313 138.31 50.3358 138.627 50.3814 138.891C50.4315 139.151 50.5045 139.377 50.6002 139.568V139.684H48.7613C48.6747 139.497 48.6086 139.26 48.563 138.973C48.5175 138.682 48.4947 138.394 48.4947 138.112ZM48.7476 135.179L48.7613 136.253H47.6197C47.3371 136.253 47.0888 136.282 46.8746 136.341C46.6604 136.396 46.4849 136.478 46.3482 136.588C46.2115 136.692 46.1089 136.82 46.0406 136.97C45.9722 137.116 45.938 137.283 45.938 137.469C45.938 137.652 45.9791 137.816 46.0611 137.962C46.1477 138.107 46.2707 138.224 46.4302 138.31C46.5943 138.392 46.7857 138.433 47.0045 138.433C47.3235 138.433 47.6015 138.369 47.8384 138.242C48.0754 138.11 48.26 137.95 48.3922 137.763C48.5243 137.576 48.595 137.399 48.6041 137.23L49.1236 138.009C49.0598 138.196 48.9641 138.394 48.8365 138.604C48.7089 138.814 48.5448 139.01 48.3443 139.192C48.1438 139.374 47.9022 139.525 47.6197 139.643C47.3371 139.762 47.009 139.821 46.6353 139.821C46.1568 139.821 45.7284 139.725 45.3502 139.534C44.9719 139.342 44.6734 139.08 44.4547 138.748C44.2359 138.415 44.1265 138.037 44.1265 137.613C44.1265 137.221 44.1994 136.875 44.3453 136.574C44.4911 136.273 44.7076 136.02 44.9947 135.815C45.2818 135.605 45.6373 135.448 46.0611 135.343C46.4895 135.234 46.9794 135.179 47.5308 135.179H48.7476ZM54.2847 138.317L56.0074 132.288H57.8941L55.358 139.684H54.2095L54.2847 138.317ZM53.0269 132.288L54.7701 138.331L54.8316 139.684H53.6763L51.1334 132.288H53.0269ZM62.0709 139.821C61.5103 139.821 61.0067 139.73 60.5601 139.547C60.1135 139.365 59.733 139.112 59.4185 138.789C59.1086 138.461 58.8694 138.08 58.7007 137.647C58.5367 137.21 58.4547 136.74 58.4547 136.239V135.965C58.4547 135.396 58.5367 134.879 58.7007 134.414C58.8648 133.944 59.0972 133.541 59.398 133.204C59.6988 132.866 60.0588 132.607 60.4781 132.424C60.8974 132.242 61.3599 132.151 61.8658 132.151C62.3899 132.151 62.8524 132.24 63.2535 132.418C63.6545 132.591 63.9895 132.837 64.2584 133.156C64.5272 133.475 64.73 133.858 64.8668 134.304C65.0035 134.746 65.0718 135.236 65.0718 135.774V136.533H59.275V135.289H63.2945V135.152C63.2854 134.865 63.2307 134.603 63.1304 134.366C63.0302 134.124 62.8752 133.933 62.6656 133.792C62.456 133.646 62.1848 133.573 61.8521 133.573C61.5832 133.573 61.3485 133.632 61.148 133.751C60.952 133.865 60.788 134.029 60.6558 134.243C60.5282 134.452 60.4325 134.703 60.3687 134.995C60.3049 135.286 60.273 135.61 60.273 135.965V136.239C60.273 136.549 60.314 136.836 60.3961 137.1C60.4826 137.365 60.608 137.595 60.772 137.791C60.9407 137.982 61.1412 138.132 61.3736 138.242C61.6106 138.347 61.8795 138.399 62.1802 138.399C62.5585 138.399 62.9003 138.326 63.2056 138.18C63.5155 138.03 63.7844 137.809 64.0123 137.517L64.9214 138.461C64.7665 138.688 64.5569 138.907 64.2925 139.117C64.0328 139.326 63.7183 139.497 63.3492 139.63C62.98 139.757 62.5539 139.821 62.0709 139.821ZM68.0865 133.798V139.684H66.2818V132.288H67.9908L68.0865 133.798ZM70.3355 132.24L70.3082 133.922C70.2079 133.903 70.094 133.89 69.9664 133.88C69.8433 133.871 69.7271 133.867 69.6177 133.867C69.3397 133.867 69.0959 133.906 68.8863 133.983C68.6767 134.056 68.5012 134.163 68.3599 134.304C68.2232 134.446 68.1184 134.619 68.0455 134.824C67.9726 135.024 67.9315 135.252 67.9224 135.507L67.5328 135.46C67.5328 134.99 67.5806 134.555 67.6763 134.154C67.772 133.753 67.911 133.402 68.0933 133.101C68.2756 132.8 68.5035 132.568 68.7769 132.404C69.0549 132.235 69.3739 132.151 69.7339 132.151C69.8342 132.151 69.9413 132.16 70.0552 132.178C70.1737 132.192 70.2672 132.213 70.3355 132.24ZM75.1685 138.112V134.701C75.1685 134.45 75.1252 134.234 75.0386 134.051C74.952 133.869 74.8199 133.728 74.6422 133.628C74.4644 133.527 74.2388 133.477 73.9654 133.477C73.7239 133.477 73.5119 133.518 73.3297 133.6C73.1519 133.682 73.0152 133.798 72.9195 133.949C72.8238 134.095 72.7759 134.263 72.7759 134.455H70.9644C70.9644 134.149 71.0373 133.86 71.1832 133.587C71.329 133.309 71.5364 133.062 71.8052 132.848C72.0787 132.63 72.4045 132.459 72.7828 132.336C73.1656 132.213 73.594 132.151 74.0679 132.151C74.6285 132.151 75.1275 132.247 75.565 132.438C76.0071 132.625 76.3534 132.908 76.6041 133.286C76.8593 133.664 76.9869 134.14 76.9869 134.714V137.941C76.9869 138.31 77.0097 138.627 77.0552 138.891C77.1054 139.151 77.1783 139.377 77.274 139.568V139.684H75.4351C75.3485 139.497 75.2825 139.26 75.2369 138.973C75.1913 138.682 75.1685 138.394 75.1685 138.112ZM75.4214 135.179L75.4351 136.253H74.2935C74.011 136.253 73.7626 136.282 73.5484 136.341C73.3342 136.396 73.1588 136.478 73.022 136.588C72.8853 136.692 72.7828 136.82 72.7144 136.97C72.6461 137.116 72.6119 137.283 72.6119 137.469C72.6119 137.652 72.6529 137.816 72.7349 137.962C72.8215 138.107 72.9446 138.224 73.1041 138.31C73.2681 138.392 73.4595 138.433 73.6783 138.433C73.9973 138.433 74.2753 138.369 74.5123 138.242C74.7492 138.11 74.9338 137.95 75.066 137.763C75.1981 137.576 75.2688 137.399 75.2779 137.23L75.7974 138.009C75.7336 138.196 75.6379 138.394 75.5103 138.604C75.3827 138.814 75.2186 139.01 75.0181 139.192C74.8176 139.374 74.5761 139.525 74.2935 139.643C74.011 139.762 73.6828 139.821 73.3091 139.821C72.8306 139.821 72.4022 139.725 72.024 139.534C71.6457 139.342 71.3472 139.08 71.1285 138.748C70.9097 138.415 70.8004 138.037 70.8004 137.613C70.8004 137.221 70.8733 136.875 71.0191 136.574C71.1649 136.273 71.3814 136.02 71.6685 135.815C71.9556 135.605 72.3111 135.448 72.7349 135.343C73.1633 135.234 73.6532 135.179 74.2047 135.179H75.4214ZM83.317 132.288H84.9576V139.459C84.9576 140.129 84.8117 140.696 84.5201 141.161C84.233 141.63 83.8297 141.986 83.3101 142.227C82.7906 142.473 82.1867 142.596 81.4986 142.596C81.2024 142.596 80.8811 142.555 80.5347 142.473C80.1929 142.391 79.8625 142.261 79.5435 142.084C79.2291 141.91 78.967 141.685 78.7574 141.407L79.5709 140.34C79.817 140.628 80.095 140.844 80.4048 140.99C80.7147 141.14 81.0497 141.215 81.4097 141.215C81.7743 141.215 82.0842 141.147 82.3394 141.01C82.5992 140.878 82.7974 140.682 82.9341 140.422C83.0754 140.167 83.1461 139.853 83.1461 139.479V133.976L83.317 132.288ZM78.3199 136.075V135.931C78.3199 135.366 78.3882 134.853 78.525 134.393C78.6617 133.928 78.8576 133.53 79.1129 133.197C79.3726 132.864 79.6848 132.607 80.0494 132.424C80.4185 132.242 80.8332 132.151 81.2935 132.151C81.7811 132.151 82.1913 132.24 82.524 132.418C82.8612 132.595 83.1392 132.848 83.358 133.176C83.5813 133.505 83.7545 133.894 83.8775 134.345C84.0051 134.792 84.1031 135.284 84.1714 135.822V136.212C84.1076 136.736 84.0051 137.216 83.8638 137.654C83.7271 138.091 83.5448 138.474 83.317 138.802C83.0891 139.126 82.8065 139.377 82.4693 139.554C82.1321 139.732 81.7356 139.821 81.2798 139.821C80.8241 139.821 80.414 139.727 80.0494 139.541C79.6848 139.354 79.3726 139.092 79.1129 138.755C78.8576 138.417 78.6617 138.021 78.525 137.565C78.3882 137.109 78.3199 136.613 78.3199 136.075ZM80.1246 135.931V136.075C80.1246 136.394 80.1565 136.692 80.2203 136.97C80.2841 137.248 80.3821 137.494 80.5142 137.709C80.6464 137.918 80.8127 138.082 81.0132 138.201C81.2138 138.319 81.453 138.379 81.731 138.379C82.1047 138.379 82.4101 138.301 82.647 138.146C82.8886 137.987 83.0709 137.77 83.1939 137.497C83.3215 137.219 83.4035 136.907 83.44 136.56V135.487C83.4172 135.214 83.3671 134.961 83.2896 134.728C83.2167 134.496 83.1142 134.295 82.982 134.127C82.8498 133.958 82.6812 133.826 82.4761 133.73C82.2711 133.634 82.0272 133.587 81.7447 133.587C81.4713 133.587 81.232 133.648 81.0269 133.771C80.8218 133.89 80.6532 134.056 80.5211 134.27C80.3889 134.484 80.2886 134.733 80.2203 135.015C80.1565 135.298 80.1246 135.603 80.1246 135.931ZM89.9068 139.821C89.3463 139.821 88.8427 139.73 88.3961 139.547C87.9494 139.365 87.5689 139.112 87.2545 138.789C86.9446 138.461 86.7053 138.08 86.5367 137.647C86.3726 137.21 86.2906 136.74 86.2906 136.239V135.965C86.2906 135.396 86.3726 134.879 86.5367 134.414C86.7007 133.944 86.9332 133.541 87.2339 133.204C87.5347 132.866 87.8948 132.607 88.314 132.424C88.7333 132.242 89.1959 132.151 89.7017 132.151C90.2258 132.151 90.6884 132.24 91.0894 132.418C91.4905 132.591 91.8254 132.837 92.0943 133.156C92.3632 133.475 92.566 133.858 92.7027 134.304C92.8394 134.746 92.9078 135.236 92.9078 135.774V136.533H87.1109V135.289H91.1304V135.152C91.1213 134.865 91.0666 134.603 90.9664 134.366C90.8661 134.124 90.7112 133.933 90.5015 133.792C90.2919 133.646 90.0207 133.573 89.688 133.573C89.4192 133.573 89.1845 133.632 88.9839 133.751C88.788 133.865 88.6239 134.029 88.4918 134.243C88.3642 134.452 88.2685 134.703 88.2047 134.995C88.1408 135.286 88.1089 135.61 88.1089 135.965V136.239C88.1089 136.549 88.15 136.836 88.232 137.1C88.3186 137.365 88.4439 137.595 88.608 137.791C88.7766 137.982 88.9771 138.132 89.2095 138.242C89.4465 138.347 89.7154 138.399 90.0162 138.399C90.3944 138.399 90.7362 138.326 91.0416 138.18C91.3515 138.03 91.6203 137.809 91.8482 137.517L92.7574 138.461C92.6024 138.688 92.3928 138.907 92.1285 139.117C91.8687 139.326 91.5543 139.497 91.1851 139.63C90.816 139.757 90.3899 139.821 89.9068 139.821ZM99.3746 133.867V139.684H97.5699V132.288H99.2652L99.3746 133.867ZM99.0875 135.719H98.5543C98.5588 135.182 98.6317 134.694 98.773 134.256C98.9143 133.819 99.1125 133.443 99.3677 133.129C99.6275 132.814 99.9351 132.573 100.291 132.404C100.646 132.235 101.043 132.151 101.48 132.151C101.836 132.151 102.157 132.201 102.444 132.301C102.731 132.402 102.977 132.561 103.182 132.78C103.392 132.999 103.551 133.286 103.661 133.641C103.775 133.992 103.832 134.425 103.832 134.94V139.684H102.013V134.926C102.013 134.589 101.963 134.323 101.863 134.127C101.767 133.931 101.626 133.792 101.439 133.71C101.257 133.628 101.031 133.587 100.762 133.587C100.484 133.587 100.24 133.644 100.031 133.757C99.8257 133.867 99.6526 134.019 99.5113 134.215C99.3746 134.411 99.2698 134.637 99.1968 134.892C99.1239 135.147 99.0875 135.423 99.0875 135.719ZM109.827 137.927V132.288H111.645V139.684H109.936L109.827 137.927ZM110.059 136.396L110.62 136.382C110.62 136.879 110.565 137.337 110.456 137.756C110.346 138.176 110.175 138.54 109.943 138.85C109.715 139.156 109.426 139.395 109.075 139.568C108.724 139.737 108.309 139.821 107.831 139.821C107.466 139.821 107.133 139.771 106.833 139.671C106.532 139.566 106.272 139.404 106.053 139.185C105.839 138.962 105.673 138.677 105.554 138.331C105.436 137.98 105.377 137.558 105.377 137.066V132.288H107.181V137.08C107.181 137.326 107.209 137.531 107.263 137.695C107.322 137.859 107.402 137.993 107.503 138.098C107.607 138.199 107.728 138.271 107.865 138.317C108.006 138.358 108.156 138.379 108.316 138.379C108.753 138.379 109.098 138.292 109.348 138.119C109.603 137.941 109.786 137.704 109.895 137.408C110.004 137.107 110.059 136.77 110.059 136.396ZM115.043 133.805V139.684H113.238V132.288H114.94L115.043 133.805ZM114.776 135.719H114.222C114.222 135.204 114.284 134.73 114.407 134.297C114.534 133.865 114.721 133.489 114.967 133.17C115.213 132.846 115.516 132.595 115.877 132.418C116.241 132.24 116.663 132.151 117.141 132.151C117.474 132.151 117.779 132.201 118.057 132.301C118.335 132.397 118.574 132.55 118.775 132.759C118.98 132.964 119.137 133.233 119.247 133.566C119.356 133.894 119.411 134.288 119.411 134.749V139.684H117.606V134.933C117.606 134.587 117.556 134.316 117.456 134.12C117.36 133.924 117.221 133.787 117.039 133.71C116.856 133.628 116.638 133.587 116.382 133.587C116.1 133.587 115.856 133.644 115.651 133.757C115.45 133.867 115.284 134.019 115.152 134.215C115.024 134.411 114.929 134.637 114.865 134.892C114.806 135.147 114.776 135.423 114.776 135.719ZM119.274 135.384L118.529 135.521C118.533 135.056 118.597 134.621 118.72 134.215C118.843 133.805 119.023 133.448 119.26 133.142C119.502 132.832 119.8 132.591 120.156 132.418C120.516 132.24 120.931 132.151 121.4 132.151C121.765 132.151 122.093 132.203 122.384 132.308C122.681 132.408 122.933 132.57 123.143 132.794C123.353 133.012 123.512 133.297 123.622 133.648C123.736 133.999 123.793 134.427 123.793 134.933V139.684H121.974V134.926C121.974 134.566 121.924 134.291 121.824 134.099C121.728 133.908 121.589 133.776 121.407 133.703C121.225 133.625 121.01 133.587 120.764 133.587C120.514 133.587 120.295 133.634 120.108 133.73C119.926 133.821 119.771 133.949 119.643 134.113C119.52 134.277 119.427 134.468 119.363 134.687C119.304 134.901 119.274 135.134 119.274 135.384ZM125.406 129.184H127.217V138.05L127.04 139.684H125.406V129.184ZM131.975 135.911V136.054C131.975 136.606 131.914 137.112 131.791 137.572C131.672 138.032 131.492 138.431 131.251 138.768C131.009 139.101 130.708 139.361 130.348 139.547C129.993 139.73 129.576 139.821 129.097 139.821C128.641 139.821 128.245 139.732 127.908 139.554C127.575 139.377 127.295 139.126 127.067 138.802C126.839 138.474 126.657 138.089 126.52 137.647C126.383 137.2 126.281 136.713 126.212 136.184V135.795C126.281 135.261 126.383 134.774 126.52 134.332C126.657 133.89 126.839 133.505 127.067 133.176C127.295 132.848 127.575 132.595 127.908 132.418C128.24 132.24 128.632 132.151 129.084 132.151C129.567 132.151 129.988 132.244 130.348 132.431C130.713 132.614 131.014 132.873 131.251 133.211C131.492 133.543 131.672 133.94 131.791 134.4C131.914 134.856 131.975 135.359 131.975 135.911ZM130.164 136.054V135.911C130.164 135.596 130.139 135.3 130.088 135.022C130.038 134.74 129.956 134.491 129.842 134.277C129.728 134.063 129.573 133.894 129.378 133.771C129.182 133.648 128.935 133.587 128.639 133.587C128.357 133.587 128.115 133.634 127.915 133.73C127.719 133.826 127.555 133.958 127.422 134.127C127.295 134.295 127.195 134.493 127.122 134.721C127.053 134.949 127.008 135.195 126.985 135.46V136.526C127.017 136.877 127.092 137.194 127.211 137.476C127.329 137.754 127.504 137.975 127.737 138.139C127.974 138.303 128.279 138.385 128.653 138.385C128.945 138.385 129.188 138.328 129.384 138.214C129.58 138.096 129.735 137.932 129.849 137.722C129.963 137.508 130.043 137.26 130.088 136.977C130.139 136.695 130.164 136.387 130.164 136.054ZM136.61 139.821C136.049 139.821 135.546 139.73 135.099 139.547C134.653 139.365 134.272 139.112 133.958 138.789C133.648 138.461 133.408 138.08 133.24 137.647C133.076 137.21 132.994 136.74 132.994 136.239V135.965C132.994 135.396 133.076 134.879 133.24 134.414C133.404 133.944 133.636 133.541 133.937 133.204C134.238 132.866 134.598 132.607 135.017 132.424C135.436 132.242 135.899 132.151 136.405 132.151C136.929 132.151 137.391 132.24 137.793 132.418C138.194 132.591 138.529 132.837 138.797 133.156C139.066 133.475 139.269 133.858 139.406 134.304C139.543 134.746 139.611 135.236 139.611 135.774V136.533H133.814V135.289H137.834V135.152C137.824 134.865 137.77 134.603 137.669 134.366C137.569 134.124 137.414 133.933 137.205 133.792C136.995 133.646 136.724 133.573 136.391 133.573C136.122 133.573 135.888 133.632 135.687 133.751C135.491 133.865 135.327 134.029 135.195 134.243C135.067 134.452 134.972 134.703 134.908 134.995C134.844 135.286 134.812 135.61 134.812 135.965V136.239C134.812 136.549 134.853 136.836 134.935 137.1C135.022 137.365 135.147 137.595 135.311 137.791C135.48 137.982 135.68 138.132 135.913 138.242C136.15 138.347 136.419 138.399 136.719 138.399C137.098 138.399 137.439 138.326 137.745 138.18C138.055 138.03 138.323 137.809 138.551 137.517L139.461 138.461C139.306 138.688 139.096 138.907 138.832 139.117C138.572 139.326 138.257 139.497 137.888 139.63C137.519 139.757 137.093 139.821 136.61 139.821ZM142.626 133.798V139.684H140.821V132.288H142.53L142.626 133.798ZM144.875 132.24L144.847 133.922C144.747 133.903 144.633 133.89 144.505 133.88C144.382 133.871 144.266 133.867 144.157 133.867C143.879 133.867 143.635 133.906 143.425 133.983C143.216 134.056 143.04 134.163 142.899 134.304C142.762 134.446 142.657 134.619 142.585 134.824C142.512 135.024 142.471 135.252 142.461 135.507L142.072 135.46C142.072 134.99 142.12 134.555 142.215 134.154C142.311 133.753 142.45 133.402 142.632 133.101C142.815 132.8 143.043 132.568 143.316 132.404C143.594 132.235 143.913 132.151 144.273 132.151C144.373 132.151 144.48 132.16 144.594 132.178C144.713 132.192 144.806 132.213 144.875 132.24ZM149.031 136.061V135.918C149.031 135.375 149.108 134.876 149.263 134.421C149.418 133.96 149.644 133.561 149.94 133.224C150.236 132.887 150.599 132.625 151.027 132.438C151.455 132.247 151.943 132.151 152.49 132.151C153.046 132.151 153.538 132.247 153.966 132.438C154.399 132.625 154.764 132.887 155.06 133.224C155.356 133.561 155.582 133.96 155.737 134.421C155.892 134.876 155.969 135.375 155.969 135.918V136.061C155.969 136.599 155.892 137.098 155.737 137.558C155.582 138.014 155.356 138.413 155.06 138.755C154.764 139.092 154.402 139.354 153.973 139.541C153.545 139.727 153.055 139.821 152.503 139.821C151.957 139.821 151.467 139.727 151.034 139.541C150.601 139.354 150.236 139.092 149.94 138.755C149.644 138.413 149.418 138.014 149.263 137.558C149.108 137.098 149.031 136.599 149.031 136.061ZM150.836 135.918V136.061C150.836 136.385 150.867 136.688 150.931 136.97C150.995 137.253 151.093 137.501 151.225 137.715C151.357 137.93 151.528 138.098 151.738 138.221C151.952 138.34 152.207 138.399 152.503 138.399C152.795 138.399 153.046 138.34 153.255 138.221C153.465 138.098 153.636 137.93 153.768 137.715C153.905 137.501 154.005 137.253 154.069 136.97C154.133 136.688 154.165 136.385 154.165 136.061V135.918C154.165 135.599 154.133 135.3 154.069 135.022C154.005 134.74 153.905 134.491 153.768 134.277C153.636 134.058 153.463 133.887 153.249 133.764C153.039 133.637 152.786 133.573 152.49 133.573C152.198 133.573 151.947 133.637 151.738 133.764C151.528 133.887 151.357 134.058 151.225 134.277C151.093 134.491 150.995 134.74 150.931 135.022C150.867 135.3 150.836 135.599 150.836 135.918ZM159.647 139.684H157.829V131.604C157.829 131.048 157.936 130.581 158.15 130.203C158.364 129.82 158.669 129.531 159.066 129.335C159.462 129.139 159.93 129.041 160.467 129.041C160.645 129.041 160.814 129.052 160.973 129.075C161.137 129.098 161.299 129.13 161.459 129.171L161.424 130.545C161.338 130.522 161.242 130.506 161.137 130.497C161.037 130.488 160.925 130.483 160.802 130.483C160.556 130.483 160.347 130.526 160.173 130.613C160 130.7 159.868 130.827 159.777 130.996C159.69 131.16 159.647 131.363 159.647 131.604V139.684ZM161.144 132.288V133.587H156.714V132.288H161.144ZM167.802 137.907L169.422 132.288H170.571L170.229 134.229L168.595 139.684H167.604L167.802 137.907ZM166.907 132.288L168.124 137.921L168.233 139.684H167.091L165.15 132.288H166.907ZM172.075 137.839L173.264 132.288H175.014L173.086 139.684H171.945L172.075 137.839ZM170.749 132.288L172.355 137.852L172.567 139.684H171.576L169.928 134.229L169.593 132.288H170.749ZM175.759 136.061V135.918C175.759 135.375 175.837 134.876 175.992 134.421C176.147 133.96 176.372 133.561 176.669 133.224C176.965 132.887 177.327 132.625 177.755 132.438C178.184 132.247 178.671 132.151 179.218 132.151C179.774 132.151 180.266 132.247 180.695 132.438C181.128 132.625 181.492 132.887 181.789 133.224C182.085 133.561 182.31 133.96 182.465 134.421C182.62 134.876 182.698 135.375 182.698 135.918V136.061C182.698 136.599 182.62 137.098 182.465 137.558C182.31 138.014 182.085 138.413 181.789 138.755C181.492 139.092 181.13 139.354 180.702 139.541C180.273 139.727 179.783 139.821 179.232 139.821C178.685 139.821 178.195 139.727 177.762 139.541C177.329 139.354 176.965 139.092 176.669 138.755C176.372 138.413 176.147 138.014 175.992 137.558C175.837 137.098 175.759 136.599 175.759 136.061ZM177.564 135.918V136.061C177.564 136.385 177.596 136.688 177.66 136.97C177.724 137.253 177.822 137.501 177.954 137.715C178.086 137.93 178.257 138.098 178.466 138.221C178.681 138.34 178.936 138.399 179.232 138.399C179.524 138.399 179.774 138.34 179.984 138.221C180.194 138.098 180.364 137.93 180.497 137.715C180.633 137.501 180.734 137.253 180.797 136.97C180.861 136.688 180.893 136.385 180.893 136.061V135.918C180.893 135.599 180.861 135.3 180.797 135.022C180.734 134.74 180.633 134.491 180.497 134.277C180.364 134.058 180.191 133.887 179.977 133.764C179.767 133.637 179.515 133.573 179.218 133.573C178.927 133.573 178.676 133.637 178.466 133.764C178.257 133.887 178.086 134.058 177.954 134.277C177.822 134.491 177.724 134.74 177.66 135.022C177.596 135.3 177.564 135.599 177.564 135.918ZM185.815 133.798V139.684H184.01V132.288H185.719L185.815 133.798ZM188.064 132.24L188.037 133.922C187.936 133.903 187.822 133.89 187.695 133.88C187.572 133.871 187.456 133.867 187.346 133.867C187.068 133.867 186.824 133.906 186.615 133.983C186.405 134.056 186.23 134.163 186.088 134.304C185.952 134.446 185.847 134.619 185.774 134.824C185.701 135.024 185.66 135.252 185.651 135.507L185.261 135.46C185.261 134.99 185.309 134.555 185.405 134.154C185.501 133.753 185.64 133.402 185.822 133.101C186.004 132.8 186.232 132.568 186.505 132.404C186.783 132.235 187.102 132.151 187.462 132.151C187.563 132.151 187.67 132.16 187.784 132.178C187.902 132.192 187.996 132.213 188.064 132.24ZM193.355 138.112V129.184H195.173V139.684H193.533L193.355 138.112ZM188.604 136.075V135.931C188.604 135.366 188.668 134.853 188.795 134.393C188.928 133.928 189.119 133.53 189.37 133.197C189.62 132.864 189.923 132.607 190.279 132.424C190.639 132.242 191.047 132.151 191.503 132.151C191.945 132.151 192.33 132.24 192.658 132.418C192.99 132.595 193.273 132.848 193.505 133.176C193.742 133.505 193.932 133.894 194.073 134.345C194.214 134.792 194.317 135.284 194.38 135.822V136.212C194.317 136.736 194.214 137.216 194.073 137.654C193.932 138.091 193.742 138.474 193.505 138.802C193.273 139.126 192.99 139.377 192.658 139.554C192.325 139.732 191.935 139.821 191.489 139.821C191.038 139.821 190.632 139.727 190.272 139.541C189.917 139.354 189.614 139.092 189.363 138.755C189.117 138.417 188.928 138.021 188.795 137.565C188.668 137.109 188.604 136.613 188.604 136.075ZM190.416 135.931V136.075C190.416 136.394 190.443 136.692 190.498 136.97C190.552 137.248 190.641 137.494 190.764 137.709C190.887 137.918 191.044 138.082 191.236 138.201C191.432 138.319 191.669 138.379 191.947 138.379C192.302 138.379 192.594 138.301 192.822 138.146C193.054 137.987 193.234 137.77 193.362 137.497C193.489 137.219 193.572 136.907 193.608 136.56V135.487C193.59 135.214 193.542 134.961 193.464 134.728C193.391 134.496 193.287 134.295 193.15 134.127C193.018 133.958 192.854 133.826 192.658 133.73C192.462 133.634 192.229 133.587 191.961 133.587C191.683 133.587 191.446 133.648 191.25 133.771C191.054 133.89 190.894 134.056 190.771 134.27C190.648 134.484 190.557 134.733 190.498 135.015C190.443 135.298 190.416 135.603 190.416 135.931ZM200.875 137.661C200.875 137.506 200.834 137.367 200.752 137.244C200.669 137.121 200.515 137.009 200.287 136.909C200.063 136.804 199.735 136.706 199.302 136.615C198.919 136.533 198.566 136.43 198.243 136.307C197.919 136.184 197.641 136.036 197.409 135.863C197.176 135.685 196.994 135.478 196.862 135.241C196.734 134.999 196.67 134.721 196.67 134.407C196.67 134.102 196.737 133.814 196.869 133.546C197.001 133.272 197.192 133.033 197.443 132.828C197.694 132.618 197.999 132.454 198.359 132.336C198.719 132.213 199.125 132.151 199.576 132.151C200.205 132.151 200.745 132.254 201.196 132.459C201.652 132.664 202 132.946 202.242 133.306C202.483 133.662 202.604 134.063 202.604 134.509H200.799C200.799 134.313 200.754 134.136 200.663 133.976C200.576 133.817 200.442 133.689 200.259 133.593C200.077 133.493 199.847 133.443 199.569 133.443C199.318 133.443 199.106 133.484 198.933 133.566C198.765 133.648 198.637 133.755 198.55 133.887C198.464 134.019 198.42 134.165 198.42 134.325C198.42 134.443 198.443 134.55 198.489 134.646C198.539 134.737 198.619 134.822 198.728 134.899C198.837 134.977 198.986 135.047 199.172 135.111C199.364 135.175 199.599 135.236 199.877 135.296C200.428 135.405 200.909 135.551 201.319 135.733C201.734 135.911 202.057 136.148 202.29 136.444C202.522 136.74 202.638 137.118 202.638 137.579C202.638 137.907 202.568 138.208 202.426 138.481C202.285 138.75 202.08 138.985 201.811 139.185C201.542 139.386 201.221 139.543 200.847 139.657C200.474 139.766 200.052 139.821 199.583 139.821C198.904 139.821 198.329 139.7 197.86 139.459C197.391 139.213 197.035 138.903 196.794 138.529C196.552 138.151 196.431 137.759 196.431 137.353H198.161C198.174 137.64 198.252 137.87 198.393 138.044C198.534 138.217 198.712 138.342 198.926 138.42C199.145 138.492 199.375 138.529 199.617 138.529C199.89 138.529 200.12 138.492 200.307 138.42C200.494 138.342 200.635 138.24 200.731 138.112C200.827 137.98 200.875 137.829 200.875 137.661ZM209.303 133.71V142.528H207.492V132.288H209.167L209.303 133.71ZM214.054 135.911V136.054C214.054 136.592 213.99 137.091 213.863 137.551C213.74 138.007 213.558 138.406 213.316 138.748C213.074 139.085 212.774 139.349 212.414 139.541C212.058 139.727 211.648 139.821 211.183 139.821C210.727 139.821 210.331 139.734 209.994 139.561C209.656 139.383 209.372 139.133 209.139 138.809C208.907 138.486 208.72 138.11 208.579 137.681C208.442 137.248 208.339 136.777 208.271 136.266V135.808C208.339 135.266 208.442 134.774 208.579 134.332C208.72 133.885 208.907 133.5 209.139 133.176C209.372 132.848 209.654 132.595 209.987 132.418C210.324 132.24 210.718 132.151 211.169 132.151C211.639 132.151 212.051 132.24 212.407 132.418C212.767 132.595 213.07 132.851 213.316 133.183C213.562 133.516 213.747 133.912 213.87 134.373C213.993 134.833 214.054 135.346 214.054 135.911ZM212.243 136.054V135.911C212.243 135.583 212.213 135.28 212.154 135.002C212.095 134.719 212.003 134.473 211.88 134.263C211.757 134.049 211.598 133.883 211.402 133.764C211.206 133.646 210.969 133.587 210.691 133.587C210.413 133.587 210.174 133.632 209.973 133.723C209.773 133.814 209.609 133.944 209.481 134.113C209.353 134.282 209.253 134.482 209.18 134.714C209.112 134.942 209.066 135.195 209.044 135.473V136.608C209.085 136.945 209.164 137.248 209.283 137.517C209.401 137.786 209.574 138 209.802 138.16C210.035 138.319 210.336 138.399 210.705 138.399C210.983 138.399 211.22 138.338 211.416 138.214C211.612 138.091 211.771 137.923 211.894 137.709C212.017 137.49 212.106 137.239 212.161 136.957C212.215 136.674 212.243 136.373 212.243 136.054ZM218.696 139.821C218.135 139.821 217.632 139.73 217.185 139.547C216.739 139.365 216.358 139.112 216.044 138.789C215.734 138.461 215.494 138.08 215.326 137.647C215.162 137.21 215.08 136.74 215.08 136.239V135.965C215.08 135.396 215.162 134.879 215.326 134.414C215.49 133.944 215.722 133.541 216.023 133.204C216.324 132.866 216.684 132.607 217.103 132.424C217.522 132.242 217.985 132.151 218.491 132.151C219.015 132.151 219.477 132.24 219.878 132.418C220.28 132.591 220.614 132.837 220.883 133.156C221.152 133.475 221.355 133.858 221.492 134.304C221.628 134.746 221.697 135.236 221.697 135.774V136.533H215.9V135.289H219.919V135.152C219.91 134.865 219.856 134.603 219.755 134.366C219.655 134.124 219.5 133.933 219.291 133.792C219.081 133.646 218.81 133.573 218.477 133.573C218.208 133.573 217.974 133.632 217.773 133.751C217.577 133.865 217.413 134.029 217.281 134.243C217.153 134.452 217.058 134.703 216.994 134.995C216.93 135.286 216.898 135.61 216.898 135.965V136.239C216.898 136.549 216.939 136.836 217.021 137.1C217.108 137.365 217.233 137.595 217.397 137.791C217.566 137.982 217.766 138.132 217.999 138.242C218.236 138.347 218.504 138.399 218.805 138.399C219.183 138.399 219.525 138.326 219.831 138.18C220.141 138.03 220.409 137.809 220.637 137.517L221.546 138.461C221.391 138.688 221.182 138.907 220.918 139.117C220.658 139.326 220.343 139.497 219.974 139.63C219.605 139.757 219.179 139.821 218.696 139.821ZM224.711 133.798V139.684H222.907V132.288H224.616L224.711 133.798ZM226.961 132.24L226.933 133.922C226.833 133.903 226.719 133.89 226.591 133.88C226.468 133.871 226.352 133.867 226.243 133.867C225.965 133.867 225.721 133.906 225.511 133.983C225.302 134.056 225.126 134.163 224.985 134.304C224.848 134.446 224.743 134.619 224.67 134.824C224.598 135.024 224.557 135.252 224.547 135.507L224.158 135.46C224.158 134.99 224.206 134.555 224.301 134.154C224.397 133.753 224.536 133.402 224.718 133.101C224.901 132.8 225.128 132.568 225.402 132.404C225.68 132.235 225.999 132.151 226.359 132.151C226.459 132.151 226.566 132.16 226.68 132.178C226.799 132.192 226.892 132.213 226.961 132.24ZM234.473 138.399C234.728 138.399 234.956 138.349 235.157 138.249C235.357 138.148 235.517 138.007 235.635 137.825C235.758 137.643 235.824 137.431 235.834 137.189H237.536C237.527 137.69 237.385 138.139 237.112 138.536C236.838 138.932 236.474 139.247 236.018 139.479C235.567 139.707 235.061 139.821 234.501 139.821C233.931 139.821 233.434 139.725 233.01 139.534C232.586 139.342 232.233 139.076 231.951 138.734C231.673 138.392 231.463 137.996 231.322 137.545C231.185 137.093 231.117 136.61 231.117 136.095V135.877C231.117 135.362 231.185 134.879 231.322 134.427C231.463 133.976 231.673 133.58 231.951 133.238C232.233 132.896 232.586 132.63 233.01 132.438C233.434 132.247 233.929 132.151 234.494 132.151C235.091 132.151 235.615 132.267 236.066 132.5C236.522 132.732 236.877 133.06 237.132 133.484C237.392 133.908 237.527 134.407 237.536 134.981H235.834C235.824 134.717 235.765 134.48 235.656 134.27C235.546 134.061 235.391 133.892 235.191 133.764C234.99 133.637 234.747 133.573 234.46 133.573C234.154 133.573 233.899 133.637 233.694 133.764C233.493 133.892 233.336 134.067 233.222 134.291C233.113 134.509 233.035 134.755 232.99 135.029C232.949 135.298 232.928 135.58 232.928 135.877V136.095C232.928 136.396 232.949 136.683 232.99 136.957C233.035 137.23 233.113 137.476 233.222 137.695C233.336 137.909 233.493 138.08 233.694 138.208C233.899 138.335 234.159 138.399 234.473 138.399ZM240.653 129.184V139.684H238.841V129.184H240.653ZM246.45 138.112V134.701C246.45 134.45 246.406 134.234 246.32 134.051C246.233 133.869 246.101 133.728 245.923 133.628C245.746 133.527 245.52 133.477 245.247 133.477C245.005 133.477 244.793 133.518 244.611 133.6C244.433 133.682 244.296 133.798 244.201 133.949C244.105 134.095 244.057 134.263 244.057 134.455H242.246C242.246 134.149 242.319 133.86 242.464 133.587C242.61 133.309 242.818 133.062 243.086 132.848C243.36 132.63 243.686 132.459 244.064 132.336C244.447 132.213 244.875 132.151 245.349 132.151C245.91 132.151 246.409 132.247 246.846 132.438C247.288 132.625 247.635 132.908 247.885 133.286C248.141 133.664 248.268 134.14 248.268 134.714V137.941C248.268 138.31 248.291 138.627 248.336 138.891C248.387 139.151 248.46 139.377 248.555 139.568V139.684H246.716C246.63 139.497 246.564 139.26 246.518 138.973C246.473 138.682 246.45 138.394 246.45 138.112ZM246.703 135.179L246.716 136.253H245.575C245.292 136.253 245.044 136.282 244.83 136.341C244.615 136.396 244.44 136.478 244.303 136.588C244.167 136.692 244.064 136.82 243.996 136.97C243.927 137.116 243.893 137.283 243.893 137.469C243.893 137.652 243.934 137.816 244.016 137.962C244.103 138.107 244.226 138.224 244.385 138.31C244.549 138.392 244.741 138.433 244.96 138.433C245.279 138.433 245.557 138.369 245.794 138.242C246.03 138.11 246.215 137.95 246.347 137.763C246.479 137.576 246.55 137.399 246.559 137.23L247.079 138.009C247.015 138.196 246.919 138.394 246.792 138.604C246.664 138.814 246.5 139.01 246.299 139.192C246.099 139.374 245.857 139.525 245.575 139.643C245.292 139.762 244.964 139.821 244.59 139.821C244.112 139.821 243.683 139.725 243.305 139.534C242.927 139.342 242.628 139.08 242.41 138.748C242.191 138.415 242.082 138.037 242.082 137.613C242.082 137.221 242.155 136.875 242.3 136.574C242.446 136.273 242.663 136.02 242.95 135.815C243.237 135.605 243.592 135.448 244.016 135.343C244.445 135.234 244.934 135.179 245.486 135.179H246.703ZM253.962 137.661C253.962 137.506 253.921 137.367 253.839 137.244C253.757 137.121 253.602 137.009 253.375 136.909C253.151 136.804 252.823 136.706 252.39 136.615C252.007 136.533 251.654 136.43 251.331 136.307C251.007 136.184 250.729 136.036 250.497 135.863C250.264 135.685 250.082 135.478 249.95 135.241C249.822 134.999 249.758 134.721 249.758 134.407C249.758 134.102 249.824 133.814 249.957 133.546C250.089 133.272 250.28 133.033 250.531 132.828C250.781 132.618 251.087 132.454 251.447 132.336C251.807 132.213 252.212 132.151 252.664 132.151C253.293 132.151 253.833 132.254 254.284 132.459C254.739 132.664 255.088 132.946 255.33 133.306C255.571 133.662 255.692 134.063 255.692 134.509H253.887C253.887 134.313 253.842 134.136 253.751 133.976C253.664 133.817 253.53 133.689 253.347 133.593C253.165 133.493 252.935 133.443 252.657 133.443C252.406 133.443 252.194 133.484 252.021 133.566C251.852 133.648 251.725 133.755 251.638 133.887C251.552 134.019 251.508 134.165 251.508 134.325C251.508 134.443 251.531 134.55 251.577 134.646C251.627 134.737 251.707 134.822 251.816 134.899C251.925 134.977 252.073 135.047 252.26 135.111C252.452 135.175 252.686 135.236 252.964 135.296C253.516 135.405 253.997 135.551 254.407 135.733C254.822 135.911 255.145 136.148 255.378 136.444C255.61 136.74 255.726 137.118 255.726 137.579C255.726 137.907 255.655 138.208 255.514 138.481C255.373 138.75 255.168 138.985 254.899 139.185C254.63 139.386 254.309 139.543 253.935 139.657C253.561 139.766 253.14 139.821 252.67 139.821C251.991 139.821 251.417 139.7 250.948 139.459C250.478 139.213 250.123 138.903 249.881 138.529C249.64 138.151 249.519 137.759 249.519 137.353H251.249C251.262 137.64 251.34 137.87 251.481 138.044C251.622 138.217 251.8 138.342 252.014 138.42C252.233 138.492 252.463 138.529 252.705 138.529C252.978 138.529 253.208 138.492 253.395 138.42C253.582 138.342 253.723 138.24 253.819 138.112C253.915 137.98 253.962 137.829 253.962 137.661ZM261.168 137.661C261.168 137.506 261.127 137.367 261.044 137.244C260.962 137.121 260.808 137.009 260.58 136.909C260.356 136.804 260.028 136.706 259.595 136.615C259.212 136.533 258.859 136.43 258.536 136.307C258.212 136.184 257.934 136.036 257.702 135.863C257.469 135.685 257.287 135.478 257.155 135.241C257.027 134.999 256.963 134.721 256.963 134.407C256.963 134.102 257.03 133.814 257.162 133.546C257.294 133.272 257.485 133.033 257.736 132.828C257.987 132.618 258.292 132.454 258.652 132.336C259.012 132.213 259.418 132.151 259.869 132.151C260.498 132.151 261.038 132.254 261.489 132.459C261.945 132.664 262.293 132.946 262.535 133.306C262.776 133.662 262.897 134.063 262.897 134.509H261.092C261.092 134.313 261.047 134.136 260.956 133.976C260.869 133.817 260.735 133.689 260.552 133.593C260.37 133.493 260.14 133.443 259.862 133.443C259.611 133.443 259.399 133.484 259.226 133.566C259.058 133.648 258.93 133.755 258.843 133.887C258.757 134.019 258.713 134.165 258.713 134.325C258.713 134.443 258.736 134.55 258.782 134.646C258.832 134.737 258.912 134.822 259.021 134.899C259.13 134.977 259.279 135.047 259.465 135.111C259.657 135.175 259.891 135.236 260.169 135.296C260.721 135.405 261.202 135.551 261.612 135.733C262.027 135.911 262.35 136.148 262.583 136.444C262.815 136.74 262.931 137.118 262.931 137.579C262.931 137.907 262.861 138.208 262.719 138.481C262.578 138.75 262.373 138.985 262.104 139.185C261.835 139.386 261.514 139.543 261.14 139.657C260.766 139.766 260.345 139.821 259.876 139.821C259.197 139.821 258.622 139.7 258.153 139.459C257.683 139.213 257.328 138.903 257.086 138.529C256.845 138.151 256.724 137.759 256.724 137.353H258.454C258.467 137.64 258.545 137.87 258.686 138.044C258.827 138.217 259.005 138.342 259.219 138.42C259.438 138.492 259.668 138.529 259.91 138.529C260.183 138.529 260.413 138.492 260.6 138.42C260.787 138.342 260.928 138.24 261.024 138.112C261.12 137.98 261.168 137.829 261.168 137.661Z" fill="#ABA9A9"/>
<path d="M25.6094 132.036L22.3672 141.684H20.0938L24.3438 130.309H25.7969L25.6094 132.036ZM28.3203 141.684L25.0625 132.036L24.8672 130.309H26.3281L30.6016 141.684H28.3203ZM28.1719 137.458V139.153H22.0703V137.458H28.1719Z" fill="black"/>
<path d="M38.7402 106.335V107.436H33.0391V106.335H38.7402ZM38.7402 109.172V110.272H33.0391V109.172H38.7402ZM46.335 113H44.5166V104.92C44.5166 104.364 44.6237 103.897 44.8379 103.519C45.0521 103.136 45.3574 102.846 45.7539 102.65C46.1504 102.454 46.6175 102.356 47.1553 102.356C47.333 102.356 47.5016 102.368 47.6611 102.391C47.8252 102.413 47.987 102.445 48.1465 102.486L48.1123 103.86C48.0257 103.838 47.93 103.822 47.8252 103.812C47.7249 103.803 47.6133 103.799 47.4902 103.799C47.2441 103.799 47.0345 103.842 46.8613 103.929C46.6882 104.015 46.556 104.143 46.4648 104.312C46.3783 104.476 46.335 104.678 46.335 104.92V113ZM47.832 105.604V106.902H43.4023V105.604H47.832ZM50.751 107.114V113H48.9463V105.604H50.6553L50.751 107.114ZM53 105.556L52.9727 107.237C52.8724 107.219 52.7585 107.205 52.6309 107.196C52.5078 107.187 52.3916 107.183 52.2822 107.183C52.0042 107.183 51.7604 107.221 51.5508 107.299C51.3411 107.372 51.1657 107.479 51.0244 107.62C50.8877 107.761 50.7829 107.935 50.71 108.14C50.637 108.34 50.596 108.568 50.5869 108.823L50.1973 108.775C50.1973 108.306 50.2451 107.871 50.3408 107.47C50.4365 107.069 50.5755 106.718 50.7578 106.417C50.9401 106.116 51.168 105.884 51.4414 105.72C51.7194 105.551 52.0384 105.467 52.3984 105.467C52.4987 105.467 52.6058 105.476 52.7197 105.494C52.8382 105.508 52.9316 105.528 53 105.556ZM57.1768 113.137C56.6162 113.137 56.1126 113.046 55.666 112.863C55.2194 112.681 54.8389 112.428 54.5244 112.104C54.2145 111.776 53.9753 111.396 53.8066 110.963C53.6426 110.525 53.5605 110.056 53.5605 109.555V109.281C53.5605 108.712 53.6426 108.194 53.8066 107.729C53.9707 107.26 54.2031 106.857 54.5039 106.52C54.8047 106.182 55.1647 105.923 55.584 105.74C56.0033 105.558 56.4658 105.467 56.9717 105.467C57.4958 105.467 57.9583 105.556 58.3594 105.733C58.7604 105.907 59.0954 106.153 59.3643 106.472C59.6331 106.791 59.8359 107.174 59.9727 107.62C60.1094 108.062 60.1777 108.552 60.1777 109.09V109.849H54.3809V108.604H58.4004V108.468C58.3913 108.181 58.3366 107.919 58.2363 107.682C58.1361 107.44 57.9811 107.249 57.7715 107.107C57.5618 106.962 57.2907 106.889 56.958 106.889C56.6891 106.889 56.4544 106.948 56.2539 107.066C56.0579 107.18 55.8939 107.344 55.7617 107.559C55.6341 107.768 55.5384 108.019 55.4746 108.311C55.4108 108.602 55.3789 108.926 55.3789 109.281V109.555C55.3789 109.865 55.4199 110.152 55.502 110.416C55.5885 110.68 55.7139 110.91 55.8779 111.106C56.0465 111.298 56.2471 111.448 56.4795 111.558C56.7165 111.662 56.9854 111.715 57.2861 111.715C57.6644 111.715 58.0062 111.642 58.3115 111.496C58.6214 111.346 58.8903 111.125 59.1182 110.833L60.0273 111.776C59.8724 112.004 59.6628 112.223 59.3984 112.433C59.1387 112.642 58.8242 112.813 58.4551 112.945C58.0859 113.073 57.6598 113.137 57.1768 113.137ZM65.8174 115.844V107.094L66.0361 105.604H67.6357V115.844H65.8174ZM61.0732 109.377V109.233C61.0732 108.668 61.137 108.156 61.2646 107.695C61.3923 107.23 61.5791 106.834 61.8252 106.506C62.0758 106.173 62.3812 105.918 62.7412 105.74C63.1012 105.558 63.5137 105.467 63.9785 105.467C64.4342 105.467 64.8285 105.556 65.1611 105.733C65.4938 105.911 65.7764 106.164 66.0088 106.492C66.2412 106.816 66.4258 107.201 66.5625 107.647C66.7038 108.094 66.8086 108.589 66.877 109.131V109.521C66.8086 110.04 66.7038 110.521 66.5625 110.963C66.4258 111.4 66.2412 111.783 66.0088 112.111C65.7809 112.435 65.4984 112.688 65.1611 112.87C64.8239 113.048 64.4251 113.137 63.9648 113.137C63.5046 113.137 63.0944 113.043 62.7344 112.856C62.3789 112.665 62.0758 112.401 61.8252 112.063C61.5791 111.726 61.3923 111.33 61.2646 110.874C61.137 110.414 61.0732 109.915 61.0732 109.377ZM62.8848 109.233V109.377C62.8848 109.701 62.9121 110.004 62.9668 110.286C63.026 110.564 63.1172 110.81 63.2402 111.024C63.3633 111.239 63.5205 111.407 63.7119 111.53C63.9079 111.653 64.1449 111.715 64.4229 111.715C64.7965 111.715 65.0996 111.633 65.332 111.469C65.569 111.305 65.7467 111.084 65.8652 110.806C65.9883 110.523 66.068 110.209 66.1045 109.862V108.796C66.0817 108.518 66.0339 108.263 65.9609 108.03C65.888 107.798 65.7855 107.597 65.6533 107.429C65.5257 107.26 65.3617 107.128 65.1611 107.032C64.9606 106.937 64.7191 106.889 64.4365 106.889C64.1585 106.889 63.9215 106.95 63.7256 107.073C63.5296 107.192 63.3701 107.358 63.2471 107.572C63.124 107.786 63.0329 108.035 62.9736 108.317C62.9144 108.6 62.8848 108.905 62.8848 109.233ZM73.7061 111.243V105.604H75.5244V113H73.8154L73.7061 111.243ZM73.9385 109.712L74.499 109.698C74.499 110.195 74.4443 110.653 74.335 111.072C74.2256 111.492 74.0547 111.856 73.8223 112.166C73.5944 112.471 73.305 112.711 72.9541 112.884C72.6032 113.052 72.1885 113.137 71.71 113.137C71.3454 113.137 71.0127 113.087 70.7119 112.986C70.4111 112.882 70.1514 112.72 69.9326 112.501C69.7184 112.278 69.5521 111.993 69.4336 111.646C69.3151 111.296 69.2559 110.874 69.2559 110.382V105.604H71.0605V110.396C71.0605 110.642 71.0879 110.847 71.1426 111.011C71.2018 111.175 71.2816 111.309 71.3818 111.414C71.4867 111.514 71.6074 111.587 71.7441 111.633C71.8854 111.674 72.0358 111.694 72.1953 111.694C72.6328 111.694 72.9769 111.608 73.2275 111.435C73.4827 111.257 73.665 111.02 73.7744 110.724C73.8838 110.423 73.9385 110.086 73.9385 109.712ZM80.4463 113.137C79.8857 113.137 79.3822 113.046 78.9355 112.863C78.4889 112.681 78.1084 112.428 77.7939 112.104C77.484 111.776 77.2448 111.396 77.0762 110.963C76.9121 110.525 76.8301 110.056 76.8301 109.555V109.281C76.8301 108.712 76.9121 108.194 77.0762 107.729C77.2402 107.26 77.4727 106.857 77.7734 106.52C78.0742 106.182 78.4342 105.923 78.8535 105.74C79.2728 105.558 79.7354 105.467 80.2412 105.467C80.7653 105.467 81.2279 105.556 81.6289 105.733C82.0299 105.907 82.3649 106.153 82.6338 106.472C82.9027 106.791 83.1055 107.174 83.2422 107.62C83.3789 108.062 83.4473 108.552 83.4473 109.09V109.849H77.6504V108.604H81.6699V108.468C81.6608 108.181 81.6061 107.919 81.5059 107.682C81.4056 107.44 81.2507 107.249 81.041 107.107C80.8314 106.962 80.5602 106.889 80.2275 106.889C79.9587 106.889 79.724 106.948 79.5234 107.066C79.3275 107.18 79.1634 107.344 79.0312 107.559C78.9036 107.768 78.8079 108.019 78.7441 108.311C78.6803 108.602 78.6484 108.926 78.6484 109.281V109.555C78.6484 109.865 78.6895 110.152 78.7715 110.416C78.8581 110.68 78.9834 110.91 79.1475 111.106C79.3161 111.298 79.5166 111.448 79.749 111.558C79.986 111.662 80.2549 111.715 80.5557 111.715C80.9339 111.715 81.2757 111.642 81.5811 111.496C81.891 111.346 82.1598 111.125 82.3877 110.833L83.2969 111.776C83.1419 112.004 82.9323 112.223 82.668 112.433C82.4082 112.642 82.0938 112.813 81.7246 112.945C81.3555 113.073 80.9294 113.137 80.4463 113.137ZM86.4277 107.183V113H84.623V105.604H86.3184L86.4277 107.183ZM86.1406 109.035H85.6074C85.612 108.497 85.6849 108.01 85.8262 107.572C85.9674 107.135 86.1657 106.759 86.4209 106.444C86.6807 106.13 86.9883 105.888 87.3438 105.72C87.6992 105.551 88.0957 105.467 88.5332 105.467C88.8887 105.467 89.21 105.517 89.4971 105.617C89.7842 105.717 90.0303 105.877 90.2354 106.096C90.445 106.314 90.6045 106.602 90.7139 106.957C90.8278 107.308 90.8848 107.741 90.8848 108.256V113H89.0664V108.242C89.0664 107.905 89.0163 107.638 88.916 107.442C88.8203 107.246 88.679 107.107 88.4922 107.025C88.3099 106.943 88.0843 106.902 87.8154 106.902C87.5374 106.902 87.2936 106.959 87.084 107.073C86.8789 107.183 86.7057 107.335 86.5645 107.531C86.4277 107.727 86.3229 107.953 86.25 108.208C86.1771 108.463 86.1406 108.739 86.1406 109.035ZM95.5127 111.715C95.7679 111.715 95.9958 111.665 96.1963 111.564C96.3968 111.464 96.5563 111.323 96.6748 111.141C96.7979 110.958 96.8639 110.746 96.873 110.505H98.5752C98.5661 111.006 98.4248 111.455 98.1514 111.852C97.8779 112.248 97.5133 112.562 97.0576 112.795C96.6064 113.023 96.1006 113.137 95.54 113.137C94.9704 113.137 94.4736 113.041 94.0498 112.85C93.626 112.658 93.2728 112.392 92.9902 112.05C92.7122 111.708 92.5026 111.312 92.3613 110.86C92.2246 110.409 92.1562 109.926 92.1562 109.411V109.192C92.1562 108.677 92.2246 108.194 92.3613 107.743C92.5026 107.292 92.7122 106.896 92.9902 106.554C93.2728 106.212 93.626 105.945 94.0498 105.754C94.4736 105.562 94.9681 105.467 95.5332 105.467C96.1302 105.467 96.6543 105.583 97.1055 105.815C97.5612 106.048 97.9167 106.376 98.1719 106.8C98.4316 107.224 98.5661 107.723 98.5752 108.297H96.873C96.8639 108.033 96.8047 107.796 96.6953 107.586C96.5859 107.376 96.431 107.208 96.2305 107.08C96.0299 106.952 95.7861 106.889 95.499 106.889C95.1937 106.889 94.9385 106.952 94.7334 107.08C94.5329 107.208 94.3757 107.383 94.2617 107.606C94.1523 107.825 94.0749 108.071 94.0293 108.345C93.9883 108.614 93.9678 108.896 93.9678 109.192V109.411C93.9678 109.712 93.9883 109.999 94.0293 110.272C94.0749 110.546 94.1523 110.792 94.2617 111.011C94.3757 111.225 94.5329 111.396 94.7334 111.523C94.9385 111.651 95.1982 111.715 95.5127 111.715ZM101.945 112.18L103.928 105.604H105.862L102.896 114.121C102.827 114.303 102.738 114.502 102.629 114.716C102.524 114.93 102.383 115.133 102.205 115.324C102.027 115.52 101.804 115.68 101.535 115.803C101.271 115.926 100.95 115.987 100.571 115.987C100.407 115.987 100.261 115.976 100.134 115.953C100.006 115.93 99.8717 115.901 99.7305 115.864V114.511C99.776 114.515 99.8285 114.518 99.8877 114.518C99.9515 114.522 100.006 114.524 100.052 114.524C100.316 114.524 100.535 114.493 100.708 114.429C100.881 114.369 101.02 114.271 101.125 114.135C101.234 114.003 101.326 113.829 101.398 113.615L101.945 112.18ZM100.968 105.604L102.643 111.052L102.937 112.959L101.692 113.185L99.0195 105.604H100.968ZM109.902 109.377V109.233C109.902 108.691 109.98 108.192 110.135 107.736C110.29 107.276 110.515 106.877 110.812 106.54C111.108 106.203 111.47 105.941 111.898 105.754C112.327 105.562 112.814 105.467 113.361 105.467C113.917 105.467 114.41 105.562 114.838 105.754C115.271 105.941 115.635 106.203 115.932 106.54C116.228 106.877 116.453 107.276 116.608 107.736C116.763 108.192 116.841 108.691 116.841 109.233V109.377C116.841 109.915 116.763 110.414 116.608 110.874C116.453 111.33 116.228 111.729 115.932 112.07C115.635 112.408 115.273 112.67 114.845 112.856C114.416 113.043 113.926 113.137 113.375 113.137C112.828 113.137 112.338 113.043 111.905 112.856C111.472 112.67 111.108 112.408 110.812 112.07C110.515 111.729 110.29 111.33 110.135 110.874C109.98 110.414 109.902 109.915 109.902 109.377ZM111.707 109.233V109.377C111.707 109.701 111.739 110.004 111.803 110.286C111.867 110.569 111.965 110.817 112.097 111.031C112.229 111.245 112.4 111.414 112.609 111.537C112.824 111.656 113.079 111.715 113.375 111.715C113.667 111.715 113.917 111.656 114.127 111.537C114.337 111.414 114.507 111.245 114.64 111.031C114.776 110.817 114.877 110.569 114.94 110.286C115.004 110.004 115.036 109.701 115.036 109.377V109.233C115.036 108.914 115.004 108.616 114.94 108.338C114.877 108.055 114.776 107.807 114.64 107.593C114.507 107.374 114.334 107.203 114.12 107.08C113.91 106.952 113.658 106.889 113.361 106.889C113.07 106.889 112.819 106.952 112.609 107.08C112.4 107.203 112.229 107.374 112.097 107.593C111.965 107.807 111.867 108.055 111.803 108.338C111.739 108.616 111.707 108.914 111.707 109.233ZM120.519 113H118.7V104.92C118.7 104.364 118.807 103.897 119.021 103.519C119.236 103.136 119.541 102.846 119.938 102.65C120.334 102.454 120.801 102.356 121.339 102.356C121.517 102.356 121.685 102.368 121.845 102.391C122.009 102.413 122.171 102.445 122.33 102.486L122.296 103.86C122.209 103.838 122.114 103.822 122.009 103.812C121.909 103.803 121.797 103.799 121.674 103.799C121.428 103.799 121.218 103.842 121.045 103.929C120.872 104.015 120.74 104.143 120.648 104.312C120.562 104.476 120.519 104.678 120.519 104.92V113ZM122.016 105.604V106.902H117.586V105.604H122.016ZM128.674 111.223L130.294 105.604H131.442L131.101 107.545L129.467 113H128.476L128.674 111.223ZM127.778 105.604L128.995 111.236L129.104 113H127.963L126.021 105.604H127.778ZM132.946 111.154L134.136 105.604H135.886L133.958 113H132.816L132.946 111.154ZM131.62 105.604L133.227 111.168L133.438 113H132.447L130.8 107.545L130.465 105.604H131.62ZM136.631 109.377V109.233C136.631 108.691 136.708 108.192 136.863 107.736C137.018 107.276 137.244 106.877 137.54 106.54C137.836 106.203 138.199 105.941 138.627 105.754C139.055 105.562 139.543 105.467 140.09 105.467C140.646 105.467 141.138 105.562 141.566 105.754C141.999 105.941 142.364 106.203 142.66 106.54C142.956 106.877 143.182 107.276 143.337 107.736C143.492 108.192 143.569 108.691 143.569 109.233V109.377C143.569 109.915 143.492 110.414 143.337 110.874C143.182 111.33 142.956 111.729 142.66 112.07C142.364 112.408 142.002 112.67 141.573 112.856C141.145 113.043 140.655 113.137 140.104 113.137C139.557 113.137 139.067 113.043 138.634 112.856C138.201 112.67 137.836 112.408 137.54 112.07C137.244 111.729 137.018 111.33 136.863 110.874C136.708 110.414 136.631 109.915 136.631 109.377ZM138.436 109.233V109.377C138.436 109.701 138.467 110.004 138.531 110.286C138.595 110.569 138.693 110.817 138.825 111.031C138.957 111.245 139.128 111.414 139.338 111.537C139.552 111.656 139.807 111.715 140.104 111.715C140.395 111.715 140.646 111.656 140.855 111.537C141.065 111.414 141.236 111.245 141.368 111.031C141.505 110.817 141.605 110.569 141.669 110.286C141.733 110.004 141.765 109.701 141.765 109.377V109.233C141.765 108.914 141.733 108.616 141.669 108.338C141.605 108.055 141.505 107.807 141.368 107.593C141.236 107.374 141.063 107.203 140.849 107.08C140.639 106.952 140.386 106.889 140.09 106.889C139.798 106.889 139.548 106.952 139.338 107.08C139.128 107.203 138.957 107.374 138.825 107.593C138.693 107.807 138.595 108.055 138.531 108.338C138.467 108.616 138.436 108.914 138.436 109.233ZM146.687 107.114V113H144.882V105.604H146.591L146.687 107.114ZM148.936 105.556L148.908 107.237C148.808 107.219 148.694 107.205 148.566 107.196C148.443 107.187 148.327 107.183 148.218 107.183C147.94 107.183 147.696 107.221 147.486 107.299C147.277 107.372 147.101 107.479 146.96 107.62C146.823 107.761 146.718 107.935 146.646 108.14C146.573 108.34 146.532 108.568 146.522 108.823L146.133 108.775C146.133 108.306 146.181 107.871 146.276 107.47C146.372 107.069 146.511 106.718 146.693 106.417C146.876 106.116 147.104 105.884 147.377 105.72C147.655 105.551 147.974 105.467 148.334 105.467C148.434 105.467 148.541 105.476 148.655 105.494C148.774 105.508 148.867 105.528 148.936 105.556ZM154.227 111.428V102.5H156.045V113H154.404L154.227 111.428ZM149.476 109.391V109.247C149.476 108.682 149.539 108.169 149.667 107.709C149.799 107.244 149.991 106.845 150.241 106.513C150.492 106.18 150.795 105.923 151.15 105.74C151.51 105.558 151.918 105.467 152.374 105.467C152.816 105.467 153.201 105.556 153.529 105.733C153.862 105.911 154.145 106.164 154.377 106.492C154.614 106.82 154.803 107.21 154.944 107.661C155.086 108.108 155.188 108.6 155.252 109.138V109.527C155.188 110.051 155.086 110.532 154.944 110.97C154.803 111.407 154.614 111.79 154.377 112.118C154.145 112.442 153.862 112.692 153.529 112.87C153.197 113.048 152.807 113.137 152.36 113.137C151.909 113.137 151.504 113.043 151.144 112.856C150.788 112.67 150.485 112.408 150.234 112.07C149.988 111.733 149.799 111.337 149.667 110.881C149.539 110.425 149.476 109.928 149.476 109.391ZM151.287 109.247V109.391C151.287 109.71 151.314 110.008 151.369 110.286C151.424 110.564 151.513 110.81 151.636 111.024C151.759 111.234 151.916 111.398 152.107 111.517C152.303 111.635 152.54 111.694 152.818 111.694C153.174 111.694 153.465 111.617 153.693 111.462C153.926 111.302 154.106 111.086 154.233 110.812C154.361 110.535 154.443 110.222 154.479 109.876V108.803C154.461 108.529 154.413 108.276 154.336 108.044C154.263 107.812 154.158 107.611 154.021 107.442C153.889 107.274 153.725 107.142 153.529 107.046C153.333 106.95 153.101 106.902 152.832 106.902C152.554 106.902 152.317 106.964 152.121 107.087C151.925 107.205 151.766 107.372 151.643 107.586C151.52 107.8 151.428 108.049 151.369 108.331C151.314 108.614 151.287 108.919 151.287 109.247ZM175.808 111.428V108.017C175.808 107.766 175.764 107.549 175.678 107.367C175.591 107.185 175.459 107.044 175.281 106.943C175.104 106.843 174.878 106.793 174.604 106.793C174.363 106.793 174.151 106.834 173.969 106.916C173.791 106.998 173.654 107.114 173.559 107.265C173.463 107.41 173.415 107.579 173.415 107.771H171.604C171.604 107.465 171.676 107.176 171.822 106.902C171.968 106.624 172.175 106.378 172.444 106.164C172.718 105.945 173.044 105.774 173.422 105.651C173.805 105.528 174.233 105.467 174.707 105.467C175.268 105.467 175.767 105.562 176.204 105.754C176.646 105.941 176.993 106.223 177.243 106.602C177.498 106.98 177.626 107.456 177.626 108.03V111.257C177.626 111.626 177.649 111.943 177.694 112.207C177.744 112.467 177.817 112.692 177.913 112.884V113H176.074C175.988 112.813 175.922 112.576 175.876 112.289C175.83 111.997 175.808 111.71 175.808 111.428ZM176.061 108.495L176.074 109.568H174.933C174.65 109.568 174.402 109.598 174.188 109.657C173.973 109.712 173.798 109.794 173.661 109.903C173.524 110.008 173.422 110.136 173.354 110.286C173.285 110.432 173.251 110.598 173.251 110.785C173.251 110.967 173.292 111.132 173.374 111.277C173.461 111.423 173.584 111.539 173.743 111.626C173.907 111.708 174.099 111.749 174.317 111.749C174.636 111.749 174.914 111.685 175.151 111.558C175.388 111.425 175.573 111.266 175.705 111.079C175.837 110.892 175.908 110.715 175.917 110.546L176.437 111.325C176.373 111.512 176.277 111.71 176.149 111.92C176.022 112.13 175.858 112.326 175.657 112.508C175.457 112.69 175.215 112.84 174.933 112.959C174.65 113.077 174.322 113.137 173.948 113.137C173.47 113.137 173.041 113.041 172.663 112.85C172.285 112.658 171.986 112.396 171.768 112.063C171.549 111.731 171.439 111.353 171.439 110.929C171.439 110.537 171.512 110.19 171.658 109.89C171.804 109.589 172.021 109.336 172.308 109.131C172.595 108.921 172.95 108.764 173.374 108.659C173.802 108.55 174.292 108.495 174.844 108.495H176.061ZM182.288 111.715C182.543 111.715 182.771 111.665 182.972 111.564C183.172 111.464 183.332 111.323 183.45 111.141C183.573 110.958 183.639 110.746 183.648 110.505H185.351C185.341 111.006 185.2 111.455 184.927 111.852C184.653 112.248 184.289 112.562 183.833 112.795C183.382 113.023 182.876 113.137 182.315 113.137C181.746 113.137 181.249 113.041 180.825 112.85C180.401 112.658 180.048 112.392 179.766 112.05C179.488 111.708 179.278 111.312 179.137 110.86C179 110.409 178.932 109.926 178.932 109.411V109.192C178.932 108.677 179 108.194 179.137 107.743C179.278 107.292 179.488 106.896 179.766 106.554C180.048 106.212 180.401 105.945 180.825 105.754C181.249 105.562 181.743 105.467 182.309 105.467C182.906 105.467 183.43 105.583 183.881 105.815C184.337 106.048 184.692 106.376 184.947 106.8C185.207 107.224 185.341 107.723 185.351 108.297H183.648C183.639 108.033 183.58 107.796 183.471 107.586C183.361 107.376 183.206 107.208 183.006 107.08C182.805 106.952 182.562 106.889 182.274 106.889C181.969 106.889 181.714 106.952 181.509 107.08C181.308 107.208 181.151 107.383 181.037 107.606C180.928 107.825 180.85 108.071 180.805 108.345C180.764 108.614 180.743 108.896 180.743 109.192V109.411C180.743 109.712 180.764 109.999 180.805 110.272C180.85 110.546 180.928 110.792 181.037 111.011C181.151 111.225 181.308 111.396 181.509 111.523C181.714 111.651 181.974 111.715 182.288 111.715ZM188.358 107.114V113H186.554V105.604H188.263L188.358 107.114ZM190.607 105.556L190.58 107.237C190.48 107.219 190.366 107.205 190.238 107.196C190.115 107.187 189.999 107.183 189.89 107.183C189.612 107.183 189.368 107.221 189.158 107.299C188.949 107.372 188.773 107.479 188.632 107.62C188.495 107.761 188.39 107.935 188.317 108.14C188.244 108.34 188.203 108.568 188.194 108.823L187.805 108.775C187.805 108.306 187.853 107.871 187.948 107.47C188.044 107.069 188.183 106.718 188.365 106.417C188.548 106.116 188.775 105.884 189.049 105.72C189.327 105.551 189.646 105.467 190.006 105.467C190.106 105.467 190.213 105.476 190.327 105.494C190.446 105.508 190.539 105.528 190.607 105.556ZM191.086 109.377V109.233C191.086 108.691 191.163 108.192 191.318 107.736C191.473 107.276 191.699 106.877 191.995 106.54C192.291 106.203 192.654 105.941 193.082 105.754C193.51 105.562 193.998 105.467 194.545 105.467C195.101 105.467 195.593 105.562 196.021 105.754C196.454 105.941 196.819 106.203 197.115 106.54C197.411 106.877 197.637 107.276 197.792 107.736C197.947 108.192 198.024 108.691 198.024 109.233V109.377C198.024 109.915 197.947 110.414 197.792 110.874C197.637 111.33 197.411 111.729 197.115 112.07C196.819 112.408 196.457 112.67 196.028 112.856C195.6 113.043 195.11 113.137 194.559 113.137C194.012 113.137 193.522 113.043 193.089 112.856C192.656 112.67 192.291 112.408 191.995 112.07C191.699 111.729 191.473 111.33 191.318 110.874C191.163 110.414 191.086 109.915 191.086 109.377ZM192.891 109.233V109.377C192.891 109.701 192.923 110.004 192.986 110.286C193.05 110.569 193.148 110.817 193.28 111.031C193.412 111.245 193.583 111.414 193.793 111.537C194.007 111.656 194.262 111.715 194.559 111.715C194.85 111.715 195.101 111.656 195.311 111.537C195.52 111.414 195.691 111.245 195.823 111.031C195.96 110.817 196.06 110.569 196.124 110.286C196.188 110.004 196.22 109.701 196.22 109.377V109.233C196.22 108.914 196.188 108.616 196.124 108.338C196.06 108.055 195.96 107.807 195.823 107.593C195.691 107.374 195.518 107.203 195.304 107.08C195.094 106.952 194.841 106.889 194.545 106.889C194.253 106.889 194.003 106.952 193.793 107.08C193.583 107.203 193.412 107.374 193.28 107.593C193.148 107.807 193.05 108.055 192.986 108.338C192.923 108.616 192.891 108.914 192.891 109.233ZM203.404 110.977C203.404 110.822 203.363 110.683 203.281 110.56C203.199 110.437 203.044 110.325 202.816 110.225C202.593 110.12 202.265 110.022 201.832 109.931C201.449 109.849 201.096 109.746 200.772 109.623C200.449 109.5 200.171 109.352 199.938 109.179C199.706 109.001 199.524 108.794 199.392 108.557C199.264 108.315 199.2 108.037 199.2 107.723C199.2 107.417 199.266 107.13 199.398 106.861C199.531 106.588 199.722 106.349 199.973 106.144C200.223 105.934 200.529 105.77 200.889 105.651C201.249 105.528 201.654 105.467 202.105 105.467C202.734 105.467 203.274 105.569 203.726 105.774C204.181 105.979 204.53 106.262 204.771 106.622C205.013 106.978 205.134 107.379 205.134 107.825H203.329C203.329 107.629 203.284 107.451 203.192 107.292C203.106 107.132 202.971 107.005 202.789 106.909C202.607 106.809 202.377 106.759 202.099 106.759C201.848 106.759 201.636 106.8 201.463 106.882C201.294 106.964 201.167 107.071 201.08 107.203C200.993 107.335 200.95 107.481 200.95 107.641C200.95 107.759 200.973 107.866 201.019 107.962C201.069 108.053 201.148 108.137 201.258 108.215C201.367 108.292 201.515 108.363 201.702 108.427C201.894 108.491 202.128 108.552 202.406 108.611C202.958 108.721 203.438 108.867 203.849 109.049C204.263 109.227 204.587 109.464 204.819 109.76C205.052 110.056 205.168 110.434 205.168 110.895C205.168 111.223 205.097 111.523 204.956 111.797C204.815 112.066 204.61 112.3 204.341 112.501C204.072 112.701 203.751 112.859 203.377 112.973C203.003 113.082 202.582 113.137 202.112 113.137C201.433 113.137 200.859 113.016 200.39 112.774C199.92 112.528 199.565 112.218 199.323 111.845C199.082 111.466 198.961 111.075 198.961 110.669H200.69C200.704 110.956 200.782 111.186 200.923 111.359C201.064 111.533 201.242 111.658 201.456 111.735C201.675 111.808 201.905 111.845 202.146 111.845C202.42 111.845 202.65 111.808 202.837 111.735C203.024 111.658 203.165 111.555 203.261 111.428C203.356 111.296 203.404 111.145 203.404 110.977ZM210.609 110.977C210.609 110.822 210.568 110.683 210.486 110.56C210.404 110.437 210.249 110.325 210.021 110.225C209.798 110.12 209.47 110.022 209.037 109.931C208.654 109.849 208.301 109.746 207.978 109.623C207.654 109.5 207.376 109.352 207.144 109.179C206.911 109.001 206.729 108.794 206.597 108.557C206.469 108.315 206.405 108.037 206.405 107.723C206.405 107.417 206.471 107.13 206.604 106.861C206.736 106.588 206.927 106.349 207.178 106.144C207.428 105.934 207.734 105.77 208.094 105.651C208.454 105.528 208.859 105.467 209.311 105.467C209.939 105.467 210.479 105.569 210.931 105.774C211.386 105.979 211.735 106.262 211.977 106.622C212.218 106.978 212.339 107.379 212.339 107.825H210.534C210.534 107.629 210.489 107.451 210.397 107.292C210.311 107.132 210.176 107.005 209.994 106.909C209.812 106.809 209.582 106.759 209.304 106.759C209.053 106.759 208.841 106.8 208.668 106.882C208.499 106.964 208.372 107.071 208.285 107.203C208.199 107.335 208.155 107.481 208.155 107.641C208.155 107.759 208.178 107.866 208.224 107.962C208.274 108.053 208.354 108.137 208.463 108.215C208.572 108.292 208.72 108.363 208.907 108.427C209.099 108.491 209.333 108.552 209.611 108.611C210.163 108.721 210.644 108.867 211.054 109.049C211.468 109.227 211.792 109.464 212.024 109.76C212.257 110.056 212.373 110.434 212.373 110.895C212.373 111.223 212.302 111.523 212.161 111.797C212.02 112.066 211.815 112.3 211.546 112.501C211.277 112.701 210.956 112.859 210.582 112.973C210.208 113.082 209.787 113.137 209.317 113.137C208.638 113.137 208.064 113.016 207.595 112.774C207.125 112.528 206.77 112.218 206.528 111.845C206.287 111.466 206.166 111.075 206.166 110.669H207.896C207.909 110.956 207.987 111.186 208.128 111.359C208.269 111.533 208.447 111.658 208.661 111.735C208.88 111.808 209.11 111.845 209.352 111.845C209.625 111.845 209.855 111.808 210.042 111.735C210.229 111.658 210.37 111.555 210.466 111.428C210.562 111.296 210.609 111.145 210.609 110.977ZM221.308 111.428V108.017C221.308 107.766 221.264 107.549 221.178 107.367C221.091 107.185 220.959 107.044 220.781 106.943C220.604 106.843 220.378 106.793 220.104 106.793C219.863 106.793 219.651 106.834 219.469 106.916C219.291 106.998 219.154 107.114 219.059 107.265C218.963 107.41 218.915 107.579 218.915 107.771H217.104C217.104 107.465 217.176 107.176 217.322 106.902C217.468 106.624 217.675 106.378 217.944 106.164C218.218 105.945 218.544 105.774 218.922 105.651C219.305 105.528 219.733 105.467 220.207 105.467C220.768 105.467 221.267 105.562 221.704 105.754C222.146 105.941 222.493 106.223 222.743 106.602C222.998 106.98 223.126 107.456 223.126 108.03V111.257C223.126 111.626 223.149 111.943 223.194 112.207C223.244 112.467 223.317 112.692 223.413 112.884V113H221.574C221.488 112.813 221.422 112.576 221.376 112.289C221.33 111.997 221.308 111.71 221.308 111.428ZM221.561 108.495L221.574 109.568H220.433C220.15 109.568 219.902 109.598 219.688 109.657C219.473 109.712 219.298 109.794 219.161 109.903C219.024 110.008 218.922 110.136 218.854 110.286C218.785 110.432 218.751 110.598 218.751 110.785C218.751 110.967 218.792 111.132 218.874 111.277C218.961 111.423 219.084 111.539 219.243 111.626C219.407 111.708 219.599 111.749 219.817 111.749C220.136 111.749 220.414 111.685 220.651 111.558C220.888 111.425 221.073 111.266 221.205 111.079C221.337 110.892 221.408 110.715 221.417 110.546L221.937 111.325C221.873 111.512 221.777 111.71 221.649 111.92C221.522 112.13 221.358 112.326 221.157 112.508C220.957 112.69 220.715 112.84 220.433 112.959C220.15 113.077 219.822 113.137 219.448 113.137C218.97 113.137 218.541 113.041 218.163 112.85C217.785 112.658 217.486 112.396 217.268 112.063C217.049 111.731 216.939 111.353 216.939 110.929C216.939 110.537 217.012 110.19 217.158 109.89C217.304 109.589 217.521 109.336 217.808 109.131C218.095 108.921 218.45 108.764 218.874 108.659C219.302 108.55 219.792 108.495 220.344 108.495H221.561ZM226.667 102.5V113H224.855V102.5H226.667ZM230.304 102.5V113H228.492V102.5H230.304ZM238.548 111.715C238.803 111.715 239.031 111.665 239.231 111.564C239.432 111.464 239.591 111.323 239.71 111.141C239.833 110.958 239.899 110.746 239.908 110.505H241.61C241.601 111.006 241.46 111.455 241.187 111.852C240.913 112.248 240.549 112.562 240.093 112.795C239.642 113.023 239.136 113.137 238.575 113.137C238.006 113.137 237.509 113.041 237.085 112.85C236.661 112.658 236.308 112.392 236.025 112.05C235.747 111.708 235.538 111.312 235.396 110.86C235.26 110.409 235.191 109.926 235.191 109.411V109.192C235.191 108.677 235.26 108.194 235.396 107.743C235.538 107.292 235.747 106.896 236.025 106.554C236.308 106.212 236.661 105.945 237.085 105.754C237.509 105.562 238.003 105.467 238.568 105.467C239.165 105.467 239.689 105.583 240.141 105.815C240.596 106.048 240.952 106.376 241.207 106.8C241.467 107.224 241.601 107.723 241.61 108.297H239.908C239.899 108.033 239.84 107.796 239.73 107.586C239.621 107.376 239.466 107.208 239.266 107.08C239.065 106.952 238.821 106.889 238.534 106.889C238.229 106.889 237.974 106.952 237.769 107.08C237.568 107.208 237.411 107.383 237.297 107.606C237.188 107.825 237.11 108.071 237.064 108.345C237.023 108.614 237.003 108.896 237.003 109.192V109.411C237.003 109.712 237.023 109.999 237.064 110.272C237.11 110.546 237.188 110.792 237.297 111.011C237.411 111.225 237.568 111.396 237.769 111.523C237.974 111.651 238.233 111.715 238.548 111.715ZM244.728 102.5V113H242.916V102.5H244.728ZM250.524 111.428V108.017C250.524 107.766 250.481 107.549 250.395 107.367C250.308 107.185 250.176 107.044 249.998 106.943C249.82 106.843 249.595 106.793 249.321 106.793C249.08 106.793 248.868 106.834 248.686 106.916C248.508 106.998 248.371 107.114 248.275 107.265C248.18 107.41 248.132 107.579 248.132 107.771H246.32C246.32 107.465 246.393 107.176 246.539 106.902C246.685 106.624 246.892 106.378 247.161 106.164C247.435 105.945 247.76 105.774 248.139 105.651C248.521 105.528 248.95 105.467 249.424 105.467C249.984 105.467 250.483 105.562 250.921 105.754C251.363 105.941 251.709 106.223 251.96 106.602C252.215 106.98 252.343 107.456 252.343 108.03V111.257C252.343 111.626 252.366 111.943 252.411 112.207C252.461 112.467 252.534 112.692 252.63 112.884V113H250.791C250.704 112.813 250.638 112.576 250.593 112.289C250.547 111.997 250.524 111.71 250.524 111.428ZM250.777 108.495L250.791 109.568H249.649C249.367 109.568 249.118 109.598 248.904 109.657C248.69 109.712 248.515 109.794 248.378 109.903C248.241 110.008 248.139 110.136 248.07 110.286C248.002 110.432 247.968 110.598 247.968 110.785C247.968 110.967 248.009 111.132 248.091 111.277C248.177 111.423 248.3 111.539 248.46 111.626C248.624 111.708 248.815 111.749 249.034 111.749C249.353 111.749 249.631 111.685 249.868 111.558C250.105 111.425 250.29 111.266 250.422 111.079C250.554 110.892 250.625 110.715 250.634 110.546L251.153 111.325C251.09 111.512 250.994 111.71 250.866 111.92C250.739 112.13 250.575 112.326 250.374 112.508C250.174 112.69 249.932 112.84 249.649 112.959C249.367 113.077 249.039 113.137 248.665 113.137C248.187 113.137 247.758 113.041 247.38 112.85C247.002 112.658 246.703 112.396 246.484 112.063C246.266 111.731 246.156 111.353 246.156 110.929C246.156 110.537 246.229 110.19 246.375 109.89C246.521 109.589 246.737 109.336 247.024 109.131C247.312 108.921 247.667 108.764 248.091 108.659C248.519 108.55 249.009 108.495 249.561 108.495H250.777ZM258.037 110.977C258.037 110.822 257.996 110.683 257.914 110.56C257.832 110.437 257.677 110.325 257.449 110.225C257.226 110.12 256.898 110.022 256.465 109.931C256.082 109.849 255.729 109.746 255.405 109.623C255.082 109.5 254.804 109.352 254.571 109.179C254.339 109.001 254.157 108.794 254.024 108.557C253.897 108.315 253.833 108.037 253.833 107.723C253.833 107.417 253.899 107.13 254.031 106.861C254.163 106.588 254.355 106.349 254.605 106.144C254.856 105.934 255.161 105.77 255.521 105.651C255.882 105.528 256.287 105.467 256.738 105.467C257.367 105.467 257.907 105.569 258.358 105.774C258.814 105.979 259.163 106.262 259.404 106.622C259.646 106.978 259.767 107.379 259.767 107.825H257.962C257.962 107.629 257.916 107.451 257.825 107.292C257.739 107.132 257.604 107.005 257.422 106.909C257.24 106.809 257.009 106.759 256.731 106.759C256.481 106.759 256.269 106.8 256.096 106.882C255.927 106.964 255.799 107.071 255.713 107.203C255.626 107.335 255.583 107.481 255.583 107.641C255.583 107.759 255.606 107.866 255.651 107.962C255.701 108.053 255.781 108.137 255.891 108.215C256 108.292 256.148 108.363 256.335 108.427C256.526 108.491 256.761 108.552 257.039 108.611C257.59 108.721 258.071 108.867 258.481 109.049C258.896 109.227 259.22 109.464 259.452 109.76C259.685 110.056 259.801 110.434 259.801 110.895C259.801 111.223 259.73 111.523 259.589 111.797C259.448 112.066 259.243 112.3 258.974 112.501C258.705 112.701 258.383 112.859 258.01 112.973C257.636 113.082 257.215 113.137 256.745 113.137C256.066 113.137 255.492 113.016 255.022 112.774C254.553 112.528 254.198 112.218 253.956 111.845C253.715 111.466 253.594 111.075 253.594 110.669H255.323C255.337 110.956 255.414 111.186 255.556 111.359C255.697 111.533 255.875 111.658 256.089 111.735C256.308 111.808 256.538 111.845 256.779 111.845C257.053 111.845 257.283 111.808 257.47 111.735C257.657 111.658 257.798 111.555 257.894 111.428C257.989 111.296 258.037 111.145 258.037 110.977ZM265.242 110.977C265.242 110.822 265.201 110.683 265.119 110.56C265.037 110.437 264.882 110.325 264.654 110.225C264.431 110.12 264.103 110.022 263.67 109.931C263.287 109.849 262.934 109.746 262.61 109.623C262.287 109.5 262.009 109.352 261.776 109.179C261.544 109.001 261.362 108.794 261.229 108.557C261.102 108.315 261.038 108.037 261.038 107.723C261.038 107.417 261.104 107.13 261.236 106.861C261.368 106.588 261.56 106.349 261.811 106.144C262.061 105.934 262.367 105.77 262.727 105.651C263.087 105.528 263.492 105.467 263.943 105.467C264.572 105.467 265.112 105.569 265.563 105.774C266.019 105.979 266.368 106.262 266.609 106.622C266.851 106.978 266.972 107.379 266.972 107.825H265.167C265.167 107.629 265.121 107.451 265.03 107.292C264.944 107.132 264.809 107.005 264.627 106.909C264.445 106.809 264.215 106.759 263.937 106.759C263.686 106.759 263.474 106.8 263.301 106.882C263.132 106.964 263.005 107.071 262.918 107.203C262.831 107.335 262.788 107.481 262.788 107.641C262.788 107.759 262.811 107.866 262.856 107.962C262.907 108.053 262.986 108.137 263.096 108.215C263.205 108.292 263.353 108.363 263.54 108.427C263.731 108.491 263.966 108.552 264.244 108.611C264.796 108.721 265.276 108.867 265.687 109.049C266.101 109.227 266.425 109.464 266.657 109.76C266.89 110.056 267.006 110.434 267.006 110.895C267.006 111.223 266.935 111.523 266.794 111.797C266.653 112.066 266.448 112.3 266.179 112.501C265.91 112.701 265.589 112.859 265.215 112.973C264.841 113.082 264.42 113.137 263.95 113.137C263.271 113.137 262.697 113.016 262.228 112.774C261.758 112.528 261.403 112.218 261.161 111.845C260.92 111.466 260.799 111.075 260.799 110.669H262.528C262.542 110.956 262.619 111.186 262.761 111.359C262.902 111.533 263.08 111.658 263.294 111.735C263.513 111.808 263.743 111.845 263.984 111.845C264.258 111.845 264.488 111.808 264.675 111.735C264.862 111.658 265.003 111.555 265.099 111.428C265.194 111.296 265.242 111.145 265.242 110.977ZM271.702 113.137C271.142 113.137 270.638 113.046 270.191 112.863C269.745 112.681 269.364 112.428 269.05 112.104C268.74 111.776 268.501 111.396 268.332 110.963C268.168 110.525 268.086 110.056 268.086 109.555V109.281C268.086 108.712 268.168 108.194 268.332 107.729C268.496 107.26 268.729 106.857 269.029 106.52C269.33 106.182 269.69 105.923 270.109 105.74C270.529 105.558 270.991 105.467 271.497 105.467C272.021 105.467 272.484 105.556 272.885 105.733C273.286 105.907 273.621 106.153 273.89 106.472C274.159 106.791 274.361 107.174 274.498 107.62C274.635 108.062 274.703 108.552 274.703 109.09V109.849H268.906V108.604H272.926V108.468C272.917 108.181 272.862 107.919 272.762 107.682C272.661 107.44 272.507 107.249 272.297 107.107C272.087 106.962 271.816 106.889 271.483 106.889C271.215 106.889 270.98 106.948 270.779 107.066C270.583 107.18 270.419 107.344 270.287 107.559C270.16 107.768 270.064 108.019 270 108.311C269.936 108.602 269.904 108.926 269.904 109.281V109.555C269.904 109.865 269.945 110.152 270.027 110.416C270.114 110.68 270.239 110.91 270.403 111.106C270.572 111.298 270.772 111.448 271.005 111.558C271.242 111.662 271.511 111.715 271.812 111.715C272.19 111.715 272.532 111.642 272.837 111.496C273.147 111.346 273.416 111.125 273.644 110.833L274.553 111.776C274.398 112.004 274.188 112.223 273.924 112.433C273.664 112.642 273.35 112.813 272.98 112.945C272.611 113.073 272.185 113.137 271.702 113.137ZM279.98 110.977C279.98 110.822 279.939 110.683 279.857 110.56C279.775 110.437 279.62 110.325 279.393 110.225C279.169 110.12 278.841 110.022 278.408 109.931C278.025 109.849 277.672 109.746 277.349 109.623C277.025 109.5 276.747 109.352 276.515 109.179C276.282 109.001 276.1 108.794 275.968 108.557C275.84 108.315 275.776 108.037 275.776 107.723C275.776 107.417 275.842 107.13 275.975 106.861C276.107 106.588 276.298 106.349 276.549 106.144C276.799 105.934 277.105 105.77 277.465 105.651C277.825 105.528 278.23 105.467 278.682 105.467C279.311 105.467 279.851 105.569 280.302 105.774C280.757 105.979 281.106 106.262 281.348 106.622C281.589 106.978 281.71 107.379 281.71 107.825H279.905C279.905 107.629 279.86 107.451 279.769 107.292C279.682 107.132 279.548 107.005 279.365 106.909C279.183 106.809 278.953 106.759 278.675 106.759C278.424 106.759 278.212 106.8 278.039 106.882C277.87 106.964 277.743 107.071 277.656 107.203C277.57 107.335 277.526 107.481 277.526 107.641C277.526 107.759 277.549 107.866 277.595 107.962C277.645 108.053 277.725 108.137 277.834 108.215C277.943 108.292 278.091 108.363 278.278 108.427C278.47 108.491 278.704 108.552 278.982 108.611C279.534 108.721 280.015 108.867 280.425 109.049C280.84 109.227 281.163 109.464 281.396 109.76C281.628 110.056 281.744 110.434 281.744 110.895C281.744 111.223 281.674 111.523 281.532 111.797C281.391 112.066 281.186 112.3 280.917 112.501C280.648 112.701 280.327 112.859 279.953 112.973C279.579 113.082 279.158 113.137 278.688 113.137C278.009 113.137 277.435 113.016 276.966 112.774C276.496 112.528 276.141 112.218 275.899 111.845C275.658 111.466 275.537 111.075 275.537 110.669H277.267C277.28 110.956 277.358 111.186 277.499 111.359C277.64 111.533 277.818 111.658 278.032 111.735C278.251 111.808 278.481 111.845 278.723 111.845C278.996 111.845 279.226 111.808 279.413 111.735C279.6 111.658 279.741 111.555 279.837 111.428C279.933 111.296 279.98 111.145 279.98 110.977Z" fill="#ABA9A9"/>
<path d="M162.58 105.604L163.899 107.955L165.239 105.604H167.201L165.027 109.227L167.29 113H165.328L163.913 110.532L162.491 113H160.529L162.785 109.227L160.625 105.604H162.58Z" fill="#0277BD"/>
<path d="M24.6016 114H22.5234V104.766C22.5234 104.13 22.6458 103.596 22.8906 103.164C23.1354 102.727 23.4844 102.396 23.9375 102.172C24.3906 101.948 24.9245 101.836 25.5391 101.836C25.7422 101.836 25.9349 101.849 26.1172 101.875C26.3047 101.901 26.4896 101.938 26.6719 101.984L26.6328 103.555C26.5339 103.529 26.4245 103.51 26.3047 103.5C26.1901 103.49 26.0625 103.484 25.9219 103.484C25.6406 103.484 25.401 103.534 25.2031 103.633C25.0052 103.732 24.8542 103.878 24.75 104.07C24.651 104.258 24.6016 104.49 24.6016 104.766V114ZM26.3125 105.547V107.031H21.25V105.547H26.3125Z" fill="black"/>
<path d="M27.2852 111.773L27.9375 113.309L29.0859 111.773H29.957L28.2617 113.895L29.293 116H28.5234L27.8242 114.418L26.6328 116H25.7695L27.5117 113.824L26.5156 111.773H27.2852Z" fill="#0277BD"/>
<path d="M27.3125 24V51H22.2324V24H27.3125ZM30.6875 41.6836V41.3145C30.6875 39.9199 30.8867 38.6367 31.2852 37.4648C31.6836 36.2812 32.2637 35.2559 33.0254 34.3887C33.7871 33.5215 34.7246 32.8477 35.8379 32.3672C36.9512 31.875 38.2285 31.6289 39.6699 31.6289C41.1113 31.6289 42.3945 31.875 43.5195 32.3672C44.6445 32.8477 45.5879 33.5215 46.3496 34.3887C47.123 35.2559 47.709 36.2812 48.1074 37.4648C48.5059 38.6367 48.7051 39.9199 48.7051 41.3145V41.6836C48.7051 43.0664 48.5059 44.3496 48.1074 45.5332C47.709 46.7051 47.123 47.7305 46.3496 48.6094C45.5879 49.4766 44.6504 50.1504 43.5371 50.6309C42.4238 51.1113 41.1465 51.3516 39.7051 51.3516C38.2637 51.3516 36.9805 51.1113 35.8555 50.6309C34.7422 50.1504 33.7988 49.4766 33.0254 48.6094C32.2637 47.7305 31.6836 46.7051 31.2852 45.5332C30.8867 44.3496 30.6875 43.0664 30.6875 41.6836ZM35.75 41.3145V41.6836C35.75 42.4805 35.8203 43.2246 35.9609 43.916C36.1016 44.6074 36.3242 45.2168 36.6289 45.7441C36.9453 46.2598 37.3555 46.6641 37.8594 46.957C38.3633 47.25 38.9785 47.3965 39.7051 47.3965C40.4082 47.3965 41.0117 47.25 41.5156 46.957C42.0195 46.6641 42.4238 46.2598 42.7285 45.7441C43.0332 45.2168 43.2559 44.6074 43.3965 43.916C43.5488 43.2246 43.625 42.4805 43.625 41.6836V41.3145C43.625 40.541 43.5488 39.8145 43.3965 39.1348C43.2559 38.4434 43.0273 37.834 42.7109 37.3066C42.4062 36.7676 42.002 36.3457 41.498 36.041C40.9941 35.7363 40.3848 35.584 39.6699 35.584C38.9551 35.584 38.3457 35.7363 37.8418 36.041C37.3496 36.3457 36.9453 36.7676 36.6289 37.3066C36.3242 37.834 36.1016 38.4434 35.9609 39.1348C35.8203 39.8145 35.75 40.541 35.75 41.3145ZM63.8574 31.9805H68.4453V50.3672C68.4453 52.1016 68.0586 53.5723 67.2852 54.7793C66.5234 55.998 65.457 56.918 64.0859 57.5391C62.7148 58.1719 61.1211 58.4883 59.3047 58.4883C58.5078 58.4883 57.6641 58.3828 56.7734 58.1719C55.8945 57.9609 55.0508 57.6328 54.2422 57.1875C53.4453 56.7422 52.7773 56.1797 52.2383 55.5L54.4707 52.5117C55.0566 53.1914 55.7363 53.7188 56.5098 54.0938C57.2832 54.4805 58.1387 54.6738 59.0762 54.6738C59.9902 54.6738 60.7637 54.5039 61.3965 54.1641C62.0293 53.8359 62.5156 53.3496 62.8555 52.7051C63.1953 52.0723 63.3652 51.3047 63.3652 50.4023V36.375L63.8574 31.9805ZM51.0605 41.7188V41.3496C51.0605 39.8965 51.2363 38.5781 51.5879 37.3945C51.9512 36.1992 52.4609 35.1738 53.1172 34.3184C53.7852 33.4629 54.5938 32.8008 55.543 32.332C56.4922 31.8633 57.5645 31.6289 58.7598 31.6289C60.0254 31.6289 61.0859 31.8633 61.9414 32.332C62.7969 32.8008 63.5 33.4688 64.0508 34.3359C64.6016 35.1914 65.0293 36.2051 65.334 37.377C65.6504 38.5371 65.8965 39.8086 66.0723 41.1914V42C65.8965 43.3242 65.6328 44.5547 65.2812 45.6914C64.9297 46.8281 64.4668 47.8242 63.8926 48.6797C63.3184 49.5234 62.6035 50.1797 61.748 50.6484C60.9043 51.1172 59.8965 51.3516 58.7246 51.3516C57.5527 51.3516 56.4922 51.1113 55.543 50.6309C54.6055 50.1504 53.8027 49.4766 53.1348 48.6094C52.4668 47.7422 51.9512 46.7227 51.5879 45.5508C51.2363 44.3789 51.0605 43.1016 51.0605 41.7188ZM56.123 41.3496V41.7188C56.123 42.5039 56.1992 43.2363 56.3516 43.916C56.5039 44.5957 56.7383 45.1992 57.0547 45.7266C57.3828 46.2422 57.7871 46.6465 58.2676 46.9395C58.7598 47.2207 59.3398 47.3613 60.0078 47.3613C60.9336 47.3613 61.6895 47.168 62.2754 46.7812C62.8613 46.3828 63.3008 45.8379 63.5938 45.1465C63.8867 44.4551 64.0566 43.6582 64.1035 42.7559V40.4531C64.0801 39.7148 63.9805 39.0527 63.8047 38.4668C63.6289 37.8691 63.3828 37.3594 63.0664 36.9375C62.75 36.5156 62.3398 36.1875 61.8359 35.9531C61.332 35.7188 60.7344 35.6016 60.043 35.6016C59.375 35.6016 58.7949 35.7539 58.3027 36.0586C57.8223 36.3516 57.418 36.7559 57.0898 37.2715C56.7734 37.7871 56.5332 38.3965 56.3691 39.0996C56.2051 39.791 56.123 40.541 56.123 41.3496Z" fill="black"/>
<path d="M121.863 39.0342V41.9229H105.295V39.0342H121.863ZM115.123 31.9785V49.5762H112.052V31.9785H115.123Z" fill="#ABA9A9"/>
<path d="M74.3047 37.5469V37.1953C74.3047 34.1484 74.625 31.2969 75.2656 28.6406C75.9062 25.9844 76.7422 23.5938 77.7734 21.4688C78.8203 19.3438 79.9609 17.5391 81.1953 16.0547C82.4453 14.5547 83.6719 13.4453 84.875 12.7266L85.5547 14.6484C84.5234 15.3828 83.5 16.4453 82.4844 17.8359C81.4844 19.2266 80.5781 20.8984 79.7656 22.8516C78.9531 24.8047 78.3047 26.9844 77.8203 29.3906C77.3359 31.7969 77.0938 34.375 77.0938 37.125V37.5938C77.0938 40.3438 77.3359 42.9219 77.8203 45.3281C78.3047 47.7344 78.9531 49.9141 79.7656 51.8672C80.5781 53.8359 81.4844 55.5234 82.4844 56.9297C83.5 58.3516 84.5234 59.4453 85.5547 60.2109L84.875 62.0156C83.6719 61.2969 82.4453 60.2031 81.1953 58.7344C79.9609 57.2812 78.8203 55.5 77.7734 53.3906C76.7422 51.2969 75.9062 48.9141 75.2656 46.2422C74.625 43.5703 74.3047 40.6719 74.3047 37.5469Z" fill="#ABA9A9"/>
<path d="M177.695 36.5469V36.1953C177.695 33.1484 177.375 30.2969 176.734 27.6406C176.094 24.9844 175.258 22.5938 174.227 20.4688C173.18 18.3438 172.039 16.5391 170.805 15.0547C169.555 13.5547 168.328 12.4453 167.125 11.7266L166.445 13.6484C167.477 14.3828 168.5 15.4453 169.516 16.8359C170.516 18.2266 171.422 19.8984 172.234 21.8516C173.047 23.8047 173.695 25.9844 174.18 28.3906C174.664 30.7969 174.906 33.375 174.906 36.125V36.5938C174.906 39.3438 174.664 41.9219 174.18 44.3281C173.695 46.7344 173.047 48.9141 172.234 50.8672C171.422 52.8359 170.516 54.5234 169.516 55.9297C168.5 57.3516 167.477 58.4453 166.445 59.2109L167.125 61.0156C168.328 60.2969 169.555 59.2031 170.805 57.7344C172.039 56.2812 173.18 54.5 174.227 52.3906C175.258 50.2969 176.094 47.9141 176.734 45.2422C177.375 42.5703 177.695 39.6719 177.695 36.5469Z" fill="#ABA9A9"/>
<path d="M143.621 16.291L136.326 38H131.211L140.773 12.4062H144.043L143.621 16.291ZM149.721 38L142.391 16.291L141.951 12.4062H145.238L154.854 38H149.721ZM149.387 28.4902V32.3047H135.658V28.4902H149.387Z" fill="black"/>
<path d="M98.7988 26.3359V52H94.1406V31.7676L87.9707 33.8066V30.0449L98.2715 26.3359H98.7988Z" fill="black"/>
<line x1="125" y1="43.5" x2="162" y2="43.5" stroke="#ABA9A9"/>
<path d="M145.139 77H140.463V56.2227C140.463 54.793 140.738 53.5918 141.289 52.6191C141.84 51.6348 142.625 50.8906 143.645 50.3867C144.664 49.8828 145.865 49.6309 147.248 49.6309C147.705 49.6309 148.139 49.6602 148.549 49.7188C148.971 49.7773 149.387 49.8594 149.797 49.9648L149.709 53.498C149.486 53.4395 149.24 53.3984 148.971 53.375C148.713 53.3516 148.426 53.3398 148.109 53.3398C147.477 53.3398 146.938 53.4512 146.492 53.6738C146.047 53.8965 145.707 54.2246 145.473 54.6582C145.25 55.0801 145.139 55.6016 145.139 56.2227V77ZM148.988 57.9805V61.3203H137.598V57.9805H148.988Z" fill="black"/>
<path d="M150.249 74.6035L151.391 77.29L153.4 74.6035H154.925L151.958 78.3154L153.763 82H152.416L151.192 79.2314L149.107 82H147.597L150.646 78.1924L148.902 74.6035H150.249Z" fill="#0277BD"/>
</svg>
