<svg width="247" height="88" viewBox="0 0 247 88" fill="none" xmlns="http://www.w3.org/2000/svg">
<rect width="247" height="88" fill="white"/>
<line x1="17.5" y1="16" x2="17.5" y2="51" stroke="black"/>
<line x1="14.5" y1="16" x2="14.5" y2="51" stroke="black"/>
<line x1="78.5" y1="15" x2="78.5" y2="50" stroke="black"/>
<line x1="75.5" y1="15" x2="75.5" y2="50" stroke="black"/>
<path d="M36.2852 26.9805V30.5664H25.2109V26.9805H36.2852ZM27.9531 22.2871H33.0156V40.2695C33.0156 40.8203 33.0859 41.2422 33.2266 41.5352C33.3789 41.8281 33.6016 42.0332 33.8945 42.1504C34.1875 42.2559 34.5566 42.3086 35.002 42.3086C35.3184 42.3086 35.5996 42.2969 35.8457 42.2734C36.1035 42.2383 36.3203 42.2031 36.4961 42.168L36.5137 45.8945C36.0801 46.0352 35.6113 46.1465 35.1074 46.2285C34.6035 46.3105 34.0469 46.3516 33.4375 46.3516C32.3242 46.3516 31.3516 46.1699 30.5195 45.8066C29.6992 45.4316 29.0664 44.834 28.6211 44.0137C28.1758 43.1934 27.9531 42.1152 27.9531 40.7793V22.2871ZM45.6191 46H40.5215V25.293C40.5215 23.8516 40.8027 22.6387 41.3652 21.6543C41.9395 20.6582 42.7422 19.9082 43.7734 19.4043C44.8164 18.8887 46.0527 18.6309 47.4824 18.6309C47.9512 18.6309 48.4023 18.666 48.8359 18.7363C49.2695 18.7949 49.6914 18.8711 50.1016 18.9648L50.0488 22.7793C49.8262 22.7207 49.5918 22.6797 49.3457 22.6562C49.0996 22.6328 48.8125 22.6211 48.4844 22.6211C47.875 22.6211 47.3535 22.7266 46.9199 22.9375C46.498 23.1367 46.1758 23.4355 45.9531 23.834C45.7305 24.2324 45.6191 24.7188 45.6191 25.293V46ZM49.416 26.9805V30.5664H37.6914V26.9805H49.416Z" fill="black"/>
<path d="M51.249 44.6035L52.3906 47.29L54.4004 44.6035H55.9248L52.958 48.3154L54.7627 52H53.416L52.1924 49.2314L50.1074 52H48.5967L51.6455 48.1924L49.9023 44.6035H51.249ZM65.167 51.1045C65.4678 51.109 65.748 51.0521 66.0078 50.9336C66.2676 50.8151 66.4886 50.6465 66.6709 50.4277C66.8532 50.209 66.9831 49.9561 67.0605 49.6689L68.2363 49.6621C68.1634 50.1589 67.9697 50.5941 67.6553 50.9678C67.3454 51.3415 66.9648 51.6331 66.5137 51.8428C66.0671 52.0479 65.5999 52.1458 65.1123 52.1367C64.5928 52.1276 64.1507 52.0205 63.7861 51.8154C63.4261 51.6058 63.1367 51.3278 62.918 50.9814C62.6992 50.6351 62.5488 50.2454 62.4668 49.8125C62.3848 49.375 62.3665 48.9261 62.4121 48.4658L62.4395 48.1719C62.4941 47.6751 62.6149 47.2035 62.8018 46.7568C62.9886 46.3057 63.237 45.9069 63.5469 45.5605C63.8613 45.2096 64.2327 44.9362 64.6611 44.7402C65.0895 44.5443 65.5703 44.4531 66.1035 44.4668C66.623 44.4759 67.0742 44.599 67.457 44.8359C67.8398 45.0684 68.1361 45.3851 68.3457 45.7861C68.5553 46.1872 68.6602 46.6429 68.6602 47.1533L67.498 47.1465C67.4935 46.8548 67.4365 46.5859 67.3271 46.3398C67.2178 46.0938 67.056 45.8955 66.8418 45.7451C66.6276 45.5947 66.3633 45.5127 66.0488 45.499C65.6706 45.4899 65.3402 45.5605 65.0576 45.7109C64.7796 45.8613 64.5426 46.0687 64.3467 46.333C64.1553 46.5928 64.0026 46.8822 63.8887 47.2012C63.7793 47.5202 63.7041 47.8438 63.6631 48.1719L63.6289 48.459C63.6016 48.7507 63.597 49.0492 63.6152 49.3545C63.638 49.6598 63.7018 49.9447 63.8066 50.209C63.9115 50.4688 64.0732 50.6807 64.292 50.8447C64.5107 51.0088 64.8024 51.0954 65.167 51.1045Z" fill="#0277BD"/>
<path d="M57.3467 50.4961L57.1826 51.5078C57.1051 52.0046 56.9297 52.4671 56.6562 52.8955C56.3828 53.3239 56.0479 53.6885 55.6514 53.9893L54.9678 53.4766C55.1273 53.2806 55.2731 53.0801 55.4053 52.875C55.5374 52.6745 55.6491 52.4626 55.7402 52.2393C55.8359 52.016 55.9089 51.7812 55.959 51.5352L56.1367 50.4961H57.3467Z" fill="#ABA9A9"/>
<path d="M38.7402 70.335V71.4355H33.0391V70.335H38.7402ZM38.7402 73.1719V74.2725H33.0391V73.1719H38.7402ZM46.3486 77H44.5303V68.9199C44.5303 68.3639 44.6374 67.8968 44.8516 67.5186C45.0658 67.1357 45.3711 66.8464 45.7676 66.6504C46.1641 66.4544 46.6312 66.3564 47.1689 66.3564C47.3467 66.3564 47.5153 66.3678 47.6748 66.3906C47.8389 66.4134 48.0007 66.4453 48.1602 66.4863L48.126 67.8604C48.0394 67.8376 47.9437 67.8216 47.8389 67.8125C47.7386 67.8034 47.627 67.7988 47.5039 67.7988C47.2578 67.7988 47.0482 67.8421 46.875 67.9287C46.7018 68.0153 46.5697 68.1429 46.4785 68.3115C46.3919 68.4756 46.3486 68.6784 46.3486 68.9199V77ZM47.8457 69.6035V70.9023H43.416V69.6035H47.8457ZM50.7646 71.1143V77H48.96V69.6035H50.6689L50.7646 71.1143ZM53.0137 69.5557L52.9863 71.2373C52.8861 71.2191 52.7721 71.2054 52.6445 71.1963C52.5215 71.1872 52.4053 71.1826 52.2959 71.1826C52.0179 71.1826 51.7741 71.2214 51.5645 71.2988C51.3548 71.3717 51.1794 71.4788 51.0381 71.6201C50.9014 71.7614 50.7965 71.9346 50.7236 72.1396C50.6507 72.3402 50.6097 72.568 50.6006 72.8232L50.2109 72.7754C50.2109 72.306 50.2588 71.8708 50.3545 71.4697C50.4502 71.0687 50.5892 70.7178 50.7715 70.417C50.9538 70.1162 51.1816 69.8838 51.4551 69.7197C51.7331 69.5511 52.0521 69.4668 52.4121 69.4668C52.5124 69.4668 52.6195 69.4759 52.7334 69.4941C52.8519 69.5078 52.9453 69.5283 53.0137 69.5557ZM57.1904 77.1367C56.6299 77.1367 56.1263 77.0456 55.6797 76.8633C55.2331 76.681 54.8525 76.4281 54.5381 76.1045C54.2282 75.7764 53.9889 75.3958 53.8203 74.9629C53.6562 74.5254 53.5742 74.056 53.5742 73.5547V73.2812C53.5742 72.7116 53.6562 72.1943 53.8203 71.7295C53.9844 71.2601 54.2168 70.8568 54.5176 70.5195C54.8184 70.1823 55.1784 69.9225 55.5977 69.7402C56.0169 69.5579 56.4795 69.4668 56.9854 69.4668C57.5094 69.4668 57.972 69.5557 58.373 69.7334C58.7741 69.9066 59.109 70.1527 59.3779 70.4717C59.6468 70.7907 59.8496 71.1735 59.9863 71.6201C60.123 72.0622 60.1914 72.5521 60.1914 73.0898V73.8486H54.3945V72.6045H58.4141V72.4678C58.4049 72.1807 58.3503 71.9186 58.25 71.6816C58.1497 71.4401 57.9948 71.2487 57.7852 71.1074C57.5755 70.9616 57.3044 70.8887 56.9717 70.8887C56.7028 70.8887 56.4681 70.9479 56.2676 71.0664C56.0716 71.1803 55.9076 71.3444 55.7754 71.5586C55.6478 71.7682 55.5521 72.0189 55.4883 72.3105C55.4245 72.6022 55.3926 72.9258 55.3926 73.2812V73.5547C55.3926 73.8646 55.4336 74.1517 55.5156 74.416C55.6022 74.6803 55.7275 74.9105 55.8916 75.1064C56.0602 75.2979 56.2607 75.4482 56.4932 75.5576C56.7301 75.6624 56.999 75.7148 57.2998 75.7148C57.6781 75.7148 58.0199 75.6419 58.3252 75.4961C58.6351 75.3457 58.904 75.1247 59.1318 74.833L60.041 75.7764C59.8861 76.0042 59.6764 76.223 59.4121 76.4326C59.1523 76.6423 58.8379 76.8132 58.4688 76.9453C58.0996 77.0729 57.6735 77.1367 57.1904 77.1367ZM65.8311 79.8438V71.0938L66.0498 69.6035H67.6494V79.8438H65.8311ZM61.0869 73.377V73.2334C61.0869 72.6683 61.1507 72.1556 61.2783 71.6953C61.4059 71.2305 61.5928 70.834 61.8389 70.5059C62.0895 70.1732 62.3949 69.918 62.7549 69.7402C63.1149 69.5579 63.5273 69.4668 63.9922 69.4668C64.4479 69.4668 64.8421 69.5557 65.1748 69.7334C65.5075 69.9111 65.79 70.1641 66.0225 70.4922C66.2549 70.8158 66.4395 71.2008 66.5762 71.6475C66.7174 72.0941 66.8223 72.5885 66.8906 73.1309V73.5205C66.8223 74.04 66.7174 74.5208 66.5762 74.9629C66.4395 75.4004 66.2549 75.7832 66.0225 76.1113C65.7946 76.4349 65.512 76.6878 65.1748 76.8701C64.8376 77.0479 64.4388 77.1367 63.9785 77.1367C63.5182 77.1367 63.1081 77.0433 62.748 76.8564C62.3926 76.665 62.0895 76.4007 61.8389 76.0635C61.5928 75.7262 61.4059 75.3298 61.2783 74.874C61.1507 74.4137 61.0869 73.9147 61.0869 73.377ZM62.8984 73.2334V73.377C62.8984 73.7005 62.9258 74.0036 62.9805 74.2861C63.0397 74.5641 63.1309 74.8102 63.2539 75.0244C63.377 75.2386 63.5342 75.4072 63.7256 75.5303C63.9215 75.6533 64.1585 75.7148 64.4365 75.7148C64.8102 75.7148 65.1133 75.6328 65.3457 75.4688C65.5827 75.3047 65.7604 75.0837 65.8789 74.8057C66.002 74.5231 66.0817 74.2087 66.1182 73.8623V72.7959C66.0954 72.5179 66.0475 72.2627 65.9746 72.0303C65.9017 71.7979 65.7992 71.5973 65.667 71.4287C65.5394 71.2601 65.3753 71.1279 65.1748 71.0322C64.9743 70.9365 64.7327 70.8887 64.4502 70.8887C64.1722 70.8887 63.9352 70.9502 63.7393 71.0732C63.5433 71.1917 63.3838 71.3581 63.2607 71.5723C63.1377 71.7865 63.0465 72.0348 62.9873 72.3174C62.9281 72.5999 62.8984 72.9053 62.8984 73.2334ZM73.7197 75.2432V69.6035H75.5381V77H73.8291L73.7197 75.2432ZM73.9521 73.7119L74.5127 73.6982C74.5127 74.195 74.458 74.653 74.3486 75.0723C74.2393 75.4915 74.0684 75.8561 73.8359 76.166C73.6081 76.4714 73.3187 76.7106 72.9678 76.8838C72.6169 77.0524 72.2021 77.1367 71.7236 77.1367C71.359 77.1367 71.0264 77.0866 70.7256 76.9863C70.4248 76.8815 70.165 76.7197 69.9463 76.501C69.7321 76.2777 69.5658 75.9928 69.4473 75.6465C69.3288 75.2956 69.2695 74.874 69.2695 74.3818V69.6035H71.0742V74.3955C71.0742 74.6416 71.1016 74.8467 71.1562 75.0107C71.2155 75.1748 71.2952 75.3092 71.3955 75.4141C71.5003 75.5143 71.6211 75.5872 71.7578 75.6328C71.8991 75.6738 72.0495 75.6943 72.209 75.6943C72.6465 75.6943 72.9906 75.6077 73.2412 75.4346C73.4964 75.2568 73.6787 75.0199 73.7881 74.7236C73.8975 74.4229 73.9521 74.0856 73.9521 73.7119ZM80.46 77.1367C79.8994 77.1367 79.3958 77.0456 78.9492 76.8633C78.5026 76.681 78.1221 76.4281 77.8076 76.1045C77.4977 75.7764 77.2585 75.3958 77.0898 74.9629C76.9258 74.5254 76.8438 74.056 76.8438 73.5547V73.2812C76.8438 72.7116 76.9258 72.1943 77.0898 71.7295C77.2539 71.2601 77.4863 70.8568 77.7871 70.5195C78.0879 70.1823 78.4479 69.9225 78.8672 69.7402C79.2865 69.5579 79.749 69.4668 80.2549 69.4668C80.779 69.4668 81.2415 69.5557 81.6426 69.7334C82.0436 69.9066 82.3786 70.1527 82.6475 70.4717C82.9163 70.7907 83.1191 71.1735 83.2559 71.6201C83.3926 72.0622 83.4609 72.5521 83.4609 73.0898V73.8486H77.6641V72.6045H81.6836V72.4678C81.6745 72.1807 81.6198 71.9186 81.5195 71.6816C81.4193 71.4401 81.2643 71.2487 81.0547 71.1074C80.8451 70.9616 80.5739 70.8887 80.2412 70.8887C79.9723 70.8887 79.7376 70.9479 79.5371 71.0664C79.3411 71.1803 79.1771 71.3444 79.0449 71.5586C78.9173 71.7682 78.8216 72.0189 78.7578 72.3105C78.694 72.6022 78.6621 72.9258 78.6621 73.2812V73.5547C78.6621 73.8646 78.7031 74.1517 78.7852 74.416C78.8717 74.6803 78.9971 74.9105 79.1611 75.1064C79.3298 75.2979 79.5303 75.4482 79.7627 75.5576C79.9997 75.6624 80.2686 75.7148 80.5693 75.7148C80.9476 75.7148 81.2894 75.6419 81.5947 75.4961C81.9046 75.3457 82.1735 75.1247 82.4014 74.833L83.3105 75.7764C83.1556 76.0042 82.946 76.223 82.6816 76.4326C82.4219 76.6423 82.1074 76.8132 81.7383 76.9453C81.3691 77.0729 80.943 77.1367 80.46 77.1367ZM86.4414 71.1826V77H84.6367V69.6035H86.332L86.4414 71.1826ZM86.1543 73.0352H85.6211C85.6257 72.4974 85.6986 72.0098 85.8398 71.5723C85.9811 71.1348 86.1794 70.7588 86.4346 70.4443C86.6943 70.1299 87.002 69.8883 87.3574 69.7197C87.7129 69.5511 88.1094 69.4668 88.5469 69.4668C88.9023 69.4668 89.2236 69.5169 89.5107 69.6172C89.7979 69.7174 90.0439 69.877 90.249 70.0957C90.4587 70.3145 90.6182 70.6016 90.7275 70.957C90.8415 71.3079 90.8984 71.7409 90.8984 72.2559V77H89.0801V72.2422C89.0801 71.9049 89.0299 71.6383 88.9297 71.4424C88.834 71.2464 88.6927 71.1074 88.5059 71.0254C88.3236 70.9434 88.098 70.9023 87.8291 70.9023C87.5511 70.9023 87.3073 70.9593 87.0977 71.0732C86.8926 71.1826 86.7194 71.3353 86.5781 71.5312C86.4414 71.7272 86.3366 71.9528 86.2637 72.208C86.1908 72.4632 86.1543 72.7389 86.1543 73.0352ZM95.5264 75.7148C95.7816 75.7148 96.0094 75.6647 96.21 75.5645C96.4105 75.4642 96.57 75.3229 96.6885 75.1406C96.8115 74.9583 96.8776 74.7464 96.8867 74.5049H98.5889C98.5798 75.0062 98.4385 75.4551 98.165 75.8516C97.8916 76.248 97.527 76.5625 97.0713 76.7949C96.6201 77.0228 96.1143 77.1367 95.5537 77.1367C94.984 77.1367 94.4873 77.041 94.0635 76.8496C93.6396 76.6582 93.2865 76.3916 93.0039 76.0498C92.7259 75.708 92.5163 75.3115 92.375 74.8604C92.2383 74.4092 92.1699 73.9261 92.1699 73.4111V73.1924C92.1699 72.6774 92.2383 72.1943 92.375 71.7432C92.5163 71.292 92.7259 70.8955 93.0039 70.5537C93.2865 70.2119 93.6396 69.9453 94.0635 69.7539C94.4873 69.5625 94.9818 69.4668 95.5469 69.4668C96.1439 69.4668 96.668 69.583 97.1191 69.8154C97.5749 70.0479 97.9303 70.376 98.1855 70.7998C98.4453 71.2236 98.5798 71.7227 98.5889 72.2969H96.8867C96.8776 72.0326 96.8184 71.7956 96.709 71.5859C96.5996 71.3763 96.4447 71.2077 96.2441 71.0801C96.0436 70.9525 95.7998 70.8887 95.5127 70.8887C95.2074 70.8887 94.9521 70.9525 94.7471 71.0801C94.5465 71.2077 94.3893 71.3831 94.2754 71.6064C94.166 71.8252 94.0885 72.0713 94.043 72.3447C94.002 72.6136 93.9814 72.8962 93.9814 73.1924V73.4111C93.9814 73.7119 94.002 73.999 94.043 74.2725C94.0885 74.5459 94.166 74.792 94.2754 75.0107C94.3893 75.2249 94.5465 75.3958 94.7471 75.5234C94.9521 75.651 95.2119 75.7148 95.5264 75.7148ZM101.959 76.1797L103.941 69.6035H105.876L102.909 78.1211C102.841 78.3034 102.752 78.5016 102.643 78.7158C102.538 78.93 102.396 79.1328 102.219 79.3242C102.041 79.5202 101.818 79.6797 101.549 79.8027C101.285 79.9258 100.963 79.9873 100.585 79.9873C100.421 79.9873 100.275 79.9759 100.147 79.9531C100.02 79.9303 99.8854 79.9007 99.7441 79.8643V78.5107C99.7897 78.5153 99.8421 78.5176 99.9014 78.5176C99.9652 78.5221 100.02 78.5244 100.065 78.5244C100.33 78.5244 100.549 78.4925 100.722 78.4287C100.895 78.3695 101.034 78.2715 101.139 78.1348C101.248 78.0026 101.339 77.8294 101.412 77.6152L101.959 76.1797ZM100.981 69.6035L102.656 75.0518L102.95 76.959L101.706 77.1846L99.0332 69.6035H100.981ZM109.916 73.377V73.2334C109.916 72.6911 109.993 72.1921 110.148 71.7363C110.303 71.276 110.529 70.8773 110.825 70.54C111.121 70.2028 111.484 69.9408 111.912 69.7539C112.34 69.5625 112.828 69.4668 113.375 69.4668C113.931 69.4668 114.423 69.5625 114.852 69.7539C115.285 69.9408 115.649 70.2028 115.945 70.54C116.242 70.8773 116.467 71.276 116.622 71.7363C116.777 72.1921 116.854 72.6911 116.854 73.2334V73.377C116.854 73.9147 116.777 74.4137 116.622 74.874C116.467 75.3298 116.242 75.7285 115.945 76.0703C115.649 76.4076 115.287 76.6696 114.858 76.8564C114.43 77.0433 113.94 77.1367 113.389 77.1367C112.842 77.1367 112.352 77.0433 111.919 76.8564C111.486 76.6696 111.121 76.4076 110.825 76.0703C110.529 75.7285 110.303 75.3298 110.148 74.874C109.993 74.4137 109.916 73.9147 109.916 73.377ZM111.721 73.2334V73.377C111.721 73.7005 111.753 74.0036 111.816 74.2861C111.88 74.5687 111.978 74.8171 112.11 75.0312C112.243 75.2454 112.413 75.4141 112.623 75.5371C112.837 75.6556 113.092 75.7148 113.389 75.7148C113.68 75.7148 113.931 75.6556 114.141 75.5371C114.35 75.4141 114.521 75.2454 114.653 75.0312C114.79 74.8171 114.89 74.5687 114.954 74.2861C115.018 74.0036 115.05 73.7005 115.05 73.377V73.2334C115.05 72.9144 115.018 72.6159 114.954 72.3379C114.89 72.0553 114.79 71.807 114.653 71.5928C114.521 71.374 114.348 71.2031 114.134 71.0801C113.924 70.9525 113.671 70.8887 113.375 70.8887C113.083 70.8887 112.833 70.9525 112.623 71.0801C112.413 71.2031 112.243 71.374 112.11 71.5928C111.978 71.807 111.88 72.0553 111.816 72.3379C111.753 72.6159 111.721 72.9144 111.721 73.2334ZM120.532 77H118.714V68.9199C118.714 68.3639 118.821 67.8968 119.035 67.5186C119.249 67.1357 119.555 66.8464 119.951 66.6504C120.348 66.4544 120.815 66.3564 121.353 66.3564C121.53 66.3564 121.699 66.3678 121.858 66.3906C122.022 66.4134 122.184 66.4453 122.344 66.4863L122.31 67.8604C122.223 67.8376 122.127 67.8216 122.022 67.8125C121.922 67.8034 121.811 67.7988 121.688 67.7988C121.441 67.7988 121.232 67.8421 121.059 67.9287C120.885 68.0153 120.753 68.1429 120.662 68.3115C120.576 68.4756 120.532 68.6784 120.532 68.9199V77ZM122.029 69.6035V70.9023H117.6V69.6035H122.029ZM128.688 75.2227L130.308 69.6035H131.456L131.114 71.5449L129.48 77H128.489L128.688 75.2227ZM127.792 69.6035L129.009 75.2363L129.118 77H127.977L126.035 69.6035H127.792ZM132.96 75.1543L134.149 69.6035H135.899L133.972 77H132.83L132.96 75.1543ZM131.634 69.6035L133.24 75.168L133.452 77H132.461L130.813 71.5449L130.479 69.6035H131.634ZM136.645 73.377V73.2334C136.645 72.6911 136.722 72.1921 136.877 71.7363C137.032 71.276 137.257 70.8773 137.554 70.54C137.85 70.2028 138.212 69.9408 138.641 69.7539C139.069 69.5625 139.557 69.4668 140.104 69.4668C140.66 69.4668 141.152 69.5625 141.58 69.7539C142.013 69.9408 142.378 70.2028 142.674 70.54C142.97 70.8773 143.196 71.276 143.351 71.7363C143.506 72.1921 143.583 72.6911 143.583 73.2334V73.377C143.583 73.9147 143.506 74.4137 143.351 74.874C143.196 75.3298 142.97 75.7285 142.674 76.0703C142.378 76.4076 142.015 76.6696 141.587 76.8564C141.159 77.0433 140.669 77.1367 140.117 77.1367C139.57 77.1367 139.08 77.0433 138.647 76.8564C138.215 76.6696 137.85 76.4076 137.554 76.0703C137.257 75.7285 137.032 75.3298 136.877 74.874C136.722 74.4137 136.645 73.9147 136.645 73.377ZM138.449 73.2334V73.377C138.449 73.7005 138.481 74.0036 138.545 74.2861C138.609 74.5687 138.707 74.8171 138.839 75.0312C138.971 75.2454 139.142 75.4141 139.352 75.5371C139.566 75.6556 139.821 75.7148 140.117 75.7148C140.409 75.7148 140.66 75.6556 140.869 75.5371C141.079 75.4141 141.25 75.2454 141.382 75.0312C141.519 74.8171 141.619 74.5687 141.683 74.2861C141.746 74.0036 141.778 73.7005 141.778 73.377V73.2334C141.778 72.9144 141.746 72.6159 141.683 72.3379C141.619 72.0553 141.519 71.807 141.382 71.5928C141.25 71.374 141.076 71.2031 140.862 71.0801C140.653 70.9525 140.4 70.8887 140.104 70.8887C139.812 70.8887 139.561 70.9525 139.352 71.0801C139.142 71.2031 138.971 71.374 138.839 71.5928C138.707 71.807 138.609 72.0553 138.545 72.3379C138.481 72.6159 138.449 72.9144 138.449 73.2334ZM146.7 71.1143V77H144.896V69.6035H146.604L146.7 71.1143ZM148.949 69.5557L148.922 71.2373C148.822 71.2191 148.708 71.2054 148.58 71.1963C148.457 71.1872 148.341 71.1826 148.231 71.1826C147.953 71.1826 147.71 71.2214 147.5 71.2988C147.29 71.3717 147.115 71.4788 146.974 71.6201C146.837 71.7614 146.732 71.9346 146.659 72.1396C146.586 72.3402 146.545 72.568 146.536 72.8232L146.146 72.7754C146.146 72.306 146.194 71.8708 146.29 71.4697C146.386 71.0687 146.525 70.7178 146.707 70.417C146.889 70.1162 147.117 69.8838 147.391 69.7197C147.669 69.5511 147.988 69.4668 148.348 69.4668C148.448 69.4668 148.555 69.4759 148.669 69.4941C148.787 69.5078 148.881 69.5283 148.949 69.5557ZM154.24 75.4277V66.5H156.059V77H154.418L154.24 75.4277ZM149.489 73.3906V73.2471C149.489 72.682 149.553 72.1693 149.681 71.709C149.813 71.2441 150.004 70.8454 150.255 70.5127C150.506 70.18 150.809 69.9225 151.164 69.7402C151.524 69.5579 151.932 69.4668 152.388 69.4668C152.83 69.4668 153.215 69.5557 153.543 69.7334C153.876 69.9111 154.158 70.1641 154.391 70.4922C154.628 70.8203 154.817 71.21 154.958 71.6611C155.099 72.1077 155.202 72.5999 155.266 73.1377V73.5273C155.202 74.0514 155.099 74.5322 154.958 74.9697C154.817 75.4072 154.628 75.79 154.391 76.1182C154.158 76.4417 153.876 76.6924 153.543 76.8701C153.21 77.0479 152.821 77.1367 152.374 77.1367C151.923 77.1367 151.517 77.0433 151.157 76.8564C150.802 76.6696 150.499 76.4076 150.248 76.0703C150.002 75.7331 149.813 75.3366 149.681 74.8809C149.553 74.4251 149.489 73.9284 149.489 73.3906ZM151.301 73.2471V73.3906C151.301 73.7096 151.328 74.0081 151.383 74.2861C151.438 74.5641 151.526 74.8102 151.649 75.0244C151.772 75.234 151.93 75.3981 152.121 75.5166C152.317 75.6351 152.554 75.6943 152.832 75.6943C153.188 75.6943 153.479 75.6169 153.707 75.4619C153.939 75.3024 154.119 75.0859 154.247 74.8125C154.375 74.5345 154.457 74.2223 154.493 73.876V72.8027C154.475 72.5293 154.427 72.2764 154.35 72.0439C154.277 71.8115 154.172 71.611 154.035 71.4424C153.903 71.2738 153.739 71.1416 153.543 71.0459C153.347 70.9502 153.115 70.9023 152.846 70.9023C152.568 70.9023 152.331 70.9639 152.135 71.0869C151.939 71.2054 151.779 71.3717 151.656 71.5859C151.533 71.8001 151.442 72.0485 151.383 72.3311C151.328 72.6136 151.301 72.9189 151.301 73.2471ZM173.661 69.6035V77H171.85V69.6035H173.661ZM171.727 67.6689C171.727 67.4001 171.818 67.1768 172 66.999C172.187 66.8213 172.438 66.7324 172.752 66.7324C173.066 66.7324 173.315 66.8213 173.497 66.999C173.684 67.1768 173.777 67.4001 173.777 67.6689C173.777 67.9333 173.684 68.1543 173.497 68.332C173.315 68.5098 173.066 68.5986 172.752 68.5986C172.438 68.5986 172.187 68.5098 172 68.332C171.818 68.1543 171.727 67.9333 171.727 67.6689ZM177.154 71.1826V77H175.35V69.6035H177.045L177.154 71.1826ZM176.867 73.0352H176.334C176.339 72.4974 176.411 72.0098 176.553 71.5723C176.694 71.1348 176.892 70.7588 177.147 70.4443C177.407 70.1299 177.715 69.8883 178.07 69.7197C178.426 69.5511 178.822 69.4668 179.26 69.4668C179.615 69.4668 179.937 69.5169 180.224 69.6172C180.511 69.7174 180.757 69.877 180.962 70.0957C181.172 70.3145 181.331 70.6016 181.44 70.957C181.554 71.3079 181.611 71.7409 181.611 72.2559V77H179.793V72.2422C179.793 71.9049 179.743 71.6383 179.643 71.4424C179.547 71.2464 179.406 71.1074 179.219 71.0254C179.036 70.9434 178.811 70.9023 178.542 70.9023C178.264 70.9023 178.02 70.9593 177.811 71.0732C177.605 71.1826 177.432 71.3353 177.291 71.5312C177.154 71.7272 177.049 71.9528 176.977 72.208C176.904 72.4632 176.867 72.7389 176.867 73.0352ZM189.726 75.7148C189.981 75.7148 190.209 75.6647 190.409 75.5645C190.61 75.4642 190.769 75.3229 190.888 75.1406C191.011 74.9583 191.077 74.7464 191.086 74.5049H192.788C192.779 75.0062 192.638 75.4551 192.364 75.8516C192.091 76.248 191.726 76.5625 191.271 76.7949C190.819 77.0228 190.313 77.1367 189.753 77.1367C189.183 77.1367 188.687 77.041 188.263 76.8496C187.839 76.6582 187.486 76.3916 187.203 76.0498C186.925 75.708 186.715 75.3115 186.574 74.8604C186.438 74.4092 186.369 73.9261 186.369 73.4111V73.1924C186.369 72.6774 186.438 72.1943 186.574 71.7432C186.715 71.292 186.925 70.8955 187.203 70.5537C187.486 70.2119 187.839 69.9453 188.263 69.7539C188.687 69.5625 189.181 69.4668 189.746 69.4668C190.343 69.4668 190.867 69.583 191.318 69.8154C191.774 70.0479 192.13 70.376 192.385 70.7998C192.645 71.2236 192.779 71.7227 192.788 72.2969H191.086C191.077 72.0326 191.018 71.7956 190.908 71.5859C190.799 71.3763 190.644 71.2077 190.443 71.0801C190.243 70.9525 189.999 70.8887 189.712 70.8887C189.407 70.8887 189.151 70.9525 188.946 71.0801C188.746 71.2077 188.589 71.3831 188.475 71.6064C188.365 71.8252 188.288 72.0713 188.242 72.3447C188.201 72.6136 188.181 72.8962 188.181 73.1924V73.4111C188.181 73.7119 188.201 73.999 188.242 74.2725C188.288 74.5459 188.365 74.792 188.475 75.0107C188.589 75.2249 188.746 75.3958 188.946 75.5234C189.151 75.651 189.411 75.7148 189.726 75.7148ZM195.905 66.5V77H194.094V66.5H195.905ZM201.702 75.4277V72.0166C201.702 71.766 201.659 71.5495 201.572 71.3672C201.486 71.1849 201.354 71.0436 201.176 70.9434C200.998 70.8431 200.772 70.793 200.499 70.793C200.257 70.793 200.046 70.834 199.863 70.916C199.686 70.998 199.549 71.1143 199.453 71.2646C199.357 71.4105 199.31 71.5791 199.31 71.7705H197.498C197.498 71.4652 197.571 71.1758 197.717 70.9023C197.863 70.6243 198.07 70.3783 198.339 70.1641C198.612 69.9453 198.938 69.7744 199.316 69.6514C199.699 69.5283 200.128 69.4668 200.602 69.4668C201.162 69.4668 201.661 69.5625 202.099 69.7539C202.541 69.9408 202.887 70.2233 203.138 70.6016C203.393 70.9798 203.521 71.4561 203.521 72.0303V75.2568C203.521 75.626 203.543 75.9427 203.589 76.207C203.639 76.4668 203.712 76.6924 203.808 76.8838V77H201.969C201.882 76.8132 201.816 76.5762 201.771 76.2891C201.725 75.9974 201.702 75.7103 201.702 75.4277ZM201.955 72.4951L201.969 73.5684H200.827C200.545 73.5684 200.296 73.598 200.082 73.6572C199.868 73.7119 199.692 73.7939 199.556 73.9033C199.419 74.0081 199.316 74.1357 199.248 74.2861C199.18 74.432 199.146 74.5983 199.146 74.7852C199.146 74.9674 199.187 75.1315 199.269 75.2773C199.355 75.4232 199.478 75.5394 199.638 75.626C199.802 75.708 199.993 75.749 200.212 75.749C200.531 75.749 200.809 75.6852 201.046 75.5576C201.283 75.4255 201.467 75.266 201.6 75.0791C201.732 74.8923 201.802 74.7145 201.812 74.5459L202.331 75.3252C202.267 75.512 202.172 75.7103 202.044 75.9199C201.916 76.1296 201.752 76.3255 201.552 76.5078C201.351 76.6901 201.11 76.8405 200.827 76.959C200.545 77.0775 200.216 77.1367 199.843 77.1367C199.364 77.1367 198.936 77.041 198.558 76.8496C198.179 76.6582 197.881 76.3962 197.662 76.0635C197.443 75.7308 197.334 75.3525 197.334 74.9287C197.334 74.5368 197.407 74.1904 197.553 73.8896C197.699 73.5889 197.915 73.3359 198.202 73.1309C198.489 72.9212 198.845 72.764 199.269 72.6592C199.697 72.5498 200.187 72.4951 200.738 72.4951H201.955ZM209.215 74.9766C209.215 74.8216 209.174 74.6826 209.092 74.5596C209.01 74.4365 208.855 74.3249 208.627 74.2246C208.404 74.1198 208.076 74.0218 207.643 73.9307C207.26 73.8486 206.907 73.7461 206.583 73.623C206.259 73.5 205.981 73.3519 205.749 73.1787C205.517 73.001 205.334 72.7936 205.202 72.5566C205.075 72.3151 205.011 72.0371 205.011 71.7227C205.011 71.4173 205.077 71.1302 205.209 70.8613C205.341 70.5879 205.533 70.3486 205.783 70.1436C206.034 69.9339 206.339 69.7699 206.699 69.6514C207.059 69.5283 207.465 69.4668 207.916 69.4668C208.545 69.4668 209.085 69.5693 209.536 69.7744C209.992 69.9795 210.34 70.262 210.582 70.6221C210.824 70.9775 210.944 71.3786 210.944 71.8252H209.14C209.14 71.6292 209.094 71.4515 209.003 71.292C208.916 71.1325 208.782 71.0049 208.6 70.9092C208.417 70.8089 208.187 70.7588 207.909 70.7588C207.659 70.7588 207.447 70.7998 207.273 70.8818C207.105 70.9639 206.977 71.071 206.891 71.2031C206.804 71.3353 206.761 71.4811 206.761 71.6406C206.761 71.7591 206.784 71.8662 206.829 71.9619C206.879 72.0531 206.959 72.1374 207.068 72.2148C207.178 72.2923 207.326 72.363 207.513 72.4268C207.704 72.4906 207.939 72.5521 208.217 72.6113C208.768 72.7207 209.249 72.8665 209.659 73.0488C210.074 73.2266 210.397 73.4635 210.63 73.7598C210.862 74.056 210.979 74.4342 210.979 74.8945C210.979 75.2227 210.908 75.5234 210.767 75.7969C210.625 76.0658 210.42 76.3005 210.151 76.501C209.882 76.7015 209.561 76.8587 209.188 76.9727C208.814 77.082 208.392 77.1367 207.923 77.1367C207.244 77.1367 206.67 77.016 206.2 76.7744C205.731 76.5283 205.375 76.2184 205.134 75.8447C204.892 75.4665 204.771 75.0745 204.771 74.6689H206.501C206.515 74.9561 206.592 75.1862 206.733 75.3594C206.875 75.5326 207.052 75.6579 207.267 75.7354C207.485 75.8083 207.715 75.8447 207.957 75.8447C208.23 75.8447 208.461 75.8083 208.647 75.7354C208.834 75.6579 208.976 75.5553 209.071 75.4277C209.167 75.2956 209.215 75.1452 209.215 74.9766ZM216.42 74.9766C216.42 74.8216 216.379 74.6826 216.297 74.5596C216.215 74.4365 216.06 74.3249 215.832 74.2246C215.609 74.1198 215.281 74.0218 214.848 73.9307C214.465 73.8486 214.112 73.7461 213.788 73.623C213.465 73.5 213.187 73.3519 212.954 73.1787C212.722 73.001 212.539 72.7936 212.407 72.5566C212.28 72.3151 212.216 72.0371 212.216 71.7227C212.216 71.4173 212.282 71.1302 212.414 70.8613C212.546 70.5879 212.738 70.3486 212.988 70.1436C213.239 69.9339 213.544 69.7699 213.904 69.6514C214.264 69.5283 214.67 69.4668 215.121 69.4668C215.75 69.4668 216.29 69.5693 216.741 69.7744C217.197 69.9795 217.546 70.262 217.787 70.6221C218.029 70.9775 218.149 71.3786 218.149 71.8252H216.345C216.345 71.6292 216.299 71.4515 216.208 71.292C216.121 71.1325 215.987 71.0049 215.805 70.9092C215.622 70.8089 215.392 70.7588 215.114 70.7588C214.864 70.7588 214.652 70.7998 214.479 70.8818C214.31 70.9639 214.182 71.071 214.096 71.2031C214.009 71.3353 213.966 71.4811 213.966 71.6406C213.966 71.7591 213.989 71.8662 214.034 71.9619C214.084 72.0531 214.164 72.1374 214.273 72.2148C214.383 72.2923 214.531 72.363 214.718 72.4268C214.909 72.4906 215.144 72.5521 215.422 72.6113C215.973 72.7207 216.454 72.8665 216.864 73.0488C217.279 73.2266 217.603 73.4635 217.835 73.7598C218.067 74.056 218.184 74.4342 218.184 74.8945C218.184 75.2227 218.113 75.5234 217.972 75.7969C217.83 76.0658 217.625 76.3005 217.356 76.501C217.088 76.7015 216.766 76.8587 216.393 76.9727C216.019 77.082 215.597 77.1367 215.128 77.1367C214.449 77.1367 213.875 77.016 213.405 76.7744C212.936 76.5283 212.58 76.2184 212.339 75.8447C212.097 75.4665 211.977 75.0745 211.977 74.6689H213.706C213.72 74.9561 213.797 75.1862 213.938 75.3594C214.08 75.5326 214.257 75.6579 214.472 75.7354C214.69 75.8083 214.921 75.8447 215.162 75.8447C215.436 75.8447 215.666 75.8083 215.853 75.7354C216.039 75.6579 216.181 75.5553 216.276 75.4277C216.372 75.2956 216.42 75.1452 216.42 74.9766Z" fill="#ABA9A9"/>
<path d="M162.594 69.6035L163.913 71.9551L165.253 69.6035H167.215L165.041 73.2266L167.304 77H165.342L163.927 74.5322L162.505 77H160.543L162.799 73.2266L160.639 69.6035H162.594ZM226.079 75.7148C226.334 75.7148 226.562 75.6647 226.763 75.5645C226.963 75.4642 227.123 75.3229 227.241 75.1406C227.364 74.9583 227.43 74.7464 227.439 74.5049H229.142C229.132 75.0062 228.991 75.4551 228.718 75.8516C228.444 76.248 228.08 76.5625 227.624 76.7949C227.173 77.0228 226.667 77.1367 226.106 77.1367C225.537 77.1367 225.04 77.041 224.616 76.8496C224.192 76.6582 223.839 76.3916 223.557 76.0498C223.279 75.708 223.069 75.3115 222.928 74.8604C222.791 74.4092 222.723 73.9261 222.723 73.4111V73.1924C222.723 72.6774 222.791 72.1943 222.928 71.7432C223.069 71.292 223.279 70.8955 223.557 70.5537C223.839 70.2119 224.192 69.9453 224.616 69.7539C225.04 69.5625 225.535 69.4668 226.1 69.4668C226.697 69.4668 227.221 69.583 227.672 69.8154C228.128 70.0479 228.483 70.376 228.738 70.7998C228.998 71.2236 229.132 71.7227 229.142 72.2969H227.439C227.43 72.0326 227.371 71.7956 227.262 71.5859C227.152 71.3763 226.997 71.2077 226.797 71.0801C226.596 70.9525 226.353 70.8887 226.065 70.8887C225.76 70.8887 225.505 70.9525 225.3 71.0801C225.099 71.2077 224.942 71.3831 224.828 71.6064C224.719 71.8252 224.641 72.0713 224.596 72.3447C224.555 72.6136 224.534 72.8962 224.534 73.1924V73.4111C224.534 73.7119 224.555 73.999 224.596 74.2725C224.641 74.5459 224.719 74.792 224.828 75.0107C224.942 75.2249 225.099 75.3958 225.3 75.5234C225.505 75.651 225.765 75.7148 226.079 75.7148Z" fill="#0277BD"/>
<path d="M18.9297 69.5469V71.0312H14.0859V69.5469H18.9297ZM15.3828 67.4688H17.4531V75.5625C17.4531 75.8125 17.487 76.0052 17.5547 76.1406C17.6224 76.276 17.724 76.3672 17.8594 76.4141C17.9948 76.4609 18.1562 76.4844 18.3438 76.4844C18.4792 76.4844 18.6042 76.4766 18.7188 76.4609C18.8333 76.4453 18.9297 76.4297 19.0078 76.4141L19.0156 77.9609C18.8438 78.0182 18.6484 78.0651 18.4297 78.1016C18.2161 78.138 17.974 78.1562 17.7031 78.1562C17.2396 78.1562 16.8333 78.0781 16.4844 77.9219C16.1354 77.7604 15.8646 77.5026 15.6719 77.1484C15.4792 76.7891 15.3828 76.3151 15.3828 75.7266V67.4688ZM23.0078 78H20.9297V68.7656C20.9297 68.1302 21.0521 67.5964 21.2969 67.1641C21.5417 66.7266 21.8906 66.3958 22.3438 66.1719C22.7969 65.9479 23.3307 65.8359 23.9453 65.8359C24.1484 65.8359 24.3411 65.849 24.5234 65.875C24.7109 65.901 24.8958 65.9375 25.0781 65.9844L25.0391 67.5547C24.9401 67.5286 24.8307 67.5104 24.7109 67.5C24.5964 67.4896 24.4688 67.4844 24.3281 67.4844C24.0469 67.4844 23.8073 67.5339 23.6094 67.6328C23.4115 67.7318 23.2604 67.8776 23.1562 68.0703C23.0573 68.2578 23.0078 68.4896 23.0078 68.7656V78ZM24.7188 69.5469V71.0312H19.6562V69.5469H24.7188Z" fill="black"/>
<path d="M23.8566 76.7734L24.5089 78.3086L25.6573 76.7734H26.5284L24.8331 78.8945L25.8644 81H25.0948L24.3956 79.418L23.2042 81H22.3409L24.0831 78.8242L23.087 76.7734H23.8566ZM27.3409 80.1406L27.2472 80.7188C27.2029 81.0026 27.1027 81.2669 26.9464 81.5117C26.7902 81.7565 26.5988 81.9648 26.3722 82.1367L25.9816 81.8438C26.0727 81.7318 26.156 81.6172 26.2316 81.5C26.3071 81.3854 26.3709 81.2643 26.423 81.1367C26.4777 81.0091 26.5193 80.875 26.548 80.7344L26.6495 80.1406H27.3409ZM29.8409 80.4883C30.0128 80.4909 30.173 80.4583 30.3214 80.3906C30.4698 80.3229 30.5962 80.2266 30.7003 80.1016C30.8045 79.9766 30.8787 79.832 30.923 79.668L31.5948 79.6641C31.5532 79.9479 31.4425 80.1966 31.2628 80.4102C31.0857 80.6237 30.8683 80.7904 30.6105 80.9102C30.3553 81.0273 30.0883 81.0833 29.8097 81.0781C29.5128 81.0729 29.2602 81.0117 29.0519 80.8945C28.8462 80.7747 28.6808 80.6159 28.5558 80.418C28.4308 80.2201 28.3448 79.9974 28.298 79.75C28.2511 79.5 28.2407 79.2435 28.2667 78.9805L28.2823 78.8125C28.3136 78.5286 28.3826 78.2591 28.4894 78.0039C28.5962 77.7461 28.7381 77.5182 28.9152 77.3203C29.0948 77.1198 29.3071 76.9635 29.5519 76.8516C29.7967 76.7396 30.0714 76.6875 30.3761 76.6953C30.673 76.7005 30.9308 76.7708 31.1495 76.9062C31.3683 77.0391 31.5376 77.2201 31.6573 77.4492C31.7771 77.6784 31.837 77.9388 31.837 78.2305L31.173 78.2266C31.1704 78.0599 31.1378 77.9062 31.0753 77.7656C31.0128 77.625 30.9204 77.5117 30.798 77.4258C30.6756 77.3398 30.5245 77.293 30.3448 77.2852C30.1287 77.2799 29.9399 77.3203 29.7784 77.4062C29.6196 77.4922 29.4842 77.6107 29.3722 77.7617C29.2628 77.9102 29.1756 78.0755 29.1105 78.2578C29.048 78.4401 29.005 78.625 28.9816 78.8125L28.962 78.9766C28.9464 79.1432 28.9438 79.3138 28.9542 79.4883C28.9672 79.6628 29.0037 79.8255 29.0636 79.9766C29.1235 80.125 29.2159 80.2461 29.3409 80.3398C29.4659 80.4336 29.6326 80.4831 29.8409 80.4883Z" fill="#0277BD"/>
</svg>
