<svg width="247" height="87" viewBox="0 0 247 87" fill="none" xmlns="http://www.w3.org/2000/svg">
<rect width="247" height="84" fill="white"/>
<line x1="34.5" y1="16" x2="34.5" y2="51" stroke="black"/>
<line x1="31.5" y1="16" x2="31.5" y2="51" stroke="black"/>
<line x1="95.5" y1="15" x2="95.5" y2="50" stroke="black"/>
<line x1="92.5" y1="15" x2="92.5" y2="50" stroke="black"/>
<path d="M53.2852 26.9805V30.5664H42.2109V26.9805H53.2852ZM44.9531 22.2871H50.0156V40.2695C50.0156 40.8203 50.0859 41.2422 50.2266 41.5352C50.3789 41.8281 50.6016 42.0332 50.8945 42.1504C51.1875 42.2559 51.5566 42.3086 52.002 42.3086C52.3184 42.3086 52.5996 42.2969 52.8457 42.2734C53.1035 42.2383 53.3203 42.2031 53.4961 42.168L53.5137 45.8945C53.0801 46.0352 52.6113 46.1465 52.1074 46.2285C51.6035 46.3105 51.0469 46.3516 50.4375 46.3516C49.3242 46.3516 48.3516 46.1699 47.5195 45.8066C46.6992 45.4316 46.0664 44.834 45.6211 44.0137C45.1758 43.1934 44.9531 42.1152 44.9531 40.7793V22.2871ZM62.6191 46H57.5215V25.293C57.5215 23.8516 57.8027 22.6387 58.3652 21.6543C58.9395 20.6582 59.7422 19.9082 60.7734 19.4043C61.8164 18.8887 63.0527 18.6309 64.4824 18.6309C64.9512 18.6309 65.4023 18.666 65.8359 18.7363C66.2695 18.7949 66.6914 18.8711 67.1016 18.9648L67.0488 22.7793C66.8262 22.7207 66.5918 22.6797 66.3457 22.6562C66.0996 22.6328 65.8125 22.6211 65.4844 22.6211C64.875 22.6211 64.3535 22.7266 63.9199 22.9375C63.498 23.1367 63.1758 23.4355 62.9531 23.834C62.7305 24.2324 62.6191 24.7188 62.6191 25.293V46ZM66.416 26.9805V30.5664H54.6914V26.9805H66.416Z" fill="black"/>
<path d="M68.249 44.6035L69.3906 47.29L71.4004 44.6035H72.9248L69.958 48.3154L71.7627 52H70.416L69.1924 49.2314L67.1074 52H65.5967L68.6455 48.1924L66.9023 44.6035H68.249ZM82.167 51.1045C82.4678 51.109 82.748 51.0521 83.0078 50.9336C83.2676 50.8151 83.4886 50.6465 83.6709 50.4277C83.8532 50.209 83.9831 49.9561 84.0605 49.6689L85.2363 49.6621C85.1634 50.1589 84.9697 50.5941 84.6553 50.9678C84.3454 51.3415 83.9648 51.6331 83.5137 51.8428C83.0671 52.0479 82.5999 52.1458 82.1123 52.1367C81.5928 52.1276 81.1507 52.0205 80.7861 51.8154C80.4261 51.6058 80.1367 51.3278 79.918 50.9814C79.6992 50.6351 79.5488 50.2454 79.4668 49.8125C79.3848 49.375 79.3665 48.9261 79.4121 48.4658L79.4395 48.1719C79.4941 47.6751 79.6149 47.2035 79.8018 46.7568C79.9886 46.3057 80.237 45.9069 80.5469 45.5605C80.8613 45.2096 81.2327 44.9362 81.6611 44.7402C82.0895 44.5443 82.5703 44.4531 83.1035 44.4668C83.623 44.4759 84.0742 44.599 84.457 44.8359C84.8398 45.0684 85.1361 45.3851 85.3457 45.7861C85.5553 46.1872 85.6602 46.6429 85.6602 47.1533L84.498 47.1465C84.4935 46.8548 84.4365 46.5859 84.3271 46.3398C84.2178 46.0938 84.056 45.8955 83.8418 45.7451C83.6276 45.5947 83.3633 45.5127 83.0488 45.499C82.6706 45.4899 82.3402 45.5605 82.0576 45.7109C81.7796 45.8613 81.5426 46.0687 81.3467 46.333C81.1553 46.5928 81.0026 46.8822 80.8887 47.2012C80.7793 47.5202 80.7041 47.8438 80.6631 48.1719L80.6289 48.459C80.6016 48.7507 80.597 49.0492 80.6152 49.3545C80.638 49.6598 80.7018 49.9447 80.8066 50.209C80.9115 50.4688 81.0732 50.6807 81.292 50.8447C81.5107 51.0088 81.8024 51.0954 82.167 51.1045Z" fill="#0277BD"/>
<path d="M74.3467 50.4961L74.1826 51.5078C74.1051 52.0046 73.9297 52.4671 73.6562 52.8955C73.3828 53.3239 73.0479 53.6885 72.6514 53.9893L71.9678 53.4766C72.1273 53.2806 72.2731 53.0801 72.4053 52.875C72.5374 52.6745 72.6491 52.4626 72.7402 52.2393C72.8359 52.016 72.9089 51.7812 72.959 51.5352L73.1367 50.4961H74.3467Z" fill="#ABA9A9"/>
<path d="M14 35.0909L18.5 50L26.5 9H98" stroke="black" stroke-width="2"/>
<path d="M39.7402 69.335V70.4355H34.0391V69.335H39.7402ZM39.7402 72.1719V73.2725H34.0391V72.1719H39.7402ZM47.3486 76H45.5303V67.9199C45.5303 67.3639 45.6374 66.8968 45.8516 66.5186C46.0658 66.1357 46.3711 65.8464 46.7676 65.6504C47.1641 65.4544 47.6312 65.3564 48.1689 65.3564C48.3467 65.3564 48.5153 65.3678 48.6748 65.3906C48.8389 65.4134 49.0007 65.4453 49.1602 65.4863L49.126 66.8604C49.0394 66.8376 48.9437 66.8216 48.8389 66.8125C48.7386 66.8034 48.627 66.7988 48.5039 66.7988C48.2578 66.7988 48.0482 66.8421 47.875 66.9287C47.7018 67.0153 47.5697 67.1429 47.4785 67.3115C47.3919 67.4756 47.3486 67.6784 47.3486 67.9199V76ZM48.8457 68.6035V69.9023H44.416V68.6035H48.8457ZM51.7646 70.1143V76H49.96V68.6035H51.6689L51.7646 70.1143ZM54.0137 68.5557L53.9863 70.2373C53.8861 70.2191 53.7721 70.2054 53.6445 70.1963C53.5215 70.1872 53.4053 70.1826 53.2959 70.1826C53.0179 70.1826 52.7741 70.2214 52.5645 70.2988C52.3548 70.3717 52.1794 70.4788 52.0381 70.6201C51.9014 70.7614 51.7965 70.9346 51.7236 71.1396C51.6507 71.3402 51.6097 71.568 51.6006 71.8232L51.2109 71.7754C51.2109 71.306 51.2588 70.8708 51.3545 70.4697C51.4502 70.0687 51.5892 69.7178 51.7715 69.417C51.9538 69.1162 52.1816 68.8838 52.4551 68.7197C52.7331 68.5511 53.0521 68.4668 53.4121 68.4668C53.5124 68.4668 53.6195 68.4759 53.7334 68.4941C53.8519 68.5078 53.9453 68.5283 54.0137 68.5557ZM58.1904 76.1367C57.6299 76.1367 57.1263 76.0456 56.6797 75.8633C56.2331 75.681 55.8525 75.4281 55.5381 75.1045C55.2282 74.7764 54.9889 74.3958 54.8203 73.9629C54.6562 73.5254 54.5742 73.056 54.5742 72.5547V72.2812C54.5742 71.7116 54.6562 71.1943 54.8203 70.7295C54.9844 70.2601 55.2168 69.8568 55.5176 69.5195C55.8184 69.1823 56.1784 68.9225 56.5977 68.7402C57.0169 68.5579 57.4795 68.4668 57.9854 68.4668C58.5094 68.4668 58.972 68.5557 59.373 68.7334C59.7741 68.9066 60.109 69.1527 60.3779 69.4717C60.6468 69.7907 60.8496 70.1735 60.9863 70.6201C61.123 71.0622 61.1914 71.5521 61.1914 72.0898V72.8486H55.3945V71.6045H59.4141V71.4678C59.4049 71.1807 59.3503 70.9186 59.25 70.6816C59.1497 70.4401 58.9948 70.2487 58.7852 70.1074C58.5755 69.9616 58.3044 69.8887 57.9717 69.8887C57.7028 69.8887 57.4681 69.9479 57.2676 70.0664C57.0716 70.1803 56.9076 70.3444 56.7754 70.5586C56.6478 70.7682 56.5521 71.0189 56.4883 71.3105C56.4245 71.6022 56.3926 71.9258 56.3926 72.2812V72.5547C56.3926 72.8646 56.4336 73.1517 56.5156 73.416C56.6022 73.6803 56.7275 73.9105 56.8916 74.1064C57.0602 74.2979 57.2607 74.4482 57.4932 74.5576C57.7301 74.6624 57.999 74.7148 58.2998 74.7148C58.6781 74.7148 59.0199 74.6419 59.3252 74.4961C59.6351 74.3457 59.904 74.1247 60.1318 73.833L61.041 74.7764C60.8861 75.0042 60.6764 75.223 60.4121 75.4326C60.1523 75.6423 59.8379 75.8132 59.4688 75.9453C59.0996 76.0729 58.6735 76.1367 58.1904 76.1367ZM66.8311 78.8438V70.0938L67.0498 68.6035H68.6494V78.8438H66.8311ZM62.0869 72.377V72.2334C62.0869 71.6683 62.1507 71.1556 62.2783 70.6953C62.4059 70.2305 62.5928 69.834 62.8389 69.5059C63.0895 69.1732 63.3949 68.918 63.7549 68.7402C64.1149 68.5579 64.5273 68.4668 64.9922 68.4668C65.4479 68.4668 65.8421 68.5557 66.1748 68.7334C66.5075 68.9111 66.79 69.1641 67.0225 69.4922C67.2549 69.8158 67.4395 70.2008 67.5762 70.6475C67.7174 71.0941 67.8223 71.5885 67.8906 72.1309V72.5205C67.8223 73.04 67.7174 73.5208 67.5762 73.9629C67.4395 74.4004 67.2549 74.7832 67.0225 75.1113C66.7946 75.4349 66.512 75.6878 66.1748 75.8701C65.8376 76.0479 65.4388 76.1367 64.9785 76.1367C64.5182 76.1367 64.1081 76.0433 63.748 75.8564C63.3926 75.665 63.0895 75.4007 62.8389 75.0635C62.5928 74.7262 62.4059 74.3298 62.2783 73.874C62.1507 73.4137 62.0869 72.9147 62.0869 72.377ZM63.8984 72.2334V72.377C63.8984 72.7005 63.9258 73.0036 63.9805 73.2861C64.0397 73.5641 64.1309 73.8102 64.2539 74.0244C64.377 74.2386 64.5342 74.4072 64.7256 74.5303C64.9215 74.6533 65.1585 74.7148 65.4365 74.7148C65.8102 74.7148 66.1133 74.6328 66.3457 74.4688C66.5827 74.3047 66.7604 74.0837 66.8789 73.8057C67.002 73.5231 67.0817 73.2087 67.1182 72.8623V71.7959C67.0954 71.5179 67.0475 71.2627 66.9746 71.0303C66.9017 70.7979 66.7992 70.5973 66.667 70.4287C66.5394 70.2601 66.3753 70.1279 66.1748 70.0322C65.9743 69.9365 65.7327 69.8887 65.4502 69.8887C65.1722 69.8887 64.9352 69.9502 64.7393 70.0732C64.5433 70.1917 64.3838 70.3581 64.2607 70.5723C64.1377 70.7865 64.0465 71.0348 63.9873 71.3174C63.9281 71.5999 63.8984 71.9053 63.8984 72.2334ZM74.7197 74.2432V68.6035H76.5381V76H74.8291L74.7197 74.2432ZM74.9521 72.7119L75.5127 72.6982C75.5127 73.195 75.458 73.653 75.3486 74.0723C75.2393 74.4915 75.0684 74.8561 74.8359 75.166C74.6081 75.4714 74.3187 75.7106 73.9678 75.8838C73.6169 76.0524 73.2021 76.1367 72.7236 76.1367C72.359 76.1367 72.0264 76.0866 71.7256 75.9863C71.4248 75.8815 71.165 75.7197 70.9463 75.501C70.7321 75.2777 70.5658 74.9928 70.4473 74.6465C70.3288 74.2956 70.2695 73.874 70.2695 73.3818V68.6035H72.0742V73.3955C72.0742 73.6416 72.1016 73.8467 72.1562 74.0107C72.2155 74.1748 72.2952 74.3092 72.3955 74.4141C72.5003 74.5143 72.6211 74.5872 72.7578 74.6328C72.8991 74.6738 73.0495 74.6943 73.209 74.6943C73.6465 74.6943 73.9906 74.6077 74.2412 74.4346C74.4964 74.2568 74.6787 74.0199 74.7881 73.7236C74.8975 73.4229 74.9521 73.0856 74.9521 72.7119ZM81.46 76.1367C80.8994 76.1367 80.3958 76.0456 79.9492 75.8633C79.5026 75.681 79.1221 75.4281 78.8076 75.1045C78.4977 74.7764 78.2585 74.3958 78.0898 73.9629C77.9258 73.5254 77.8438 73.056 77.8438 72.5547V72.2812C77.8438 71.7116 77.9258 71.1943 78.0898 70.7295C78.2539 70.2601 78.4863 69.8568 78.7871 69.5195C79.0879 69.1823 79.4479 68.9225 79.8672 68.7402C80.2865 68.5579 80.749 68.4668 81.2549 68.4668C81.779 68.4668 82.2415 68.5557 82.6426 68.7334C83.0436 68.9066 83.3786 69.1527 83.6475 69.4717C83.9163 69.7907 84.1191 70.1735 84.2559 70.6201C84.3926 71.0622 84.4609 71.5521 84.4609 72.0898V72.8486H78.6641V71.6045H82.6836V71.4678C82.6745 71.1807 82.6198 70.9186 82.5195 70.6816C82.4193 70.4401 82.2643 70.2487 82.0547 70.1074C81.8451 69.9616 81.5739 69.8887 81.2412 69.8887C80.9723 69.8887 80.7376 69.9479 80.5371 70.0664C80.3411 70.1803 80.1771 70.3444 80.0449 70.5586C79.9173 70.7682 79.8216 71.0189 79.7578 71.3105C79.694 71.6022 79.6621 71.9258 79.6621 72.2812V72.5547C79.6621 72.8646 79.7031 73.1517 79.7852 73.416C79.8717 73.6803 79.9971 73.9105 80.1611 74.1064C80.3298 74.2979 80.5303 74.4482 80.7627 74.5576C80.9997 74.6624 81.2686 74.7148 81.5693 74.7148C81.9476 74.7148 82.2894 74.6419 82.5947 74.4961C82.9046 74.3457 83.1735 74.1247 83.4014 73.833L84.3105 74.7764C84.1556 75.0042 83.946 75.223 83.6816 75.4326C83.4219 75.6423 83.1074 75.8132 82.7383 75.9453C82.3691 76.0729 81.943 76.1367 81.46 76.1367ZM87.4414 70.1826V76H85.6367V68.6035H87.332L87.4414 70.1826ZM87.1543 72.0352H86.6211C86.6257 71.4974 86.6986 71.0098 86.8398 70.5723C86.9811 70.1348 87.1794 69.7588 87.4346 69.4443C87.6943 69.1299 88.002 68.8883 88.3574 68.7197C88.7129 68.5511 89.1094 68.4668 89.5469 68.4668C89.9023 68.4668 90.2236 68.5169 90.5107 68.6172C90.7979 68.7174 91.0439 68.877 91.249 69.0957C91.4587 69.3145 91.6182 69.6016 91.7275 69.957C91.8415 70.3079 91.8984 70.7409 91.8984 71.2559V76H90.0801V71.2422C90.0801 70.9049 90.0299 70.6383 89.9297 70.4424C89.834 70.2464 89.6927 70.1074 89.5059 70.0254C89.3236 69.9434 89.098 69.9023 88.8291 69.9023C88.5511 69.9023 88.3073 69.9593 88.0977 70.0732C87.8926 70.1826 87.7194 70.3353 87.5781 70.5312C87.4414 70.7272 87.3366 70.9528 87.2637 71.208C87.1908 71.4632 87.1543 71.7389 87.1543 72.0352ZM96.5264 74.7148C96.7816 74.7148 97.0094 74.6647 97.21 74.5645C97.4105 74.4642 97.57 74.3229 97.6885 74.1406C97.8115 73.9583 97.8776 73.7464 97.8867 73.5049H99.5889C99.5798 74.0062 99.4385 74.4551 99.165 74.8516C98.8916 75.248 98.527 75.5625 98.0713 75.7949C97.6201 76.0228 97.1143 76.1367 96.5537 76.1367C95.984 76.1367 95.4873 76.041 95.0635 75.8496C94.6396 75.6582 94.2865 75.3916 94.0039 75.0498C93.7259 74.708 93.5163 74.3115 93.375 73.8604C93.2383 73.4092 93.1699 72.9261 93.1699 72.4111V72.1924C93.1699 71.6774 93.2383 71.1943 93.375 70.7432C93.5163 70.292 93.7259 69.8955 94.0039 69.5537C94.2865 69.2119 94.6396 68.9453 95.0635 68.7539C95.4873 68.5625 95.9818 68.4668 96.5469 68.4668C97.1439 68.4668 97.668 68.583 98.1191 68.8154C98.5749 69.0479 98.9303 69.376 99.1855 69.7998C99.4453 70.2236 99.5798 70.7227 99.5889 71.2969H97.8867C97.8776 71.0326 97.8184 70.7956 97.709 70.5859C97.5996 70.3763 97.4447 70.2077 97.2441 70.0801C97.0436 69.9525 96.7998 69.8887 96.5127 69.8887C96.2074 69.8887 95.9521 69.9525 95.7471 70.0801C95.5465 70.2077 95.3893 70.3831 95.2754 70.6064C95.166 70.8252 95.0885 71.0713 95.043 71.3447C95.002 71.6136 94.9814 71.8962 94.9814 72.1924V72.4111C94.9814 72.7119 95.002 72.999 95.043 73.2725C95.0885 73.5459 95.166 73.792 95.2754 74.0107C95.3893 74.2249 95.5465 74.3958 95.7471 74.5234C95.9521 74.651 96.2119 74.7148 96.5264 74.7148ZM102.959 75.1797L104.941 68.6035H106.876L103.909 77.1211C103.841 77.3034 103.752 77.5016 103.643 77.7158C103.538 77.93 103.396 78.1328 103.219 78.3242C103.041 78.5202 102.818 78.6797 102.549 78.8027C102.285 78.9258 101.963 78.9873 101.585 78.9873C101.421 78.9873 101.275 78.9759 101.147 78.9531C101.02 78.9303 100.885 78.9007 100.744 78.8643V77.5107C100.79 77.5153 100.842 77.5176 100.901 77.5176C100.965 77.5221 101.02 77.5244 101.065 77.5244C101.33 77.5244 101.549 77.4925 101.722 77.4287C101.895 77.3695 102.034 77.2715 102.139 77.1348C102.248 77.0026 102.339 76.8294 102.412 76.6152L102.959 75.1797ZM101.981 68.6035L103.656 74.0518L103.95 75.959L102.706 76.1846L100.033 68.6035H101.981ZM110.916 72.377V72.2334C110.916 71.6911 110.993 71.1921 111.148 70.7363C111.303 70.276 111.529 69.8773 111.825 69.54C112.121 69.2028 112.484 68.9408 112.912 68.7539C113.34 68.5625 113.828 68.4668 114.375 68.4668C114.931 68.4668 115.423 68.5625 115.852 68.7539C116.285 68.9408 116.649 69.2028 116.945 69.54C117.242 69.8773 117.467 70.276 117.622 70.7363C117.777 71.1921 117.854 71.6911 117.854 72.2334V72.377C117.854 72.9147 117.777 73.4137 117.622 73.874C117.467 74.3298 117.242 74.7285 116.945 75.0703C116.649 75.4076 116.287 75.6696 115.858 75.8564C115.43 76.0433 114.94 76.1367 114.389 76.1367C113.842 76.1367 113.352 76.0433 112.919 75.8564C112.486 75.6696 112.121 75.4076 111.825 75.0703C111.529 74.7285 111.303 74.3298 111.148 73.874C110.993 73.4137 110.916 72.9147 110.916 72.377ZM112.721 72.2334V72.377C112.721 72.7005 112.753 73.0036 112.816 73.2861C112.88 73.5687 112.978 73.8171 113.11 74.0312C113.243 74.2454 113.413 74.4141 113.623 74.5371C113.837 74.6556 114.092 74.7148 114.389 74.7148C114.68 74.7148 114.931 74.6556 115.141 74.5371C115.35 74.4141 115.521 74.2454 115.653 74.0312C115.79 73.8171 115.89 73.5687 115.954 73.2861C116.018 73.0036 116.05 72.7005 116.05 72.377V72.2334C116.05 71.9144 116.018 71.6159 115.954 71.3379C115.89 71.0553 115.79 70.807 115.653 70.5928C115.521 70.374 115.348 70.2031 115.134 70.0801C114.924 69.9525 114.671 69.8887 114.375 69.8887C114.083 69.8887 113.833 69.9525 113.623 70.0801C113.413 70.2031 113.243 70.374 113.11 70.5928C112.978 70.807 112.88 71.0553 112.816 71.3379C112.753 71.6159 112.721 71.9144 112.721 72.2334ZM121.532 76H119.714V67.9199C119.714 67.3639 119.821 66.8968 120.035 66.5186C120.249 66.1357 120.555 65.8464 120.951 65.6504C121.348 65.4544 121.815 65.3564 122.353 65.3564C122.53 65.3564 122.699 65.3678 122.858 65.3906C123.022 65.4134 123.184 65.4453 123.344 65.4863L123.31 66.8604C123.223 66.8376 123.127 66.8216 123.022 66.8125C122.922 66.8034 122.811 66.7988 122.688 66.7988C122.441 66.7988 122.232 66.8421 122.059 66.9287C121.885 67.0153 121.753 67.1429 121.662 67.3115C121.576 67.4756 121.532 67.6784 121.532 67.9199V76ZM123.029 68.6035V69.9023H118.6V68.6035H123.029ZM129.688 74.2227L131.308 68.6035H132.456L132.114 70.5449L130.48 76H129.489L129.688 74.2227ZM128.792 68.6035L130.009 74.2363L130.118 76H128.977L127.035 68.6035H128.792ZM133.96 74.1543L135.149 68.6035H136.899L134.972 76H133.83L133.96 74.1543ZM132.634 68.6035L134.24 74.168L134.452 76H133.461L131.813 70.5449L131.479 68.6035H132.634ZM137.645 72.377V72.2334C137.645 71.6911 137.722 71.1921 137.877 70.7363C138.032 70.276 138.257 69.8773 138.554 69.54C138.85 69.2028 139.212 68.9408 139.641 68.7539C140.069 68.5625 140.557 68.4668 141.104 68.4668C141.66 68.4668 142.152 68.5625 142.58 68.7539C143.013 68.9408 143.378 69.2028 143.674 69.54C143.97 69.8773 144.196 70.276 144.351 70.7363C144.506 71.1921 144.583 71.6911 144.583 72.2334V72.377C144.583 72.9147 144.506 73.4137 144.351 73.874C144.196 74.3298 143.97 74.7285 143.674 75.0703C143.378 75.4076 143.015 75.6696 142.587 75.8564C142.159 76.0433 141.669 76.1367 141.117 76.1367C140.57 76.1367 140.08 76.0433 139.647 75.8564C139.215 75.6696 138.85 75.4076 138.554 75.0703C138.257 74.7285 138.032 74.3298 137.877 73.874C137.722 73.4137 137.645 72.9147 137.645 72.377ZM139.449 72.2334V72.377C139.449 72.7005 139.481 73.0036 139.545 73.2861C139.609 73.5687 139.707 73.8171 139.839 74.0312C139.971 74.2454 140.142 74.4141 140.352 74.5371C140.566 74.6556 140.821 74.7148 141.117 74.7148C141.409 74.7148 141.66 74.6556 141.869 74.5371C142.079 74.4141 142.25 74.2454 142.382 74.0312C142.519 73.8171 142.619 73.5687 142.683 73.2861C142.746 73.0036 142.778 72.7005 142.778 72.377V72.2334C142.778 71.9144 142.746 71.6159 142.683 71.3379C142.619 71.0553 142.519 70.807 142.382 70.5928C142.25 70.374 142.076 70.2031 141.862 70.0801C141.653 69.9525 141.4 69.8887 141.104 69.8887C140.812 69.8887 140.561 69.9525 140.352 70.0801C140.142 70.2031 139.971 70.374 139.839 70.5928C139.707 70.807 139.609 71.0553 139.545 71.3379C139.481 71.6159 139.449 71.9144 139.449 72.2334ZM147.7 70.1143V76H145.896V68.6035H147.604L147.7 70.1143ZM149.949 68.5557L149.922 70.2373C149.822 70.2191 149.708 70.2054 149.58 70.1963C149.457 70.1872 149.341 70.1826 149.231 70.1826C148.953 70.1826 148.71 70.2214 148.5 70.2988C148.29 70.3717 148.115 70.4788 147.974 70.6201C147.837 70.7614 147.732 70.9346 147.659 71.1396C147.586 71.3402 147.545 71.568 147.536 71.8232L147.146 71.7754C147.146 71.306 147.194 70.8708 147.29 70.4697C147.386 70.0687 147.525 69.7178 147.707 69.417C147.889 69.1162 148.117 68.8838 148.391 68.7197C148.669 68.5511 148.988 68.4668 149.348 68.4668C149.448 68.4668 149.555 68.4759 149.669 68.4941C149.787 68.5078 149.881 68.5283 149.949 68.5557ZM155.24 74.4277V65.5H157.059V76H155.418L155.24 74.4277ZM150.489 72.3906V72.2471C150.489 71.682 150.553 71.1693 150.681 70.709C150.813 70.2441 151.004 69.8454 151.255 69.5127C151.506 69.18 151.809 68.9225 152.164 68.7402C152.524 68.5579 152.932 68.4668 153.388 68.4668C153.83 68.4668 154.215 68.5557 154.543 68.7334C154.876 68.9111 155.158 69.1641 155.391 69.4922C155.628 69.8203 155.817 70.21 155.958 70.6611C156.099 71.1077 156.202 71.5999 156.266 72.1377V72.5273C156.202 73.0514 156.099 73.5322 155.958 73.9697C155.817 74.4072 155.628 74.79 155.391 75.1182C155.158 75.4417 154.876 75.6924 154.543 75.8701C154.21 76.0479 153.821 76.1367 153.374 76.1367C152.923 76.1367 152.517 76.0433 152.157 75.8564C151.802 75.6696 151.499 75.4076 151.248 75.0703C151.002 74.7331 150.813 74.3366 150.681 73.8809C150.553 73.4251 150.489 72.9284 150.489 72.3906ZM152.301 72.2471V72.3906C152.301 72.7096 152.328 73.0081 152.383 73.2861C152.438 73.5641 152.526 73.8102 152.649 74.0244C152.772 74.234 152.93 74.3981 153.121 74.5166C153.317 74.6351 153.554 74.6943 153.832 74.6943C154.188 74.6943 154.479 74.6169 154.707 74.4619C154.939 74.3024 155.119 74.0859 155.247 73.8125C155.375 73.5345 155.457 73.2223 155.493 72.876V71.8027C155.475 71.5293 155.427 71.2764 155.35 71.0439C155.277 70.8115 155.172 70.611 155.035 70.4424C154.903 70.2738 154.739 70.1416 154.543 70.0459C154.347 69.9502 154.115 69.9023 153.846 69.9023C153.568 69.9023 153.331 69.9639 153.135 70.0869C152.939 70.2054 152.779 70.3717 152.656 70.5859C152.533 70.8001 152.442 71.0485 152.383 71.3311C152.328 71.6136 152.301 71.9189 152.301 72.2471ZM174.661 68.6035V76H172.85V68.6035H174.661ZM172.727 66.6689C172.727 66.4001 172.818 66.1768 173 65.999C173.187 65.8213 173.438 65.7324 173.752 65.7324C174.066 65.7324 174.315 65.8213 174.497 65.999C174.684 66.1768 174.777 66.4001 174.777 66.6689C174.777 66.9333 174.684 67.1543 174.497 67.332C174.315 67.5098 174.066 67.5986 173.752 67.5986C173.438 67.5986 173.187 67.5098 173 67.332C172.818 67.1543 172.727 66.9333 172.727 66.6689ZM178.154 70.1826V76H176.35V68.6035H178.045L178.154 70.1826ZM177.867 72.0352H177.334C177.339 71.4974 177.411 71.0098 177.553 70.5723C177.694 70.1348 177.892 69.7588 178.147 69.4443C178.407 69.1299 178.715 68.8883 179.07 68.7197C179.426 68.5511 179.822 68.4668 180.26 68.4668C180.615 68.4668 180.937 68.5169 181.224 68.6172C181.511 68.7174 181.757 68.877 181.962 69.0957C182.172 69.3145 182.331 69.6016 182.44 69.957C182.554 70.3079 182.611 70.7409 182.611 71.2559V76H180.793V71.2422C180.793 70.9049 180.743 70.6383 180.643 70.4424C180.547 70.2464 180.406 70.1074 180.219 70.0254C180.036 69.9434 179.811 69.9023 179.542 69.9023C179.264 69.9023 179.02 69.9593 178.811 70.0732C178.605 70.1826 178.432 70.3353 178.291 70.5312C178.154 70.7272 178.049 70.9528 177.977 71.208C177.904 71.4632 177.867 71.7389 177.867 72.0352ZM190.726 74.7148C190.981 74.7148 191.209 74.6647 191.409 74.5645C191.61 74.4642 191.769 74.3229 191.888 74.1406C192.011 73.9583 192.077 73.7464 192.086 73.5049H193.788C193.779 74.0062 193.638 74.4551 193.364 74.8516C193.091 75.248 192.726 75.5625 192.271 75.7949C191.819 76.0228 191.313 76.1367 190.753 76.1367C190.183 76.1367 189.687 76.041 189.263 75.8496C188.839 75.6582 188.486 75.3916 188.203 75.0498C187.925 74.708 187.715 74.3115 187.574 73.8604C187.438 73.4092 187.369 72.9261 187.369 72.4111V72.1924C187.369 71.6774 187.438 71.1943 187.574 70.7432C187.715 70.292 187.925 69.8955 188.203 69.5537C188.486 69.2119 188.839 68.9453 189.263 68.7539C189.687 68.5625 190.181 68.4668 190.746 68.4668C191.343 68.4668 191.867 68.583 192.318 68.8154C192.774 69.0479 193.13 69.376 193.385 69.7998C193.645 70.2236 193.779 70.7227 193.788 71.2969H192.086C192.077 71.0326 192.018 70.7956 191.908 70.5859C191.799 70.3763 191.644 70.2077 191.443 70.0801C191.243 69.9525 190.999 69.8887 190.712 69.8887C190.407 69.8887 190.151 69.9525 189.946 70.0801C189.746 70.2077 189.589 70.3831 189.475 70.6064C189.365 70.8252 189.288 71.0713 189.242 71.3447C189.201 71.6136 189.181 71.8962 189.181 72.1924V72.4111C189.181 72.7119 189.201 72.999 189.242 73.2725C189.288 73.5459 189.365 73.792 189.475 74.0107C189.589 74.2249 189.746 74.3958 189.946 74.5234C190.151 74.651 190.411 74.7148 190.726 74.7148ZM196.905 65.5V76H195.094V65.5H196.905ZM202.702 74.4277V71.0166C202.702 70.766 202.659 70.5495 202.572 70.3672C202.486 70.1849 202.354 70.0436 202.176 69.9434C201.998 69.8431 201.772 69.793 201.499 69.793C201.257 69.793 201.046 69.834 200.863 69.916C200.686 69.998 200.549 70.1143 200.453 70.2646C200.357 70.4105 200.31 70.5791 200.31 70.7705H198.498C198.498 70.4652 198.571 70.1758 198.717 69.9023C198.863 69.6243 199.07 69.3783 199.339 69.1641C199.612 68.9453 199.938 68.7744 200.316 68.6514C200.699 68.5283 201.128 68.4668 201.602 68.4668C202.162 68.4668 202.661 68.5625 203.099 68.7539C203.541 68.9408 203.887 69.2233 204.138 69.6016C204.393 69.9798 204.521 70.4561 204.521 71.0303V74.2568C204.521 74.626 204.543 74.9427 204.589 75.207C204.639 75.4668 204.712 75.6924 204.808 75.8838V76H202.969C202.882 75.8132 202.816 75.5762 202.771 75.2891C202.725 74.9974 202.702 74.7103 202.702 74.4277ZM202.955 71.4951L202.969 72.5684H201.827C201.545 72.5684 201.296 72.598 201.082 72.6572C200.868 72.7119 200.692 72.7939 200.556 72.9033C200.419 73.0081 200.316 73.1357 200.248 73.2861C200.18 73.432 200.146 73.5983 200.146 73.7852C200.146 73.9674 200.187 74.1315 200.269 74.2773C200.355 74.4232 200.478 74.5394 200.638 74.626C200.802 74.708 200.993 74.749 201.212 74.749C201.531 74.749 201.809 74.6852 202.046 74.5576C202.283 74.4255 202.467 74.266 202.6 74.0791C202.732 73.8923 202.802 73.7145 202.812 73.5459L203.331 74.3252C203.267 74.512 203.172 74.7103 203.044 74.9199C202.916 75.1296 202.752 75.3255 202.552 75.5078C202.351 75.6901 202.11 75.8405 201.827 75.959C201.545 76.0775 201.216 76.1367 200.843 76.1367C200.364 76.1367 199.936 76.041 199.558 75.8496C199.179 75.6582 198.881 75.3962 198.662 75.0635C198.443 74.7308 198.334 74.3525 198.334 73.9287C198.334 73.5368 198.407 73.1904 198.553 72.8896C198.699 72.5889 198.915 72.3359 199.202 72.1309C199.489 71.9212 199.845 71.764 200.269 71.6592C200.697 71.5498 201.187 71.4951 201.738 71.4951H202.955ZM210.215 73.9766C210.215 73.8216 210.174 73.6826 210.092 73.5596C210.01 73.4365 209.855 73.3249 209.627 73.2246C209.404 73.1198 209.076 73.0218 208.643 72.9307C208.26 72.8486 207.907 72.7461 207.583 72.623C207.259 72.5 206.981 72.3519 206.749 72.1787C206.517 72.001 206.334 71.7936 206.202 71.5566C206.075 71.3151 206.011 71.0371 206.011 70.7227C206.011 70.4173 206.077 70.1302 206.209 69.8613C206.341 69.5879 206.533 69.3486 206.783 69.1436C207.034 68.9339 207.339 68.7699 207.699 68.6514C208.059 68.5283 208.465 68.4668 208.916 68.4668C209.545 68.4668 210.085 68.5693 210.536 68.7744C210.992 68.9795 211.34 69.262 211.582 69.6221C211.824 69.9775 211.944 70.3786 211.944 70.8252H210.14C210.14 70.6292 210.094 70.4515 210.003 70.292C209.916 70.1325 209.782 70.0049 209.6 69.9092C209.417 69.8089 209.187 69.7588 208.909 69.7588C208.659 69.7588 208.447 69.7998 208.273 69.8818C208.105 69.9639 207.977 70.071 207.891 70.2031C207.804 70.3353 207.761 70.4811 207.761 70.6406C207.761 70.7591 207.784 70.8662 207.829 70.9619C207.879 71.0531 207.959 71.1374 208.068 71.2148C208.178 71.2923 208.326 71.363 208.513 71.4268C208.704 71.4906 208.939 71.5521 209.217 71.6113C209.768 71.7207 210.249 71.8665 210.659 72.0488C211.074 72.2266 211.397 72.4635 211.63 72.7598C211.862 73.056 211.979 73.4342 211.979 73.8945C211.979 74.2227 211.908 74.5234 211.767 74.7969C211.625 75.0658 211.42 75.3005 211.151 75.501C210.882 75.7015 210.561 75.8587 210.188 75.9727C209.814 76.082 209.392 76.1367 208.923 76.1367C208.244 76.1367 207.67 76.016 207.2 75.7744C206.731 75.5283 206.375 75.2184 206.134 74.8447C205.892 74.4665 205.771 74.0745 205.771 73.6689H207.501C207.515 73.9561 207.592 74.1862 207.733 74.3594C207.875 74.5326 208.052 74.6579 208.267 74.7354C208.485 74.8083 208.715 74.8447 208.957 74.8447C209.23 74.8447 209.461 74.8083 209.647 74.7354C209.834 74.6579 209.976 74.5553 210.071 74.4277C210.167 74.2956 210.215 74.1452 210.215 73.9766ZM217.42 73.9766C217.42 73.8216 217.379 73.6826 217.297 73.5596C217.215 73.4365 217.06 73.3249 216.832 73.2246C216.609 73.1198 216.281 73.0218 215.848 72.9307C215.465 72.8486 215.112 72.7461 214.788 72.623C214.465 72.5 214.187 72.3519 213.954 72.1787C213.722 72.001 213.539 71.7936 213.407 71.5566C213.28 71.3151 213.216 71.0371 213.216 70.7227C213.216 70.4173 213.282 70.1302 213.414 69.8613C213.546 69.5879 213.738 69.3486 213.988 69.1436C214.239 68.9339 214.544 68.7699 214.904 68.6514C215.264 68.5283 215.67 68.4668 216.121 68.4668C216.75 68.4668 217.29 68.5693 217.741 68.7744C218.197 68.9795 218.546 69.262 218.787 69.6221C219.029 69.9775 219.149 70.3786 219.149 70.8252H217.345C217.345 70.6292 217.299 70.4515 217.208 70.292C217.121 70.1325 216.987 70.0049 216.805 69.9092C216.622 69.8089 216.392 69.7588 216.114 69.7588C215.864 69.7588 215.652 69.7998 215.479 69.8818C215.31 69.9639 215.182 70.071 215.096 70.2031C215.009 70.3353 214.966 70.4811 214.966 70.6406C214.966 70.7591 214.989 70.8662 215.034 70.9619C215.084 71.0531 215.164 71.1374 215.273 71.2148C215.383 71.2923 215.531 71.363 215.718 71.4268C215.909 71.4906 216.144 71.5521 216.422 71.6113C216.973 71.7207 217.454 71.8665 217.864 72.0488C218.279 72.2266 218.603 72.4635 218.835 72.7598C219.067 73.056 219.184 73.4342 219.184 73.8945C219.184 74.2227 219.113 74.5234 218.972 74.7969C218.83 75.0658 218.625 75.3005 218.356 75.501C218.088 75.7015 217.766 75.8587 217.393 75.9727C217.019 76.082 216.597 76.1367 216.128 76.1367C215.449 76.1367 214.875 76.016 214.405 75.7744C213.936 75.5283 213.58 75.2184 213.339 74.8447C213.097 74.4665 212.977 74.0745 212.977 73.6689H214.706C214.72 73.9561 214.797 74.1862 214.938 74.3594C215.08 74.5326 215.257 74.6579 215.472 74.7354C215.69 74.8083 215.921 74.8447 216.162 74.8447C216.436 74.8447 216.666 74.8083 216.853 74.7354C217.039 74.6579 217.181 74.5553 217.276 74.4277C217.372 74.2956 217.42 74.1452 217.42 73.9766Z" fill="#ABA9A9"/>
<path d="M163.594 68.6035L164.913 70.9551L166.253 68.6035H168.215L166.041 72.2266L168.304 76H166.342L164.927 73.5322L163.505 76H161.543L163.799 72.2266L161.639 68.6035H163.594ZM227.079 74.7148C227.334 74.7148 227.562 74.6647 227.763 74.5645C227.963 74.4642 228.123 74.3229 228.241 74.1406C228.364 73.9583 228.43 73.7464 228.439 73.5049H230.142C230.132 74.0062 229.991 74.4551 229.718 74.8516C229.444 75.248 229.08 75.5625 228.624 75.7949C228.173 76.0228 227.667 76.1367 227.106 76.1367C226.537 76.1367 226.04 76.041 225.616 75.8496C225.192 75.6582 224.839 75.3916 224.557 75.0498C224.279 74.708 224.069 74.3115 223.928 73.8604C223.791 73.4092 223.723 72.9261 223.723 72.4111V72.1924C223.723 71.6774 223.791 71.1943 223.928 70.7432C224.069 70.292 224.279 69.8955 224.557 69.5537C224.839 69.2119 225.192 68.9453 225.616 68.7539C226.04 68.5625 226.535 68.4668 227.1 68.4668C227.697 68.4668 228.221 68.583 228.672 68.8154C229.128 69.0479 229.483 69.376 229.738 69.7998C229.998 70.2236 230.132 70.7227 230.142 71.2969H228.439C228.43 71.0326 228.371 70.7956 228.262 70.5859C228.152 70.3763 227.997 70.2077 227.797 70.0801C227.596 69.9525 227.353 69.8887 227.065 69.8887C226.76 69.8887 226.505 69.9525 226.3 70.0801C226.099 70.2077 225.942 70.3831 225.828 70.6064C225.719 70.8252 225.641 71.0713 225.596 71.3447C225.555 71.6136 225.534 71.8962 225.534 72.1924V72.4111C225.534 72.7119 225.555 72.999 225.596 73.2725C225.641 73.5459 225.719 73.792 225.828 74.0107C225.942 74.2249 226.099 74.3958 226.3 74.5234C226.505 74.651 226.765 74.7148 227.079 74.7148Z" fill="#0277BD"/>
<path d="M19.9297 68.5469V70.0312H15.0859V68.5469H19.9297ZM16.3828 66.4688H18.4531V74.5625C18.4531 74.8125 18.487 75.0052 18.5547 75.1406C18.6224 75.276 18.724 75.3672 18.8594 75.4141C18.9948 75.4609 19.1562 75.4844 19.3438 75.4844C19.4792 75.4844 19.6042 75.4766 19.7188 75.4609C19.8333 75.4453 19.9297 75.4297 20.0078 75.4141L20.0156 76.9609C19.8438 77.0182 19.6484 77.0651 19.4297 77.1016C19.2161 77.138 18.974 77.1562 18.7031 77.1562C18.2396 77.1562 17.8333 77.0781 17.4844 76.9219C17.1354 76.7604 16.8646 76.5026 16.6719 76.1484C16.4792 75.7891 16.3828 75.3151 16.3828 74.7266V66.4688ZM24.0078 77H21.9297V67.7656C21.9297 67.1302 22.0521 66.5964 22.2969 66.1641C22.5417 65.7266 22.8906 65.3958 23.3438 65.1719C23.7969 64.9479 24.3307 64.8359 24.9453 64.8359C25.1484 64.8359 25.3411 64.849 25.5234 64.875C25.7109 64.901 25.8958 64.9375 26.0781 64.9844L26.0391 66.5547C25.9401 66.5286 25.8307 66.5104 25.7109 66.5C25.5964 66.4896 25.4688 66.4844 25.3281 66.4844C25.0469 66.4844 24.8073 66.5339 24.6094 66.6328C24.4115 66.7318 24.2604 66.8776 24.1562 67.0703C24.0573 67.2578 24.0078 67.4896 24.0078 67.7656V77ZM25.7188 68.5469V70.0312H20.6562V68.5469H25.7188Z" fill="black"/>
<path d="M24.8566 75.7734L25.5089 77.3086L26.6573 75.7734H27.5284L25.8331 77.8945L26.8644 80H26.0948L25.3956 78.418L24.2042 80H23.3409L25.0831 77.8242L24.087 75.7734H24.8566ZM28.3409 79.1406L28.2472 79.7188C28.2029 80.0026 28.1027 80.2669 27.9464 80.5117C27.7902 80.7565 27.5988 80.9648 27.3722 81.1367L26.9816 80.8438C27.0727 80.7318 27.156 80.6172 27.2316 80.5C27.3071 80.3854 27.3709 80.2643 27.423 80.1367C27.4777 80.0091 27.5193 79.875 27.548 79.7344L27.6495 79.1406H28.3409ZM30.8409 79.4883C31.0128 79.4909 31.173 79.4583 31.3214 79.3906C31.4698 79.3229 31.5962 79.2266 31.7003 79.1016C31.8045 78.9766 31.8787 78.832 31.923 78.668L32.5948 78.6641C32.5532 78.9479 32.4425 79.1966 32.2628 79.4102C32.0857 79.6237 31.8683 79.7904 31.6105 79.9102C31.3553 80.0273 31.0883 80.0833 30.8097 80.0781C30.5128 80.0729 30.2602 80.0117 30.0519 79.8945C29.8462 79.7747 29.6808 79.6159 29.5558 79.418C29.4308 79.2201 29.3448 78.9974 29.298 78.75C29.2511 78.5 29.2407 78.2435 29.2667 77.9805L29.2823 77.8125C29.3136 77.5286 29.3826 77.2591 29.4894 77.0039C29.5962 76.7461 29.7381 76.5182 29.9152 76.3203C30.0948 76.1198 30.3071 75.9635 30.5519 75.8516C30.7967 75.7396 31.0714 75.6875 31.3761 75.6953C31.673 75.7005 31.9308 75.7708 32.1495 75.9062C32.3683 76.0391 32.5376 76.2201 32.6573 76.4492C32.7771 76.6784 32.837 76.9388 32.837 77.2305L32.173 77.2266C32.1704 77.0599 32.1378 76.9062 32.0753 76.7656C32.0128 76.625 31.9204 76.5117 31.798 76.4258C31.6756 76.3398 31.5245 76.293 31.3448 76.2852C31.1287 76.2799 30.9399 76.3203 30.7784 76.4062C30.6196 76.4922 30.4842 76.6107 30.3722 76.7617C30.2628 76.9102 30.1756 77.0755 30.1105 77.2578C30.048 77.4401 30.005 77.625 29.9816 77.8125L29.962 77.9766C29.9464 78.1432 29.9438 78.3138 29.9542 78.4883C29.9672 78.6628 30.0037 78.8255 30.0636 78.9766C30.1235 79.125 30.2159 79.2461 30.3409 79.3398C30.4659 79.4336 30.6326 79.4831 30.8409 79.4883Z" fill="#0277BD"/>
</svg>
